<svg width="224" height="40" viewBox="0 0 224 40" fill="none" xmlns="http://www.w3.org/2000/svg">
<path d="M0.00701789 14.9296C0.00701789 32.3944 -0.500024 31.2676 7.10561 31.2676C11.2183 31.2676 11.838 31.0986 13.6972 29.6902C16.6831 27.4366 17.6972 25.1831 17.6408 20.7324C17.6408 16.3944 16.5141 13.9719 13.5281 12C11.1619 10.3662 7.72533 10.3099 5.19012 11.831C4.17603 12.4507 3.21829 12.9578 3.10561 12.9578C2.9366 12.9578 2.82392 10.0282 2.82392 6.4789V2.47955e-05H1.41547H0.00701789V14.9296ZM10.5986 13.5775C13.2465 14.4789 14.6549 17.1831 14.6549 21.4085C14.6549 24.6197 14.4859 25.0704 12.7394 26.8169C11.0493 28.5071 10.4859 28.7324 7.72533 28.7324C2.71124 28.7324 2.82392 28.9014 2.82392 21.9719C2.82392 15.493 3.10561 14.8169 6.2042 13.5775C8.06336 12.8451 8.51406 12.8451 10.5986 13.5775Z" fill="white"/>
<path d="M22.5423 15.493V30.986H23.9507H25.3592V15.493V4.76837e-05H23.9507H22.5423V15.493Z" fill="white"/>
<path d="M29.8661 18.8169V27.6057L31.4436 29.3521C32.7393 30.7606 33.5844 31.155 35.8379 31.3803C38.1478 31.6057 38.9365 31.4367 40.7393 30.1972C43.3309 28.4507 43.3872 28.4507 43.3872 29.8592C43.3872 30.7043 43.7816 30.9859 44.7957 30.9859H46.2041L46.0914 20.6761C45.9224 10.5352 45.9224 10.4226 44.683 10.2536C43.3872 10.0845 43.3872 10.1409 43.3872 17.0141C43.3872 21.4085 43.1055 24.4507 42.6548 25.2958C41.5844 27.4367 39.1055 28.9578 36.852 28.9014C33.3027 28.7888 33.021 28.0564 32.683 18.7043C32.4013 10.6479 32.345 10.4226 31.1619 10.2536L29.8661 10.0845V18.8169Z" fill="white"/>
<path d="M54.5422 11.3239C51.2746 13.014 49.9788 16.0563 50.2605 21.4648C50.4295 26.1408 51.2183 27.8309 54.3169 30.0845C56.6267 31.8309 62.5986 31.7746 65.5281 29.9155C67.3873 28.7887 67.6126 28.4507 66.9366 27.7746C66.2605 27.0986 65.7535 27.2112 63.4436 28.169C58.8239 30.2535 54.2042 28.3943 53.0774 24L52.6267 22.2535L60.4014 22.0845L68.176 21.9155V19.8309C68.176 16.9577 66.0352 12.9577 63.7253 11.4366C61.3028 9.80278 57.4155 9.74644 54.5422 11.3239ZM61.6408 12.9577C63.2183 13.5211 65.3591 16.5633 65.3591 18.1408C65.3591 19.0422 64.6831 19.1549 59.1056 19.1549H52.8521L53.2464 17.5774C54.2605 13.2957 57.6408 11.4366 61.6408 12.9577Z" fill="white"/>
<path d="M72.1198 20.9014V31.6056L73.4155 31.4366C74.5986 31.2676 74.655 31.0422 74.9367 23.8309C75.2183 16.3943 75.2183 16.338 76.9085 14.6478C79.3874 12.2253 82.1479 11.8309 84.2888 13.6901L85.9226 15.0986L86.0916 23.3802C86.3169 31.4366 86.3169 31.6056 87.5 31.4366C88.6831 31.2676 88.7395 30.9295 89.0212 23.0985L89.3029 14.9859L91.2183 13.6901C93.6409 12.0563 95.331 12.0563 97.3029 13.7464C98.8803 15.0986 98.8803 15.0986 99.0493 23.3239L99.2183 31.5493H100.627H101.979V24.0563C101.979 20 101.697 15.6619 101.359 14.4788C100.12 9.97179 94.2043 8.78869 89.8099 12.1126C88.0071 13.5211 87.669 13.5774 87.2183 12.7324C86.4859 11.4366 83.7254 10.1408 81.6972 10.1408C79.7254 10.1408 78.0916 10.8732 76.2324 12.5633L74.9367 13.6901V11.9436C74.9367 10.4225 74.7113 10.1408 73.5282 10.1408H72.1198V20.9014Z" fill="white"/>
<path d="M111.275 10.9296C108.908 11.9436 106.599 14.8169 106.148 17.2394C105.584 20.3943 106.261 25.9155 107.444 27.4929C109.641 30.4788 111.387 31.2676 115.387 31.2676C118.373 31.2676 119.613 30.9859 121.303 29.9155C123.162 28.7887 123.387 28.4507 122.711 27.7746C122.035 27.0986 121.528 27.2112 119.218 28.2253C117.303 29.0704 115.951 29.2957 114.599 29.0141C112.12 28.5634 109.415 26.1408 108.796 23.7746L108.232 21.9718H116.12H123.951V19.831C123.951 16.9577 121.866 12.9577 119.5 11.4366C117.303 9.9718 113.922 9.74645 111.275 10.9296ZM117.415 12.9577C118.993 13.5211 121.134 16.5634 121.134 18.1408C121.134 19.0422 120.458 19.1549 114.937 19.1549C108.007 19.1549 107.669 18.9296 109.866 15.3239C111.5 12.6197 114.317 11.7746 117.415 12.9577Z" fill="white"/>
<path d="M136.345 10.7606C135.556 11.0987 133.979 12.2254 132.852 13.4085L130.711 15.4367V13.0705C130.711 10.9296 130.599 10.7043 129.303 10.7043H127.894L128.007 20.9578C128.176 31.155 128.176 31.2677 129.472 31.4367C130.711 31.6057 130.711 31.5494 130.711 25.6902C130.711 22.4789 130.937 19.155 131.218 18.4226C132.063 16.2818 134.599 14.2536 137.303 13.5775C139.331 13.0142 139.725 12.7325 139.725 11.5494C139.725 10.0282 138.824 9.80289 136.345 10.7606Z" fill="white"/>
<path d="M148.176 10.5352C146.204 11.2676 144.12 13.1831 143.106 15.2112C141.753 17.8591 141.584 23.3239 142.768 26.1408C144.458 30.1972 149.246 32.169 155.162 31.3239C157.359 30.9859 157.753 30.7042 157.753 29.6338C157.753 28.3943 157.641 28.338 153.979 28.5634C149.528 28.845 147.951 28.169 146.091 25.4084C143.669 21.8028 144.796 16.169 148.401 13.8028C149.866 12.845 154.092 12.845 156.232 13.7465C157.021 14.1408 157.19 13.9155 157.19 12.7887C157.19 11.7183 156.796 11.2112 155.444 10.7605C153.584 10.1408 149.641 9.9718 148.176 10.5352Z" fill="white"/>
<path d="M162.092 10.5352C161.303 11.2676 161.641 25.8591 162.486 27.8873C164.063 31.5493 169.359 32.7324 173.134 30.1971L175.162 28.7887L175.331 30.0281C175.444 30.8169 175.951 31.3239 176.796 31.4366L178.035 31.6056V20.845V10.0845L176.796 10.2535C175.556 10.4225 175.5 10.6478 175.218 18.0845C174.88 26.6478 174.542 27.5493 170.937 28.7324C169.472 29.2394 168.683 29.1831 167.5 28.6197C164.965 27.4366 164.514 25.8028 164.514 17.5774C164.514 10.7605 164.458 10.1408 163.5 10.1408C162.937 10.1408 162.261 10.3098 162.092 10.5352Z" fill="white"/>
<path d="M190.711 11.0422C189.81 11.4929 188.176 12.676 187.218 13.6901L185.359 15.4366V13.0704C185.359 10.9295 185.246 10.7042 183.951 10.7042H182.542L182.655 20.9577C182.824 31.1549 182.824 31.2676 184.12 31.4366C185.359 31.6056 185.359 31.5493 185.359 25.6338C185.359 21.3521 185.641 19.0422 186.204 17.8028C187.106 15.9436 189.979 13.9718 192.852 13.2957C193.979 13.0141 194.373 12.6197 194.373 11.5493C194.373 9.85913 193.246 9.74645 190.711 11.0422Z" fill="white"/>
<path d="M198.148 10.5352C198.035 10.7606 199.613 14.5915 201.753 19.0423L205.584 27.0986L202.204 33.5775L198.768 40H200.401C201.923 40 202.317 39.2676 209.472 25.4085C213.528 17.4084 216.908 10.7042 216.908 10.4789C216.908 10.3099 216.289 10.1408 215.5 10.1408C214.261 10.1408 213.697 10.9859 210.655 16.9577C208.796 20.7324 207.106 23.6056 206.88 23.3803C206.655 23.1549 205.19 20.169 203.613 16.7324C201.472 11.8873 200.514 10.3662 199.613 10.2535C198.937 10.1408 198.317 10.2535 198.148 10.5352Z" fill="white"/>
<path d="M219.838 11.0423C218.204 12.169 218.26 13.8592 219.951 14.9296C221.979 16.2817 223.782 15.2113 223.556 12.8451C223.444 11.8873 222.993 10.9859 222.542 10.8169C221.866 10.5916 221.81 10.7042 222.429 11.324C224.12 13.1268 222.429 15.7747 220.345 14.6479C218.824 13.8592 218.824 12.169 220.458 11.0986C221.134 10.5916 221.584 10.1972 221.415 10.1972C221.246 10.1409 220.514 10.5352 219.838 11.0423Z" fill="white"/>
<path d="M220.289 12.676C220.289 14.1972 222.26 14.4225 222.373 12.9014C222.43 12.338 222.26 11.831 221.922 11.831C221.641 11.831 221.415 12.169 221.415 12.507C221.415 13.0141 221.19 12.9577 220.852 12.3943C220.401 11.7183 220.289 11.7746 220.289 12.676Z" fill="white"/>
</svg>
