<svg width="263" height="40" viewBox="0 0 263 40" fill="none" xmlns="http://www.w3.org/2000/svg">
<path d="M162.034 2.83443C158.048 3.20685 154.71 4.67581 152.076 7.20685C148.903 10.262 147.172 14.531 147.172 19.3103C147.172 24.5793 149.283 29.2275 153.069 32.2965C155.352 34.1448 157.965 35.2344 161.172 35.6896C162.317 35.8482 165.159 35.8275 166.372 35.6551C171.441 34.9103 175.565 32.131 177.952 27.862C179.138 25.7517 179.786 23.6413 180.034 21.1034C180.683 14.5379 177.862 8.44823 172.69 5.24133C170.752 4.03443 168.545 3.26202 166.069 2.92409C165.152 2.79995 162.931 2.74478 162.034 2.83443ZM165.241 7.38616C166.641 7.55857 168.048 7.97926 169.159 8.55167C171.379 9.7034 173.179 11.7172 174.124 14.1034C175.096 16.5724 175.345 19.3862 174.828 22.1103C174.345 24.6 173.365 26.5034 171.69 28.1724C169.924 29.9448 168.117 30.8206 165.448 31.2137C164.269 31.3862 162.138 31.3172 160.993 31.0758C157.717 30.3862 155.255 28.5586 153.669 25.6551C152.269 23.0758 151.828 19.3448 152.545 16.0965C153.076 13.6896 154.365 11.4275 156.034 9.97236C157.669 8.55167 159.662 7.68961 162 7.38616C162.655 7.3034 164.572 7.2965 165.241 7.38616Z" fill="white"/>
<path d="M10.7241 3.02751C9.43448 3.17923 8.32414 3.51717 7.24138 4.07579C4.86207 5.31717 3.11034 7.70337 2.65517 10.3379C2.41379 11.6896 2.6069 13.5792 3.10345 14.8827C3.93793 17.062 5.53103 18.7034 8.31034 20.2551C8.65517 20.4482 9.93793 21.1034 11.1724 21.7103C13.7448 22.9792 14.4897 23.4413 15.3172 24.2758C16.0207 24.9792 16.3517 25.5861 16.4897 26.4137C16.6345 27.3241 16.3862 28.5861 15.9172 29.331C15.4 30.1447 14.2621 30.8965 13.0552 31.2275C12.4276 31.393 12.2759 31.4068 10.9655 31.4068C9.75172 31.4068 9.44828 31.3861 8.84828 31.2551C7.57931 30.9792 6.22759 30.4689 5.04828 29.8137C4.71724 29.6344 4.42069 29.4827 4.3931 29.4827C4.36552 29.4827 4.14483 29.9447 3.90345 30.5172C3.66207 31.0827 3.24828 32.0137 2.97241 32.5792C2.6 33.3516 2.50345 33.6275 2.56552 33.6689C2.61379 33.6965 2.97931 33.8689 3.37931 34.0413C4.90345 34.7172 6.4069 35.1792 8 35.462C9.17931 35.6689 12.069 35.6896 13.1379 35.4896C16.3862 34.8965 18.8621 33.2275 20.0276 30.862C20.6759 29.5516 20.9241 28.3999 20.9172 26.7241C20.9172 25.4896 20.8069 24.7379 20.4828 23.7241C20.0965 22.531 19.331 21.3379 18.3103 20.3379C16.9655 19.0206 15.8276 18.2758 12.3724 16.462C9.68965 15.0551 8.61379 14.2827 7.93793 13.2758C7.48276 12.5861 7.31034 12.0344 7.31034 11.2137C7.31034 9.78613 7.83448 8.69648 8.86896 7.95855C10.4345 6.8413 12.9862 6.75165 15.4828 7.73096C16.1862 7.99992 17.2483 8.58613 17.7241 8.96544C17.869 9.07579 18.0138 9.17234 18.0414 9.17234C18.1172 9.17234 19.5379 5.12406 19.5034 5.02061C19.469 4.93096 18.0069 4.28268 17.1034 3.96544C16.1241 3.62751 14.7448 3.27579 13.8414 3.14475C12.9517 3.00682 11.3862 2.95165 10.7241 3.02751Z" fill="white"/>
<path d="M35.8966 3.6689C35.8828 3.71718 35.8828 4.31718 35.8897 4.99994C35.9035 5.68269 35.9172 12.7034 35.9172 20.5999L35.931 34.9655H45.7931H55.6552V32.931V30.8965H48.2414H40.8276V25.5861V20.2758H46.069H51.3103V18.3103V16.3448H46.069H40.8276V12.0689V7.79304H48.2276H55.6207L55.6069 5.71028L55.5862 3.62062L45.7586 3.59994C37.9241 3.58614 35.9241 3.59994 35.8966 3.6689Z" fill="white"/>
<path d="M72.6207 19.2758V34.9655H75.0689H77.5172V29.0344V23.1034H77.8827C78.0758 23.1034 79.5931 23.0551 81.2414 22.9999C83.6207 22.9241 84.4138 22.8758 85.0689 22.7586C89.7517 21.9586 92.6827 19.2413 93.4069 15.0344C93.5655 14.1172 93.6207 12.531 93.5241 11.6482C93.3586 10.1517 92.9172 8.80684 92.2414 7.78615C91.8069 7.13787 90.8 6.12408 90.1517 5.69649C88.6896 4.73097 86.7103 4.0689 84.4482 3.79304C83.8414 3.71718 78.0414 3.59994 74.4345 3.59304L72.6207 3.58615V19.2758ZM83.5517 7.73097C85.5379 7.96546 87.2207 8.69649 88.1793 9.74477C88.9034 10.531 89.2482 11.3586 89.3862 12.593C89.5724 14.3792 89.1172 15.862 88.0345 16.931C87.1103 17.8482 85.9862 18.3448 84 18.731C83.5379 18.8206 82.8138 18.8482 80.5379 18.8758L77.6551 18.9103V13.2827V7.65511L79.1931 7.63442C81.1241 7.59994 82.7517 7.64132 83.5517 7.73097Z" fill="white"/>
<path d="M194.172 3.66894C194.152 3.71721 194.145 10.7724 194.152 19.3448L194.172 34.931H196.621H199.069L199.09 28.3724L199.103 21.8069L200.814 21.7655C201.752 21.7379 202.8 21.7034 203.138 21.6827L203.759 21.6414L208.2 28.2551C210.648 31.8896 212.683 34.8827 212.717 34.9103C212.8 34.9724 218.621 34.9862 218.621 34.931C218.621 34.8965 209.593 21.9862 208.993 21.1724L208.765 20.8551L209.448 20.5655C211.145 19.8276 212.545 18.5655 213.31 17.0689C213.938 15.8345 214.172 14.6207 214.117 12.8689C213.972 8.08273 211.483 5.04135 206.959 4.11032C205.669 3.84825 205.138 3.79997 202.586 3.73101C197.869 3.59997 194.207 3.57239 194.172 3.66894ZM204.759 7.61377C207.565 8.11032 209.228 9.40687 209.731 11.4896C209.924 12.2758 209.938 13.5379 209.772 14.2207C209.352 15.9241 208.007 17.1103 205.855 17.6896C204.703 17.9931 203.703 18.0758 201.31 18.0551L199.138 18.0345L199.117 12.7379L199.103 7.43446L201.6 7.46894C203.531 7.48963 204.255 7.52411 204.759 7.61377Z" fill="white"/>
<path d="M240.759 3.82753C240.724 3.92408 238.421 10.9448 235.648 19.4275C232.869 27.9172 230.586 34.9034 230.565 34.9517C230.545 35.0206 231.034 35.0344 232.965 35.0206L235.4 34.9999L235.91 33.1379C236.703 30.2275 237.379 27.9034 237.455 27.8275C237.496 27.7862 239.89 27.7517 243.821 27.7379L250.117 27.7103L250.186 27.9034C250.276 28.1379 252.165 33.5379 252.483 34.462L252.71 35.1034H255.179C257.345 35.1034 257.655 35.0896 257.655 34.9999C257.655 34.9448 255.186 27.9999 252.165 19.5655C249.145 11.1379 246.628 4.11029 246.572 3.94477L246.469 3.65512H243.648H240.828L240.759 3.82753ZM246.179 16.462C247.579 20.6413 248.703 24.0758 248.683 24.0965C248.662 24.1172 246.379 24.131 243.607 24.1241L238.572 24.1034L241.014 16.4827C242.352 12.2896 243.462 8.81374 243.49 8.75856C243.524 8.66891 243.531 8.66891 243.579 8.75856C243.607 8.81374 244.779 12.2827 246.179 16.462Z" fill="white"/>
<path d="M107.531 19.393L107.552 34.9999H109.965H112.379L112.4 27.5999L112.414 20.2068H120.414H128.414V27.6206V35.0344L130.814 35.0206L133.207 34.9999L133.228 19.393L133.241 3.79304H130.828H128.414V9.93097V16.0689H120.414H112.414V9.93097V3.79304H109.965H107.517L107.531 19.393Z" fill="white"/>
</svg>
