<svg width="183" height="40" viewBox="0 0 183 40" fill="none" xmlns="http://www.w3.org/2000/svg">
<path d="M11.0698 0.29343C6.06774 1.63358 2.1348 6.68784 0.531073 13.8672C-0.0225942 16.3178 -0.17533 21.7932 0.225601 24.4161C1.31384 31.2891 4.54039 36.6114 8.96972 38.8322C10.8789 39.7895 12.1772 40.0575 14.5637 39.9618C16.2629 39.9043 16.6638 39.8086 17.8093 39.2726C19.7949 38.3344 21.9332 36.0945 23.136 33.6822C24.3006 31.3465 24.7588 29.5469 24.396 28.7811C24.2433 28.4748 23.8805 28.111 23.5751 27.9579C23.0978 27.7281 22.945 27.7473 22.3914 28.0153C21.9713 28.2068 21.7232 28.4939 21.6468 28.8386C21.2649 30.6765 21.0549 31.2508 20.3485 32.6101C18.7066 35.8073 16.6638 37.2623 14.1436 37.0709C10.3062 36.7837 7.57601 33.0313 6.04865 25.9668C5.6859 24.3012 5.62863 23.4014 5.62863 19.9936C5.62863 16.5283 5.6859 15.7051 6.04865 14.0012C7.06052 9.34899 8.14877 6.89844 10.0961 4.94565C11.528 3.49063 12.9408 2.82056 14.6782 2.78227C17.5038 2.72484 20.4631 5.82632 21.2649 9.65531C21.5704 11.1295 21.9904 11.6655 22.8687 11.6655C23.1741 11.6655 23.5751 11.4741 23.8424 11.1869C24.2242 10.7657 24.2624 10.5934 24.1669 9.44472C24.0906 8.41089 23.8996 7.79825 23.1741 6.38152C21.6468 3.35662 19.2985 1.19324 16.6256 0.37001C15.1555 -0.0894699 12.6163 -0.127758 11.0698 0.29343Z" fill="white"/>
<path d="M39.4787 0.255074C36.8822 0.982582 34.1139 3.14596 32.3192 5.86455C27.3172 13.4077 27.1071 25.0861 31.8229 33.1844C33.1211 35.4052 35.6985 37.9706 37.5886 38.8896C39.3451 39.7511 40.3188 39.9809 42.1707 40C44.9963 40 47.2873 39.0428 49.5975 36.8411C52.9004 33.7013 55.0005 29.0491 55.7451 23.229C56.0315 20.9125 55.8787 16.356 55.4396 14.25C53.9313 6.9941 49.8266 1.59522 44.7672 0.255074C43.5644 -0.0703888 40.6624 -0.0703888 39.4787 0.255074ZM44.4235 2.66734C46.9055 3.77775 49.1965 7.89391 50.0939 12.9099C50.5139 15.169 50.6857 21.6591 50.3993 24.2628C49.9984 28.0153 49.3875 30.2552 48.0319 33.0695C46.5618 36.1327 44.5763 37.7026 42.1707 37.7026C39.7269 37.7026 37.875 36.2093 36.3476 33.0312C34.4385 29.0108 33.8657 25.9093 33.8657 19.6106C33.8657 13.4459 34.4385 10.3253 36.1949 6.74522C38.085 2.87793 41.2925 1.2889 44.4235 2.66734Z" fill="white"/>
<path d="M66.6274 0.293316C64.0881 0.982533 61.9117 2.70558 60.8043 4.9264C60.0788 6.40056 59.8115 7.37695 59.6397 9.2723C59.4679 11.0911 59.7734 12.6035 60.7089 14.4989C61.9117 16.9686 63.3817 18.3279 68.5366 21.7165C74.8751 25.9093 76.3643 27.6132 76.4979 30.8295C76.6507 33.797 75.677 35.5775 73.2332 36.8219C71.954 37.4728 71.5531 37.5877 70.1976 37.6643C68.3075 37.76 66.6656 37.2814 65.2337 36.2475C62.1217 33.9501 61.7398 29.7957 64.5654 28.8384C65.6346 28.4938 66.0737 27.7855 65.6537 27.0388C65.2718 26.3687 64.4318 26.1199 63.4199 26.3879C62.1599 26.7325 61.4153 27.3643 60.728 28.7044C60.117 29.8914 60.0788 30.0254 60.1552 31.7676C60.2125 33.3375 60.2888 33.7587 60.8234 34.8691C61.9498 37.2431 64.1263 38.9853 66.9138 39.7128C68.3266 40.0765 71.4385 40.0765 73.1377 39.7128C78.0826 38.679 81.0991 34.7734 81.1182 29.4511C81.1182 24.9903 79.0372 22.2909 71.9349 17.5621C67.4483 14.5755 65.9973 13.4459 65.0046 12.0866C64.1072 10.8613 63.7254 9.75092 63.7063 8.31505C63.6681 5.88364 64.8709 3.93086 66.9901 2.97361C68.5175 2.28439 69.8348 2.15038 71.3431 2.55242C72.9659 2.97361 73.9396 3.49052 75.1424 4.63922C76.517 5.94108 77.147 7.28122 77.147 8.8894C77.128 10.5359 77.5671 11.1294 78.7126 11.0528C79.8199 10.9762 80.2209 10.1913 80.1063 8.31505C80.0108 6.47713 79.1899 4.77324 77.5671 3.05019C76.2115 1.61432 74.3787 0.58049 72.565 0.19759C71.1522 -0.0895844 67.8684 -0.0512924 66.6274 0.293316Z" fill="white"/>
<path d="M101.451 0.944294C101.203 1.42292 101.165 3.81604 101.165 20.185C101.165 36.5539 101.203 38.947 101.451 39.4257L101.757 40H109.241C117.412 40 118.004 39.9426 119.951 38.8896C121.498 38.0664 123.14 36.305 123.922 34.6394C124.839 32.7058 125.087 31.5379 125.068 29.1065C125.049 26.8091 124.743 25.4307 123.884 23.7076C122.892 21.7357 121.612 20.721 118.768 19.5915C118.348 19.4192 118.405 19.3426 119.684 18.4811C122.071 16.8346 123.197 14.9201 123.56 11.9144C124.209 6.28574 121.498 1.99726 116.438 0.65712C115.617 0.42738 113.918 0.369946 108.573 0.369946H101.757L101.451 0.944294ZM114.758 3.03109C117.851 4.02663 119.493 6.63034 119.512 10.5168C119.512 14.1926 118.386 16.4134 115.904 17.6387L114.625 18.2705L110.806 18.3279C107.236 18.3853 106.95 18.3662 106.358 17.9833C106.014 17.7727 105.651 17.3707 105.537 17.0835C105.422 16.758 105.365 14.1735 105.403 10.0381C105.461 3.06938 105.461 3.05024 106.415 2.64819C106.625 2.55247 108.305 2.51418 110.138 2.55247C112.906 2.60991 113.708 2.68649 114.758 3.03109ZM116.133 21.2379C118.29 22.1186 119.894 24.0714 120.41 26.5028C121.001 29.2022 120.83 31.3848 119.856 33.4907C119.207 34.9074 118.634 35.5584 117.393 36.3625C115.999 37.2623 114.529 37.5112 110.424 37.5112C106.377 37.5112 106.129 37.4537 105.632 36.2476C105.308 35.4435 105.231 22.5589 105.556 21.6783C105.938 20.6445 106.052 20.6253 110.711 20.7019C114.701 20.7785 115.083 20.8168 116.133 21.2379Z" fill="white"/>
<path d="M159.873 0.599796C159.815 0.73381 159.796 9.63621 159.815 20.3765L159.873 39.9044L161.763 39.9618C162.946 40.0001 163.729 39.9427 163.863 39.8087C164.016 39.6746 164.111 36.7072 164.168 30.5616L164.264 21.5252H167.032H169.8L174.115 30.7148L178.449 39.9044L180.301 39.9618C182.287 40.0193 182.687 39.8852 182.687 39.1577C182.687 38.928 180.797 34.7544 178.468 29.8724C176.158 24.9905 174.325 20.9317 174.421 20.8552C174.497 20.7786 174.955 20.568 175.413 20.3957C178.945 19.0172 181.16 15.2457 181.16 10.5935C181.16 8.3535 180.912 7.14737 180.11 5.42432C178.984 3.08864 176.845 1.36559 174.192 0.65723C172.683 0.27433 160.006 0.216896 159.873 0.599796ZM172.97 3.0695C174.898 3.96931 175.986 5.5009 176.693 8.21949C177.113 9.90424 176.979 12.8717 176.406 14.365C175.604 16.4518 173.943 18.0408 171.901 18.6726C170.87 18.979 165.524 19.2853 164.665 19.0555L164.168 18.9407V10.8232C164.168 4.50537 164.226 2.66745 164.416 2.59087C164.531 2.53344 166.288 2.51429 168.273 2.53344C171.748 2.57173 171.939 2.59087 172.97 3.0695Z" fill="white"/>
<path d="M140.418 1.17403C139.406 3.60544 127.512 38.4301 127.512 38.9279C127.512 39.7128 127.798 40 128.6 40C129.039 40 129.287 39.8851 129.459 39.5597C129.574 39.3299 130.643 36.4199 131.788 33.1078L133.908 27.0772L139.883 27.0197L145.859 26.9814L146.107 27.5941C146.26 27.9387 147.234 30.8104 148.303 33.9693C149.372 37.1283 150.346 39.7703 150.479 39.8468C150.861 40.0957 153.954 40.0191 154.202 39.7703C154.336 39.6362 154.431 39.2533 154.431 38.9279C154.431 38.4684 142.594 3.03109 141.735 0.886856C141.659 0.71455 141.392 0.56139 141.124 0.56139C140.781 0.56139 140.609 0.71455 140.418 1.17403ZM142.556 17.0643C143.931 21.1231 145 24.5117 144.943 24.5692C144.809 24.7032 134.767 24.7223 134.767 24.6075C134.767 24.5309 138.012 15.1116 139.673 10.3636C139.826 9.90413 139.998 9.55952 140.017 9.59781C140.055 9.6361 141.201 12.9865 142.556 17.0643Z" fill="white"/>
</svg>
