<svg width="151" height="40" viewBox="0 0 151 40" fill="none" xmlns="http://www.w3.org/2000/svg">
<path d="M0.75379 0.426018C0.75379 0.614464 1.093 0.802914 1.54527 0.802914C1.95985 0.802914 2.82671 1.29288 3.42975 1.89591L4.52274 2.9889V19.2708C4.52274 36.6833 4.44736 37.324 2.60058 38.6432C2.11061 38.9824 1.31913 39.2462 0.866859 39.2462C0.376895 39.2462 0 39.397 0 39.6231C0 39.8492 2.18599 40 5.84187 40C9.04548 40 11.6837 39.8869 11.6837 39.6985C11.6837 39.5477 11.1561 39.2085 10.5531 38.9447C8.74397 38.1155 8.29169 36.7964 8.29169 32.3867V28.467L9.64851 28.3916C16.4326 27.9394 21.8599 21.6829 21.8599 14.4088C21.8599 7.43626 18.4302 2.34818 12.5883 0.576775C10.4777 -0.0639458 0.75379 -0.177013 0.75379 0.426018ZM11.0807 1.25519C12.0983 1.5567 13.3421 2.42356 14.7366 3.81807C17.5633 6.64479 18.2794 8.86847 18.2417 14.5596C18.204 19.2331 17.4879 21.7583 15.4527 24.2458C14.1713 25.7911 10.93 27.5625 9.347 27.5625H8.29169V14.1827C8.29169 -0.780048 8.02787 0.350639 11.0807 1.25519Z" fill="white"/>
<path d="M36.8223 0.84063C30.6789 2.95124 25.8546 8.19008 23.9324 14.8234C23.2163 17.3486 23.1033 21.6452 23.744 24.3212C25.1385 30.5023 31.6211 37.2487 38.0283 39.2462C40.6666 40.0754 44.737 40.2262 47.4884 39.5854C48.4306 39.397 50.4282 38.5678 51.9357 37.814C58.7199 34.422 63.318 27.5248 63.318 20.6653C63.318 14.0696 58.8706 6.3433 53.1041 2.98893C48.2045 0.124527 41.4957 -0.780018 36.8223 0.84063ZM43.9079 3.4789C49.109 5.40106 56.4208 11.9967 58.8706 16.8964C61.3581 21.8714 61.5466 25.3011 59.4736 29.6731C58.4183 31.9722 55.2901 35.1004 52.878 36.2688C51.3704 37.0226 50.5035 37.1733 47.4507 37.1733C43.9833 37.1733 43.7194 37.0979 40.6666 35.5904C34.787 32.6883 29.0582 26.8464 26.9099 21.5322C25.5531 18.2532 25.4777 14.0696 26.7215 10.9037C27.626 8.60467 30.1889 5.47644 32.1864 4.23269C35.3524 2.27283 39.8751 1.97131 43.9079 3.4789Z" fill="white"/>
<path d="M78.3941 0.915974C71.9492 3.10197 67.2003 8.3785 65.3912 15.3887C63.0922 24.1704 67.9541 33.6305 77.0373 38.1532C80.1278 39.6608 80.6178 39.8115 84.0099 39.9246C87.1758 40.0754 88.005 39.9623 90.6055 39.0954C96.2213 37.211 100.405 33.5928 102.93 28.5047C104.701 24.8865 105.229 22.2105 104.777 18.63C103.684 10.0368 97.352 2.83814 88.9472 0.61446C85.819 -0.21471 81.3339 -0.101643 78.3941 0.915974ZM82.9922 2.72507C87.0627 3.59193 91.5478 6.41864 95.8067 10.7529C103.608 18.63 104.588 26.7333 98.5203 33.2159C93.7714 38.304 86.7612 38.7562 80.0148 34.3843C75.3413 31.3691 70.6678 26.2433 68.6702 21.9844C67.7657 20.0999 67.6526 19.3461 67.6526 16.0672C67.6526 12.7128 67.7657 12.0721 68.6702 10.2253C70.0647 7.36088 71.9115 5.32565 74.2106 4.08189C77.1881 2.46124 79.7886 2.04666 82.9922 2.72507Z" fill="white"/>
<path d="M110.619 0.576775C105.757 2.68739 103.948 8.30313 106.435 13.3158C107.038 14.5219 109.451 18.0647 111.825 21.1929C119.476 31.4068 121.285 37.1733 117.403 39.0201C115.782 39.8116 114.35 39.7739 112.503 38.907C109.714 37.6633 107.905 34.7235 106.172 28.8062C105.682 27.0725 105.192 25.5649 105.041 25.4518C104.89 25.3011 104.777 28.5047 104.777 32.5752C104.777 36.6833 104.928 40 105.116 40C105.305 40 106.096 39.1708 106.85 38.1532L108.244 36.3064L109.677 37.7386C113.37 41.4322 119.325 40.49 122.303 35.7034C123.283 34.0827 123.433 33.4797 123.396 31.3691C123.358 27.6378 121.775 24.2835 117.101 18.0647C111.561 10.6399 109.601 7.3232 109.564 5.06183C109.488 2.6497 110.317 1.33057 112.353 0.802914C115.782 -0.139324 118.232 2.61201 120.267 9.62226C120.946 12.0344 121.662 13.9942 121.813 13.9942C121.963 13.9942 122.114 10.866 122.114 7.02168C122.114 0.652153 121.813 -1.42077 121.21 0.953671C121.097 1.44363 120.682 2.57432 120.305 3.47887L119.589 5.13721L118.911 3.66732C117.516 0.765224 113.596 -0.704666 110.619 0.576775Z" fill="white"/>
<path d="M124.376 0.426014C124.376 0.61446 124.715 0.80291 125.167 0.80291C125.582 0.80291 126.448 1.29287 127.052 1.8959L128.145 2.9889V19.723C128.145 28.9193 128.031 36.7587 127.918 37.211C127.655 38.1532 125.921 39.2462 124.602 39.2462C124.074 39.2462 123.622 39.397 123.622 39.6231C123.622 39.8492 125.883 40 129.652 40C132.969 40 135.682 39.9246 135.682 39.8116C135.682 39.6985 135.004 39.3593 134.175 39.0201C133.346 38.6809 132.479 38.0778 132.29 37.7009C132.064 37.324 131.913 32.5752 131.913 26.4695V15.9164L137.303 15.8033C140.243 15.728 142.881 15.841 143.145 16.0295C143.522 16.2933 143.597 18.63 143.522 26.8841L143.409 37.4371L142.353 38.3417C141.75 38.8693 140.808 39.2462 140.167 39.2462C139.564 39.2462 139.074 39.397 139.074 39.6231C139.074 39.8492 141.26 40 144.916 40C148.572 40 150.758 39.8492 150.758 39.6231C150.758 39.397 150.419 39.2462 150.004 39.2462C149.552 39.2462 148.798 38.8316 148.308 38.304L147.366 37.3994V20.0246V2.6497L148.308 1.74515C148.798 1.21749 149.552 0.80291 150.004 0.80291C150.419 0.80291 150.758 0.61446 150.758 0.426014C150.758 0.199875 148.685 0.049118 145.293 0.049118C141.901 0.049118 139.828 0.199875 139.828 0.426014C139.828 0.61446 140.167 0.80291 140.544 0.80291C140.959 0.80291 141.788 1.21749 142.353 1.70746L143.409 2.61201V8.79309V14.9365L137.68 15.0495L131.913 15.1626V9.01922C131.951 2.23511 132.027 1.93359 134.326 0.991356C135.079 0.689838 135.682 0.350636 135.682 0.237568C135.682 0.124496 133.157 0.049118 130.029 0.049118C126.524 0.049118 124.376 0.199875 124.376 0.426014Z" fill="white"/>
</svg>
