<svg width="239" height="40" viewBox="0 0 239 40" fill="none" xmlns="http://www.w3.org/2000/svg">
<path d="M50.4786 0.0534897C48.1799 0.388187 45.7171 1.91011 43.0269 4.66346C40.7156 7.01896 38.6379 9.78494 36.2319 13.6813L35.512 14.8433L34.8805 14.9885C34.0406 15.1843 32.1398 15.5 31.3125 15.5821C29.6516 15.7463 27.1635 15.7337 27.113 15.5569C26.5573 13.7003 25.9637 12.6646 24.8585 11.6352C23.7092 10.568 22.2378 9.87335 20.4191 9.54497C20.1096 9.48813 19.3329 9.4313 18.7014 9.41236C17.7099 9.38078 17.5457 9.36184 17.5205 9.27342C17.4131 8.91347 17.3689 8.16198 17.4194 7.65678C17.7541 4.46138 20.438 2.28901 24.7133 1.75223C25.4585 1.65751 27.4161 1.65119 28.0918 1.74592C30.4852 2.0743 32.4997 2.83842 34.59 4.22141C34.9563 4.46138 35.272 4.65714 35.2973 4.65714C35.3478 4.65714 35.733 4.06985 35.733 3.99406C35.733 3.93092 35.6509 3.86776 34.7858 3.27415C32.8028 1.92274 30.8704 1.14599 28.5023 0.76709C27.6624 0.628159 25.4206 0.609215 24.4923 0.729198C21.9157 1.07021 19.9265 1.92274 18.493 3.30573C17.0279 4.71398 16.3712 6.33694 16.3901 8.49036L16.4027 9.44393L15.948 9.51971C12.9105 10.0186 10.0119 11.3511 7.31541 13.4855C6.56392 14.0855 4.63784 16.0116 4.09475 16.7062C3.09066 17.9945 2.42759 19.0364 1.78977 20.3121C0.653064 22.5918 0.0847122 24.7642 0.00893196 27.1702C-0.136314 31.7044 1.49296 35.3608 4.66942 37.6405C5.39565 38.1583 6.92388 38.9288 7.82061 39.2193C10.1698 39.996 12.9926 40.2044 15.4618 39.7939C21.9284 38.7141 28.275 33.5421 33.1754 25.3704C34.0722 23.8674 34.2048 23.6275 35.6193 20.8552C37.015 18.1334 37.3497 17.5019 38.2716 15.8789C38.619 15.2664 38.8968 14.8559 38.9789 14.8243C39.0484 14.7928 39.4652 14.6349 39.9009 14.477C43.6773 13.0877 47.5358 10.8964 50.1376 8.65455C50.9459 7.95359 52.1268 6.7411 52.6067 6.1096C53.9518 4.33508 54.4634 2.57318 53.9582 1.46174C53.453 0.362926 52.1079 -0.180164 50.4786 0.0534897ZM52.3289 1.12073C53.3582 1.57541 53.4908 2.59213 52.733 4.17089C52.2026 5.2697 51.3627 6.31799 50.1123 7.44207C47.7 9.61444 44.4604 11.5531 40.6019 13.1256C40.103 13.334 39.6862 13.4982 39.6736 13.4982C39.6104 13.4982 41.0503 11.1995 42.0165 9.74074C43.9173 6.88003 45.0919 5.38969 46.778 3.70989C48.1673 2.3269 49.0893 1.65119 50.1439 1.24703C51.0217 0.906021 51.7479 0.86813 52.3289 1.12073ZM20.3244 10.4985C22.0736 10.8332 23.3745 11.4963 24.4354 12.5951C24.7322 12.8982 25.1175 13.3908 25.3006 13.6813C25.6227 14.2118 26.1215 15.3611 26.0584 15.4243C25.9889 15.4937 24.4165 15.1338 23.5892 14.8622C21.4358 14.1549 19.636 12.9614 18.5561 11.5279C18.133 10.9722 17.8426 10.448 17.912 10.3722C17.9878 10.2965 19.7497 10.3849 20.3244 10.4985ZM16.9079 10.7448C17.2553 11.5847 18.2657 12.8477 19.2129 13.6182C20.9117 15.0075 23.3998 16.081 25.7111 16.4094L26.2478 16.4915L26.3299 17.0283C26.4373 17.7861 26.3741 19.3648 26.2036 20.1542C25.6605 22.6992 24.2207 25.181 21.9978 27.4102C20.3686 29.0394 18.4741 30.4477 16.6301 31.3949C16.2638 31.5844 15.9417 31.7486 15.9038 31.7612C15.8154 31.7865 16.1501 32.5695 16.2512 32.5695C16.4469 32.5695 18.4235 31.5086 19.2255 30.9782C23.305 28.269 26.1152 24.701 27.0435 21.0573C27.3467 19.8827 27.4161 19.188 27.3846 17.8366L27.3593 16.6873H29.0012C31.0662 16.6873 32.9228 16.4852 34.7668 16.0558C34.9057 16.0242 34.9057 16.0305 34.7226 16.3399C34.2363 17.1609 32.8218 19.7564 32.0703 21.2025C29.2538 26.6208 26.8478 30.1635 23.9871 33.1C20.8674 36.3017 17.7983 38.0762 14.3567 38.6762C13.4726 38.8277 11.2244 38.8277 10.2519 38.6762C7.70063 38.272 5.64193 37.2995 4.07581 35.746C2.10552 33.7947 1.05723 31.1992 0.956185 28.0164C0.89935 26.2671 1.10775 24.7894 1.63821 23.1349C2.49074 20.4573 4.03792 17.9755 6.21028 15.7968C8.951 13.0498 12.2916 11.2121 15.727 10.5617C16.8069 10.3533 16.7437 10.347 16.9079 10.7448Z" fill="white"/>
<path d="M155.15 0.337856C155.03 0.350487 154.658 0.394691 154.329 0.432579C153.565 0.520992 152.252 0.855686 151.519 1.15249C148.305 2.45339 146.271 5.232 146.139 8.49055C146.063 10.3093 146.442 11.7617 147.351 13.1195C148.223 14.433 149.719 15.6013 151.267 16.1822L151.677 16.3401L151.873 15.9549C151.974 15.7402 152.056 15.5634 152.043 15.5507C152.031 15.5444 151.715 15.3866 151.336 15.2097C149.328 14.2688 148.065 12.9363 147.49 11.1302C147.212 10.2651 147.168 9.93037 147.168 8.76209C147.168 7.77064 147.187 7.59381 147.339 7.02546C147.528 6.31818 148.002 5.30778 148.387 4.78363C149.997 2.61758 152.833 1.3672 156.129 1.3672C158.036 1.3672 159.091 1.63243 162.981 3.07858C166.726 4.47419 168.639 5.0236 171.058 5.38356C171.418 5.43408 171.734 5.49723 171.765 5.51617C171.929 5.61721 171.727 5.73088 170.824 6.04032C167.079 7.32227 163.556 9.35571 160.202 12.1722C159.11 13.0879 156.483 15.7212 155.454 16.9274C154.386 18.1715 153.212 19.6934 152.208 21.1269L151.38 22.3078L149.36 22.3268L147.332 22.3394L147.105 22.7814L146.871 23.2235L148.829 23.2361L150.787 23.2551L149.309 25.3327C146.379 29.4375 144.724 31.4962 142.836 33.3907C140.083 36.1503 137.405 37.748 134.551 38.3543C133.408 38.5879 131.734 38.6321 130.68 38.4553C129.385 38.2343 128.248 37.7923 127.206 37.1165C126.67 36.7629 125.893 36.1377 125.533 35.7651L125.318 35.5378L124.794 36.0556C124.504 36.3398 124.27 36.6113 124.27 36.6492C124.27 36.7818 125.451 37.8491 125.988 38.209C127.737 39.3647 129.638 39.9015 132.006 39.9078C134.159 39.9141 135.833 39.5289 137.816 38.5753C139.78 37.6281 141.339 36.4661 143.379 34.4327C145.413 32.4055 147.313 30.0248 150.825 25.1306L151.961 23.5456L156.325 23.5392H160.682L160.449 24.4676C159.962 26.4252 159.741 28.1555 159.735 30.1384C159.729 32.0456 159.912 33.2328 160.436 34.6221C161.118 36.4408 162.381 37.9312 164.017 38.8405C166.246 40.0783 169.53 40.2677 172.403 39.3268C173.634 38.9226 175.024 38.1648 175.763 37.4828L176.078 37.1986L175.775 36.845L175.466 36.4914L175.112 36.7629C174.291 37.3944 173.275 37.9628 172.416 38.2722C171.677 38.5374 171.045 38.6385 170.168 38.6385C167.256 38.6321 165.128 37.4197 163.979 35.1273C162.949 33.0686 162.792 30.41 163.455 26.3242C163.676 24.9664 163.985 23.5835 164.08 23.5077C164.13 23.4698 165.273 23.4508 167.25 23.4571C168.949 23.4571 170.376 23.4635 170.42 23.4698C170.471 23.4761 170.174 24.1202 169.637 25.1622C169.163 26.0968 168.589 27.202 168.374 27.6314C167.812 28.7239 167.585 29.4564 167.547 30.3153C167.49 31.3446 167.724 32.0077 168.311 32.5255C168.545 32.7276 169.201 33.0118 169.681 33.1128C170.376 33.2644 171.715 33.2012 172.548 32.9865C173.344 32.7781 174.525 32.2098 175.232 31.6793C177.152 30.2711 178.964 27.7829 180.24 24.8086C180.379 24.4865 180.436 24.417 180.524 24.4549C180.581 24.4739 180.998 24.6254 181.446 24.777C181.901 24.9285 182.28 25.0675 182.292 25.0801C182.305 25.0991 182.217 25.358 182.097 25.6674C181.673 26.741 181.44 28.0545 181.509 28.9386C181.566 29.6585 181.705 30.189 182.002 30.8015C182.349 31.5214 183.113 32.2982 183.827 32.6518C184.673 33.0686 185.147 33.1633 186.41 33.1633C187.616 33.1697 188.102 33.0939 189.087 32.7592C190.42 32.3108 191.487 31.6225 192.687 30.4416C193.198 29.93 193.363 29.7974 193.337 29.9174C193.312 30.0058 193.041 30.65 192.731 31.3572C192.422 32.0582 192.188 32.6392 192.207 32.6518C192.232 32.6645 192.807 32.6708 193.483 32.6708L194.714 32.6645L195.933 30.2647C198.452 25.3138 199.141 24.0129 199.608 23.2993C200.6 21.7774 201.692 20.6028 202.778 19.8765C203.517 19.384 203.928 19.2261 204.597 19.2008C205.064 19.1819 205.165 19.1945 205.386 19.3208C205.765 19.5355 205.942 19.9207 205.898 20.4133C205.822 21.1964 205.57 21.79 203.972 24.9791C202.614 27.6756 202.26 28.465 201.932 29.488C201.743 30.0753 201.724 30.2142 201.724 30.8962C201.724 31.5972 201.736 31.6793 201.9 32.014C202.26 32.7465 202.93 33.1254 203.94 33.1823C205.481 33.2707 206.833 32.5192 208.342 30.7384L208.639 30.391V30.8142C208.639 31.9951 209.327 32.8602 210.514 33.1697C211.045 33.3086 212.106 33.296 212.718 33.1381C213.83 32.8602 214.973 32.1024 215.951 30.9847C216.242 30.6563 216.513 30.3847 216.558 30.3721C216.621 30.3595 216.652 30.4858 216.671 30.8836C216.728 32.0266 217.391 32.7718 218.623 33.0812C219.696 33.3528 221.01 33.1444 222.172 32.5192C222.652 32.2603 223.624 31.5404 224.268 30.9657C224.496 30.7636 224.691 30.6058 224.698 30.6184C224.71 30.631 224.849 30.8584 225.013 31.1236C225.569 32.033 226.403 32.6581 227.489 32.9865C228.019 33.1507 228.133 33.1633 229.194 33.1633C230.217 33.1633 230.394 33.1444 230.937 32.9991C233.09 32.4182 234.947 30.9847 236.482 28.7239C236.791 28.2692 237.498 27.0125 237.498 26.9178C237.498 26.8799 237.353 26.7915 237.17 26.722C236.987 26.6589 236.816 26.5957 236.797 26.5831C236.772 26.5705 236.608 26.8041 236.431 27.1009C234.922 29.5954 232.882 31.4141 231.07 31.8814C230.533 32.0203 229.617 32.0393 229.087 31.9319C228.537 31.8182 228.019 31.5341 227.653 31.1488C227.066 30.53 226.845 29.7974 226.908 28.667C226.952 27.8019 227.116 27.2335 227.584 26.28L227.963 25.5158L228.739 25.4716C231.221 25.339 233.425 24.7138 235.13 23.6655C238.464 21.6195 239.096 18.5883 236.298 18.0389C235.812 17.9441 234.543 17.9947 233.88 18.1336C229.604 19.0493 225.38 23.2361 224.584 27.3409C224.508 27.7135 224.489 28.1366 224.502 28.806L224.521 29.7469L224.142 30.0942C222.475 31.6162 220.662 32.355 219.791 31.8561C219.412 31.6414 219.292 31.433 219.26 30.9594C219.21 30.1448 219.254 30.0437 222.26 24.0697C223.795 21.0069 225.058 18.4809 225.058 18.462C225.058 18.443 224.369 18.4241 223.529 18.4241H221.995L221.262 19.8639C220.858 20.6533 219.81 22.7183 218.932 24.4549C218.054 26.1916 217.177 27.865 216.987 28.1808C216.482 29.0144 215.857 29.8164 215.232 30.4353C214.537 31.1173 214.114 31.4393 213.501 31.7361C213.103 31.9256 212.945 31.9635 212.522 31.9887C212.087 32.0077 211.979 31.9887 211.733 31.8624C211.341 31.6604 211.196 31.3825 211.203 30.8647C211.203 30.631 211.266 30.2521 211.348 29.9806C211.436 29.6901 212.573 27.3598 214.265 23.9876C215.787 20.9501 217.038 18.4557 217.038 18.443C217.038 18.4304 216.343 18.4241 215.497 18.4241H213.956L212.03 22.2257C210.975 24.3223 209.902 26.4189 209.649 26.8862C208.039 29.8922 206.094 31.9382 204.843 31.9382C204.546 31.9382 204.269 31.8119 204.13 31.6098C203.978 31.4014 203.997 30.7068 204.168 30.189C204.243 29.949 205.02 28.326 205.898 26.5705C208.001 22.3583 208.285 21.6384 208.291 20.3817C208.291 19.7818 208.272 19.6808 208.108 19.3271C207.679 18.3862 206.731 17.9062 205.336 17.9126C203.902 17.9189 202.576 18.5756 201.08 20.0218C200.757 20.3312 200.492 20.5586 200.492 20.5207C200.492 20.4891 200.593 20.2239 200.713 19.946C200.833 19.6618 201.035 19.2071 201.155 18.9293L201.37 18.4241H200.094H198.819L197.688 20.6533C195.687 24.5875 194.676 26.5263 194.291 27.1388C192.712 29.6711 190.275 31.5151 188.033 31.8751C187.338 31.9887 186.422 31.9256 185.898 31.7361C184.155 31.0983 183.612 29.1912 184.496 26.8231C184.623 26.4947 184.818 26.0337 184.932 25.7937L185.147 25.3706H185.721C187.995 25.3706 190.856 24.5433 192.554 23.4003C194.184 22.3078 195.181 20.9311 195.188 19.7755C195.188 19.4029 195.03 18.9293 194.815 18.6767C194.594 18.3988 194.133 18.1462 193.634 18.0136C193.148 17.881 191.86 17.881 191.133 18.0073C188.235 18.5251 185.02 20.7985 183.195 23.615C183 23.9181 182.804 24.1644 182.766 24.1707C182.678 24.1707 181.2 23.5898 180.909 23.4445L180.739 23.3498L180.853 22.9835C181.111 22.1563 181.194 20.3944 181.01 19.5482C180.764 18.3609 180.189 17.7168 179.476 17.8242C179.236 17.862 179.122 17.9252 178.889 18.1588C178.491 18.563 178.327 19.024 178.282 19.8513C178.207 21.2343 178.554 22.3899 179.324 23.3372C179.545 23.6024 179.545 23.6087 179.457 23.8739C179.406 24.0192 179.198 24.4928 178.983 24.9285C178.099 26.741 176.88 28.4713 175.586 29.7595C174.234 31.1046 173.028 31.7677 171.948 31.7677C171.121 31.774 170.66 31.5467 170.426 31.0225C170.212 30.5552 170.294 29.9679 170.73 28.8754C170.856 28.5597 172.087 26.0716 173.47 23.3372C174.86 20.6028 175.99 18.3546 175.99 18.3357C175.99 18.3104 175.314 18.2978 174.487 18.2978H172.978L172.902 18.4683C172.858 18.5693 172.397 19.4787 171.873 20.4891L170.919 22.3394H167.61C165.475 22.3394 164.307 22.3204 164.307 22.2762C164.307 22.2447 164.446 21.8405 164.617 21.3795C167.061 14.8308 172.081 9.21046 178.806 5.47197C179.324 5.18779 179.754 4.94782 179.766 4.93519C179.779 4.92887 179.735 4.70785 179.672 4.45525L179.558 3.98162L178.863 4.13318C177.626 4.3921 176.04 4.65733 175.238 4.72048C173.9 4.84047 171.595 4.63207 169.801 4.24054C168.046 3.85532 166.77 3.43853 163.499 2.18816C160.518 1.04514 159.552 0.742016 158.074 0.483101C157.367 0.363113 155.675 0.274704 155.15 0.337856ZM175.377 5.80666C175.403 5.88245 175.409 5.95191 175.403 5.95823C175.396 5.95823 174.948 6.22977 174.411 6.55184C171.134 8.50949 167.983 11.2818 165.583 14.3004C163.714 16.6622 162.128 19.4661 161.181 22.0994L161.004 22.592H156.881H152.751L153.212 21.9731C153.458 21.6258 153.982 20.9122 154.361 20.3817C158.99 13.9467 164.219 9.80407 171.254 7.02546C172.239 6.63393 175.068 5.67405 175.238 5.66773C175.295 5.66773 175.358 5.73088 175.377 5.80666ZM192.567 19.0619C192.706 19.0998 192.921 19.2387 193.066 19.3776L193.312 19.6239L193.28 20.1228C193.255 20.5207 193.211 20.7101 193.053 21.0259C192.321 22.5099 190.262 23.8424 187.906 24.3539C187.237 24.4991 185.74 24.657 185.671 24.5875C185.62 24.537 186.58 23.1035 187.168 22.3647C187.774 21.6005 188.86 20.5143 189.473 20.0534C190.616 19.2008 191.752 18.8346 192.567 19.0619ZM235.383 19.0619C236.545 19.3524 236.425 20.8175 235.136 22.1121C233.747 23.514 231.587 24.4044 229.118 24.5875C228.796 24.6065 228.531 24.6065 228.531 24.5812C228.531 24.556 228.72 24.2528 228.948 23.8992C231.145 20.5396 233.684 18.6325 235.383 19.0619Z" fill="white"/>
<path d="M88.7919 0.59024C83.8535 1.12702 80.0582 3.40674 78.2332 6.93684C77.4564 8.43981 77.128 9.81649 77.1344 11.5089C77.1407 13.8076 77.7659 15.4369 79.1678 16.7946C80.8476 18.4176 83.222 19.0869 86.0638 18.7333C89.0129 18.367 91.4947 16.6683 93.1998 13.8455C93.5976 13.1887 94.2733 11.7805 94.2291 11.7047C94.1849 11.6415 93.5724 11.351 93.4713 11.351C93.4271 11.351 93.2566 11.6415 93.0798 11.9952C91.3432 15.5884 88.6214 17.6345 85.306 17.8429C82.8052 18.0071 80.7908 17.2935 79.5467 15.8094C79.092 15.2664 78.5426 14.1739 78.3658 13.4603C77.5827 10.3406 78.7636 6.81685 81.3212 4.62554C83.2284 2.99627 85.5207 2.02375 88.4951 1.5817C89.575 1.42382 92.5872 1.42382 93.6734 1.5817C96.7046 2.03638 99.1864 2.96469 102.925 5.04865C103.708 5.48438 104.529 5.93275 104.756 6.04642L105.16 6.2485L104.977 6.38743C104.579 6.67161 103.796 7.39152 103.279 7.95356C101.523 9.86069 99.5906 12.873 97.2793 17.2998L96.7236 18.3607H94.488H92.2525L92.0315 18.708C91.9052 18.8975 91.7915 19.0996 91.7726 19.1501C91.741 19.2322 92.0126 19.2448 93.9892 19.2448C95.2269 19.2448 96.231 19.2701 96.2184 19.2953C96.0921 19.5921 93.5282 24.6252 93.023 25.5598C87.9962 34.8808 83.3925 38.5688 76.7681 38.5688C73.7306 38.5688 71.3245 37.7163 68.7101 35.7207L68.066 35.2281L67.9207 35.4618C67.8386 35.5881 67.6997 35.8218 67.605 35.9796L67.4408 36.2638L68.0407 36.7374C70.2636 38.4993 72.5307 39.4466 75.423 39.8002C76.3892 39.9265 78.5173 39.9392 79.4962 39.8381C80.936 39.6865 82.4769 39.3455 83.6388 38.9161C84.5798 38.5751 86.1901 37.7605 87.0426 37.1984C89.0003 35.9102 90.9074 34.0472 92.6567 31.717C94.3744 29.431 95.6816 27.1954 98.2834 22.0992L99.6727 19.3711H102.407C103.904 19.3711 105.135 19.3964 105.135 19.4216C105.135 19.4469 105.11 19.4974 105.078 19.5353C104.977 19.6364 100.67 28.2942 100.443 28.8437C100.102 29.6709 99.9505 30.214 99.9126 30.7761C99.8369 31.8117 100.266 32.6011 101.106 32.98C101.435 33.1252 101.618 33.1631 102.136 33.1884C103.354 33.2389 104.472 32.8221 105.735 31.8433C106.228 31.4581 107.364 30.3277 107.573 30.0119C107.63 29.9235 107.699 29.8667 107.724 29.8856C107.794 29.9298 106.152 32.9042 105.337 34.2114C103.323 37.4321 101.289 38.8845 98.7886 38.8845C98.2897 38.8845 97.7592 38.8088 97.0772 38.6509C96.9635 38.6256 96.9067 38.6888 96.7172 39.0424L96.4899 39.4655L96.692 39.5476C97.3172 39.8065 98.3844 39.9581 99.3253 39.9139C103.121 39.7371 106.373 37.1037 109.682 31.5275C110.313 30.4603 111.709 27.7638 114.109 22.9517L115.902 19.3711H118.125C119.35 19.3711 120.354 19.3774 120.354 19.3901C120.354 19.4027 119.445 21.1962 118.334 23.3748C116.073 27.8143 115.833 28.3258 115.523 29.2478C115.012 30.7697 115.119 31.837 115.852 32.5064C116.199 32.8284 116.527 32.98 117.096 33.081C117.967 33.2326 118.877 33.0621 119.881 32.5695C120.86 32.0833 121.624 31.4644 122.792 30.214C123.051 29.9362 123.272 29.7214 123.285 29.7341C123.297 29.7467 123.076 30.2266 122.792 30.8013C122.514 31.376 122.205 32.0075 122.11 32.2032L121.933 32.5695H123.253H124.566L126.669 28.4142C129.183 23.4506 129.435 22.977 130.111 21.9603C131.216 20.3121 132.283 19.3459 133.357 19.0301C134.62 18.6638 135.561 19.3206 135.422 20.4762C135.34 21.1646 135.043 21.8845 133.913 24.1074C131.949 27.9659 131.785 28.3258 131.519 29.311C131.336 29.993 131.324 30.9971 131.488 31.5023C131.721 32.2032 132.309 32.7716 133.041 32.9926C133.528 33.1442 134.639 33.1442 135.195 32.9926C136.458 32.6516 137.796 31.6475 138.82 30.2772C139.161 29.8162 139.994 28.4837 139.994 28.3953C139.994 28.3763 139.824 28.2879 139.622 28.1995L139.243 28.0353L138.977 28.4837C137.91 30.3024 136.578 31.5212 135.409 31.7486C134.689 31.8875 134.172 31.6096 134.09 31.0287C133.976 30.2709 134.228 29.633 136.199 25.7177C137.159 23.8232 137.847 22.3771 137.973 21.9919C138.169 21.4172 138.188 21.2972 138.194 20.6025C138.194 19.8826 138.182 19.8258 137.992 19.4216C137.645 18.6891 137.083 18.1965 136.268 17.9123C135.725 17.7229 134.38 17.704 133.742 17.8808C133.193 18.026 132.403 18.4176 131.942 18.7712C131.734 18.9291 131.557 19.0301 131.545 19.0048C131.538 18.9733 132.738 16.5609 134.216 13.6434C135.694 10.7195 136.9 8.31351 136.9 8.29457C136.9 8.27562 136.237 8.25668 135.422 8.25668C134.317 8.25668 133.932 8.27562 133.887 8.33246C133.85 8.37666 133.067 9.91753 132.132 11.7615C131.204 13.5992 129.909 16.1568 129.259 17.445C128.608 18.727 127.314 21.2846 126.385 23.1286C124.447 26.9618 124.529 26.8102 123.878 27.7764C122.331 30.0814 120.316 31.7486 119.06 31.7675C118.605 31.7801 118.359 31.6665 118.157 31.3697C118.024 31.1739 118.012 31.0981 118.037 30.7066C118.049 30.4224 118.125 30.1067 118.245 29.8099C118.346 29.5573 119.565 27.107 120.954 24.36L123.48 19.3711H124.68H125.88L126.088 18.9985C126.196 18.7901 126.29 18.5944 126.29 18.5565C126.29 18.506 125.912 18.487 125.116 18.487H123.941L124.863 16.6936C125.369 15.7021 125.785 14.8811 125.785 14.8622C125.785 14.8432 125.091 14.8243 124.238 14.8243H122.691L121.775 16.6557L120.86 18.487H118.624H116.395L117.5 16.2894C118.63 14.0476 119.06 13.2519 119.616 12.4246C120.79 10.669 122.072 9.43759 123.177 9.00817C123.645 8.83134 124.39 8.8124 124.693 8.97028C125.122 9.19762 125.179 9.46285 124.933 10.1133C124.743 10.6248 124.731 10.9721 124.908 11.3258C125.141 11.8184 125.811 12.0646 126.505 11.9194C127.478 11.7173 128.052 10.6122 127.686 9.63335C127.01 7.85252 123.771 7.33469 121.118 8.57874C118.7 9.70913 116.477 12.2604 114.324 16.3715C114.09 16.8198 113.743 17.4829 113.553 17.8366L113.212 18.487L112 18.4996L110.787 18.5186L110.585 18.8975C110.471 19.1059 110.377 19.2953 110.377 19.3206C110.377 19.3522 110.901 19.3711 111.545 19.3711H112.713L111.286 22.2255C109.41 25.9766 108.937 26.7976 107.642 28.5216C106.209 30.435 104.693 31.7233 103.733 31.8496C103.013 31.9506 102.546 31.4896 102.634 30.7634C102.729 29.974 103.039 29.3047 106.676 22.1687C107.705 20.1416 108.545 18.4744 108.545 18.4554C108.545 18.4365 106.644 18.4176 104.314 18.4112L100.083 18.3923L100.816 17.003C103.361 12.1657 105.445 8.88187 106.802 7.56203L107.093 7.28416L107.396 7.39783C110.781 8.71136 113.319 9.05237 115.624 8.50296C117.506 8.0546 118.611 6.72213 118.34 5.23178C118.1 3.93089 117.026 3.19203 115.107 3.00258C112.701 2.76892 109.619 3.61514 106.632 5.33282L106.146 5.617L104.485 4.71395C101.289 2.97732 99.559 2.15636 97.8603 1.56907C96.4268 1.0765 94.627 0.69128 93.105 0.552349C92.1515 0.46394 89.7328 0.482883 88.7919 0.59024ZM115.448 4.18349C116.281 4.36031 116.963 4.78973 117.172 5.26967C117.298 5.55385 117.279 6.02747 117.14 6.34323C116.976 6.70318 116.515 7.1326 116.029 7.36626C115.372 7.68833 114.753 7.82094 113.692 7.85883C112.094 7.91567 110.56 7.63781 108.811 6.98104C108.128 6.72213 107.99 6.64635 108.046 6.57688C108.192 6.40006 109.625 5.47175 110.212 5.16863C111.652 4.42978 112.877 4.10771 114.292 4.09508C114.709 4.09508 115.201 4.13297 115.448 4.18349Z" fill="white"/>
<path d="M63.5063 8.36994C63.4431 8.38257 62.6664 9.84765 61.4602 12.2221C60.3993 14.3313 59.1742 16.7373 58.7511 17.5709C58.328 18.4045 57.1471 20.7348 56.1303 22.7492C55.1136 24.7637 54.1095 26.6961 53.9011 27.0435C52.2908 29.721 50.2763 31.6787 48.9502 31.8492C48.5144 31.8997 48.1229 31.7608 47.965 31.5019C47.8008 31.224 47.8261 30.5988 48.0219 29.9673C48.1229 29.6263 49.1586 27.5045 50.9268 23.968C52.4361 20.9621 53.6675 18.4803 53.6675 18.4613C53.6675 18.4361 53.0107 18.4298 52.2087 18.4361L50.7499 18.455L50.2574 19.3897C49.9921 19.9075 49.7459 20.3306 49.7143 20.3369C49.6827 20.3432 49.6259 20.1222 49.5753 19.8443C49.4048 18.8024 48.8744 18.2656 47.7503 18.0067C47.2072 17.8804 46.0642 17.8804 45.4895 18.0067C42.0289 18.7582 38.3914 22.484 37.0716 26.633C36.6611 27.9213 36.5096 29.4937 36.7053 30.422C37.0779 32.1965 38.5051 33.2259 40.4375 33.1122C42.231 33.0112 43.5634 32.1839 44.9843 30.2768C45.3127 29.841 45.458 29.7021 45.458 29.841C45.458 29.8663 45.4137 30.0873 45.3632 30.3273C45.1675 31.2556 45.2874 31.8871 45.7484 32.3797C46.0831 32.7396 46.481 32.9227 47.1125 33.0112C48.5649 33.2259 50.1437 32.5817 51.6088 31.1798C51.9877 30.8198 52.7076 30.0115 52.9539 29.6705C52.9665 29.6579 52.9918 29.6579 53.0107 29.6768C53.0297 29.7021 52.7455 30.3336 52.3792 31.0914C52.0129 31.8429 51.7098 32.4744 51.7098 32.4807C51.7098 32.4933 52.2782 32.506 52.9665 32.506H54.2232L55.4673 30.0557C56.1556 28.7106 56.9576 27.1445 57.2544 26.5761L57.7975 25.5468L58.1764 25.5847C58.8647 25.6542 59.4457 26.0331 59.711 26.5635C59.8941 26.9424 59.8878 27.6371 59.6983 28.338C59.3699 29.5442 59.2752 30.0684 59.2689 30.7062C59.2626 31.4261 59.3321 31.7166 59.6036 32.146C59.9699 32.727 60.6898 33.0364 61.6876 33.0364C63.0074 33.0364 63.9231 32.4933 65.2366 30.9272C65.5145 30.5988 66.6196 29.159 67.6868 27.7381C69.8971 24.7827 71.659 22.5093 72.5431 21.4547L73.1493 20.7284L73.1935 21.0758C73.3893 22.6672 73.4272 24.8395 73.2819 25.9383C73.0925 27.3655 72.5999 29.1274 72.1263 30.0684C71.4632 31.3945 70.6233 32.0765 69.6508 32.0829C68.6783 32.0892 68.3499 31.5019 68.8867 30.7125C69.0951 30.4094 69.1393 30.2894 69.1393 30.0494C69.1393 29.4684 68.7983 29.159 68.1794 29.159C67.5037 29.159 67.0427 29.5442 66.828 30.2894C66.6259 30.9651 66.8532 31.8176 67.3458 32.247C68.0468 32.8659 69.3414 33.1627 70.718 33.0175C72.1768 32.8722 73.1746 32.4428 74.0334 31.5903C75.1575 30.4851 75.6122 29.0264 75.4543 27.0814C75.3659 25.951 75.2459 25.3574 74.7597 23.6333C74.3113 22.0483 74.1597 21.3915 74.0776 20.6842L74.0271 20.2548L74.2481 20.1853C75.2017 19.8759 75.7637 19.2507 75.7701 18.4992C75.7701 17.8804 75.4922 17.6025 74.867 17.6025C74.0208 17.6025 73.1935 18.4235 72.9725 19.4907C72.903 19.8443 72.8399 19.9327 71.7158 21.24C69.7897 23.4944 68.6909 24.8964 66.5186 27.8644C64.7188 30.3273 64.0115 31.1167 63.2474 31.4956C62.9506 31.6471 62.7864 31.685 62.4769 31.685C61.6812 31.685 61.5676 31.2114 62.0033 29.6958C62.2812 28.7359 62.3317 27.7318 62.1422 27.094C61.9844 26.5888 61.6623 26.172 61.2139 25.9131C60.9045 25.7299 60.0835 25.4963 59.7488 25.4963C59.6099 25.4963 59.5405 25.4647 59.5405 25.4079C59.5405 25.3447 59.6604 25.3068 59.9383 25.2753C60.6835 25.1932 62.2054 24.8648 62.9948 24.6059C64.9208 23.9807 66.2154 23.0461 66.7775 21.8715C67.0553 21.3031 67.1374 20.8611 67.1058 20.1664C67.0616 19.2002 66.6827 18.6003 65.8618 18.2151C65.5145 18.0509 65.3629 18.0193 64.8009 17.994C64.2136 17.9688 64.0936 17.9814 63.6136 18.1393C62.8495 18.3856 62.0728 18.9097 61.176 19.7938C60.7593 20.198 60.4056 20.5137 60.3867 20.4885C60.3551 20.4569 65.7797 9.60768 66.247 8.7741C66.3544 8.59096 66.4238 8.42046 66.4049 8.40151C66.367 8.36362 63.6831 8.33836 63.5063 8.36994ZM47.9398 19.2318C48.5397 19.497 48.8049 19.9959 48.8049 20.8421C48.8049 24.1828 44.9212 30.3967 41.9847 31.7418C41.6184 31.9123 41.41 31.9692 41.0311 31.9881C40.2354 32.0323 39.7997 31.7987 39.5155 31.1672C39.3766 30.8641 39.364 30.7504 39.3703 30.0115C39.3766 29.3042 39.4018 29.0895 39.5787 28.4328C40.4375 25.1932 43.0077 21.2652 45.2369 19.7812C46.2726 19.0928 47.2009 18.9034 47.9398 19.2318ZM64.1946 19.9517C64.643 20.1601 64.7503 20.3748 64.7503 21.0442C64.7503 21.5683 64.7314 21.6441 64.5356 22.0041C64.3272 22.3893 63.8915 22.8692 63.4558 23.1976C62.8179 23.6649 61.4728 24.1891 60.2919 24.4164C59.5531 24.5553 58.2838 24.7069 58.2332 24.6564C58.1385 24.5617 59.2815 22.7682 59.9446 21.9662C61.4097 20.2106 63.0769 19.4149 64.1946 19.9517Z" fill="white"/>
<path d="M108.526 12.8729C108.122 12.9676 107.705 13.2202 107.39 13.5549C106.954 14.0159 106.815 14.3632 106.809 14.9631C106.809 15.3989 106.828 15.4683 106.998 15.7146C107.295 16.1377 107.693 16.3082 108.356 16.3082C109.044 16.3019 109.486 16.1314 109.972 15.6957C110.37 15.3294 110.617 14.8937 110.692 14.42C110.875 13.3149 109.833 12.5634 108.526 12.8729Z" fill="white"/>
</svg>
