<svg width="262" height="40" viewBox="0 0 262 40" fill="none" xmlns="http://www.w3.org/2000/svg">
<path d="M0.0112392 7.55354C0.0112392 11.7121 0.0561961 16.5786 0.112392 18.3769C0.191067 21.389 0.224784 21.715 0.494526 22.704C1.69712 27.0199 5.01269 30.313 9.36227 31.4931C10.149 31.7066 10.5649 31.7403 12.307 31.7516C14.1727 31.7516 14.4199 31.7291 15.4427 31.4369C23.6923 29.1441 27.2214 19.7481 22.5009 12.6C21.9053 11.6896 20.343 10.1048 19.4101 9.46421C16.6902 7.58726 13.532 6.84547 10.3963 7.36247C8.01357 7.74461 5.68705 8.85729 4.07984 10.3746L3.48416 10.9365V5.46305V0.00078392H1.74208H0L0.0112392 7.55354ZM14.5323 11.0265C19.59 12.2403 22.4447 17.6239 20.6914 22.6141C20.2756 23.783 19.7586 24.6147 18.8257 25.615C14.5998 30.1107 7.22682 29.0542 4.46197 23.547C3.1245 20.8608 3.25938 17.5115 4.82163 15.0164C6.92336 11.6446 10.6997 10.0936 14.5323 11.0265Z" fill="white"/>
<path d="M25.9623 15.8474V31.6947H27.6482H29.3341V15.8474V9.34601e-05H27.6482H25.9623V15.8474Z" fill="white"/>
<path d="M106.436 3.59681V7.19336H108.178H109.92V3.59681V0.000257015H108.178H106.436V3.59681Z" fill="white"/>
<path d="M181.401 5.39581C181.401 8.36296 181.368 10.7906 181.334 10.7906C181.3 10.7906 180.929 10.4984 180.502 10.1388C174.77 5.31713 166.217 6.58717 162.16 12.8699C159.103 17.6016 159.676 23.8619 163.553 27.9417C165.97 30.4818 169.016 31.808 172.466 31.808C175.838 31.808 178.547 30.7065 180.985 28.3351C182.469 26.8964 183.447 25.3342 184.099 23.3786C184.762 21.4342 184.773 21.1532 184.773 10.0826V0.000982285H183.087H181.401V5.39581ZM174.658 11.0267C177.58 11.7684 179.839 13.9039 180.851 16.8598C181.199 17.8601 181.221 18.0287 181.221 19.501C181.233 21.3555 181.087 22.0186 180.334 23.5472C179.479 25.2668 178.119 26.6267 176.4 27.4809C175.141 28.099 174.332 28.3126 172.972 28.4025C167.847 28.7172 163.643 24.761 163.621 19.6134C163.61 17.1633 164.385 15.2301 166.105 13.4543C168.375 11.1053 171.477 10.2287 174.658 11.0267Z" fill="white"/>
<path d="M212.646 15.8474V31.6947H214.388H216.13V15.8474V9.34601e-05H214.388H212.646V15.8474Z" fill="white"/>
<path d="M243.127 14.1285L243.16 21.4115H244.846H246.532L246.566 14.1285L246.588 6.85671H244.846H243.104L243.127 14.1285Z" fill="white"/>
<path d="M40.6295 7.36252C35.0774 8.38529 31.065 12.7012 30.4356 18.3095C30.1321 21.1081 30.9301 24.1652 32.6047 26.5928C33.3465 27.6718 35.0324 29.2678 36.1451 29.9646C38.0782 31.1672 40.3373 31.8078 42.6863 31.8078C44.8443 31.8078 46.4964 31.4032 48.4071 30.4142L49.3849 29.9084L50.7449 30.5715C51.4866 30.9424 52.4982 31.347 52.9927 31.4707C56.3307 32.3248 59.6576 31.8528 62.6135 30.0882C66.5809 27.728 68.9973 22.8389 68.4466 18.2646C67.9521 14.1398 65.6368 10.7006 62.029 8.72247C58.455 6.76684 53.8918 6.78932 50.284 8.76743L49.4636 9.217L48.9129 8.89106C48.1036 8.38529 46.8336 7.87953 45.6422 7.56483C44.2486 7.21641 41.967 7.11526 40.6295 7.36252ZM43.6304 10.7905C44.5408 10.8916 46.148 11.33 46.5189 11.566C46.6538 11.6559 46.5751 11.8357 46.0918 12.5213C43.9901 15.5672 43.3494 19.3885 44.3497 22.9064C44.6869 24.0977 45.5523 25.9072 46.2379 26.8289L46.7437 27.5144L46.2154 27.7392C45.0016 28.2562 44.3947 28.3686 42.8212 28.3799C41.0229 28.3799 40.3149 28.2225 38.8313 27.492C35.7854 25.9859 33.9422 23.0075 33.9422 19.6133C33.9422 17.253 34.684 15.3424 36.235 13.6452C37.6736 12.0605 39.6517 11.049 41.7759 10.8017C42.1918 10.7455 42.5627 10.7006 42.5964 10.6893C42.6301 10.6893 43.0909 10.7343 43.6304 10.7905ZM58.2751 11.0265C61.5233 11.8133 63.9622 14.2971 64.7602 17.6352C65.0636 18.9052 64.9962 20.8945 64.6253 22.0859C64.0858 23.7943 63.063 25.3453 61.7481 26.4355C60.9838 27.0761 59.3541 27.9078 58.3875 28.1663C56.7803 28.5822 54.5774 28.4698 53.0489 27.8853C52.0936 27.5144 52.0598 27.4807 52.3408 27.1773C53.1838 26.2557 54.229 24.1539 54.6111 22.6141C54.9371 21.2767 54.9708 20.9732 54.9708 19.5121C54.9708 16.8597 54.3077 14.713 52.8016 12.4876C52.1498 11.5323 52.116 11.5997 53.4423 11.1726C54.9933 10.6781 56.6454 10.6219 58.2751 11.0265ZM50.1042 14.6568C51.7339 17.0957 52.0486 20.1303 50.9584 22.9288C50.6662 23.6931 49.7108 25.1879 49.4861 25.2666C49.3062 25.3228 48.6431 24.4012 48.1598 23.4121C47.5192 22.0971 47.2832 20.8833 47.3506 19.2199C47.4068 17.7251 47.6316 16.781 48.1823 15.6795C48.5307 15.0052 49.3399 13.8251 49.4636 13.8251C49.5085 13.8251 49.8008 14.196 50.1042 14.6568Z" fill="white"/>
<path d="M144.266 7.31726C142.637 7.55328 140.614 8.34003 139.175 9.29536C138.31 9.86856 136.792 11.3184 136.107 12.2513C134.983 13.7573 134.129 15.8478 133.859 17.7473C133.668 18.9836 133.78 21.2427 134.073 22.4228C135.275 27.2556 139.355 30.9983 144.199 31.7064C145.626 31.9087 147.942 31.785 149.245 31.4254C150.988 30.9421 152.752 29.998 154.247 28.7505L154.685 28.3908L154.607 28.9415C154.46 29.9755 154.179 30.841 153.618 32.0211C153.134 33.0326 152.921 33.3248 152.134 34.1116C151.392 34.8534 151.032 35.1119 150.156 35.5389C147.234 36.9551 143.592 36.9551 141.153 35.5165C140.322 35.0219 139.029 33.7182 138.523 32.8415L138.186 32.2571H136.309C135.264 32.2571 134.421 32.2908 134.421 32.3245C134.421 32.5156 135.354 34.3364 135.736 34.9096C137.141 36.9663 139.557 38.6859 142.131 39.439C145.435 40.4168 148.987 40.1021 151.808 38.6073C154.831 37.0113 157.158 33.9093 157.911 30.4925C158.248 28.9752 158.383 26.2104 158.338 21.6922C158.293 17.6686 158.282 17.5674 157.99 16.466C157.664 15.2634 156.944 13.6449 156.259 12.6109C155.652 11.6893 154.09 10.1158 153.157 9.46395C150.515 7.6432 147.324 6.86769 144.266 7.31726ZM148.414 10.9475C149.392 11.206 151.01 12.049 151.774 12.6784C153.707 14.2856 154.831 16.5447 154.955 19.0622C155.202 24.1761 151.313 28.3121 146.222 28.3346C144.66 28.3458 143.615 28.0986 142.21 27.413C140.4 26.5251 138.984 25.0752 138.119 23.232C137.096 21.0291 137.062 18.1743 138.051 15.9377C139.22 13.2965 141.76 11.3072 144.626 10.7902C145.413 10.6441 147.638 10.734 148.414 10.9475Z" fill="white"/>
<path d="M228.482 7.31716C225.639 7.55319 222.705 8.99181 220.75 11.0711C218.648 13.3189 217.524 15.9938 217.4 19.0172C217.322 20.7705 217.479 21.9282 217.996 23.4904C219.491 27.9973 223.413 31.1893 228.213 31.8187C231.034 32.1896 234.192 31.4141 236.642 29.7507C237.609 29.0875 239.07 27.6489 239.733 26.6823C240.283 25.8956 241.306 23.895 241.306 23.614C241.306 23.5241 240.778 23.4904 239.53 23.4904H237.755L237.26 24.2434C236.159 25.9406 234.27 27.4241 232.427 28.0423C227.875 29.5596 222.919 27.0645 221.357 22.4789C221.199 22.0293 221.076 21.6135 221.076 21.5573C221.076 21.5123 225.751 21.4673 231.461 21.4673H241.834L241.913 20.9503C242.026 20.0624 241.992 18.5114 241.812 17.5111C240.699 11.1273 234.99 6.7552 228.482 7.31716ZM231.506 10.9699C234.855 11.6555 237.631 14.3642 238.373 17.646L238.474 18.0956H229.775C221.435 18.0956 221.076 18.0843 221.076 17.8933C221.076 16.9717 222.177 14.8025 223.234 13.6561C224.616 12.1613 226.178 11.3183 228.437 10.8575C228.999 10.7451 230.719 10.8013 231.506 10.9699Z" fill="white"/>
<path d="M253.22 7.37338C251.995 7.68808 250.781 8.39615 249.848 9.31777C248.477 10.6665 248.016 11.8466 248.016 13.9371C248.016 15.8478 248.466 17.1403 249.477 18.1068C250.826 19.4106 252.298 20.2198 254.175 20.6806C255.715 21.0628 256.333 21.355 257.098 22.0406C258.548 23.3668 258.671 25.491 257.367 26.9071C255.918 28.4919 253.793 28.5706 252.164 27.0757C251.523 26.4913 251.197 25.8507 251.028 24.8616L250.95 24.3896H249.152H247.342L247.421 24.9178C247.556 25.8956 247.848 26.9071 248.23 27.7164C248.522 28.357 248.803 28.7054 249.545 29.4023C252.13 31.8412 254.76 32.3132 257.66 30.8634C261.054 29.1662 262.459 26.2103 261.571 22.6475C260.919 20.0063 259.211 18.5789 255.299 17.41C253.546 16.893 253.04 16.6682 252.355 16.1175C250.646 14.7351 251.096 11.9028 253.209 10.7564C254.749 9.91344 256.648 10.5428 257.558 12.195L257.929 12.8694L258.862 12.948C259.379 12.9818 260.121 13.0155 260.514 13.0267L261.234 13.0379L261.166 12.4535C261.121 12.1163 260.896 11.4869 260.616 10.9137C259.761 9.19413 258.132 7.81171 256.423 7.36214C255.603 7.14859 254.041 7.15983 253.22 7.37338Z" fill="white"/>
<path d="M93.1392 7.41798C91.0375 7.67648 88.6998 8.94651 87.3286 10.5874L86.7891 11.2281L86.3283 10.6774C85.2493 9.39608 83.0689 8.08109 81.2594 7.63152C79.9107 7.28311 77.7977 7.36178 76.4265 7.81135C73.302 8.82288 71.1216 10.7111 70.1326 13.2961C69.5032 14.9145 69.4582 15.5664 69.4582 24.0183V31.6947H71.3127H73.1671V23.7935C73.1671 16.2857 73.1784 15.8362 73.3919 15.0157C73.6729 13.9142 74.0888 13.15 74.7968 12.4194C75.8308 11.3629 76.7974 10.9583 78.6182 10.8347C80.3378 10.7111 81.5853 11.1719 82.9003 12.397C83.7545 13.1837 84.2153 13.8918 84.6087 14.9707L84.9121 15.7912L84.9459 23.7373L84.9796 31.6947H86.7104H88.4413L88.475 23.6249C88.5087 15.6563 88.5199 15.5552 88.7672 14.8246C89.5764 12.397 91.858 10.7897 94.488 10.7897C97.2078 10.7897 99.3096 12.5206 100.04 15.3753C100.242 16.1733 100.254 16.6791 100.254 23.9621V31.6947H102.052H103.861L103.828 23.4564L103.794 15.2292L103.491 14.1503C102.681 11.1831 100.939 9.19377 98.2306 8.10357C96.7358 7.50789 94.6678 7.22691 93.1392 7.41798Z" fill="white"/>
<path d="M195.664 7.48643C191 8.32937 187.178 11.8697 185.919 16.5003C185.661 17.4781 185.627 17.7928 185.627 19.5574C185.616 21.3669 185.638 21.6141 185.931 22.6369C187.234 27.3237 190.91 30.7516 195.596 31.6395C196.855 31.8755 199.081 31.8531 200.339 31.5946C202.306 31.1899 204.273 30.2234 205.847 28.9084C206.307 28.5263 206.712 28.2116 206.746 28.2116C206.779 28.2116 206.802 28.9983 206.802 29.9536V31.6957H208.488H210.174V25.132C210.174 18.1637 210.14 17.6579 209.6 15.9046C208.69 12.8925 206.296 10.0714 203.486 8.66654C201.047 7.44147 198.238 7.01438 195.664 7.48643ZM200.013 11.0155C203.25 11.8472 205.655 14.2637 206.476 17.5231C206.824 18.8942 206.746 21.0297 206.307 22.311C205.858 23.6484 205.172 24.7611 204.217 25.7502C202.351 27.6608 200.137 28.5375 197.428 28.4139C195.192 28.3127 193.225 27.436 191.64 25.8401C190.629 24.8398 189.954 23.7383 189.46 22.3222C189.123 21.3556 189.111 21.2095 189.111 19.6697C189.1 17.7816 189.246 17.1072 189.954 15.6573C191.056 13.4095 193.225 11.6562 195.675 11.0155C196.866 10.7121 198.822 10.7121 200.013 11.0155Z" fill="white"/>
<path d="M120.485 7.55285C119.529 7.68772 118.068 8.19349 117.248 8.66553C116.899 8.87908 116.146 9.49724 115.596 10.0592C114.696 10.9471 114.505 11.2168 114 12.2508C112.966 14.3638 113.022 13.7457 112.977 23.2878L112.943 31.6947H114.753H116.551V23.7935C116.551 17.1511 116.585 15.7912 116.72 15.1843C117.214 13.0825 118.866 11.4529 121.002 10.9471C122.463 10.5987 124.328 10.8797 125.621 11.6439C126.846 12.352 127.925 13.903 128.229 15.3754C128.307 15.7687 128.352 18.5673 128.352 23.8272V31.6947H130.094H131.836V23.8497C131.836 18.882 131.791 15.6451 131.713 15.0045C131.409 12.5431 129.881 10.1604 127.734 8.82288C125.88 7.66524 123.103 7.18196 120.485 7.55285Z" fill="white"/>
<path d="M106.436 20.0059V31.6947H108.178H109.92V20.0059V8.31712H108.178H106.436V20.0059Z" fill="white"/>
</svg>
