<svg width="86" height="50" viewBox="0 0 86 50" fill="none" xmlns="http://www.w3.org/2000/svg">
<path fill-rule="evenodd" clip-rule="evenodd" d="M76.0189 0.143849C74.1377 0.466574 72.9392 1.63014 72.415 3.64239C71.675 6.48403 72.4767 8.51111 76.2082 13.233C78.5 16.1328 78.8529 16.8793 78.8504 18.8237C78.8481 20.8811 78.5519 21.4771 77.5323 21.4771C76.3694 21.4771 76.0745 20.7574 76.1534 18.1131L76.2142 16.0757H74.3839C72.6425 16.0757 72.5488 16.0964 72.452 16.5022C71.611 20.0281 72.9832 23.517 75.4841 24.2114C79.667 25.373 82.4998 23.1833 82.702 18.6319C82.8268 15.8235 82.2171 14.5623 78.5371 10.0183C76.0431 6.93836 75.2088 3.24219 76.8875 2.70948C77.9509 2.37193 78.3877 3.20917 78.3877 5.58548V7.16834H80.1745H81.9613L82.0963 6.08854C82.4819 3.00256 81.0205 0.655224 78.4048 0.159121C77.3023 -0.0499649 77.1541 -0.0508634 76.0189 0.143849ZM20.8623 0.354732C20.7319 0.56584 20.6373 1.16974 19.7201 7.64198C19.0643 12.2679 18.1909 18.3004 17.7442 21.2876C17.5417 22.6425 17.3726 23.8153 17.369 23.8934C17.3651 23.9716 18.1682 24.0356 19.1539 24.0356H20.9457L21.0584 23.4196C21.1202 23.0809 21.2306 22.2493 21.3039 21.5719L21.4368 20.3399H22.7632H24.0896L24.2306 21.5719C24.3083 22.2493 24.419 23.0809 24.4765 23.4196L24.581 24.0356H26.7518C27.9459 24.0356 28.9228 24.0021 28.9228 23.9613C28.9228 23.9204 28.7553 23.0463 28.5507 22.0186C28.192 20.2172 27.9769 18.9353 26.9335 12.38C26.668 10.7122 26.2891 8.49494 26.0915 7.45243C25.729 5.53922 24.9437 1.06037 24.8788 0.535072C24.8343 0.174842 21.0777 0.00640533 20.8623 0.354732ZM4.85366 12.1815V24.065L8.40722 24.003C12.4502 23.9323 13.4186 23.6282 14.5433 22.0766C16.7204 19.0732 15.8703 12.8339 13.1199 11.6276C12.7803 11.4787 12.6642 11.362 12.8463 11.3532C15.0409 11.2461 15.8409 4.97821 14.0175 2.17654C13.1423 0.831745 11.9761 0.476232 8.1229 0.379661L4.85366 0.297688V12.1815ZM31.5286 0.452426C31.4505 0.532602 31.3865 5.8716 31.3865 12.3169V24.0356H33.4713H35.5561V19.0245C35.5561 13.6518 35.5422 13.7293 36.4355 14.1043C37.5351 14.5661 37.7759 15.4662 37.8996 19.5819C38.0467 24.4697 37.801 24.0356 40.4221 24.0356C41.9594 24.0356 42.5529 23.9745 42.4611 23.8258C42.3897 23.7104 42.2655 21.8129 42.1849 19.6088C42.0115 14.8636 41.6369 13.4692 40.2685 12.4781L39.5402 11.9506L40.1045 11.7168C43.5656 10.2831 43.4652 2.58978 39.9633 0.901141C39.0324 0.452201 31.899 0.072657 31.5286 0.452426ZM46.1692 12.1839V24.0356H48.1834H50.1977L50.1196 18.0184C50.0708 14.2588 50.1041 12.3209 50.2083 12.8539C50.4079 13.8746 52.0202 19.5969 52.8384 22.1877L53.4216 24.0356H55.1019H56.7823V12.1837V0.331825L54.9346 0.385949L53.0868 0.440298L53.1247 6.2206L53.1629 12.0009L52.1154 8.11585C51.5392 5.97895 50.8376 3.37784 50.5564 2.33555L50.0448 0.440298L48.1071 0.386174L46.1692 0.332274V12.1839ZM60.6929 0.478028C60.6269 0.544055 60.5728 5.8716 60.5728 12.3169V24.0356H65.216H69.8592V22.2351V20.4346H67.3008H64.7423V17.0232V13.6118H66.7321H68.7222V12.0009V10.39H66.7321H64.7423V7.16834V3.94648H67.0237H69.305L69.2504 2.19339L69.196 0.440298L65.0044 0.3992C62.6991 0.376517 60.7589 0.412001 60.6929 0.478028ZM10.3299 3.52C10.8747 3.97028 11.1799 5.73752 11.0382 7.62199C10.8911 9.5817 10.6133 10.0111 9.49263 10.0111H8.64416V6.59969V3.18829H9.28646C9.63973 3.18829 10.1093 3.33763 10.3299 3.52ZM37.342 3.59523C38.0357 3.91122 38.2973 4.88882 38.3009 7.17664C38.305 9.81459 38.0871 10.2006 36.5941 10.2006H35.5561V6.78924V3.37783H36.2105C36.5703 3.37783 37.0797 3.47575 37.342 3.59523ZM22.9321 9.48984C23.0028 10.454 23.1793 12.0106 23.3244 12.9486C23.4695 13.8867 23.6472 15.3153 23.7192 16.1231L23.8502 17.5919H22.7857C22.2002 17.5919 21.7211 17.5279 21.7211 17.4497C21.7211 17.3716 21.8907 15.5592 22.0978 13.4225C22.3048 11.2856 22.4753 9.13208 22.4766 8.6371C22.4809 7.06997 22.7985 7.66444 22.9321 9.48984ZM10.1397 13.0185C11.0476 13.2729 11.2974 14.1778 11.2967 17.2099C11.2958 20.4342 11.0746 21.0751 9.88632 21.2982C8.61294 21.5369 8.64416 21.6406 8.64416 17.1555C8.64416 12.4853 8.60643 12.5891 10.1397 13.0185ZM10.0655 24.5387C9.8569 24.5829 9.49106 24.6608 9.25233 24.7118C8.99181 24.7675 8.87076 24.8901 8.94982 25.0181C9.02393 25.1381 8.9972 25.1792 8.88873 25.112C7.98928 24.5562 4.32342 28.5602 4.73935 29.6443C4.80178 29.8067 4.76832 29.8803 4.66186 29.8145C4.54306 29.7411 4.47569 30.4128 4.47748 31.6525C4.4795 32.9686 4.53947 33.5136 4.66164 33.3221C4.78763 33.1244 4.81031 33.2405 4.73598 33.7034C4.66725 34.1319 4.76652 34.7603 5.01491 35.4666C5.37222 36.4831 5.37694 36.5724 5.07981 36.6776C4.59606 36.8487 4.09143 37.3315 4.20462 37.5148C4.25964 37.604 4.18261 37.63 4.03348 37.5727C3.87852 37.5132 3.59847 37.6767 3.3804 37.9539C3.17041 38.2209 2.89508 38.4392 2.76864 38.4392C2.63883 38.4392 2.58785 38.5672 2.65163 38.7334C2.71811 38.9063 2.68532 38.9784 2.5719 38.9083C2.3298 38.7588 1.61518 39.5915 1.72253 39.8983C1.77239 40.0413 1.68795 40.0818 1.49436 40.0077C1.26169 39.9183 1.21745 39.969 1.31244 40.2165C1.38386 40.4029 1.36095 40.4959 1.25899 40.433C0.96277 40.25 0.4496 41.2155 0.586146 41.6992C0.673733 42.01 0.656664 42.0592 0.526182 41.8703C-0.0750248 41.0005 -0.209101 45.6339 0.37661 47.036C0.729204 47.8795 1.91388 49.1347 2.19415 48.9613C2.3069 48.8917 2.37584 48.9438 2.3471 49.077C2.31857 49.2104 2.38033 49.3263 2.48454 49.3348C2.58875 49.3431 2.88744 49.4749 3.14796 49.6276C4.39035 50.3555 9.79851 49.6575 9.29028 48.8351C9.21527 48.7138 9.23212 48.6631 9.32756 48.7219C9.57752 48.8764 10.2214 48.3572 10.0745 48.1196C10.0013 48.001 10.0628 47.9626 10.2254 48.0248C10.3764 48.0827 10.6153 47.9752 10.7566 47.7858C10.9946 47.4663 11.7755 47.2224 11.5878 47.5262C11.2388 48.0908 14.2208 50 15.4515 50C16.7055 50 19.1095 48.6323 18.7832 48.1043C18.7189 48.0003 18.7993 47.9152 18.9617 47.9152C19.2891 47.9152 19.3597 47.6219 19.0747 47.4456C18.9743 47.3836 18.7182 47.5065 18.506 47.7187C18.2938 47.9311 18.0562 48.1041 17.978 48.1032C17.8999 48.1023 17.6825 48.2328 17.4954 48.3931C17.3081 48.5535 17.064 48.6287 16.953 48.56C16.8419 48.4915 16.6766 48.5528 16.5856 48.6963C16.4659 48.8856 16.4194 48.8921 16.4174 48.7208C16.4156 48.5903 16.2382 48.4838 16.0228 48.4838C15.4939 48.4838 14.9304 48.1759 14.159 47.466C13.7256 47.067 13.5542 46.9845 13.6357 47.2143C13.7103 47.4252 13.682 47.5096 13.5616 47.4353C13.4545 47.369 13.4217 47.1413 13.4891 46.9293C13.5767 46.6533 13.5383 46.5693 13.3545 46.6333C13.2133 46.6825 13.1226 46.8844 13.1531 47.082C13.1989 47.3802 13.1758 47.3931 13.0177 47.1572C12.8843 46.958 12.9016 46.7986 13.0754 46.6248C13.2798 46.4202 13.2288 46.2749 12.7841 45.7992C12.4457 45.4367 12.2545 45.0354 12.2707 44.7207L12.2965 44.2195L12.3817 44.6933C12.4284 44.9539 12.5508 45.2526 12.6536 45.3568C12.7783 45.483 12.8227 45.483 12.7868 45.3568C12.7572 45.2526 12.8263 44.9965 12.9406 44.7881C13.5145 43.7409 14.3429 41.4569 14.2208 41.259C14.1363 41.1227 14.1624 41.0839 14.2868 41.1607C14.4018 41.2319 14.5516 41.0991 14.6279 40.8584C14.7029 40.6223 14.9525 40.1307 15.1826 39.7658C15.4128 39.4011 15.6087 39.0289 15.6177 38.9389C15.6397 38.7195 16.5829 38.2305 17.1763 38.1311C17.7213 38.0399 18.17 38.642 18.3787 39.7453C18.665 41.2577 20.2012 41.1584 20.5113 39.6077C20.6629 38.8495 20.459 38.2234 20.194 38.6341C20.0568 38.847 20.0255 38.8043 20.0621 38.4538C20.2456 36.6964 16.3952 36.7274 14.9852 38.4944C14.4222 39.1998 13.2104 41.9027 13.1991 42.4776C13.1955 42.6663 13.1156 42.7729 13.0215 42.7148C12.8147 42.587 12.4124 43.6544 12.5921 43.8548C12.6617 43.9325 12.6195 43.9392 12.498 43.8698C12.3767 43.8002 12.2274 43.8505 12.1663 43.9814C12.0773 44.1725 12.0336 44.1725 11.9444 43.9814C11.8835 43.8505 11.7342 43.8002 11.6129 43.8698C11.4914 43.9392 11.4544 43.9271 11.5307 43.8428C11.7007 43.6551 10.9149 42.2092 10.7112 42.3352C10.631 42.3846 10.5037 42.3253 10.4282 42.2034C10.3427 42.0648 10.3732 42.0323 10.51 42.1167C10.8882 42.3505 10.753 41.9806 9.97077 40.6421C9.55372 39.9286 9.21258 39.2638 9.21258 39.165C9.21258 39.0662 9.11421 39.0462 8.99383 39.1206C8.86313 39.2014 8.82629 39.1729 8.90243 39.0498C8.97227 38.9364 8.81507 38.3745 8.55253 37.8007C7.91674 36.4107 7.9383 36.2904 8.91478 35.7723C9.37652 35.5275 9.70688 35.2506 9.64916 35.1571C9.59145 35.0637 9.7134 35.0408 9.92024 35.1066C10.1495 35.1794 10.3896 35.1133 10.5358 34.9373C10.6674 34.7787 10.857 34.6487 10.9571 34.6487C11.4674 34.6487 13.5643 32.8361 13.4767 32.4707C13.4266 32.2614 13.4329 32.192 13.4909 32.3164C13.6584 32.6768 14.1662 32.3759 14.0433 31.9889C13.9838 31.8016 14.0229 31.5941 14.1303 31.5279C14.2491 31.4544 14.2823 31.5409 14.2151 31.7486C14.1386 31.9858 14.2253 31.9452 14.4981 31.6164C14.7146 31.3559 14.8514 31.0316 14.8022 30.8959C14.7532 30.7603 14.7883 30.6956 14.8804 30.7524C15.1393 30.9125 15.6565 29.4278 15.6538 28.5329C15.6507 27.5595 15.4773 26.8496 15.2734 26.9756C15.1907 27.0266 15.1579 26.919 15.2004 26.7364C15.2916 26.3459 14.2203 25.1008 13.9412 25.2733C13.837 25.3377 13.7752 25.284 13.8037 25.1542C13.9108 24.6685 11.4034 24.2559 10.0655 24.5387ZM39.769 25.6463C37.4628 26.6486 36.7962 29.2859 36.7989 37.3969C36.8021 47.1685 37.9492 49.8105 42.1894 49.8105C46.1604 49.8105 47.4185 47.3279 47.6272 39.0797C47.8502 30.263 46.9597 26.5296 44.4037 25.5639C43.6215 25.2683 40.5117 25.3236 39.769 25.6463ZM12.1598 25.8055C11.769 26.0914 12.2471 26.4481 12.6705 26.1864C12.7931 26.1105 12.8162 26.1523 12.7291 26.2933C12.6366 26.4429 12.6887 26.5035 12.8769 26.4647C13.0368 26.4317 13.1715 26.4694 13.1762 26.5487C13.1809 26.6279 13.3238 26.9614 13.4936 27.2898C13.8724 28.0224 13.792 29.7173 13.3352 30.6311C13.1632 30.9752 13.0466 31.359 13.0765 31.4841C13.1062 31.609 13.0965 31.6525 13.055 31.5809C12.9577 31.4131 11.3921 32.9264 11.3921 33.188C11.3921 33.2965 11.2641 33.4202 11.1078 33.4629C10.8552 33.5318 10.8552 33.5181 11.1078 33.3394C11.6082 32.9856 11.1532 33.1186 10.4556 33.5303C10.0851 33.7488 9.83736 34.0178 9.90541 34.1281C9.9784 34.246 9.93865 34.2723 9.80862 34.1919C9.68734 34.1171 9.2009 34.317 8.72748 34.6365C7.63691 35.3727 7.56706 35.3662 7.32317 34.5065C6.05473 30.0353 7.87923 25.9414 11.144 25.9326C11.5287 25.9317 11.8963 25.8455 11.9606 25.7413C12.025 25.6371 12.1744 25.5517 12.2923 25.5517C12.4104 25.5517 12.3507 25.6661 12.1598 25.8055ZM22.8582 37.3969V49.2418H24.7532H26.6485L26.668 43.4141C26.6851 38.2817 26.7158 37.7106 26.9254 38.6287C27.0563 39.2021 27.5282 40.9078 27.974 42.4192C28.4198 43.9304 28.8941 45.551 29.0281 46.02C29.1622 46.4891 29.4313 47.3845 29.6262 48.01L29.9806 49.147H31.6787H33.3765V37.3969V25.6465L31.514 25.5922L29.6516 25.5376L29.7136 31.3096C29.7477 34.4841 29.7493 37.0548 29.7169 37.0225C29.6846 36.9899 29.4528 36.1655 29.2015 35.1901C28.7299 33.3582 26.849 26.2082 26.7284 25.7887C26.6799 25.6193 26.1176 25.5517 24.7593 25.5517H22.8582V37.3969ZM50.9072 37.3738V49.2418H54.1937C60.4113 49.2418 61.9286 47.9648 61.9616 42.7033C61.9816 39.5286 61.2815 37.7715 59.6973 37.0198L58.9901 36.6841L59.5446 36.3944C60.8551 35.7094 61.3215 34.5377 61.3267 31.9173C61.3368 26.8554 60.1014 25.7325 54.366 25.5908L50.9072 25.5055V37.3738ZM65.1212 37.3906V49.2418H69.7645H74.4079V47.4413V45.6411H71.9458H69.4835L69.4345 35.6438L69.3856 25.6465L67.2534 25.5928L65.1212 25.5394V37.3906ZM76.682 37.3933V49.2418H81.3325H85.9829L85.9283 47.4887L85.8737 45.7356L83.3627 45.6829L80.8514 45.6301V42.2241V38.8183H82.8414H84.8315V37.2073V35.5964H82.8414H80.8514V32.3746V29.1527H83.1329H85.4143L85.3597 27.3996L85.3053 25.6465L80.9936 25.5955L76.682 25.5446V37.3933ZM42.6421 27.882C43.2229 28.3067 43.3657 30.7493 43.2754 38.701C43.1865 46.5444 43.1512 46.9093 42.4685 47.0807C41.0568 47.4348 41.0098 47.078 41.0869 36.5745L41.1468 28.3608L41.5942 27.9986C42.1242 27.5696 42.203 27.5609 42.6421 27.882ZM56.8584 29.0242C57.2139 29.5021 57.2561 29.8168 57.2561 31.9887C57.2561 34.8854 57.0715 35.2762 55.7498 35.1789L54.982 35.1225L54.9297 32.0026C54.9009 30.2868 54.9216 28.7678 54.9755 28.6272C55.1556 28.1578 56.4106 28.4224 56.8584 29.0242ZM6.42641 29.5832C6.49513 30.0279 6.46683 30.2549 6.3514 30.1838C6.13221 30.0481 6.26853 32.6485 6.57059 34.3646C6.83784 35.8825 7.51541 37.8878 7.71866 37.7623C7.80826 37.7068 7.83544 37.7818 7.77907 37.9289C7.66678 38.2211 9.31544 41.8589 9.66219 42.0846C9.77965 42.1612 9.80502 42.2252 9.71834 42.2268C9.63165 42.2283 9.73001 42.5068 9.93685 42.8455C10.6726 44.0501 11.1065 44.7919 11.2392 45.0724C11.5601 45.7502 12.209 46.5614 12.332 46.4384C12.4057 46.3647 12.4414 46.3896 12.4113 46.4938C12.3812 46.598 12.5043 46.9605 12.6846 47.2992C12.8652 47.6381 12.9254 47.9152 12.8185 47.9152C12.7116 47.9152 12.624 47.8431 12.624 47.7549C12.624 47.6666 12.3215 47.2828 11.9516 46.9019C11.5817 46.5212 11.3261 46.2095 11.3836 46.2095C11.4411 46.2095 10.9841 45.461 10.3678 44.5458C9.75157 43.6308 8.89008 42.2023 8.45349 41.3713C8.0169 40.5404 7.59379 39.7752 7.51316 39.671C7.43276 39.5668 7.26051 39.1516 7.13047 38.7482C6.97282 38.2591 6.84436 38.0951 6.74487 38.2561C6.64762 38.4136 6.59866 38.339 6.60428 38.0419C6.60899 37.7913 6.42439 36.9042 6.19397 36.0701C5.5959 33.9053 5.46789 31.2031 5.89886 29.833C6.0837 29.2457 6.25326 28.7882 6.27549 28.8167C6.29795 28.845 6.36577 29.1902 6.42641 29.5832ZM11.7589 33.8285C11.568 33.968 11.265 34.0353 11.0856 33.9783C10.8655 33.9085 10.718 34.0055 10.6319 34.2761C10.5619 34.4969 10.4628 34.6357 10.4118 34.5844C10.1745 34.3471 10.7685 33.6881 11.1193 33.7995C11.3214 33.8638 11.4869 33.8395 11.4869 33.7454C11.4869 33.6515 11.6262 33.5747 11.7962 33.5747C12.0636 33.5747 12.0587 33.6091 11.7589 33.8285ZM6.66581 39.9553C7.56122 41.9249 7.87743 42.4468 8.09393 42.313C8.18579 42.2562 8.20443 42.3563 8.13593 42.5351C8.04452 42.7732 8.07821 42.8188 8.26214 42.7051C8.41845 42.6085 8.46741 42.6238 8.39218 42.7458C8.23497 43 8.69536 43.9358 9.67791 45.3599C10.4954 46.5444 10.8121 47.1671 10.5798 47.1325C10.1453 47.0676 9.94202 47.1882 10.0431 47.4512C10.1078 47.6199 10.0759 47.696 9.96852 47.6295C9.61683 47.4121 9.36776 47.7391 9.62985 48.0742C9.84545 48.35 9.83804 48.3594 9.56989 48.1501C9.32127 47.9561 9.16092 47.9648 8.71692 48.1964C8.41621 48.3531 8.02094 48.482 7.83858 48.4827C7.65622 48.4832 7.50687 48.555 7.50687 48.6419C7.50687 48.8346 5.50562 48.5782 4.74159 48.2878C4.43841 48.1723 4.18014 48.1054 4.16756 48.1389C4.08446 48.3601 2.74371 46.4341 2.58628 45.867C2.09781 44.1081 2.67229 41.7731 4.09075 39.7507C4.51117 39.1513 4.791 38.6249 4.7124 38.5811C4.63379 38.5371 4.6823 38.5297 4.82042 38.5645C4.95831 38.5991 5.20446 38.4944 5.36728 38.3316C5.74053 37.9583 5.78028 38.008 6.66581 39.9553ZM57.0816 38.7199C57.5452 39.4271 57.7769 41.8739 57.5732 43.9057C57.3574 46.0581 57.1173 46.399 55.8175 46.399H54.9113L54.8949 42.3244L54.8785 38.2496H55.826C56.6257 38.2496 56.8218 38.3231 57.0816 38.7199ZM3.52705 40.1579C3.52705 40.2295 3.41431 40.3814 3.27687 40.4957C3.07744 40.6612 3.02893 40.5684 3.03791 40.0389C3.04779 39.4565 3.07878 39.4148 3.2881 39.7011C3.41948 39.8808 3.52705 40.0863 3.52705 40.1579ZM9.26019 43.2666C9.61772 43.7582 9.36642 44.1665 8.95925 43.7559C8.79104 43.5864 8.82876 43.5628 9.1178 43.6555C9.46411 43.7669 9.45984 43.7447 9.07042 43.3995C8.6363 43.0148 8.53052 42.7934 8.78609 42.8042C8.86447 42.8073 9.0776 43.0155 9.26019 43.2666ZM13.5715 42.8713C13.5715 42.9115 13.4442 43.1886 13.2885 43.4871C13.1327 43.7858 13.0049 43.9304 13.0042 43.8087C13.0035 43.6868 12.9523 43.431 12.8903 43.2401C12.7967 42.9513 12.8122 42.9407 12.9822 43.1772C13.1589 43.4229 13.1872 43.4166 13.1897 43.1298C13.1913 42.9474 13.2777 42.7981 13.3822 42.7981C13.4864 42.7981 13.5715 42.8311 13.5715 42.8713ZM9.84298 44.8166C10.0992 45.1221 10.1271 45.2602 9.9537 45.3671C9.81513 45.4529 9.77134 45.4311 9.84455 45.3127C9.9117 45.2043 9.83961 45.01 9.68442 44.8811C9.52901 44.7524 9.40212 44.5579 9.40212 44.449C9.40212 44.3403 9.42436 44.2866 9.45153 44.3302C9.47871 44.3735 9.65478 44.5925 9.84298 44.8166ZM10.6735 45.7325C10.4307 45.995 10.1603 45.9351 10.1603 45.6186C10.1603 45.5144 10.26 45.4908 10.382 45.5661C10.5345 45.6604 10.5628 45.5964 10.4723 45.361C10.3629 45.0756 10.3876 45.0574 10.6216 45.2517C10.8421 45.4347 10.8532 45.5378 10.6735 45.7325Z" fill="white"/>
</svg>
