<svg width="99" height="40" viewBox="0 0 99 40" fill="none" xmlns="http://www.w3.org/2000/svg">
<path d="M72.0773 0.047224C69.6312 0.167379 67.9233 0.193127 62.4005 0.193127C56.9935 0.193127 54.8607 0.158796 53.8394 0.0600986L53.5819 0.0343494L53.5776 1.20587C53.5733 1.85385 53.5519 2.49324 53.5304 2.62627L53.4875 2.87517H53.5991C53.6592 2.87517 54.1827 2.84513 54.762 2.8108C56.4013 2.7121 58.1221 2.6606 59.7013 2.6606H61.1474L61.1732 3.37724C61.186 3.77633 61.2118 7.24367 61.2246 11.0929C61.2547 18.6241 61.2547 18.6241 61.023 22.5635C60.95 23.8208 60.8985 24.8593 60.9071 24.8722C60.92 24.8808 61.3019 24.8679 61.7611 24.8421C62.585 24.7949 65.1125 24.8121 65.7863 24.8722L66.1038 24.9022L66.0738 24.6276C65.842 22.4562 65.8206 21.2032 65.8506 11.9383C65.8678 7.48398 65.8893 3.57464 65.9021 3.24851L65.9279 2.6606H67.4127C69.421 2.6606 71.0173 2.72068 72.9183 2.858L73.2874 2.88804L73.2831 1.90534C73.2788 1.36464 73.296 0.716661 73.3131 0.459185L73.3475 2.09808e-05L73.0342 0.00860214C72.8626 0.00860214 72.4334 0.0257683 72.0773 0.047224Z" fill="white"/>
<path d="M91.6623 0.206136C91.0143 0.4207 90.6367 0.939943 90.6367 1.60938C90.6367 2.18441 90.9714 2.70365 91.5078 2.94396C92.1258 3.22289 92.924 3.00833 93.2973 2.46763C93.4861 2.19299 93.5591 1.95268 93.5591 1.60509C93.5591 1.22317 93.4389 0.892739 93.2072 0.62668C92.8424 0.214719 92.1859 0.0344858 91.6623 0.206136ZM92.6493 0.476486C93.087 0.69534 93.3102 1.06439 93.3145 1.58792C93.3188 2.28311 92.8553 2.81093 92.1987 2.86672C91.6924 2.90534 91.2289 2.63499 90.9972 2.16724C90.7697 1.6952 90.8727 1.05581 91.2418 0.691049C91.6194 0.317709 92.1687 0.236175 92.6493 0.476486Z" fill="white"/>
<path d="M91.5379 1.58791V2.44617H91.6666H91.7954V2.08141V1.71665H91.9413C92.0786 1.71665 92.1043 1.73811 92.3189 2.08141C92.5163 2.39467 92.5635 2.44617 92.6665 2.44617C92.7309 2.44617 92.7824 2.43758 92.7824 2.42042C92.7824 2.40755 92.688 2.24877 92.5678 2.06424C92.4519 1.87972 92.3532 1.71665 92.3532 1.70378C92.3532 1.68661 92.3919 1.67374 92.4434 1.67374C92.4906 1.67374 92.5893 1.61795 92.6579 1.54929C92.7566 1.4463 92.7824 1.38622 92.7824 1.22745C92.7824 0.862691 92.5292 0.729662 91.834 0.729662H91.5379V1.58791ZM92.4305 1.01288C92.5463 1.09013 92.5592 1.30898 92.4519 1.42485C92.3962 1.48492 92.3189 1.50209 92.0872 1.50209H91.7954V1.22316V0.944225H92.0657C92.2374 0.944225 92.3661 0.965681 92.4305 1.01288Z" fill="white"/>
<path d="M14.5269 0.442261C14.6471 1.70389 14.72 6.23547 14.7243 12.5522C14.7243 15.8522 14.7415 18.0193 14.7672 18.2596C14.793 18.4699 14.8659 18.8775 14.9346 19.1608C15.4281 21.1862 16.591 22.7268 18.4105 23.7696C19.7022 24.5077 21.2213 24.9668 23.1781 25.2157C24.0235 25.3187 26.0146 25.3445 26.8171 25.2586C28.9027 25.0355 30.5505 24.5034 31.9108 23.6108C33.8548 22.3406 34.8332 20.8215 35.2366 18.4527C35.4082 17.4442 35.434 16.9422 35.494 13.4963C35.6185 6.69034 35.7172 3.39894 35.8588 1.22327C35.8931 0.704029 35.9232 0.257738 35.9232 0.23628C35.9232 0.210533 35.331 0.193369 34.2281 0.193369C33.2969 0.193369 32.5331 0.206242 32.5331 0.227699C32.5331 0.244864 32.5631 0.776979 32.5974 1.40779C32.7648 4.50609 32.8335 7.51426 32.8463 12.2947C32.8549 16.7619 32.812 17.5773 32.5116 18.7059C32.1211 20.1606 31.044 21.3922 29.5163 22.1217C28.0787 22.8126 26.4566 23.0143 24.5513 22.744C22.2727 22.4135 20.6763 21.3879 19.9125 19.7658C19.6078 19.1093 19.4404 18.1738 19.3589 16.6718C19.3031 15.599 19.3031 6.42857 19.3589 4.42026C19.3846 3.55772 19.4318 2.25317 19.4619 1.52366C19.4962 0.789854 19.5177 0.189077 19.5134 0.189077C19.5134 0.184786 18.9598 0.19766 18.2861 0.214825C17.1403 0.249155 16.8099 0.249155 15.1492 0.193369L14.5012 0.171911L14.5269 0.442261Z" fill="white"/>
<path d="M81.5308 0.772657C80.7197 3.16718 78.9346 7.17522 72.7637 20.4266C71.6351 22.8469 70.7082 24.8424 70.6996 24.8681C70.6868 24.8981 71.2704 24.911 72.3904 24.911H74.1026L74.2185 24.5248C74.6605 23.0786 75.6346 20.5125 76.716 17.9763L77.055 17.1739L77.3339 17.1481C77.703 17.1095 85.6375 17.1095 86.0023 17.1481L86.2812 17.1739L86.9421 18.7917C87.3068 19.68 88.0063 21.4179 88.4912 22.6538L89.3795 24.9024L92.1731 24.9067C93.7137 24.911 94.971 24.9024 94.971 24.8896C94.971 24.8767 94.7436 24.3832 94.4603 23.7953C93.2931 21.3364 90.1862 14.5433 88.9117 11.651C86.9292 7.16235 85.3929 3.46328 84.2686 0.48085L84.1484 0.171881H82.9426H81.7325L81.5308 0.772657ZM83.4704 10.5696C84.4188 12.9727 85.1912 14.9467 85.1826 14.951C85.1741 14.9596 84.5304 14.9939 83.7494 15.0196C82.4062 15.0711 81.3119 15.0669 78.8659 14.9896C77.9476 14.9639 77.9304 14.9596 77.9519 14.8737C78.0076 14.6592 81.6896 6.14103 81.7153 6.17107C81.7325 6.18823 82.5221 8.1665 83.4704 10.5696Z" fill="white"/>
<path d="M41.2873 0.454899C41.2873 0.832531 41.4118 4.71183 41.4675 6.11507C41.5019 7.00337 41.5233 9.08463 41.5233 12.0156C41.519 15.9506 41.5062 17.0449 41.4032 20.3792C41.3388 22.4862 41.2873 24.3701 41.2873 24.5589V24.9022L41.901 24.8722C42.2357 24.855 42.8665 24.825 43.3042 24.8035C43.7419 24.7821 45.0207 24.7392 46.145 24.7134C48.3164 24.6576 49.9042 24.6834 53.6376 24.8293C54.6117 24.8679 55.4141 24.8936 55.4227 24.8851C55.4356 24.8765 55.4227 24.7048 55.397 24.5031C55.3541 24.1427 55.3798 22.6321 55.4356 22.3833C55.4613 22.2588 55.4613 22.2588 55.294 22.2846C54.9893 22.3318 53.5947 22.439 52.6592 22.4862C52.1528 22.512 50.4878 22.5463 48.9601 22.5592L46.1879 22.5849L46.1622 22.2674C46.1193 21.7009 46.0506 17.2037 46.0506 14.9551C46.0506 10.7368 46.1793 5.4156 46.3896 0.987017C46.4068 0.596512 46.4197 0.274666 46.4197 0.270374C46.4154 0.270374 46.2609 0.283249 46.0721 0.304705C45.0937 0.407696 41.6521 0.38624 41.356 0.274666C41.3002 0.25321 41.2873 0.283249 41.2873 0.454899Z" fill="white"/>
<path d="M8.50209 1.73838C3.33541 5.45033 0.537505 9.75017 0.0483009 14.7409C-0.0246506 15.4618 -0.0117768 17.0968 0.0654659 17.8521C0.430223 21.2379 1.73477 24.3018 4.01772 27.1427C8.89689 33.2019 17.8013 37.4932 29.0358 39.2011C34.5544 40.0379 40.8797 40.231 46.0506 39.7161C52.406 39.081 58.4524 37.4589 64.074 34.8798C64.9279 34.4893 66.005 33.9529 66.005 33.9229C66.005 33.8714 65.5158 33.9786 64.6533 34.2275C59.6196 35.6608 54.2212 36.6092 48.7971 37.0126C43.3471 37.4159 38.2363 37.3602 33.5631 36.8409C26.77 36.0814 20.449 34.3348 15.1321 31.7386C8.53642 28.5202 3.91044 24.1774 2.20252 19.6115C1.43438 17.556 1.28848 15.5048 1.72618 12.8957C2.2583 9.71155 3.81174 6.64759 6.0904 4.2874C7.07739 3.26178 7.65242 2.74683 8.5965 2.0259C9.12861 1.62252 9.14578 1.60535 9.14578 1.44658C9.14578 1.36075 9.14149 1.2878 9.1372 1.2878C9.12861 1.29209 8.84539 1.49378 8.50209 1.73838Z" fill="white"/>
<path d="M40.2358 26.9838L39.2488 26.9924V29.4942V31.9917L40.386 31.9874C41.1541 31.9831 41.6047 31.966 41.7592 31.9273C42.3085 31.7986 42.7548 31.451 42.8921 31.039C42.9865 30.7644 42.9779 30.3181 42.8792 30.0993C42.7205 29.7474 42.257 29.4255 41.8236 29.3654C41.5747 29.3311 41.5447 29.2839 41.7506 29.2453C41.9952 29.1981 42.33 29.0264 42.5102 28.8505C43.0037 28.3742 42.9307 27.5588 42.3643 27.2198C41.9867 26.9924 41.7378 26.9666 40.2358 26.9838ZM41.3902 27.5245C41.6004 27.6833 41.6863 27.8893 41.6906 28.2368C41.6948 28.829 41.3086 29.1809 40.6564 29.1809H40.4289V28.4128C40.4289 27.9922 40.4418 27.5846 40.4547 27.5073L40.4847 27.37L40.858 27.3872C41.1885 27.4 41.2486 27.4129 41.3902 27.5245ZM41.3387 29.7087C41.9266 30.052 41.8794 31.2021 41.27 31.4982C41.137 31.5626 41.004 31.584 40.7593 31.584H40.4289V30.5713V29.5543L40.7851 29.5757C41.0769 29.5886 41.1842 29.6143 41.3387 29.7087Z" fill="white"/>
<path d="M50.7496 29.4813V31.9917H52.243H53.732V31.6913V31.3909L52.8309 31.4081L51.9297 31.421V30.5112V29.5972L52.8094 29.6186L53.6891 29.6444V29.3526V29.0565L52.818 29.0822L51.9426 29.108L51.9168 28.6831C51.8782 28.0995 51.8825 27.6704 51.9254 27.5974C51.9554 27.5502 52.1314 27.5417 52.848 27.5588L53.732 27.5717V27.2842V26.9967L52.243 26.9838L50.7496 26.9709V29.4813Z" fill="white"/>
<path d="M63.0739 26.9795C63.061 27.001 62.9666 27.2241 62.8593 27.4859C62.6019 28.1124 61.8252 29.8847 61.3102 31.0133C61.0828 31.5154 60.8982 31.9359 60.8982 31.9488C60.8982 31.9617 61.0613 31.9702 61.2587 31.9702H61.6192L61.6492 31.8286C61.6664 31.7557 61.7779 31.4253 61.8981 31.1034L62.117 30.5155L62.5461 30.5026C62.7864 30.494 63.2069 30.494 63.4816 30.5026L63.9794 30.5155L64.1725 31.039C64.2755 31.3266 64.3956 31.657 64.4385 31.7771L64.5115 31.9917H65.1723C65.5972 31.9917 65.8289 31.9745 65.816 31.9488C65.8074 31.923 65.6401 31.5583 65.447 31.1334C65.0779 30.3267 64.5158 29.005 63.9879 27.709L63.679 26.9495H63.3829C63.2241 26.9495 63.0825 26.9623 63.0739 26.9795ZM63.4473 29.1895C63.6275 29.6444 63.7734 30.0306 63.7734 30.0478C63.7734 30.0692 63.4558 30.0821 63.0653 30.0821C62.6748 30.0821 62.3573 30.0649 62.3573 30.0478C62.3573 29.9405 63.0396 28.3656 63.0868 28.3656C63.1039 28.3656 63.267 28.7389 63.4473 29.1895Z" fill="white"/>
<path d="M83.6077 27.2713V27.5717L84.3372 27.5588L85.0668 27.5417L85.0539 29.7517L85.0367 31.966L85.6375 31.9788L86.2383 31.9917L86.2254 29.7645L86.2082 27.5417L86.912 27.5588L87.6115 27.576V27.2842V26.9924L85.6117 26.9838L83.6077 26.9709V27.2713Z" fill="white"/>
<path d="M72.0987 28.7217C72.0987 30.5584 72.1116 30.7214 72.3176 31.1162C72.515 31.5067 73.0042 31.8415 73.6007 32.0002C73.9912 32.0989 74.9395 32.0989 75.3129 31.9959C76.0553 31.7943 76.4758 31.378 76.6732 30.6528C76.7204 30.4725 76.7505 30.0649 76.7762 29.2238C76.7977 28.5758 76.8277 27.8077 76.8449 27.5159L76.8706 26.9923H76.5016H76.1325L76.1583 28.2454C76.2098 30.4725 76.0467 31.142 75.3901 31.4724C75.1713 31.584 75.1026 31.5969 74.755 31.5926C74.1972 31.5883 73.9268 31.4982 73.6779 31.2407C73.5191 31.0776 73.4548 30.9617 73.3775 30.7171C73.2831 30.421 73.2788 30.3395 73.2788 29.095C73.2788 28.3741 73.2917 27.606 73.3089 27.3871L73.3432 26.9923H72.721H72.0987V28.7217Z" fill="white"/>
<path d="M94.5418 27.0138C94.5418 27.0224 94.9109 27.6833 95.3614 28.4814L96.1854 29.9276L96.1596 30.8502C96.1425 31.3609 96.121 31.8243 96.1038 31.8844L96.0824 31.9917H96.7518C97.3998 31.9917 97.4212 31.9874 97.3955 31.9059C97.3826 31.8587 97.3569 31.3738 97.344 30.8331L97.3183 29.8461L97.7817 29.0307C98.228 28.2411 98.7816 27.2842 98.9103 27.0868L98.9704 26.9924H98.6099H98.2538L97.9619 27.6017C97.6229 28.3184 97.1509 29.1166 97.0694 29.1166C97.0179 29.1166 96.3656 27.9579 96.0395 27.2799L95.8978 26.9924H95.2198C94.8465 26.9924 94.5418 27.001 94.5418 27.0138Z" fill="white"/>
</svg>
