<svg width="107" height="50" viewBox="0 0 107 50" fill="none" xmlns="http://www.w3.org/2000/svg">
<path d="M1.48704 6.44388V12.8806L0.750602 13.4684L0.00708115 14.0561V19.0412L0 24.0193L4.58858 23.9839C8.43365 23.9556 9.29047 23.9343 9.89945 23.8352C11.9388 23.5024 13.3975 22.773 14.3252 21.6329C15.7272 19.9051 16.06 16.6549 15.0545 14.5518C14.6155 13.6242 13.8366 12.7673 13.0293 12.3C12.8735 12.215 12.7461 12.1088 12.7461 12.0734C12.7461 12.0309 12.8735 11.9318 13.0222 11.8468C13.4613 11.5919 14.0632 11.0041 14.4172 10.466C15.3661 9.04266 15.5219 6.96788 14.8279 5.02057C14.6367 4.46824 14.134 3.59018 13.8861 3.37066C13.8012 3.29277 13.7374 3.20071 13.7374 3.15823C13.7445 3.11574 14.049 2.83957 14.4172 2.54925C14.7925 2.25892 15.1112 1.99692 15.1253 1.96859C15.1749 1.8907 14.2473 1.1755 13.7374 0.89934C13.1072 0.552364 12.1229 0.240793 11.2378 0.113333C10.6288 0.0212765 9.69409 3.43323e-05 5.99065 3.43323e-05H1.48704V6.44388ZM10.3456 4.77981C10.5155 4.83646 10.7492 4.96392 10.8625 5.04889L11.0608 5.21176L10.3668 5.77117C9.97734 6.07566 9.6516 6.33766 9.63744 6.35182C9.6162 6.36599 9.67993 6.51469 9.7649 6.69172C10.0977 7.35735 10.1048 8.55406 9.77907 9.18428C9.60912 9.53126 9.22674 9.85699 8.8656 9.98445C8.61776 10.0694 5.77114 10.1756 5.28962 10.1119C5.09843 10.0907 5.13383 10.0553 5.83487 9.48877L6.58547 8.88687V6.77669V4.67359H8.30619C9.65869 4.67359 10.0977 4.69484 10.3456 4.77981ZM8.95765 14.6934C9.54539 14.8988 9.8782 15.1749 10.1048 15.6281C10.2889 16.0105 10.3031 16.0955 10.3031 16.924C10.3031 17.6746 10.2818 17.8587 10.1544 18.1278C9.70825 19.0766 8.93641 19.3316 6.43676 19.3316H5.09843V16.9169V14.5022L6.85455 14.5305C8.29911 14.5589 8.66733 14.5872 8.95765 14.6934Z" fill="white"/>
<path d="M17.703 12.0027V24.0052L23.9556 23.9911L30.2012 23.9698V21.5268V19.0838L26.3278 19.0626L22.4473 19.0484V16.6054V14.1625H26.342H30.2366L30.2224 11.7336L30.2012 9.31186L26.3278 9.29062L22.4473 9.27646V7.0813V4.88614L26.3278 4.87198L30.2012 4.85074L30.2224 2.42191L30.2366 0.000152588H23.9698H17.703V12.0027Z" fill="white"/>
<path d="M34.7047 11.9177C32.8141 18.4678 31.2562 23.8707 31.2421 23.9132C31.2208 23.984 31.7802 24.0052 33.9116 24.0052C36.4042 24.0052 36.6096 23.9982 36.6662 23.8778C36.7016 23.8141 36.999 22.7448 37.3248 21.5056L37.9196 19.2609H40.6104H43.3083L43.9031 21.5056C44.2289 22.7448 44.5192 23.8141 44.5546 23.8778C44.6113 23.9982 44.8166 24.0052 47.3092 24.0052C49.6106 24.0052 50 23.9911 49.9788 23.9061C49.9646 23.8495 48.4138 18.4465 46.5232 11.9036L43.0888 0.000152588H40.6104H38.132L34.7047 11.9177ZM41.4531 10.8343C41.8709 12.6471 42.232 14.1837 42.2462 14.2474C42.2816 14.3678 42.1683 14.3749 40.6104 14.3749C39.0526 14.3749 38.9393 14.3678 38.9747 14.2474C38.9888 14.1837 39.35 12.6612 39.7607 10.8697C40.6104 7.1946 40.5608 7.38579 40.6387 7.47785C40.6671 7.51325 41.0353 9.02154 41.4531 10.8343Z" fill="white"/>
<path d="M51.0054 8.51157C51.0337 17.6675 51.0195 17.3205 51.4019 18.7367C51.6285 19.5582 52.2375 20.762 52.7332 21.3497C54.2131 23.1058 56.3375 23.9414 59.3045 23.9485C63.9426 23.9555 66.5697 22.0436 67.5044 17.972C67.6532 17.3205 67.6532 17.2001 67.6744 8.65319L67.7027 2.67029e-05H65.0473H62.3919L62.3635 8.26373C62.3423 17.363 62.3635 16.9594 61.9103 17.7879C61.4005 18.7297 60.1896 19.1899 58.7663 18.9917C57.7537 18.843 57.1306 18.4323 56.7553 17.6746C56.3658 16.8744 56.3658 17.0089 56.3658 8.15751V2.67029e-05H53.675H50.9771L51.0054 8.51157Z" fill="white"/>
<path d="M69.7492 2.62018V5.2402H72.6171H75.485V14.6227V24.0052H78.105H80.725V14.6227V5.2402H83.5929H86.4607V2.62018V0.000152588H78.105H69.7492V2.62018Z" fill="white"/>
<path d="M87.6928 0.510149C87.8273 0.793396 89.2931 3.93743 90.9501 7.49924C93.0107 11.9108 93.9667 14.021 93.9384 14.1201C93.9171 14.2051 92.8833 16.4427 91.637 19.1052C90.1924 22.1997 89.4064 23.9558 89.456 23.9771C89.5056 23.9912 90.7802 23.9983 92.2955 23.9912L95.0501 23.97L100.63 12.0029C103.703 5.42447 106.217 0.0286312 106.217 0.0215511C106.217 0.00738907 104.942 0.00738907 103.378 0.0144691L100.538 0.0357132L98.7677 3.82413C97.7976 5.90598 96.9833 7.63379 96.9549 7.66211C96.9266 7.69044 96.0981 5.98388 95.1209 3.8737L93.3294 0.0357132L90.3978 0.0144691L87.4591 0.000307083L87.6928 0.510149Z" fill="white"/>
<path d="M39.598 31.3412L39.6192 36.7087L40.3486 37.1265L41.0709 37.5443V43.7686V49.9929H45.4895C50.1985 49.9929 50.8499 49.9575 52.082 49.6318C53.8665 49.1644 55.2261 48.1731 55.9342 46.8135C56.0971 46.5019 56.2245 46.2187 56.2245 46.1833C56.2245 46.1479 55.9059 45.9354 55.5164 45.7088C55.1269 45.4893 54.8083 45.284 54.8083 45.2415C54.8083 45.2061 54.872 44.9511 54.9428 44.675C55.2756 43.4924 55.311 41.8071 55.0207 40.6812C54.8012 39.789 54.3268 38.9109 53.739 38.2807C53.4629 37.9833 53.0309 37.608 52.7831 37.4522C52.5352 37.2893 52.3299 37.1336 52.3299 37.1052C52.3299 37.0769 52.5069 36.9353 52.7264 36.7866C53.6611 36.1422 54.3551 35.1296 54.6737 33.947C54.872 33.2177 54.8862 31.759 54.7021 30.9092C54.1356 28.2609 52.3936 26.6818 49.4691 26.1507C48.9309 26.0516 48.0741 26.0303 44.2007 26.0091L39.5838 25.9737L39.598 31.3412ZM48.5415 30.8951C48.8955 31.0579 49.1859 31.327 49.3629 31.6669C49.5612 32.0564 49.6532 32.8282 49.5682 33.423C49.4479 34.2444 49.1929 34.6268 48.5415 34.9242C48.2087 35.0729 48.0812 35.0871 46.4384 35.1083L44.6822 35.1367V32.9274V30.718L46.4738 30.7464C47.9891 30.7676 48.3007 30.7888 48.5415 30.8951ZM48.0812 39.6615C48.6689 39.7536 49.0513 39.9235 49.3487 40.228C49.7453 40.6246 49.8798 40.9999 49.9081 41.8496L49.9365 42.5931L50.6729 43.0038C51.0765 43.2304 51.4093 43.4429 51.4093 43.4712C51.4093 43.4995 51.3598 43.6836 51.3031 43.8748C51.1615 44.3705 50.8004 44.76 50.2622 45.0078L49.8161 45.2131L47.9962 45.2344L46.1693 45.2556V42.8268V40.3909L45.4966 40.0156C45.1284 39.8102 44.8239 39.6332 44.8239 39.612C44.8239 39.5482 47.6422 39.5907 48.0812 39.6615Z" fill="white"/>
<path d="M63.1285 26.0728C63.1073 26.1224 61.5636 31.4686 59.6942 37.955C57.8247 44.4413 56.274 49.8017 56.2527 49.8655C56.2173 49.9858 56.3802 49.9929 58.9365 49.9929C61.4715 49.9929 61.6627 49.9858 61.691 49.8655C61.7123 49.8017 61.9955 48.7466 62.3142 47.5287L62.9019 45.3194H65.6069H68.3119L68.8643 47.4225C69.1687 48.5838 69.4449 49.6389 69.4803 49.7592L69.544 49.9929H72.2632C73.7644 49.9929 74.9894 49.9858 74.9894 49.9717C74.9894 49.9646 73.4316 44.5688 71.5268 37.9904L68.0712 26.0232L65.614 26.002C63.6879 25.9878 63.1498 26.002 63.1285 26.0728ZM66.4567 36.8928C66.8744 38.7056 67.2356 40.228 67.2497 40.2705C67.2781 40.3413 66.924 40.3626 65.6069 40.3626C64.0491 40.3626 63.9358 40.3555 63.9712 40.2351C63.9924 40.1714 64.3465 38.6631 64.7572 36.8928C65.5857 33.3239 65.5503 33.4443 65.6352 33.5363C65.6636 33.5717 66.0389 35.08 66.4567 36.8928Z" fill="white"/>
<path d="M74.9893 26.0375C74.9893 26.0729 76.4551 29.2381 78.2467 33.0761L81.5111 40.0652L79.231 44.9371C77.9776 47.6208 76.9437 49.8584 76.9225 49.908C76.8942 49.9788 77.4607 49.993 79.7266 49.9788L82.5662 49.9576L88.0895 38.1321C91.1344 31.6245 93.634 26.2357 93.6553 26.1437L93.6977 25.9879L90.8865 26.0021L88.0682 26.0233L86.3829 29.6347C85.4553 31.6174 84.641 33.3665 84.5701 33.5152L84.4356 33.7913L82.6228 29.9038L80.8101 26.0233L77.8997 26.0021C76.2994 25.995 74.9893 26.0091 74.9893 26.0375Z" fill="white"/>
<path d="M23.311 27.3475C23.5518 28.0627 23.743 28.6505 23.7501 28.6575C23.7572 28.6646 24.3236 28.7779 25.0105 28.8983L26.2639 29.132L25.9665 29.4577C25.3079 30.1587 24.9326 30.8669 24.7131 31.8228C24.5361 32.6088 24.4865 33.3453 24.5715 34.0605C24.7981 35.944 24.7202 36.9071 24.2812 37.7922C24.0475 38.2808 23.5306 38.8544 23.1482 39.0597C23.0136 39.1306 21.8877 39.5696 20.6485 40.044L18.3826 40.8938L18.071 42.5932C17.901 43.528 17.7453 44.2998 17.7382 44.314C17.724 44.3281 17.6532 44.2998 17.5682 44.2431C17.4195 44.1511 17.3629 43.9953 16.4707 41.4178L16.067 40.2494L14.8207 40.129C14.1268 40.0653 13.5603 40.0228 13.5461 40.0299C13.5178 40.0582 15.5005 45.7656 15.5643 45.8222C15.5926 45.8506 17.1434 46.7994 19.0057 47.9395L22.3976 50.0001L26.3205 49.2849C30.116 48.5981 30.2506 48.5697 30.4134 48.3785C30.4984 48.2723 31.6597 46.8348 32.991 45.1849L35.4056 42.1755V37.9976V33.8126L32.9202 30.6969C31.5606 28.9833 30.4064 27.5458 30.3568 27.4962C30.286 27.4254 23.2615 26.0588 22.9711 26.0588C22.9145 26.0588 23.0207 26.4765 23.311 27.3475ZM29.9886 30.8102C30.2435 31.1289 30.4488 31.4121 30.4488 31.4404C30.4488 31.4758 30.2931 31.6104 30.1089 31.752C29.1672 32.4389 28.4874 33.5365 28.2254 34.7898C28.0413 35.675 28.0271 36.1919 28.1475 37.2965C28.3528 39.081 28.2041 40.1148 27.5951 41.0141C27.0995 41.7577 26.8658 41.8851 24.2599 42.8623L21.9231 43.7404L21.6682 45.0929C21.5337 45.8364 21.3991 46.4595 21.3708 46.4879C21.3354 46.5233 20.1316 45.8364 19.9404 45.6665C19.905 45.6381 19.9971 44.9654 20.1529 44.1582L20.4219 42.7065L22.2276 42.0267C24.2599 41.2691 24.6989 41.0283 25.4425 40.2211C26.7666 38.7836 27.2411 36.9496 26.9508 34.3933C26.8516 33.5577 26.8445 33.239 26.9083 32.8C27.0782 31.5608 27.7155 30.796 28.9618 30.3358C29.4292 30.1658 29.4929 30.1941 29.9886 30.8102ZM32.5661 34.0534L33.0689 34.6836V37.9905V41.2974L31.2703 43.5421C30.2789 44.7742 29.3583 45.9072 29.2309 46.0559L28.9901 46.3321L26.3418 46.8136C24.8831 47.0756 23.6793 47.288 23.6722 47.2739C23.658 47.2597 23.7147 46.8703 23.7996 46.4029L23.9554 45.5602L25.5558 44.9654C27.7155 44.1723 28.0058 44.0166 28.7919 43.2305C29.5354 42.5012 29.9107 41.8851 30.2293 40.8938C30.6046 39.7325 30.6684 38.7694 30.4772 37.1195C30.2718 35.3351 30.5763 34.3862 31.6101 33.6285C31.7589 33.5152 31.9288 33.4232 31.9784 33.4232C32.0279 33.4232 32.2899 33.7064 32.5661 34.0534Z" fill="white"/>
</svg>
