<svg width="172" height="40" viewBox="0 0 172 40" fill="none" xmlns="http://www.w3.org/2000/svg">
<path d="M32.6692 0.0201092C28.1792 0.484858 24.8713 2.41844 22.5524 5.92414C21.1429 8.05281 20.2222 10.8069 19.8982 13.8708C19.8073 14.7314 19.8073 17.3765 19.8982 18.2888C20.2677 21.9781 21.4441 25.1166 23.2913 27.3485C25.0418 29.4542 27.2186 30.814 29.924 31.4796C32.8169 32.1911 36.2612 32.0419 38.887 31.0837C40.5352 30.487 41.7969 29.7009 43.0075 28.5075C44.2466 27.2854 45.1218 25.9256 45.8038 24.1584C46.2358 23.0453 46.6734 21.2322 46.7701 20.165L46.8098 19.7232H44.8206H42.8313L42.7916 20.1363C42.6324 21.8174 42.0072 23.6305 41.1206 24.9731C40.6773 25.6444 39.802 26.5625 39.1768 27.0043C37.2956 28.3411 34.7266 28.8231 32.044 28.3583C27.6392 27.5895 24.769 24.1412 24.0017 18.6904C23.5925 15.8044 23.8028 12.8667 24.5985 10.4569C25.8659 6.58971 28.4179 4.21433 32.0212 3.54302C32.8453 3.38811 34.3288 3.33073 35.1756 3.42253C38.7562 3.80695 41.3138 5.77497 42.2687 8.89625C42.3767 9.25198 42.479 9.60771 42.5017 9.69378L42.5301 9.85443H44.5194C46.2813 9.85443 46.5086 9.84296 46.5086 9.76263C46.5086 9.51591 46.2415 8.42002 46.0198 7.7315C45.065 4.82252 43.178 2.6709 40.4102 1.33403C39.1939 0.748789 37.9492 0.375843 36.3919 0.129124C35.8178 0.0373211 33.2318 -0.0372677 32.6692 0.0201092Z" fill="white"/>
<path d="M13.7712 11.8054C13.7712 18.1685 13.7485 23.2692 13.7144 23.7512C13.5723 26.0003 12.8789 27.32 11.4808 28.0142C10.3895 28.5536 8.58216 28.6856 7.18969 28.3241C5.88816 27.9913 4.92764 27.079 4.46727 25.7364C4.17741 24.8987 4.09784 24.279 4.05805 22.6782L4.02395 21.1865L2.01198 21.1692L0 21.1578L0.0341013 22.7471C0.0738861 24.761 0.17619 25.4782 0.591089 26.7692C1.2106 28.6626 2.48939 30.1429 4.2513 30.9921C6.95667 32.2945 11.1625 32.2372 13.8281 30.8544C15.6354 29.9134 16.8858 28.3069 17.4087 26.2585C17.7327 24.9962 17.7099 25.8856 17.7327 12.7808L17.7497 0.703064H15.7605H13.7712V11.8054Z" fill="white"/>
<path d="M48.5545 15.9652V31.1986H50.5721H52.5898V24.9446V18.6905H57.7789C60.9503 18.6905 63.1612 18.6676 63.4738 18.6332C65.9916 18.3405 68.0093 17.3135 69.2653 15.684C70.4077 14.198 70.9647 12.4824 71.0443 10.1701C71.0954 8.67262 70.9363 7.37018 70.5498 6.18822C69.703 3.56612 67.7819 1.79893 64.997 1.07598C63.7296 0.748936 64.224 0.771887 56.0738 0.748936L48.5545 0.725985V15.9652ZM62.6724 4.27759C64.6332 4.70791 65.8495 5.55134 66.5088 6.94559C67.2306 8.45459 67.259 10.83 66.5713 12.3562C65.8495 13.9685 64.4286 14.898 62.195 15.2193C61.7062 15.2881 60.7741 15.3053 57.0969 15.3053H52.5898V9.71113V4.11119L57.3526 4.13415C61.9733 4.15136 62.1268 4.15709 62.6724 4.27759Z" fill="white"/>
<path d="M79.4219 8.65537C76.7506 8.94226 74.426 10.1988 72.7721 12.2701C71.499 13.8537 70.7203 15.7127 70.3395 18.0307C70.2031 18.8971 70.2031 20.9511 70.3452 21.961C70.6749 24.3364 71.4081 26.3732 72.4652 27.865C73.8918 29.8732 75.9094 31.0838 78.6205 31.5543C79.6549 31.7379 81.701 31.7379 82.6899 31.5543C86.0205 30.9461 88.2939 29.1273 89.4761 26.1208C89.6125 25.7708 90.0444 24.3306 90.0444 24.2159C90.0444 24.2044 89.2487 24.2044 88.2712 24.2101L86.5036 24.2273L86.4069 24.5716C85.9125 26.3273 84.753 27.6068 83.1503 28.1576C82.4057 28.4101 81.7237 28.5134 80.7802 28.5134C78.7171 28.5134 77.1541 27.9281 75.9151 26.6945C74.7102 25.5011 74.0566 23.8372 74.0054 21.8749L73.9884 21.2438L82.1954 21.2266L90.4025 21.2151L90.3684 20.1651C90.2036 15.1963 88.2371 11.3693 84.9747 9.65372C83.3776 8.81603 81.3543 8.45456 79.4219 8.65537ZM81.8885 12.0004C84.2699 12.6258 86.0489 14.634 86.4865 17.1987C86.5377 17.4913 86.5775 17.8069 86.5775 17.8987V18.0594H80.2971H74.0168V17.8356C74.0168 17.5028 74.1703 16.7397 74.3578 16.166C75.1137 13.8307 76.9268 12.2299 79.2229 11.8627C79.4048 11.834 79.9561 11.8226 80.4392 11.834C81.161 11.8455 81.4225 11.8799 81.8885 12.0004Z" fill="white"/>
<path d="M101.554 8.64967C98.9904 8.94802 97.0864 10.0898 95.7962 12.1037C95.62 12.3849 95.4552 12.6086 95.4325 12.6086C95.4098 12.6086 95.387 11.8226 95.387 10.8587V9.10868H93.7104H92.0337V20.1536V31.1986H93.824H95.6144V24.4913C95.6144 18.0422 95.62 17.7553 95.728 17.1127C96.2054 14.284 97.8309 12.5111 100.445 11.9431C101.019 11.8226 102.406 11.7709 102.94 11.857C104.873 12.1611 106.174 13.4521 106.464 15.3512C106.51 15.6324 106.527 18.1856 106.527 23.4757V31.1986H108.317H110.113L110.09 23.12C110.068 14.307 110.085 14.7316 109.738 13.4176C109.028 10.721 107.266 9.17753 104.412 8.73573C103.691 8.62672 102.167 8.58081 101.554 8.64967Z" fill="white"/>
<path d="M122.077 8.65541C120.065 8.8677 118.576 9.55622 117.297 10.8529C116.803 11.3578 116.16 12.207 116.041 12.5111C116.024 12.5627 115.973 12.6086 115.927 12.6086C115.859 12.6086 115.848 12.316 115.848 10.8587V9.10868H114.171H112.495V20.1536V31.1986H114.285H116.075V24.6634C116.075 19.1897 116.087 18.0192 116.16 17.4742C116.513 14.7832 117.9 12.9242 120.105 12.1841C120.883 11.9259 121.639 11.8054 122.526 11.8054C124.851 11.8054 126.396 12.9586 126.914 15.0644C126.999 15.4144 127.01 16.2061 127.027 23.3208L127.05 31.1986H128.84H130.631L130.608 23.2921C130.585 14.6685 130.591 14.875 130.25 13.5037C129.602 10.8874 128.011 9.36687 125.368 8.82754C124.299 8.61524 123.083 8.54639 122.077 8.65541Z" fill="white"/>
<path d="M141.736 8.63246C137.445 9.00541 134.103 11.8455 132.819 16.2061C132.04 18.8397 132.137 22.0585 133.08 24.9159C134.484 29.1847 137.661 31.5257 142.276 31.6978C146.431 31.8527 149.58 30.1544 151.2 26.8896C151.501 26.2929 151.808 25.438 151.961 24.8011C152.018 24.5774 152.075 24.3536 152.086 24.2962C152.115 24.2044 152.018 24.1987 150.341 24.2102L148.568 24.2274L148.46 24.629C148.039 26.1667 146.948 27.4519 145.544 28.0372C144.084 28.6511 141.964 28.6913 140.31 28.129C138.196 27.4118 136.763 25.7421 136.246 23.3954C136.132 22.8618 135.996 21.4389 136.047 21.3012C136.076 21.2266 137.087 21.2151 144.271 21.2151H152.467L152.433 20.1077C152.308 15.7357 150.637 12.0578 147.943 10.1931C147.369 9.79146 146.369 9.29229 145.721 9.08C144.578 8.70705 142.953 8.52344 141.736 8.63246ZM143.953 12.0005C145.948 12.5226 147.545 14.0201 148.267 16.0398C148.437 16.5275 148.642 17.4914 148.642 17.8242V18.0594H142.362H136.081V17.8643C136.081 17.5774 136.24 16.7799 136.405 16.2635C137.036 14.2381 138.429 12.7406 140.242 12.1324C140.622 12.0062 140.833 11.9546 141.481 11.8398C141.56 11.8226 142.021 11.8226 142.504 11.8341C143.226 11.8455 143.487 11.8742 143.953 12.0005Z" fill="white"/>
<path d="M151.654 10.239C151.899 10.8644 153.854 15.8102 155.991 21.2266L159.884 31.0781L159.122 33.0174C158.503 34.601 158.304 35.0428 158.042 35.4272C157.65 36.0125 157.315 36.3223 156.798 36.569C155.979 36.9649 155.184 36.9592 153.95 36.5633C153.609 36.4543 153.331 36.3625 153.331 36.3625C153.331 36.3625 153.337 37.1026 153.342 38.0092C153.354 39.369 153.371 39.6616 153.439 39.7018C153.484 39.7247 153.746 39.805 154.024 39.8739C154.462 39.9829 154.678 40.0001 155.746 40.0001C156.718 40.0001 157.048 39.9829 157.36 39.9026C159.105 39.455 160.191 38.428 161.288 36.1616C161.771 35.1576 161.828 35.0141 163.919 29.506C164.795 27.1994 165.897 24.2962 166.375 23.0511C168.938 16.3037 171.603 9.29799 171.638 9.20619C171.672 9.11438 171.558 9.10865 169.779 9.10865H167.881L167.585 9.98651C167.426 10.4627 166.193 14.1119 164.84 18.0881C163.493 22.0642 162.243 25.7363 162.072 26.247C161.902 26.7634 161.731 27.1822 161.691 27.1822C161.657 27.1822 160.413 23.7396 158.929 19.5339C157.446 15.334 156.013 11.2717 155.746 10.5144L155.258 9.13733L153.234 9.12012L151.211 9.10865L151.654 10.239Z" fill="white"/>
</svg>
