<svg width="289" height="35" viewBox="0 0 289 35" fill="none" xmlns="http://www.w3.org/2000/svg">
<path d="M45.396 0.699982C32.7032 4.39126 28.3644 20.5163 37.6249 29.7121C46.497 38.4547 61.8449 35.8643 66.7666 24.7904C69.9398 17.7317 68.7094 10.9967 63.2048 5.49217C58.3479 0.63522 51.872 -1.11328 45.396 0.699982ZM56.0166 6.3988C62.0392 9.11869 64.8886 15.9832 62.4277 21.8763C60.8735 25.6323 57.7651 28.417 53.9443 29.5179C50.8358 30.4245 50.1882 30.4245 47.0798 29.5179C43.259 28.417 40.1505 25.6323 38.5963 21.8763C34.3222 11.7091 45.6551 1.67137 56.0166 6.3988Z" fill="white"/>
<path d="M226.01 1.0888C224.261 1.7364 221.801 3.48489 219.793 5.42767C215.649 9.63703 213.965 13.9759 214.612 19.2214C216.426 34.5694 235.335 40.4625 245.826 29.0001C249.064 25.5031 250.23 22.2651 250.23 17.1491C250.1 5.23339 237.667 -2.99103 226.01 1.0888ZM238.12 6.39906C245.956 9.96082 247.575 20.0633 241.293 26.2802C235.076 32.4971 225.103 30.8781 221.153 23.0422C219.275 19.3509 219.146 16.5015 220.505 13.0693C223.355 6.26954 231.255 3.29062 238.12 6.39906Z" fill="white"/>
<path d="M0 17.3437V34.3106H2.59037H5.18074V23.8844V13.4581L11.1386 19.8045C14.4413 23.3663 18.9745 28.0937 21.1763 30.425L25.2561 34.6344V17.6027V0.635784H22.9895H20.723V11.4506V22.3301L16.6431 18.1208C14.4413 15.7895 9.77865 10.8677 6.28165 7.17647L0 0.441505V17.3437Z" fill="white"/>
<path d="M75.4446 1.47735C75.2503 1.93066 75.1856 9.44274 75.2503 18.1205L75.4446 33.9865L77.9055 34.1808C79.5244 34.3103 80.3016 34.116 80.3663 33.5332C80.3663 33.0799 80.3663 30.4247 80.3663 27.6401V22.6536H83.0862C85.8061 22.6536 85.8708 22.6536 89.6916 28.482L93.5772 34.2455L96.7504 34.3103H99.8589L98.6932 32.497C98.1104 31.5257 96.1676 28.741 94.4191 26.2802L91.3106 21.8118L92.8001 20.7756C94.6134 19.5452 95.9733 17.7319 96.9447 15.2063C98.1104 12.1626 97.9161 10.2199 96.1028 6.65809C93.7067 1.80115 90.9868 0.635479 82.3738 0.635479C77.5817 0.635479 75.6389 0.894516 75.4446 1.47735ZM89.4326 6.46381C91.3106 7.49996 92.7353 10.8027 92.282 13.0045C91.6344 15.9834 89.1736 17.4729 84.7699 17.4729H80.9491V11.6446V5.81622H84.5757C86.5184 5.81622 88.7203 6.14002 89.4326 6.46381Z" fill="white"/>
<path d="M106.853 17.4729V34.3103H111.969C114.753 34.3103 117.991 33.9865 119.222 33.5332C130.037 29.9067 133.275 14.8178 125.18 5.81622C121.747 1.99542 118.056 0.635479 111.256 0.635479H106.853V17.4729ZM119.157 6.78761C122.266 8.40659 124.597 13.0693 124.597 17.7319C124.532 22.2003 123.431 24.9202 120.452 27.3811C118.51 29.0648 113.394 30.2952 112.098 29.4534C111.645 29.1943 111.386 24.985 111.386 17.4081V5.81622H114.3C115.984 5.81622 118.121 6.26954 119.157 6.78761Z" fill="white"/>
<path d="M139.427 1.93037C136.772 3.4846 135.995 5.03882 135.995 8.53582C135.995 11.8385 136.966 13.3928 141.434 17.4726C147.004 22.4591 147.587 23.1714 148.04 24.8552C149.141 29.3236 143.442 31.5901 139.88 28.1579C138.326 26.6684 137.937 26.6037 136.124 27.2513C134.959 27.6398 134.052 28.2226 134.052 28.4817C134.052 29.8416 137.614 33.0148 140.204 33.9862C144.219 35.5404 147.263 34.8281 150.371 31.7197C152.508 29.5826 152.832 28.935 152.832 26.2151C152.832 22.2648 151.472 20.063 146.032 15.2708C143.636 13.1985 141.434 10.7376 141.111 9.83101C139.751 6.33401 144.09 3.67887 147.328 6.07497C148.428 6.85208 148.817 6.85208 150.436 5.68641C151.925 4.65026 152.12 4.19695 151.472 3.41984C149.011 0.505669 142.989 -0.271442 139.427 1.93037Z" fill="white"/>
<path d="M157.818 1.02385C157.559 1.28288 157.365 2.31903 157.365 3.35518C157.365 5.16844 157.365 5.16844 161.574 5.16844H165.784V19.804V34.3749L168.439 34.1806L171.094 33.9863L171.159 19.7393L171.288 5.49224L175.368 5.29796L179.448 5.10368L179.254 3.03138L179.059 0.959087L168.633 0.764809C162.934 0.70005 158.077 0.829567 157.818 1.02385Z" fill="white"/>
<path d="M186.507 17.4729V34.3103H189.097H191.688V28.482V22.6536H194.213C196.739 22.6536 196.869 22.7832 200.819 28.482L204.769 34.3103H207.619C209.173 34.3103 210.468 34.1808 210.468 33.9865C210.468 33.7922 208.719 31.0076 206.582 27.7696L202.632 21.9413L204.704 20.2575C210.533 15.3358 209.432 5.49242 202.697 2.06018C200.301 0.894516 198.811 0.635479 193.177 0.635479H186.507V17.4729ZM200.301 6.52857C201.985 7.30569 203.344 9.57226 203.344 11.6446C203.344 13.7169 201.985 15.9834 200.301 16.7605C199.459 17.1491 197.192 17.4729 195.25 17.4729H191.688V11.6446V5.81622H195.25C197.192 5.81622 199.459 6.14002 200.301 6.52857Z" fill="white"/>
<path d="M257.094 17.4729V34.3103H259.685H262.21L262.405 25.1145L262.599 15.9187L267.585 22.5889L272.507 29.2591L277.623 22.6536L282.674 16.0482L282.869 25.1792L283.063 34.3103H285.588H288.179V17.4729C288.179 8.21231 288.049 0.635479 287.92 0.635479C287.79 0.635479 284.423 4.97435 280.408 10.3494C276.393 15.6596 272.896 20.0633 272.637 20.0633C272.378 20.0633 268.881 15.7244 264.866 10.3494C260.85 4.97435 257.483 0.635479 257.353 0.635479C257.224 0.635479 257.094 8.21231 257.094 17.4729Z" fill="white"/>
</svg>
