<svg width="324" height="35" viewBox="0 0 324 35" fill="none" xmlns="http://www.w3.org/2000/svg">
<path d="M133.225 0.255867C130.34 1.09612 128.449 3.60286 127.427 7.91613C126.223 12.9996 126.265 22.4524 127.497 27.3539C128.827 32.5774 131.362 35.0001 135.493 35.0001C141.683 35.0001 144.526 29.4825 144.526 17.495C144.526 7.51001 142.481 1.89435 138.294 0.395908C137.09 -0.0382195 134.443 -0.108238 133.225 0.255867ZM136.544 5.59144C136.768 5.82951 137.048 6.31966 137.16 6.68377C137.678 8.28024 137.734 9.26053 137.734 17.495C137.734 23.3767 137.692 25.8274 137.552 26.5976C137.16 28.8943 136.6 29.8186 135.591 29.8186C134.765 29.8186 134.233 29.3144 133.897 28.2361C133.337 26.4156 133.267 25.0432 133.267 17.495C133.267 9.94673 133.337 8.57432 133.897 6.75379C134.233 5.67547 134.765 5.17132 135.591 5.17132C136.04 5.17132 136.236 5.25534 136.544 5.59144Z" fill="white"/>
<path d="M312.338 0.199604C308.669 1.1939 306.555 4.48487 306.555 9.19026C306.555 12.3832 307.619 14.8899 309.972 17.3407C310.518 17.9008 311.862 19.1192 312.941 20.0295C315.643 22.2981 316.554 23.2364 317.156 24.4548C317.59 25.323 317.646 25.5891 317.646 26.4994C317.646 28.698 316.386 30.0284 314.537 29.7763C313.109 29.5943 312.296 28.0398 312.296 25.5331V24.6368H309.566H306.835V25.6031C306.835 27.5637 307.395 29.8604 308.263 31.5268C309.103 33.1233 311.022 34.5097 312.842 34.8598C313.935 35.0699 315.867 35.0279 316.904 34.7898C319.845 34.0896 321.959 31.933 322.827 28.74C323.051 27.8858 323.122 27.2416 323.122 25.7571C323.122 24.1047 323.079 23.7125 322.743 22.6062C321.945 19.9874 320.475 17.9849 317.394 15.3381C314.607 12.9434 313.011 11.2909 312.506 10.2826C312.128 9.54036 312.086 9.30229 312.086 8.18196C312.086 7.06163 312.128 6.85157 312.464 6.2774C312.884 5.54918 313.529 5.17107 314.299 5.17107C315.839 5.17107 316.582 6.2914 316.736 8.84015L316.82 10.2126H319.55H322.281L322.197 8.91017C321.875 4.03674 319.957 1.06786 316.568 0.199604C315.531 -0.0664749 313.319 -0.0664749 312.338 0.199604Z" fill="white"/>
<path d="M0.101468 0.647972C-0.0665819 0.802017 -0.0105654 26.5416 0.157484 27.928C0.507588 30.8969 1.82398 33.1656 3.78455 34.1599C5.9692 35.2802 9.98839 35.2802 12.187 34.1599C13.4474 33.5157 14.4837 32.2833 15.0719 30.7149C15.8001 28.7683 15.8281 28.1801 15.8281 13.8119V0.549942H13.2373H10.6466L10.6186 14.246L10.5766 27.942L10.2265 28.6142C9.42822 30.1547 7.41162 30.2527 6.57138 28.7963L6.23528 28.2081L6.19327 14.372L6.15125 0.549942H3.16837C1.52989 0.549942 0.14348 0.591953 0.101468 0.647972Z" fill="white"/>
<path d="M23.1801 0.717258C23.1381 0.815285 23.1241 8.43353 23.1381 17.6343L23.1801 34.3692L26.233 34.4112L29.2719 34.4392V27.1571V19.8749H30.0421C30.4622 19.8749 30.8123 19.9169 30.8263 19.9729C30.8263 20.043 31.4705 23.2919 32.2548 27.2271L33.6832 34.3692L36.624 34.4112C38.2345 34.4252 39.6209 34.4112 39.719 34.3832C39.817 34.3412 39.2568 31.6524 38.0525 26.3868L36.2319 18.4605L36.568 18.2364C37.7164 17.4522 38.8227 15.7017 39.3829 13.7831C39.6629 12.8028 39.705 12.3547 39.705 10.142C39.705 7.34121 39.5649 6.51497 38.7807 4.9185C37.5343 2.36974 35.1396 0.997341 31.3725 0.689251C28.8938 0.479187 23.2641 0.507195 23.1801 0.717258ZM31.9327 5.89879C33.207 6.54298 33.6692 7.81735 33.5851 10.4641C33.5431 11.9486 33.4731 12.3687 33.207 12.9709C32.6049 14.3293 31.5686 14.9735 30.0141 14.9735H29.2719V10.2821V5.5907H30.2942C31.0784 5.5907 31.4565 5.66072 31.9327 5.89879Z" fill="white"/>
<path d="M46.0764 17.4951V34.4681L50.7398 34.3981C55.8933 34.3281 56.2294 34.2721 58.0359 33.3618C59.4224 32.6616 60.8508 31.2192 61.523 29.8188C62.3492 28.1243 62.5313 27.242 62.5173 24.9173C62.5173 23.1248 62.4753 22.7607 62.1532 21.8084C61.705 20.464 61.1169 19.5117 60.1646 18.6575C59.3943 17.9433 58.0499 17.215 56.9996 16.935L56.3695 16.7669L57.3497 16.4168C58.5401 15.9827 59.2403 15.5486 59.9965 14.7783C61.2569 13.4619 61.9011 11.5714 61.9011 9.09265C61.9011 5.45157 60.4307 2.8188 57.6718 1.54442C57.0276 1.23633 56.2014 0.928238 55.8093 0.830208C55.3752 0.732178 53.3586 0.634151 50.5998 0.592136L46.0764 0.522118V17.4951ZM54.3529 5.74566C55.6132 6.17979 56.0194 7.14607 56.0194 9.79285C56.0194 12.4116 55.6552 13.3919 54.4369 14.0081C54.1288 14.1761 53.4986 14.3442 53.0505 14.3722L52.2382 14.4562V10.0169V5.59161H53.0645C53.5126 5.59161 54.0868 5.66163 54.3529 5.74566ZM54.871 20.2539C55.3612 20.548 55.6272 20.8561 55.9493 21.4863C56.3695 22.2985 56.3695 22.3266 56.3695 24.6372C56.3695 26.9479 56.3695 26.9759 55.9493 27.7882C55.4172 28.8385 54.675 29.2586 53.2185 29.3706L52.2382 29.4407V24.5672V19.6938L53.2185 19.7638C53.9888 19.8198 54.3529 19.9318 54.871 20.2539Z" fill="white"/>
<path d="M71.9153 0.857288C71.8453 1.19339 67.2239 34.1171 67.2239 34.3272C67.2239 34.3832 68.3583 34.4392 69.7447 34.4392C71.6492 34.4392 72.2934 34.3972 72.3354 34.2572C72.3635 34.1731 72.5595 32.6047 72.7556 30.7981C72.9516 28.9916 73.1477 27.3671 73.1897 27.1851L73.2457 26.877L75.7385 26.905L78.2172 26.947L78.6653 30.5881C78.9034 32.5907 79.1135 34.2712 79.1135 34.3272C79.1275 34.3972 80.4578 34.4392 82.0823 34.4392H85.0372L84.9532 33.837C84.9112 33.5149 83.9869 26.0367 82.9086 17.2141C81.8303 8.39152 80.906 1.03934 80.864 0.857288L80.808 0.549198H76.3966H71.9853L71.9153 0.857288ZM76.7327 13.503C77.1949 17.6623 77.601 21.2753 77.643 21.5134L77.713 21.9755H75.7525H73.7919L73.8759 21.5134C73.9179 21.2753 74.324 17.8863 74.7862 13.9932C75.6684 6.55697 75.7665 5.82876 75.8365 5.89878C75.8645 5.92679 76.2706 9.3578 76.7327 13.503Z" fill="white"/>
<path d="M90.6798 0.717247C90.6378 0.815277 90.6238 8.43353 90.6378 17.6342L90.6798 34.3692L93.2426 34.4112L95.7913 34.4392V24.2162C95.7913 18.5865 95.8474 14.0072 95.9034 14.0492C95.9594 14.0912 97.4858 18.6846 99.2924 24.2722L102.569 34.4392H104.922H107.275V17.4942V0.549198L104.866 0.577206L102.443 0.619221L102.373 9.53985L102.303 18.4745L100.217 11.8505C99.0683 8.22346 97.7799 4.19028 97.3738 2.88789L96.6176 0.549198H93.6767C91.4641 0.549198 90.7218 0.591209 90.6798 0.717247Z" fill="white"/>
<path d="M151.011 14.4418C151.053 29.8743 151.025 29.2161 152.005 31.2607C152.789 32.8852 153.994 33.9495 155.814 34.5937C157.117 35.0558 159.917 35.1259 161.472 34.7337C164.231 34.0335 165.785 32.283 166.471 29.1181C166.709 28.0118 166.723 26.9755 166.723 14.2737V0.619667L164.175 0.577656L161.626 0.549648L161.584 14.1617C161.528 29.0901 161.57 28.4179 160.688 29.2721C160.281 29.6642 160.085 29.7343 159.413 29.7763C158.419 29.8463 157.873 29.5522 157.467 28.754C157.215 28.2218 157.201 27.6897 157.159 14.3717L157.131 0.549648H154.036H150.955L151.011 14.4418Z" fill="white"/>
<path d="M171.609 0.731251C171.581 0.829281 171.567 2.00563 171.581 3.35003L171.623 5.80075L174.242 5.84276L176.875 5.87077L176.903 20.127L176.945 34.3692L179.998 34.4112L183.037 34.4392V20.155V5.87077H185.697H188.358V3.20998V0.549198H180.026C173.36 0.549198 171.665 0.591209 171.609 0.731251Z" fill="white"/>
<path d="M193.542 17.4942V34.4392L196.594 34.4112L199.633 34.3692L199.675 27.3251L199.703 20.295H202.504H205.305V17.5642V14.8334H202.504H199.703V10.3521V5.87077H203.484H207.266V3.20998V0.549198H200.404H193.542V17.4942Z" fill="white"/>
<path d="M212.655 0.717247C212.613 0.815277 212.599 8.43353 212.613 17.6342L212.655 34.3692L215.708 34.4112L218.747 34.4392V17.4942V0.549198H215.736C213.454 0.549198 212.697 0.591209 212.655 0.717247Z" fill="white"/>
<path d="M223.649 3.20998V5.87077H226.31H228.971V20.155V34.4392L232.023 34.4112L235.062 34.3692L235.104 20.127L235.132 5.87077L237.765 5.84276L240.384 5.80075V3.20998V0.619221L232.023 0.577206L223.649 0.549198V3.20998Z" fill="white"/>
<path d="M243.114 3.20998V5.87077H245.705H248.296L248.324 20.113L248.366 34.3692L251.419 34.4112L254.458 34.4392V20.155V5.87077H257.119H259.779V3.20998V0.549198H251.447H243.114V3.20998Z" fill="white"/>
<path d="M264.962 17.4942V34.4392L272.076 34.4112L279.176 34.3692V31.7784V29.1877L275.157 29.1456L271.123 29.1176V24.5663V20.0149L273.966 19.9869L276.795 19.9449V17.2141V14.4833L273.966 14.4413L271.123 14.4133V10.142V5.87077H274.975H278.826V3.20998V0.549198H271.894H264.962V17.4942Z" fill="white"/>
<path d="M285.197 0.717258C285.155 0.815285 285.141 8.43353 285.155 17.6343L285.197 34.3692L288.25 34.4112L291.289 34.4392V27.1571V19.8749H292.059C292.479 19.8749 292.829 19.8889 292.843 19.9029C292.843 19.9309 293.487 23.1939 294.272 27.1571L295.714 34.3692L298.823 34.4112C301.764 34.4392 301.946 34.4252 301.876 34.2011C301.68 33.4869 298.277 18.4465 298.319 18.4185C298.347 18.4045 298.655 18.1664 299.019 17.8723C301.932 15.5616 302.814 8.71362 300.713 4.72244C299.425 2.25771 297.142 0.997341 293.389 0.689251C290.925 0.479187 285.281 0.507195 285.197 0.717258ZM293.893 5.85677C295.126 6.41694 295.658 7.69131 295.672 10.072C295.686 11.3884 295.63 11.8505 295.364 12.6208C294.804 14.2733 293.711 15.0575 292.059 14.9455L291.359 14.9034L291.317 10.2401L291.289 5.5907H292.297C292.997 5.5907 293.501 5.67472 293.893 5.85677Z" fill="white"/>
</svg>
