<svg width="100" height="40" viewBox="0 0 100 40" fill="none" xmlns="http://www.w3.org/2000/svg">
<path d="M14.6122 0.709225C13.2455 1.64256 12.0789 3.60923 11.7789 5.50922C11.5789 6.80922 11.4789 6.94256 10.3455 7.14256C5.17887 7.97589 2.3122 10.4426 2.04553 14.2759C1.84553 17.1092 2.9122 18.8426 5.7122 20.2426C6.8122 20.8092 7.97887 21.2759 8.27887 21.3092C8.57887 21.3092 7.9122 21.5426 6.84553 21.8092C5.77887 22.0759 4.37887 22.5759 3.8122 22.9426C2.6122 23.6759 1.64553 25.3759 1.64553 26.7426C1.64553 27.9426 2.44553 29.8092 3.17887 30.2092C3.67887 30.4759 3.57887 30.6092 2.47887 31.1092C1.8122 31.4426 0.945534 32.1759 0.612201 32.7426C-1.95447 36.9426 3.84553 40.4092 12.4789 39.8426C16.1455 39.5759 18.4122 38.9426 20.5122 37.5092C22.5789 36.1092 23.4789 34.3759 23.4789 31.8759C23.4455 27.5759 20.1455 25.9759 11.1455 25.9426C7.67887 25.9426 6.24553 25.5426 6.04553 24.5426C5.84553 23.4759 7.1122 22.7092 9.67887 22.3092C14.5455 21.5759 16.9789 20.9092 18.5455 19.8426C22.3789 17.2426 22.6455 12.2426 19.1122 9.34256C17.7789 8.20923 15.2122 7.27589 13.5789 7.27589C12.8122 7.27589 12.6455 7.14256 12.6455 6.47589C12.6455 5.00923 13.5455 4.67589 16.2455 5.14256C18.1455 5.44256 19.3122 4.47589 19.3122 2.57589C19.3122 0.209225 16.8122 -0.790775 14.6122 0.709225ZM13.3455 8.27589C14.7122 9.00923 15.1455 10.5426 15.1455 14.4426C15.1122 19.4759 14.3122 20.9426 11.5455 20.9426C9.1122 20.9426 8.04553 18.3092 8.4122 13.2759C8.57887 10.6092 9.2122 8.87589 10.2122 8.30923C10.9789 7.87589 12.5122 7.84256 13.3455 8.27589ZM16.5455 31.9759C19.6789 32.5759 20.5455 35.0092 18.3455 37.0092C17.1455 38.1092 15.5789 38.5759 12.4122 38.8426C9.57887 39.0759 6.3122 38.5092 4.67887 37.5426C2.64553 36.2759 2.17887 33.6759 3.7122 32.0426C4.34553 31.3759 4.57887 31.3426 9.57887 31.5092C12.4789 31.5759 15.6122 31.8092 16.5455 31.9759Z" fill="white"/>
<path d="M32.7789 7.27592C29.3123 8.00926 26.1789 10.4759 24.6789 13.6093C23.9456 15.2093 23.8123 15.8759 23.8123 18.6093C23.8456 22.3426 24.4456 24.0093 26.6456 26.4093C31.1456 31.3093 40.7123 31.2426 45.0456 26.3093C46.9456 24.1759 47.7789 21.8093 47.7789 18.6093C47.7789 16.1759 47.6456 15.4759 46.8456 13.6759C45.6456 11.0759 43.3456 8.90926 40.7123 7.94259C38.5789 7.14259 34.8456 6.80926 32.7789 7.27592ZM38.8456 9.37592C40.5123 11.1759 41.1123 13.6426 41.1123 18.6093C41.1123 25.0759 39.8456 28.1759 36.9456 28.9426C35.1789 29.4093 33.6456 28.9093 32.3789 27.4426C30.9456 25.8426 30.4789 23.5093 30.5123 18.1093C30.5123 13.9426 30.6123 13.2093 31.3456 11.4426C32.4123 8.80926 33.8123 7.80926 36.1123 8.04259C37.4789 8.17592 37.9456 8.40926 38.8456 9.37592Z" fill="white"/>
<path d="M58.8122 7.37587C55.2122 8.3092 52.5788 10.4759 51.1122 13.7092C50.3122 15.4759 50.1788 16.1759 50.1788 18.6425C50.1788 21.2092 50.2788 21.7425 51.2455 23.7092C52.9788 27.2092 55.8455 29.2425 60.0455 29.9425C62.4788 30.3092 65.6788 29.9092 67.8788 28.9425C69.9122 28.0425 72.1788 25.8092 73.2122 23.6425C74.0122 22.0092 74.1122 21.3759 74.1455 18.6092C74.1455 16.0425 74.0122 15.1425 73.4122 13.8759C72.3455 11.5425 69.9788 9.17587 67.6788 8.14253C65.2455 7.07587 61.3455 6.74253 58.8122 7.37587ZM64.3122 8.44253C66.3122 9.47587 67.6122 13.3759 67.6455 18.4092C67.6455 25.3759 65.7455 29.0425 62.1455 29.0425C59.1122 29.0425 57.5122 26.7425 56.9122 21.5092C56.2455 15.6759 57.5788 9.97587 59.8788 8.54253C61.0455 7.8092 63.0455 7.77587 64.3122 8.44253Z" fill="white"/>
<path d="M88.8122 7.5425C87.9122 7.87584 86.4456 8.60917 85.5789 9.20917C84.7122 9.77584 83.9789 10.2758 83.9122 10.2758C83.8456 10.2758 83.8456 9.60917 83.9122 8.77584C84.0456 7.17584 83.9122 7.0425 82.4122 7.6425C81.9122 7.8425 79.9122 8.40917 78.0122 8.90917C76.0789 9.40917 74.4789 9.97584 74.4122 10.1758C74.3456 10.3758 74.8122 10.7092 75.4456 10.9425C77.6789 11.6758 77.6456 11.4758 77.6456 24.5425C77.6456 32.3425 77.5122 36.5425 77.2789 37.0092C77.0789 37.3758 76.4122 37.8758 75.7789 38.1425C73.4789 39.1092 74.5456 39.4425 80.3456 39.5425C86.0122 39.6425 87.4456 39.5092 87.2456 38.9092C87.1789 38.7092 86.5456 38.3425 85.8456 38.1092C85.1122 37.8425 84.4122 37.4425 84.2789 37.2092C84.1122 36.9758 83.9789 35.1758 83.9789 33.2092V29.6758L86.4456 29.8425C92.2456 30.2758 97.2122 27.1758 99.1789 21.8092C100.146 19.2425 100.046 14.3425 99.0122 12.0092C97.6456 8.97584 94.5789 6.90917 91.4122 6.9425C90.9122 6.97584 89.7456 7.20917 88.8122 7.5425ZM89.6122 10.4092C90.9122 11.1092 92.4789 12.9758 93.0122 14.5092C93.3122 15.2758 93.4789 17.2425 93.4789 19.6092C93.4789 23.1425 93.4122 23.6092 92.5456 25.3425C92.0122 26.4092 91.1456 27.5758 90.6122 27.9758C89.2789 28.9425 87.3456 29.1425 86.0789 28.5092C84.2456 27.5425 84.0122 26.5092 83.9789 18.8425C83.9456 15.0425 84.0456 11.7758 84.1456 11.5758C84.4789 11.0425 87.0122 9.9425 87.9122 9.9425C88.3456 9.9425 89.1122 10.1758 89.6122 10.4092Z" fill="white"/>
</svg>
