<svg width="87" height="47" viewBox="0 0 87 47" fill="none" xmlns="http://www.w3.org/2000/svg">
<path d="M37.9299 0.0158721C37.9821 0.0533611 38.0318 0.091325 38.0815 0.131902C38.1027 0.148925 38.1027 0.148925 38.1243 0.166292C38.153 0.189275 38.1815 0.212321 38.21 0.235431C38.2651 0.280041 38.3206 0.32411 38.3761 0.368259C38.457 0.433233 38.5371 0.499045 38.6164 0.565939C38.5559 0.629819 38.4967 0.679407 38.4221 0.725838C38.4012 0.739019 38.3803 0.752199 38.3587 0.765779C38.3357 0.780193 38.3126 0.794607 38.2889 0.809458C37.1105 1.50108 37.1105 1.50108 36.1221 2.42241C36.1829 2.49248 36.2586 2.53311 36.338 2.57855C36.6774 2.77819 36.9951 3.00862 37.2891 3.27043C37.3201 3.29717 37.3511 3.32391 37.3821 3.35065C37.4122 3.37732 37.4422 3.40406 37.4722 3.43087C37.5035 3.45866 37.5035 3.45866 37.5355 3.48701C38.0186 3.91971 38.4119 4.44867 38.7308 5.01231C38.743 5.03352 38.743 5.03352 38.7555 5.05515C39.0221 5.52038 39.2111 6.03062 39.3487 6.54792C39.354 6.56805 39.3594 6.58819 39.3649 6.60894C39.5186 7.20172 39.5828 7.81438 39.5818 8.42588C39.5818 8.44223 39.5818 8.45858 39.5817 8.47543C39.578 10.1199 39.0753 11.8587 38.2731 13.2862C38.2935 13.2836 38.3139 13.2809 38.3349 13.2782C38.4123 13.2681 38.4897 13.2582 38.5671 13.2483C38.6003 13.2441 38.6335 13.2398 38.6666 13.2355C39.8869 13.0764 40.9966 13.2939 42.026 13.9967C42.0425 14.0114 42.0589 14.026 42.0758 14.0411C42.1178 14.072 42.1178 14.072 42.1724 14.0531C42.2414 14.0144 42.3003 13.9703 42.3621 13.9208C42.551 13.7721 42.7456 13.6319 42.9414 13.4925C42.9615 13.4781 42.9817 13.4638 43.0024 13.449C44.2167 12.5845 45.6243 11.7461 47.1591 11.7449C47.1765 11.7449 47.1939 11.7449 47.2118 11.7449C47.4791 11.7452 47.738 11.7548 47.9987 11.8194C48.022 11.8251 48.022 11.8251 48.0459 11.8309C48.5009 11.9473 48.8721 12.1854 49.2115 12.507C49.2301 12.5241 49.2487 12.5412 49.2678 12.5589C49.6481 12.9217 49.9179 13.3997 50.0582 13.9051C50.1277 13.9051 50.1513 13.8649 50.2012 13.8177C50.3329 13.6966 50.4718 13.5868 50.6133 13.4775C50.6503 13.4489 50.687 13.42 50.7237 13.391C51.4309 12.8363 52.2086 12.3823 53.0102 11.9798C53.0313 11.9692 53.0525 11.9586 53.0743 11.9476C54.3551 11.3082 55.7715 10.8949 57.2008 10.8066C57.2167 10.8056 57.2326 10.8047 57.249 10.8036C58.2458 10.7434 59.2323 10.8805 60.1614 11.2511C60.1788 11.2578 60.1962 11.2646 60.2142 11.2716C60.2643 11.2922 60.2643 11.2922 60.311 11.3165C60.378 11.349 60.4223 11.368 60.4956 11.3475C60.5513 11.3206 60.6034 11.2901 60.6562 11.2579C60.8527 11.1468 61.0525 11.0489 61.2597 10.9599C61.2743 10.9537 61.2889 10.9474 61.3038 10.941C62.5812 10.3946 63.9186 10.0323 65.2987 9.87124C65.326 9.86781 65.3533 9.86438 65.3815 9.86085C66.2839 9.75013 67.2357 9.74289 68.1363 9.87124C68.1641 9.87505 68.192 9.87886 68.2207 9.88279C69.0885 10.0046 70.0475 10.2123 70.7908 10.6963C70.8822 10.5537 70.964 10.4074 71.0439 10.258C71.0704 10.2087 71.097 10.1594 71.1235 10.1101C71.1434 10.073 71.1434 10.073 71.1637 10.0352C71.2216 9.9278 71.2801 9.82074 71.3386 9.71367C71.4787 9.45664 71.6174 9.19883 71.7558 8.94082C71.7982 8.86186 71.8406 8.78295 71.883 8.70405C72.0543 8.38518 72.2226 8.06495 72.3884 7.74322C72.4393 7.64461 72.4905 7.54622 72.5424 7.44814C72.6646 7.21682 72.7842 6.98413 72.9036 6.75133C72.9229 6.71372 72.9422 6.67612 72.9615 6.63852C73.0083 6.5472 73.0552 6.45588 73.102 6.36456C73.0804 6.36669 73.0587 6.36883 73.0365 6.37103C71.7546 6.49742 70.4728 6.62374 69.191 6.74997C69.0371 6.76512 68.8833 6.78027 68.7295 6.79542C68.7142 6.79693 68.6989 6.79843 68.6831 6.79999C68.1868 6.84886 67.6906 6.89778 67.1943 6.94672C66.6699 6.99844 66.1455 7.0501 65.6212 7.10171C65.307 7.13263 64.9928 7.1636 64.6786 7.19462C64.4633 7.21586 64.248 7.23706 64.0327 7.25822C63.9084 7.27044 63.7841 7.28269 63.6598 7.29499C63.546 7.30624 63.4323 7.31743 63.3185 7.32858C63.2773 7.33262 63.2361 7.3367 63.1949 7.34079C63.139 7.34634 63.0831 7.35182 63.0272 7.35727C63.0111 7.35888 62.995 7.3605 62.9784 7.36217C62.8895 7.37073 62.8021 7.37454 62.7129 7.37302C62.7431 7.29393 62.7774 7.21986 62.8177 7.14543C62.8294 7.12371 62.8412 7.10199 62.8533 7.07961C62.8659 7.05637 62.8786 7.03312 62.8916 7.00917C62.9049 6.98473 62.9182 6.96028 62.9318 6.9351C63.0318 6.75149 63.134 6.5692 63.2372 6.38739C63.338 6.20962 63.4369 6.03084 63.5352 5.85174C63.6627 5.61975 63.791 5.38828 63.9205 5.15741C63.9977 5.01968 64.0744 4.88174 64.1507 4.74349C64.2014 4.65153 64.2526 4.55981 64.3039 4.46815C64.3534 4.37947 64.4015 4.29033 64.4478 4.19993C64.4669 4.16417 64.4859 4.12842 64.5049 4.09267C64.5126 4.07666 64.5203 4.06064 64.5282 4.04415C64.5519 4.00081 64.5519 4.00081 64.6122 3.9351C64.6544 3.92422 64.6544 3.92422 64.7059 3.92052C64.7265 3.91901 64.747 3.9175 64.7682 3.91595C64.9231 3.90793 65.0779 3.90174 65.2329 3.89637C65.2727 3.89494 65.3125 3.8935 65.3523 3.89206C65.4612 3.88812 65.5701 3.88428 65.6791 3.88045C65.7967 3.8763 65.9143 3.87207 66.032 3.86785C66.2622 3.85959 66.4925 3.85142 66.7228 3.84327C66.991 3.83377 67.2592 3.8242 67.5274 3.81463C68.006 3.79755 68.4845 3.78054 68.9631 3.76357C69.4274 3.7471 69.8917 3.73059 70.356 3.71401C70.3846 3.71299 70.4132 3.71197 70.4427 3.71092C70.4712 3.7099 70.4998 3.70888 70.5292 3.70783C71.0579 3.68896 71.5866 3.67013 72.1153 3.65133C72.3022 3.64469 72.4892 3.63802 72.6761 3.63136C72.9039 3.62323 73.1317 3.61514 73.3595 3.60707C73.4757 3.60296 73.5919 3.59884 73.7081 3.59468C73.8146 3.59087 73.921 3.5871 74.0274 3.58336C74.0658 3.582 74.1043 3.58063 74.1428 3.57924C74.3222 3.57279 74.5014 3.56655 74.681 3.56839C74.6885 3.5418 74.6885 3.5418 74.6961 3.51467C74.7378 3.40085 74.7943 3.29704 74.8512 3.19022C74.9463 3.00979 75.0396 2.82869 75.1301 2.64588C75.2157 2.47321 75.3037 2.30211 75.3941 2.13192C75.4828 1.96412 75.5672 1.79423 75.6504 1.62365C75.6723 1.57931 75.6953 1.53551 75.7192 1.49224C75.75 1.42768 75.7669 1.3762 75.7839 1.30788C75.8237 1.17805 75.87 1.07861 75.9854 1.00141C76.2574 0.918715 76.5544 0.926942 76.8363 0.921294C76.9426 0.918759 77.0488 0.914007 77.155 0.909417C77.3119 0.902857 77.4687 0.8975 77.6257 0.893386C77.7874 0.889129 77.9488 0.881671 78.1103 0.871515C78.2641 0.862093 78.4172 0.86166 78.5712 0.863892C78.5382 0.969936 78.4963 1.06997 78.4496 1.17053C78.4383 1.195 78.4383 1.195 78.4268 1.21997C78.4021 1.27368 78.3772 1.32735 78.3524 1.38101C78.3349 1.41893 78.3175 1.45685 78.3 1.49477C78.2637 1.57365 78.2273 1.65252 78.1909 1.73137C78.1062 1.91482 78.0219 2.09841 77.9376 2.28203C77.9257 2.30808 77.9257 2.30808 77.9135 2.33466C77.7716 2.64361 77.6314 2.95327 77.492 3.26334C77.4799 3.29045 77.4677 3.31756 77.4551 3.3455C77.4458 3.36611 77.4366 3.38672 77.427 3.40795C78.1938 3.39423 78.9603 3.37723 79.7269 3.35714C79.9017 3.35256 80.0764 3.34806 80.2511 3.34356C80.4966 3.33724 80.742 3.33091 80.9874 3.32455C81.0028 3.32415 81.0182 3.32375 81.034 3.32334C81.2532 3.31766 81.4723 3.31196 81.6915 3.30624C81.707 3.30583 81.7226 3.30543 81.7386 3.30501C81.7618 3.3044 81.7618 3.3044 81.7856 3.30378C82.0461 3.29699 82.3067 3.29026 82.5673 3.28358C82.7123 3.27986 82.8572 3.27611 83.0022 3.27228C84.1671 3.24154 84.1671 3.24154 84.704 3.24751C84.6933 3.28027 84.6826 3.313 84.6718 3.34573C84.6658 3.36396 84.6599 3.38219 84.6537 3.40098C84.629 3.47231 84.5981 3.53966 84.5657 3.60778C84.5591 3.62172 84.5525 3.63567 84.5457 3.65003C84.5315 3.67993 84.5173 3.7098 84.5031 3.73965C84.4647 3.82019 84.4266 3.90093 84.3886 3.98165C84.3807 3.99838 84.3728 4.0151 84.3647 4.03233C84.2611 4.2523 84.1614 4.47401 84.0616 4.69569C84.0547 4.71094 84.0478 4.72619 84.0407 4.7419C84.0222 4.7829 84.0038 4.82392 83.9853 4.86495C83.9733 4.89089 83.9613 4.91683 83.9489 4.94355C83.9448 4.95877 83.9408 4.97399 83.9366 4.98967C83.9176 5.04726 83.899 5.08247 83.8573 5.12691C83.7688 5.1578 83.6801 5.16446 83.587 5.17083C83.5339 5.17445 83.4811 5.17912 83.4282 5.18402C83.3448 5.19166 83.2613 5.19886 83.1779 5.20587C83.0186 5.21956 82.8596 5.23597 82.7006 5.2526C82.6708 5.25571 82.6411 5.25882 82.6104 5.26202C82.5638 5.2669 82.5172 5.27177 82.4707 5.27665C82.2872 5.29585 82.1038 5.31453 81.9203 5.33322C81.8673 5.33862 81.8142 5.34403 81.7612 5.34944C81.7253 5.3531 81.6894 5.35677 81.6535 5.36043C81.4688 5.37926 81.2841 5.39815 81.0995 5.41704C80.7702 5.45072 80.441 5.48438 80.1118 5.51801C80.0824 5.52101 80.0824 5.52101 80.0525 5.52407C79.8333 5.54646 79.6142 5.56884 79.395 5.5912C79.3752 5.59323 79.3554 5.59525 79.3349 5.59734C79.3151 5.59936 79.2953 5.60138 79.2749 5.60347C79.2349 5.60755 79.1949 5.61163 79.1549 5.61571C79.1253 5.61874 79.1253 5.61874 79.095 5.62182C78.7659 5.65542 78.4367 5.68907 78.1076 5.72276C77.9052 5.74347 77.7028 5.76414 77.5005 5.78475C77.3624 5.79882 77.2243 5.81294 77.0862 5.82709C77.0065 5.83525 76.9269 5.84339 76.8472 5.85147C76.761 5.86023 76.6748 5.86907 76.5886 5.87793C76.5507 5.88175 76.5507 5.88175 76.5121 5.88564C76.4891 5.88803 76.466 5.89041 76.4423 5.89287C76.4224 5.8949 76.4025 5.89693 76.382 5.89902C76.3083 5.90869 76.3083 5.90869 76.2371 5.92909C76.2038 5.98422 76.1771 6.03601 76.1509 6.09445C76.1429 6.11162 76.1349 6.12879 76.1266 6.14648C76.1002 6.20328 76.0743 6.26028 76.0483 6.31729C76.0299 6.35713 76.0114 6.39696 75.9929 6.43677C75.955 6.51838 75.9173 6.60008 75.8797 6.68184C75.8088 6.83588 75.7365 6.98928 75.6642 7.14266C75.6343 7.20615 75.6045 7.26969 75.5747 7.33323C75.468 7.56063 75.3606 7.78771 75.2531 8.01476C75.1225 8.29056 74.9923 8.56651 74.8626 8.84273C74.738 9.10832 74.6131 9.37381 74.4879 9.63918C74.4799 9.65628 74.4718 9.67338 74.4635 9.691C74.4226 9.77758 74.3818 9.86415 74.341 9.95072C74.2679 10.1057 74.1948 10.2606 74.1218 10.4156C74.0812 10.5016 74.0407 10.5875 74.0002 10.6734C73.984 10.7078 73.9678 10.7422 73.9516 10.7766C73.6598 11.3954 73.368 12.0142 73.0763 12.633C73.0683 12.65 73.0602 12.6671 73.052 12.6846C73.0358 12.719 73.0195 12.7534 73.0033 12.7877C72.9628 12.8737 72.9223 12.9596 72.8818 13.0455C72.8087 13.2006 72.7355 13.3558 72.6624 13.5109C72.6216 13.5974 72.5807 13.6839 72.5399 13.7704C72.5319 13.7875 72.5238 13.8046 72.5155 13.8222C72.391 14.0863 72.2668 14.3506 72.1427 14.6149C72.0118 14.8936 71.8803 15.1719 71.7486 15.4502C71.6272 15.7066 71.5063 15.9631 71.3858 16.2199C71.2566 16.4952 71.1268 16.7702 70.9967 17.045C70.8662 17.3208 70.7359 17.5968 70.6063 17.873C70.4816 18.1386 70.3567 18.4041 70.2316 18.6694C70.2235 18.6865 70.2154 18.7036 70.2071 18.7213C70.1663 18.8078 70.1255 18.8944 70.0846 18.981C70.0115 19.1359 69.9385 19.2909 69.8654 19.4459C69.8249 19.5318 69.7844 19.6177 69.7439 19.7037C69.7276 19.7381 69.7114 19.7724 69.6952 19.8068C69.5331 20.1506 69.371 20.4944 69.209 20.8382C69.2009 20.8552 69.1929 20.8722 69.1846 20.8898C69.1684 20.9241 69.1522 20.9585 69.136 20.9929C69.0954 21.0789 69.0549 21.1649 69.0145 21.251C68.9421 21.405 68.8694 21.5589 68.795 21.7119C68.6087 22.0952 68.4353 22.4813 68.2793 22.878C68.2679 22.9067 68.2679 22.9067 68.2562 22.936C68.0565 23.4402 67.8746 23.9923 68.0519 24.5311C68.1281 24.6837 68.2226 24.7377 68.3766 24.7965C68.8852 24.9588 69.4127 24.7766 69.8644 24.5441C70.2239 24.3462 70.5462 24.0927 70.8594 23.8292C70.8734 23.8175 70.8873 23.8058 70.9017 23.7937C71.0748 23.6481 71.2428 23.4977 71.4082 23.3434C71.4873 23.2696 71.5678 23.1973 71.6483 23.125C71.7137 23.066 71.7786 23.0064 71.8434 22.9468C71.9289 22.8681 72.0147 22.7897 72.1009 22.7119C72.1195 22.695 72.1382 22.6782 72.1574 22.6608C72.1889 22.6328 72.2208 22.6051 72.2532 22.5781C72.3671 22.4829 72.4662 22.3759 72.5662 22.2666C72.738 22.0805 72.9187 21.9031 73.0986 21.7249C73.2146 21.6098 73.328 21.4942 73.4338 21.3694C73.4675 21.3317 73.5025 21.2985 73.5405 21.2652C73.5624 21.2457 73.5843 21.2263 73.6069 21.2063C73.6406 21.1773 73.6406 21.1773 73.6749 21.1477C73.7243 21.0863 73.7243 21.0863 73.719 21.0337C73.7073 20.9786 73.6914 20.9262 73.6741 20.8726C73.6633 20.8328 73.6526 20.7931 73.642 20.7532C73.6363 20.7325 73.6306 20.7117 73.6247 20.6903C73.4924 20.2046 73.44 19.7237 73.4396 19.2209C73.4395 19.1939 73.4395 19.1939 73.4395 19.1663C73.4409 18.1478 73.6763 17.1434 74.1547 16.2428C74.1625 16.2278 74.1703 16.2129 74.1783 16.1974C74.3663 15.8379 74.6048 15.5251 74.887 15.2344C74.9015 15.2192 74.9161 15.2041 74.9311 15.1884C75.8293 14.2551 76.9945 13.837 78.2737 13.7905C78.2989 13.7895 78.3241 13.7885 78.3501 13.7875C78.7137 13.7808 79.0791 13.8256 79.4408 13.8592C79.8793 13.2156 80.3153 12.5701 80.746 11.9211C80.923 11.6546 81.1021 11.3894 81.281 11.1241C81.4672 10.8479 81.6527 10.5714 81.8367 10.2938C81.9243 10.1619 82.0125 10.0306 82.1016 9.8998C82.1168 9.87747 82.1168 9.87747 82.1323 9.8547C82.1815 9.78253 82.2307 9.71042 82.2801 9.63842C82.2977 9.61265 82.3152 9.58688 82.3328 9.56111C82.3483 9.53852 82.3638 9.51593 82.3797 9.49266C82.4426 9.39319 82.4451 9.2984 82.4518 9.1841C82.4542 9.14641 82.4567 9.10872 82.4591 9.07103C82.4604 9.05129 82.4617 9.03154 82.4631 9.0112C82.5226 8.12566 82.7072 7.29778 83.3997 6.68543C83.6881 6.45846 84.0646 6.20246 84.4464 6.23188C84.5881 6.25271 84.7149 6.28403 84.8185 6.38748C85.0631 6.7366 85.0909 7.21617 85.0365 7.62594C85.0212 7.71136 85.0017 7.7936 84.9786 7.87724C84.9743 7.89297 84.97 7.90869 84.9656 7.92488C84.8136 8.46437 84.5116 8.89465 84.1607 9.32162C84.0679 9.43468 83.978 9.5499 83.888 9.66523C83.8345 9.73372 83.8345 9.73372 83.7802 9.7929C83.737 9.84453 83.737 9.84453 83.748 9.90086C83.7682 9.97125 83.7966 10.0297 83.8311 10.0943C83.8447 10.12 83.8584 10.1456 83.8724 10.1721C83.8874 10.1998 83.9024 10.2275 83.9174 10.2551C83.925 10.2693 83.9326 10.2834 83.9404 10.2979C84.2534 10.8786 84.6111 11.4298 84.9773 11.9779C86.3448 14.0261 87.361 16.0979 86.878 18.624C86.7483 19.2711 86.5506 19.9012 86.2381 20.4845C86.2217 20.5151 86.2054 20.5459 86.1894 20.5767C85.9776 20.9835 85.7176 21.355 85.4134 21.6977C85.3867 21.7287 85.36 21.7597 85.3333 21.7908C85.3067 21.8209 85.28 21.851 85.2532 21.881C85.2347 21.9019 85.2163 21.9229 85.1972 21.9444C85.0611 22.0969 84.9188 22.2403 84.7649 22.3749C84.7395 22.3972 84.7142 22.4196 84.689 22.4423C84.1986 22.8814 83.6024 23.2543 83.0264 23.5713C83.0127 23.579 82.999 23.5866 82.9849 23.5945C82.9708 23.6024 82.9567 23.6102 82.9423 23.6183C82.9281 23.6264 82.9139 23.6345 82.8993 23.6428C82.8505 23.6687 82.8505 23.6687 82.7869 23.6957C82.6921 23.7389 82.6185 23.7726 82.5645 23.8645C82.5386 23.9366 82.5187 24.0084 82.5001 24.0827C82.2812 24.8283 81.8596 25.5169 81.4088 26.144C81.3956 26.1624 81.3825 26.1807 81.3689 26.1995C81.1387 26.5184 80.9 26.8289 80.6445 27.128C80.5909 27.1909 80.5392 27.2554 80.4877 27.3201C80.3849 27.4469 80.2738 27.5652 80.1614 27.6835C80.1475 27.6981 80.1336 27.7128 80.1193 27.7279C80.107 27.7407 80.0948 27.7535 80.0822 27.7667C80.0414 27.8111 80.002 27.8563 79.9626 27.9021C79.8729 28.005 79.7778 28.1018 79.6812 28.1983C79.663 28.2165 79.6449 28.2347 79.6262 28.2534C79.5881 28.2916 79.55 28.3297 79.5118 28.3679C79.4538 28.4258 79.396 28.4839 79.3381 28.542C79.3009 28.5792 79.2636 28.6165 79.2264 28.6538C79.2093 28.671 79.1922 28.6881 79.1746 28.7058C79.0812 28.799 78.9857 28.8884 78.8857 28.9745C78.8266 29.0256 78.7699 29.0789 78.7128 29.1322C78.6065 29.2306 78.4971 29.3237 78.3842 29.4146C78.3269 29.4614 78.2706 29.5092 78.2146 29.5575C78.0493 29.6999 77.8771 29.8315 77.7015 29.9609C77.6578 29.9931 77.6142 30.0257 77.5708 30.0583C75.8171 31.3684 73.7831 31.9918 70.686 32.9358C70.3001 33.0528 69.9144 33.1701 69.5286 33.2875C69.4148 33.3222 69.301 33.3568 69.1873 33.3914C68.7034 33.5386 68.2196 33.686 67.7358 33.8335C66.9851 34.0624 66.2342 34.2909 65.4834 34.5193C65.2175 34.6002 64.9516 34.6811 64.6857 34.762C64.6671 34.7677 64.6484 34.7734 64.6293 34.7792C64.5353 34.8078 64.4413 34.8364 64.3474 34.865C64.178 34.9165 64.0086 34.9681 63.8392 35.0196C63.745 35.0482 63.6509 35.0769 63.5567 35.1056C63.519 35.117 63.4814 35.1285 63.4437 35.1399C63.4251 35.1456 63.4064 35.1513 63.3872 35.1571C61.4099 35.7588 61.4099 35.7588 61.3534 35.7759C61.3158 35.7874 61.2781 35.7989 61.2404 35.8103C61.1463 35.839 61.0521 35.8676 60.9579 35.8963C60.7886 35.9478 60.6192 35.9993 60.4499 36.0509C60.3559 36.0795 60.2619 36.1081 60.1679 36.1367C60.1493 36.1423 60.1307 36.148 60.1115 36.1538C59.8452 36.2348 59.579 36.3159 59.3127 36.3969C59.1407 36.4492 58.9688 36.5015 58.7969 36.5538C58.7781 36.5595 58.7592 36.5652 58.7398 36.5711C58.1991 36.7356 57.6584 36.9003 57.1178 37.0652C56.3671 37.2941 55.6162 37.5226 54.8653 37.751C54.5995 37.8319 54.3336 37.9128 54.0677 37.9937C54.0491 37.9993 54.0304 38.005 54.0113 38.0108C53.9173 38.0394 53.8233 38.068 53.7294 38.0966C53.56 38.1482 53.3906 38.1997 53.2212 38.2512C53.127 38.2799 53.0328 38.3085 52.9387 38.3372C52.901 38.3487 52.8634 38.3601 52.8257 38.3716C52.8071 38.3772 52.7884 38.3829 52.7692 38.3888C48.9841 39.5405 48.9841 39.5405 48.9276 39.5577C48.8899 39.5691 48.8523 39.5806 48.8146 39.592C48.7205 39.6207 48.6263 39.6493 48.5321 39.678C48.3628 39.7295 48.1934 39.7811 48.0241 39.8326C47.9301 39.8612 47.8361 39.8898 47.7421 39.9184C47.7235 39.924 47.7049 39.9297 47.6857 39.9355C47.4194 40.0166 47.1531 40.0976 46.8868 40.1786C46.7149 40.2309 46.543 40.2832 46.3711 40.3355C46.3522 40.3412 46.3334 40.3469 46.314 40.3529C45.7733 40.5174 45.2326 40.682 44.692 40.8469C43.9413 41.0758 43.1904 41.3043 42.4395 41.5327C42.1736 41.6136 41.9077 41.6945 41.6418 41.7754C41.6139 41.7839 41.6139 41.7839 41.5854 41.7925C41.4915 41.8211 41.3975 41.8497 41.3036 41.8783C41.1341 41.9299 40.9647 41.9814 40.7953 42.033C40.7012 42.0616 40.607 42.0903 40.5129 42.1189C40.4752 42.1304 40.4375 42.1418 40.3999 42.1533C40.3719 42.1618 40.3719 42.1618 40.3434 42.1705C40.2869 42.1877 40.2304 42.2049 40.1739 42.222C40.1553 42.2277 40.1366 42.2334 40.1174 42.2392C40.0797 42.2507 40.0421 42.2621 40.0044 42.2736C39.9103 42.3023 39.8161 42.3309 39.7219 42.3596C39.5525 42.4111 39.3831 42.4627 39.2137 42.5142C39.1197 42.5428 39.0256 42.5714 38.9316 42.6C38.9036 42.6085 38.9036 42.6085 38.8751 42.6172C38.6289 42.6921 38.3828 42.7671 38.1366 42.842C38.0034 42.8826 37.8701 42.9232 37.7369 42.9638C37.6426 42.9925 37.5484 43.0212 37.4541 43.0499C37.0585 43.1705 36.6627 43.2906 36.2664 43.4092C36.2091 43.4263 36.1519 43.4435 36.0946 43.4606C36.076 43.4662 36.0573 43.4718 36.0381 43.4776C36.0008 43.4888 35.9635 43.4999 35.9262 43.5111C35.8373 43.5378 35.7484 43.5643 35.6595 43.5907C35.2459 43.7136 34.8382 43.8455 34.4332 43.9946C34.3275 44.0331 34.2213 44.0701 34.1151 44.1072C33.5644 44.2995 33.0256 44.5226 32.4983 44.772C32.4407 44.7991 32.3829 44.8258 32.3251 44.8523C32.0428 44.9826 31.7708 45.1297 31.4996 45.2818C31.4797 45.2929 31.4598 45.3039 31.4393 45.3154C30.98 45.5718 30.533 45.8485 30.1037 46.1527C29.6062 45.5393 29.704 44.316 29.7741 43.5801C29.8827 42.5654 30.129 41.4851 30.7444 40.6521C30.7536 40.6395 30.7627 40.627 30.7722 40.614C30.8371 40.5256 30.9044 40.4395 30.9732 40.3541C30.9828 40.3421 30.9924 40.3301 31.0023 40.3178C31.1538 40.1297 31.3196 39.9568 31.4896 39.7854C31.5093 39.7654 31.529 39.7455 31.5493 39.7249C31.6859 39.5888 31.8297 39.466 31.9801 39.3456C32.01 39.3208 32.0398 39.2959 32.0695 39.2708C32.2966 39.0812 32.5346 38.913 32.7811 38.7497C32.805 38.7337 32.805 38.7337 32.8294 38.7174C33.5859 38.2107 34.3967 37.7982 35.2453 37.4706C35.2823 37.4561 35.2823 37.4561 35.32 37.4414C35.7665 37.2729 36.2328 37.1602 36.6954 37.0463C36.7495 37.0329 36.8035 37.0195 36.8576 37.0061C37.0012 36.9704 37.1449 36.935 37.2885 36.8995C37.3787 36.8773 37.469 36.855 37.5592 36.8326C37.5743 36.8289 37.5894 36.8252 37.6049 36.8213C37.6354 36.8138 37.666 36.8062 37.6965 36.7986C38.4149 36.6208 39.1335 36.4443 39.8526 36.2694C40.5585 36.0976 41.2637 35.9226 41.9688 35.7473C42.7325 35.5574 43.4963 35.3684 44.2609 35.1824C44.9696 35.0099 45.6775 34.8346 46.3854 34.6586C47.1116 34.4781 47.838 34.2984 48.565 34.1214C49.4187 33.9137 50.2715 33.7022 51.1241 33.4902C51.2008 33.4711 51.2776 33.452 51.3543 33.4329C51.4065 33.42 51.4587 33.407 51.5108 33.394C51.8303 33.3146 52.1498 33.2355 52.4694 33.1567C53.5638 32.887 54.6573 32.6141 55.7507 32.3402C55.9174 32.2984 56.0842 32.2566 56.251 32.2149C57.1781 31.9829 58.1051 31.7507 59.0312 31.5149C59.6093 31.3677 60.1877 31.2222 60.7663 31.0775C60.7874 31.0722 60.8084 31.0669 60.8301 31.0615C61.1742 30.9754 61.5183 30.8894 61.8625 30.8034C62.1846 30.7229 62.5066 30.6424 62.8287 30.5618C62.8498 30.5565 62.8708 30.5512 62.8926 30.5458C63.4699 30.4014 64.0469 30.2559 64.6236 30.1091C65.2216 29.9569 65.82 29.8062 66.4186 29.6565C66.4396 29.6512 66.4607 29.6459 66.4823 29.6405C66.8265 29.5544 67.1706 29.4684 67.5147 29.3824C67.8368 29.3019 68.1589 29.2213 68.481 29.1408C68.502 29.1355 68.5231 29.1302 68.5447 29.1248C69.1422 28.9753 69.7394 28.8247 70.3362 28.6727C70.8712 28.5364 71.4066 28.402 71.9424 28.2685C72.0387 28.2446 72.135 28.2206 72.2313 28.1965C72.542 28.1191 72.8527 28.0417 73.1635 27.9645C73.3392 27.9209 73.5149 27.8771 73.6906 27.8332C73.7818 27.8104 73.8731 27.7877 73.9644 27.7651C74.4319 27.6495 74.8945 27.5221 75.3555 27.383C75.4671 27.3495 75.5788 27.3169 75.6907 27.2843C76.2859 27.1093 76.8654 26.9146 77.427 26.6483C77.4494 26.6378 77.4717 26.6274 77.4948 26.6166C77.9481 26.4044 78.3907 26.1817 78.8001 25.8919C78.8164 25.8804 78.8327 25.8689 78.8496 25.857C79.1983 25.6101 79.5316 25.3488 79.8527 25.0668C79.8737 25.0484 79.8948 25.0299 79.9164 25.0109C80.2098 24.7675 80.2098 24.7675 80.4019 24.448C80.3733 24.4487 80.3447 24.4494 80.3152 24.4501C77.0419 24.5285 77.0419 24.5285 75.7794 23.6C75.7659 23.5902 75.7523 23.5804 75.7383 23.5703C75.3087 23.2598 74.937 22.9004 74.5666 22.5228C74.4416 22.627 74.3263 22.7378 74.212 22.8536C74.1938 22.8718 74.1757 22.8901 74.157 22.9089C74.0801 22.9863 74.0033 23.0639 73.9265 23.1414C73.8701 23.1983 73.8136 23.2552 73.7572 23.312C73.7401 23.3293 73.723 23.3466 73.7054 23.3644C73.6119 23.4584 73.5164 23.5484 73.4157 23.6347C73.3618 23.6816 73.312 23.7321 73.2622 23.7833C73.1833 23.8632 73.103 23.9388 73.0177 24.0117C72.9609 24.0618 72.9057 24.1134 72.8505 24.1653C72.7218 24.2864 72.5911 24.4021 72.4532 24.5127C72.389 24.5656 72.3279 24.6209 72.2668 24.6772C72.1448 24.7894 72.0181 24.894 71.8892 24.9981C71.8621 25.0204 71.8351 25.0428 71.808 25.0651C71.5663 25.2646 71.3175 25.4537 71.0654 25.6398C71.048 25.6527 71.0306 25.6656 71.0126 25.6789C70.4973 26.0594 69.9615 26.407 69.3987 26.7129C69.3515 26.7386 69.3046 26.7649 69.2577 26.7913C68.195 27.3809 66.8014 27.821 65.589 27.4891C65.0398 27.3296 64.7033 27.031 64.4291 26.5337C64.2558 26.1966 64.175 25.8237 64.1728 25.4457C64.1726 25.4276 64.1724 25.4095 64.1723 25.3909C64.1695 24.9883 64.1724 24.5931 64.2461 24.1959C64.2506 24.1713 64.2552 24.1468 64.2598 24.1215C64.469 23.0255 64.8302 21.9432 65.3674 20.9643C65.3897 20.9233 65.4121 20.8823 65.4344 20.8413C65.4681 20.7795 65.5019 20.7177 65.5358 20.656C65.6415 20.4627 65.7423 20.267 65.8431 20.071C65.9371 19.8886 66.0342 19.7081 66.1331 19.5283C66.2238 19.3627 66.3108 19.1954 66.3971 19.0276C66.5052 18.8174 66.6158 18.6091 66.7297 18.402C66.8157 18.245 66.8986 18.0865 66.9807 17.9274C67.0734 17.7476 67.1678 17.569 67.2653 17.3917C67.3678 17.205 67.4668 17.0167 67.5642 16.8273C67.6723 16.6172 67.7829 16.4088 67.8967 16.2017C67.9827 16.0447 68.0657 15.8863 68.1477 15.7272C68.2405 15.5473 68.3349 15.3687 68.4323 15.1914C68.5493 14.9786 68.6611 14.7634 68.7722 14.5474C68.8663 14.365 68.9633 14.1845 69.0622 14.0047C69.1529 13.8391 69.2399 13.6718 69.3262 13.504C69.4241 13.3136 69.5236 13.1243 69.6266 12.9367C69.7246 12.7581 69.8209 12.5786 69.9155 12.3981C69.9335 12.3639 69.9335 12.3639 69.952 12.329C69.9629 12.3079 69.9739 12.2869 69.9852 12.2652C69.995 12.2466 70.0047 12.228 70.0148 12.2088C70.0388 12.1646 70.0388 12.1646 70.0356 12.1173C69.2065 11.6863 68.3539 11.4448 67.4269 11.3381C67.3954 11.3344 67.3954 11.3344 67.3632 11.3307C67.1306 11.3076 66.8967 11.3096 66.6631 11.3094C66.6404 11.3094 66.6176 11.3094 66.5941 11.3094C65.4277 11.3106 64.247 11.5353 63.1934 12.0486C63.1775 12.0562 63.1616 12.0639 63.1452 12.0717C62.8038 12.236 62.4706 12.4138 62.1625 12.6353C62.0535 12.7132 62.0535 12.7132 62.0035 12.7132C62.0287 12.7481 62.054 12.783 62.0793 12.8178C62.1044 12.8526 62.1044 12.8526 62.13 12.888C62.1682 12.9406 62.2071 12.9925 62.2467 13.0441C62.4099 13.2587 62.544 13.482 62.6671 13.7217C62.6759 13.7387 62.6847 13.7557 62.6937 13.7732C63.1507 14.6686 63.3793 15.7007 63.4451 16.7012C63.448 16.7424 63.448 16.7424 63.451 16.7845C63.468 17.0376 63.4726 17.2899 63.4723 17.5435C63.4723 17.564 63.4723 17.5844 63.4723 17.6055C63.4697 18.9945 63.194 20.3232 62.7357 21.6289C62.7302 21.6447 62.7247 21.6606 62.7189 21.6769C62.5377 22.1923 62.3235 22.6914 62.095 23.1874C62.0885 23.2016 62.0819 23.2158 62.0752 23.2304C61.9127 23.5831 61.7358 23.9261 61.5458 24.2647C61.5348 24.2844 61.5239 24.3041 61.5126 24.3244C61.0223 25.2054 60.4499 26.0332 59.8066 26.8087C59.7923 26.826 59.7923 26.826 59.7777 26.8437C59.6381 27.0121 59.4938 27.1752 59.3446 27.3352C59.291 27.3927 59.2391 27.4514 59.1873 27.5106C59.0808 27.6297 58.9682 27.7426 58.8555 27.8558C58.8371 27.8744 58.8187 27.8929 58.7998 27.912C58.7018 28.0099 58.6021 28.1042 58.4972 28.1945C58.442 28.2423 58.3885 28.2919 58.3349 28.3414C58.2113 28.4542 58.0834 28.5604 57.9531 28.6652C57.9269 28.6866 57.9007 28.7081 57.8746 28.7296C57.6636 28.9019 57.4452 29.0609 57.2208 29.2153C57.2071 29.2247 57.1935 29.2342 57.1794 29.244C56.2847 29.865 55.2036 30.4775 54.1086 30.6363C54.069 30.6426 54.069 30.6426 54.0287 30.649C53.8788 30.6671 53.7273 30.6648 53.5766 30.6649C53.5521 30.6649 53.5521 30.6649 53.5272 30.665C52.6282 30.6636 51.8122 30.3723 51.1666 29.7367C50.2706 28.8329 50.0772 27.529 50.0811 26.3045C50.1073 24.5614 50.5468 22.8319 51.2939 21.2622C51.3062 21.2364 51.3184 21.2106 51.331 21.1841C51.4243 20.988 51.5189 20.7926 51.6143 20.5975C51.6245 20.5767 51.6245 20.5767 51.6349 20.5555C51.8068 20.2046 51.9837 19.857 52.1737 19.5155C52.2114 19.4476 52.2489 19.3796 52.2863 19.3115C52.4659 18.9862 52.6537 18.6669 52.85 18.3514C52.8632 18.3301 52.8764 18.3088 52.8901 18.2869C53.0807 17.9805 53.2811 17.6825 53.4907 17.3888C53.5036 17.3707 53.5164 17.3526 53.5297 17.334C53.6938 17.1028 53.8624 16.8763 54.04 16.6554C54.0516 16.6408 54.0633 16.6262 54.0753 16.6112C54.3236 16.3014 54.579 16.0001 54.8499 15.7099C54.8758 15.6817 54.9014 15.653 54.9267 15.6242C55.0901 15.4383 55.2652 15.2643 55.4403 15.0895C55.4945 15.0352 55.5487 14.9809 55.6028 14.9265C55.6378 14.8915 55.6727 14.8566 55.7077 14.8216C55.7236 14.8056 55.7395 14.7896 55.756 14.7731C55.8462 14.6831 55.9387 14.597 56.0354 14.5139C56.1029 14.4552 56.1675 14.3934 56.2325 14.3319C56.3479 14.2237 56.4662 14.1212 56.5897 14.0222C56.6492 13.9734 56.7063 13.9226 56.7631 13.8707C56.8603 13.7821 56.9606 13.6985 57.0627 13.6157C57.1213 13.5678 57.1791 13.5191 57.2366 13.4698C57.3898 13.3387 57.5467 13.2131 57.7058 13.0893C57.7774 13.0334 57.8488 12.9772 57.9202 12.921C57.9332 12.9107 57.9463 12.9004 57.9598 12.8898C58.0341 12.8313 58.1082 12.7725 58.1819 12.7132C57.9543 12.6373 57.6776 12.6619 57.4396 12.6617C57.4154 12.6616 57.4154 12.6616 57.3908 12.6616C55.2388 12.6637 53.1652 13.6146 51.477 15.0281C51.437 15.0606 51.3969 15.0931 51.3568 15.1255C51.1186 15.3211 50.8874 15.5242 50.6635 15.7361C50.6505 15.7484 50.6375 15.7607 50.6241 15.7734C50.6043 15.7931 50.6043 15.7931 50.584 15.8131C50.5388 15.8532 50.5388 15.8532 50.4801 15.8886C50.3647 15.9667 50.3082 16.0402 50.2814 16.1768C50.2631 16.3008 50.2525 16.4253 50.2432 16.5503C50.2327 16.6901 50.2186 16.8296 50.2052 16.9692C50.2012 17.0112 50.2012 17.0112 50.1973 17.054C50.1734 17.3046 50.1378 17.5521 50.094 17.7999C50.0906 17.819 50.0872 17.8381 50.0838 17.8578C50.0186 18.2238 49.941 18.5864 49.8523 18.9473C49.8418 18.9909 49.8418 18.9909 49.8311 19.0352C49.6228 19.8953 49.3414 20.7419 49.0056 21.5602C48.9935 21.5898 48.9814 21.6194 48.9694 21.649C48.8018 22.0601 48.6231 22.4652 48.4335 22.8666C48.4231 22.8885 48.4128 22.9105 48.4022 22.9331C48.1054 23.5641 47.7988 24.1931 47.4589 24.8021C47.4109 24.889 47.364 24.9765 47.317 25.064C47.1712 25.3352 47.0221 25.6043 46.8693 25.8717C46.8316 25.9378 46.7943 26.0042 46.757 26.0705C46.5491 26.4371 46.3167 26.7839 46.0765 27.1296C46.0629 27.1491 46.0494 27.1687 46.0355 27.1888C45.7681 27.5746 45.4879 27.9507 45.1982 28.3199C45.1633 28.3644 45.1286 28.4091 45.0939 28.4539C44.972 28.6108 44.8467 28.764 44.7177 28.9152C44.6613 28.9814 44.6065 29.0487 44.5518 29.1164C44.4701 29.2171 44.3846 29.3134 44.2973 29.4092C44.2433 29.4701 44.1923 29.5328 44.1414 29.5963C44.0657 29.69 43.9864 29.7756 43.9002 29.8594C43.8567 29.9028 43.8166 29.9479 43.7766 29.9945C43.7092 30.0731 43.6379 30.146 43.5635 30.218C43.5222 30.2606 43.4839 30.3038 43.4455 30.349C43.3383 30.4725 43.2225 30.5873 43.1068 30.7027C43.0688 30.7408 43.0308 30.7789 42.9928 30.8171C42.877 30.9331 42.7612 31.0475 42.6359 31.1534C42.5946 31.1894 42.5563 31.2274 42.518 31.2665C42.4496 31.3361 42.3781 31.4005 42.3042 31.4642C42.2503 31.5112 42.1976 31.5593 42.1448 31.6075C42.0478 31.695 41.9483 31.7786 41.8467 31.8608C41.7923 31.9049 41.7385 31.9495 41.6848 31.9944C41.4679 32.1754 41.2468 32.3485 41.0192 32.5157C41.0031 32.5276 40.987 32.5395 40.9705 32.5517C39.6111 33.5581 37.7106 34.6805 35.9428 34.4233C35.2216 34.2974 34.5907 33.9054 34.1541 33.3178C33.1623 31.8674 33.4222 29.6675 33.7237 28.0328C34.0225 26.4455 34.5366 24.8528 35.2296 23.3937C35.2392 23.3732 35.2489 23.3527 35.2588 23.3316C35.5161 22.7848 35.7836 22.2413 36.0689 21.7086C36.1038 21.6433 36.1384 21.5779 36.173 21.5124C36.3301 21.2169 36.4931 20.9256 36.663 20.6372C36.724 20.5336 36.7835 20.4292 36.8425 20.3244C37.0948 19.8766 37.374 19.4469 37.6581 19.019C37.6705 19.0003 37.6829 18.9816 37.6956 18.9623C37.8645 18.7077 38.0387 18.4577 38.2189 18.211C38.2591 18.1559 38.299 18.1007 38.3389 18.0454C38.4982 17.8267 38.6631 17.614 38.8354 17.4055C38.8819 17.3491 38.9279 17.2923 38.9739 17.2355C39.1401 17.0326 39.3089 16.8325 39.4852 16.6382C39.5266 16.5924 39.5672 16.546 39.6075 16.4993C39.8296 16.2447 40.0647 16.0039 40.3041 15.7658C40.3337 15.7363 40.3633 15.7067 40.3929 15.6772C40.4643 15.6059 40.5358 15.5347 40.6073 15.4636C40.5256 15.2829 40.3054 15.177 40.1273 15.1056C39.2234 14.7677 38.2162 14.9393 37.347 15.302C37.3085 15.318 37.2699 15.3336 37.2312 15.3489C36.9737 15.4506 36.7938 15.5672 36.6156 15.7803C36.5409 15.8686 36.4639 15.9542 36.3848 16.0385C36.3703 16.054 36.3559 16.0694 36.341 16.0853C36.1462 16.2916 35.9454 16.492 35.7447 16.6926C35.688 16.7492 35.6315 16.8059 35.5749 16.8627C35.52 16.9178 35.4649 16.9729 35.4099 17.0279C35.3899 17.048 35.3699 17.0681 35.3493 17.0888C35.2489 17.1889 35.1472 17.286 35.0396 17.3783C34.9808 17.4289 34.9245 17.482 34.8678 17.5349C34.7608 17.6339 34.6508 17.7278 34.5373 17.8192C34.474 17.8705 34.412 17.9232 34.35 17.9761C34.1721 18.1248 33.986 18.2627 33.7997 18.4006C33.7632 18.4275 33.7268 18.4546 33.6905 18.4817C33.4321 18.6747 33.1643 18.85 32.8919 19.0225C32.8006 19.0803 32.7106 19.1395 32.6217 19.2009C32.3957 19.3568 32.1542 19.4845 31.9115 19.612C31.8957 19.6203 31.8798 19.6286 31.8635 19.6372C31.7585 19.692 31.6521 19.744 31.5453 19.7954C31.5245 19.8055 31.5036 19.8157 31.4821 19.8262C30.7977 20.1581 30.0865 20.4313 29.3714 20.6892C29.4001 20.7813 29.434 20.8647 29.4788 20.9499C29.7131 21.4027 29.9126 21.8669 30.1037 22.3394C30.1108 22.3571 30.118 22.3747 30.1253 22.3929C30.7594 23.9604 31.1307 25.5598 31.2707 27.2442C31.2732 27.2729 31.2756 27.3017 31.2781 27.3313C31.301 27.6503 31.2979 27.9704 31.2979 28.29C31.2979 28.3581 31.298 28.4262 31.2983 28.4943C31.3011 29.0981 31.2776 29.6977 31.2092 30.2982C31.2074 30.3147 31.2055 30.3312 31.2036 30.3481C30.9687 32.4024 30.3726 34.4006 28.0441 38.2455C28.0237 38.2697 28.0033 38.2939 27.9829 38.318C27.9506 38.3562 27.9183 38.3944 27.886 38.4326C27.8189 38.5117 27.7531 38.5917 27.688 38.6724C27.601 38.7796 27.5097 38.882 27.4161 38.9835C27.3716 39.0324 27.3282 39.0818 27.2851 39.132C27.1997 39.2298 27.1099 39.3221 27.018 39.4138C27.0014 39.4304 26.9848 39.4471 26.9677 39.4643C26.9328 39.4992 26.8979 39.5341 26.863 39.569C26.81 39.622 26.7571 39.6751 26.7042 39.7282C26.6701 39.7623 26.636 39.7965 26.6018 39.8306C26.5863 39.8463 26.5707 39.8619 26.5547 39.878C26.4522 39.9801 26.346 40.0765 26.2363 40.1707C26.2108 40.1931 26.1852 40.2154 26.1596 40.2377C25.976 40.397 25.7884 40.5499 25.5956 40.6979C25.5816 40.7086 25.5677 40.7194 25.5533 40.7305C23.8406 42.0436 21.8598 42.8997 19.028 43.3795C18.9982 43.3829 18.9683 43.3863 18.9376 43.3899C18.0578 43.4886 17.1391 43.5015 16.2591 43.4024C16.2307 43.3993 16.2024 43.3962 16.1732 43.3931C15.2403 43.2907 14.3081 43.1208 13.4215 42.8065C13.3992 42.7987 13.3769 42.7909 13.3539 42.7829C12.7226 42.5609 12.1018 42.2715 11.528 41.9263C11.498 41.9083 11.498 41.9083 11.4674 41.8899C11.4306 41.8675 11.3941 41.8447 11.3579 41.8215C11.2685 41.7637 11.2685 41.7637 11.1665 41.7611C11.0895 41.8117 11.0143 41.8639 10.9401 41.9184C10.5412 42.2049 10.1223 42.4568 9.69146 42.6919C9.66996 42.7037 9.64846 42.7154 9.62631 42.7275C8.38243 43.4035 6.98757 43.8645 5.57241 43.9754C5.54232 43.9779 5.51223 43.9805 5.48123 43.9831C3.99749 44.0964 2.29493 43.8582 1.12754 42.8649C0.516098 42.3273 0.0745683 41.592 0.0116811 40.7667C-0.00594512 40.3694 -0.0167896 39.9628 0.080332 39.5748C0.084259 39.5589 0.088186 39.5429 0.092232 39.5264C0.210913 39.054 0.420577 38.6351 0.743958 38.2684C0.757173 38.253 0.770388 38.2376 0.784004 38.2217C1.25976 37.7048 2.02136 37.4068 2.71195 37.3746C2.73499 37.3734 2.75803 37.3722 2.78176 37.3709C3.4866 37.3518 4.1517 37.5654 4.67002 38.0452C4.85123 38.2177 5.00232 38.4019 5.13762 38.6122C5.1524 38.6348 5.16717 38.6574 5.1824 38.6806C5.44721 39.1082 5.55678 39.6036 5.45386 40.1004C5.31253 40.6959 4.94499 41.221 4.42333 41.5446C4.0083 41.7909 3.56801 41.9179 3.10097 42.0272C3.81997 42.5224 4.67294 42.5307 5.50399 42.382C6.17981 42.2533 6.79987 41.9818 7.38021 41.6147C7.40313 41.6003 7.42605 41.5858 7.44967 41.571C8.057 41.1761 8.90661 40.5983 9.21091 39.9186C9.18922 39.894 9.18922 39.894 9.1671 39.8688C8.04271 38.5723 7.25221 36.9079 7.05984 35.1972C7.05769 35.1796 7.05553 35.162 7.05331 35.1439C7.02949 34.9246 7.03138 34.7041 7.03124 34.4839C7.03122 34.4624 7.03121 34.441 7.03119 34.4189C7.03158 34.0778 7.04779 33.7463 7.10561 33.4095C7.10917 33.3869 7.11273 33.3643 7.1164 33.3411C7.21313 32.7357 7.42984 32.1694 7.70058 31.6218C7.71026 31.6021 7.71994 31.5825 7.7299 31.5622C7.91378 31.1919 8.13172 30.8467 8.38709 30.5217C8.40296 30.5013 8.41883 30.481 8.43519 30.4601C8.62719 30.2195 8.83397 29.9823 9.0736 29.7882C9.09766 29.7679 9.1217 29.7476 9.14574 29.7273C10.1369 28.8994 11.4337 28.5426 12.713 28.653C13.1473 28.6981 13.5449 28.8164 13.9249 29.0319C13.9477 29.0446 13.9704 29.0573 13.9939 29.0704C14.3408 29.2776 14.613 29.5892 14.8231 29.9301C14.8571 29.9902 14.8571 29.9902 14.886 30.0174C15.2041 29.4286 15.481 28.8191 15.7611 28.2115C15.8524 28.014 15.9466 27.8181 16.0417 27.6224C16.1873 27.3225 16.3288 27.0208 16.4681 26.718C16.5532 26.5332 16.6385 26.3487 16.7239 26.1641C16.7331 26.1441 16.7424 26.124 16.752 26.1034C16.8874 25.8104 17.024 25.518 17.1616 25.2259C17.2704 24.9948 17.3782 24.7631 17.4849 24.5309C17.571 24.3435 17.6579 24.1565 17.7451 23.9696C17.8488 23.7472 17.9523 23.5247 18.0554 23.302C18.1514 23.0948 18.2476 22.8878 18.3441 22.6808C18.497 22.353 18.6498 22.0251 18.8013 21.6967C18.8233 21.649 18.8453 21.6015 18.8673 21.5539C19.0982 21.0554 19.0982 21.0554 19.314 20.5503C19.3224 20.5297 19.3309 20.5091 19.3395 20.4879C19.3796 20.3965 19.3796 20.3965 19.3941 20.2996C19.3365 20.2639 19.2788 20.2306 19.2196 20.1979C19.0264 20.0874 18.8538 19.9629 18.6847 19.8183C18.6725 19.8078 18.6602 19.7974 18.6476 19.7867C18.4814 19.6434 18.3373 19.489 18.2042 19.3141C18.1813 19.2852 18.1813 19.2852 18.1581 19.2559C17.7611 18.7378 17.5783 18.1076 17.6321 17.4576C17.7074 16.913 18.0422 16.3694 18.4788 16.0366C18.4998 16.0204 18.5208 16.0042 18.5425 15.9876C19.5632 15.2414 20.9389 15.2671 22.1402 15.3719C22.1473 15.3593 22.1544 15.3467 22.1617 15.3337C22.2386 15.1971 22.3156 15.0605 22.3928 14.9241C22.4224 14.8718 22.4519 14.8195 22.4814 14.7671C22.6665 14.4391 22.8556 14.1142 23.0519 13.7927C23.1524 13.6281 23.2513 13.4627 23.3487 13.2963C23.4708 13.0882 23.5975 12.8835 23.7275 12.6802C23.7674 12.6176 23.807 12.5548 23.8466 12.492C24.2834 11.801 24.7484 11.1279 25.2295 10.4671C25.2423 10.4494 25.2552 10.4318 25.2684 10.4135C25.4521 10.161 25.6402 9.91235 25.8329 9.66668C25.8684 9.62147 25.9037 9.57617 25.939 9.53085C26.0665 9.36747 26.1962 9.20619 26.3279 9.04614C26.3612 9.00507 26.3946 8.96401 26.428 8.92294C26.5148 8.81659 26.6031 8.7116 26.692 8.60697C26.7587 8.52838 26.8239 8.44887 26.8885 8.36858C26.9718 8.26591 27.0595 8.16861 27.1495 8.07186C27.2201 7.99548 27.2867 7.91686 27.3519 7.8357C27.4201 7.75091 27.4902 7.6726 27.5686 7.59722C27.6092 7.55648 27.6468 7.51428 27.6844 7.4706C27.7636 7.37924 27.8454 7.29057 27.9283 7.20255C27.9409 7.18915 27.9535 7.17576 27.9664 7.16195C27.9959 7.13054 28.0255 7.09916 28.055 7.06781C28.0993 7.02063 28.1434 6.97328 28.1874 6.92582C28.4315 6.66335 28.683 6.40871 28.9365 6.15544C28.9943 6.09761 29.0521 6.03968 29.1098 5.98171C29.1551 5.93625 29.2005 5.89084 29.2459 5.84544C29.2774 5.8139 29.3089 5.78232 29.3403 5.75073C29.4413 5.64996 29.5435 5.55212 29.6519 5.4593C29.7204 5.40017 29.786 5.33785 29.8519 5.27589C29.9504 5.18389 30.0493 5.09291 30.1512 5.00479C30.2046 4.95828 30.2571 4.91083 30.3096 4.86334C30.432 4.75284 30.5555 4.64379 30.6809 4.53673C30.8081 4.42808 30.9346 4.31921 31.0576 4.20583C31.1376 4.13229 31.2191 4.06206 31.3036 3.99383C31.395 3.91998 31.4823 3.84327 31.5682 3.7632C31.6934 3.64662 31.824 3.53811 31.9572 3.43087C32.0032 3.39287 32.0489 3.3546 32.0945 3.31627C32.008 3.22955 31.8764 3.20345 31.7627 3.163C31.7413 3.15536 31.7413 3.15536 31.7194 3.14757C29.8639 2.49031 27.7465 2.50092 21.9091 4.03072C21.864 4.05228 21.819 4.07388 21.774 4.09553C21.7538 4.10524 21.7335 4.11495 21.7126 4.12494C21.0702 4.43433 20.4553 4.80473 19.8747 5.21859C19.8581 5.23034 19.8416 5.24209 19.8245 5.2542C19.4993 5.48536 19.186 5.72767 18.8834 5.98777C18.8427 6.02271 18.8017 6.05743 18.7607 6.09212C18.5761 6.2487 18.5761 6.2487 18.4029 6.41767C18.3637 6.45695 18.3228 6.49288 18.2806 6.52894C18.1778 6.61845 18.0814 6.71337 17.9853 6.81006C17.9608 6.83454 17.9608 6.83454 17.9357 6.85952C17.843 6.95257 17.7543 7.04786 17.6686 7.14744C17.6168 7.20727 17.563 7.26494 17.5091 7.32288C17.392 7.44994 17.2819 7.58151 17.1744 7.71681C17.165 7.72855 17.1556 7.74029 17.1459 7.75238C16.0827 9.07705 15.1821 10.6109 14.9776 12.3236C14.9754 12.342 14.9732 12.3603 14.9709 12.3792C14.9502 12.5747 14.9501 12.7704 14.9504 12.9668C14.9504 12.9846 14.9504 13.0024 14.9505 13.0208C14.9525 13.8117 15.1393 14.4166 15.6927 14.998C16.0776 15.3699 16.5419 15.6119 17.06 15.7386C17.0005 16.1709 16.5334 16.5994 16.2104 16.8502C15.2267 17.5955 13.9754 17.8974 12.7563 17.7363C12.1218 17.6429 11.5773 17.3945 11.1102 16.9533C11.0866 16.9319 11.0866 16.9319 11.0625 16.91C10.4515 16.3343 10.2339 15.3454 10.1491 14.5468C10.147 14.5289 10.1449 14.511 10.1427 14.4926C10.1201 14.2825 10.1207 14.0717 10.1205 13.8607C10.1205 13.8404 10.1205 13.8202 10.1205 13.7993C10.1226 12.0339 10.7446 10.2321 11.7968 8.81694C11.8128 8.79511 11.8288 8.77327 11.8454 8.75078C12.0608 8.46004 12.2819 8.17336 12.5175 7.89873C12.5712 7.83564 12.6232 7.77148 12.6749 7.70678C12.7682 7.59186 12.8674 7.48348 12.9689 7.3758C13.031 7.30976 13.0918 7.24303 13.1508 7.17415C13.2407 7.07098 13.336 6.97398 13.4328 6.87729C13.451 6.85911 13.4691 6.84093 13.4878 6.82219C13.5259 6.78401 13.564 6.74586 13.6022 6.70773C13.6602 6.64978 13.718 6.59172 13.7759 6.53364C13.8131 6.49634 13.8504 6.45905 13.8877 6.42177C13.9047 6.40462 13.9218 6.38748 13.9394 6.36981C14.0454 6.26414 14.1548 6.16423 14.2682 6.06661C14.305 6.03327 14.3417 5.99986 14.3783 5.96633C14.4984 5.85786 14.6231 5.75587 14.7487 5.65406C14.7874 5.62207 14.826 5.59008 14.8646 5.55808C15.8161 4.77993 16.86 4.12823 17.9525 3.56839C17.9681 3.56029 17.9838 3.55219 17.9999 3.54384C18.1054 3.48936 18.2118 3.43679 18.3186 3.38503C18.3413 3.374 18.364 3.36297 18.3874 3.3516C20.1279 2.50998 22.0008 1.94624 26.8785 1.06444C26.9013 1.06253 26.9241 1.06062 26.9476 1.05865C27.5261 1.01101 28.1046 0.996584 28.6849 0.997111C28.7135 0.997125 28.7422 0.997139 28.7717 0.997153C30.4222 0.999297 32.1038 1.12956 33.7136 1.50993C33.7293 1.51365 33.7451 1.51737 33.7613 1.52121C33.943 1.5645 34.12 1.6137 34.296 1.67649C34.3738 1.69169 34.4048 1.67909 34.4744 1.64315C34.492 1.63454 34.5096 1.62594 34.5278 1.61707C34.546 1.60753 34.5643 1.598 34.5831 1.58818C34.6042 1.57716 34.6253 1.56614 34.647 1.55479C34.6689 1.5433 34.6908 1.5318 34.7133 1.51996C34.7337 1.50935 34.754 1.49875 34.775 1.48782C34.8873 1.42904 34.9989 1.36933 35.1098 1.30806C35.439 1.12625 35.7727 0.954538 36.1092 0.786539C36.1497 0.766287 36.1497 0.766287 36.191 0.745627C36.6062 0.538012 37.0231 0.337268 37.4493 0.153389C37.4912 0.134923 37.5331 0.11645 37.575 0.0979703C37.6108 0.0824906 37.6466 0.0670568 37.6824 0.0516838C37.6976 0.0450436 37.7127 0.0384035 37.7282 0.0315621C37.8065 -0.000945239 37.85 -0.0119698 37.9299 0.0158721ZM34.0789 4.60603C34.0576 4.62961 34.0364 4.65331 34.0153 4.67712C34.0041 4.68964 33.9928 4.70217 33.9812 4.71508C33.9472 4.75294 33.9133 4.79094 33.8795 4.82896C33.8452 4.86717 33.8108 4.90537 33.7765 4.94355C33.7517 4.97121 33.7517 4.97121 33.7264 4.99942C33.6565 5.07702 33.5859 5.15397 33.5153 5.23094C33.4325 5.32131 33.3505 5.41238 33.2688 5.50374C33.2204 5.55737 33.1714 5.61046 33.1223 5.66346C33.0133 5.7814 32.91 5.90227 32.8094 6.02757C32.7571 6.09086 32.7024 6.15107 32.6466 6.21129C32.5513 6.31507 32.4638 6.42266 32.3779 6.53409C32.3077 6.62486 32.2356 6.71369 32.1621 6.80177C31.9909 7.00704 31.8317 7.21944 31.6748 7.4358C31.6289 7.49857 31.5821 7.56062 31.5351 7.62258C31.4253 7.76773 31.3186 7.91478 31.2145 8.06409C31.2007 8.08387 31.1869 8.10364 31.1727 8.12401C31.0293 8.33 30.8882 8.53754 30.748 8.7457C30.7057 8.80855 30.6632 8.8713 30.6207 8.93405C30.4688 9.1589 30.3219 9.38572 30.1824 9.61847C30.1237 9.71633 30.0623 9.81242 30.0007 9.90848C29.7045 10.3749 29.4296 10.8553 29.155 11.3347C29.1017 11.4275 29.0479 11.52 28.9935 11.6122C28.8177 11.9104 28.6516 12.2128 28.4895 12.5186C28.4253 12.6396 28.3599 12.7599 28.293 12.8794C28.0441 13.325 27.8051 13.7763 27.5636 14.2259C27.3826 14.5628 27.2014 14.8996 27.0193 15.2359C26.9699 15.3272 26.9206 15.4186 26.8714 15.51C26.7476 15.7402 26.6224 15.9695 26.4938 16.197C26.4815 16.2188 26.4692 16.2405 26.4566 16.2629C26.4003 16.3625 26.3435 16.4618 26.2855 16.5604C26.2757 16.5773 26.2658 16.5942 26.2557 16.6117C26.2377 16.6427 26.2194 16.6735 26.2009 16.7042C26.1561 16.7785 26.1561 16.7785 26.1497 16.8626C26.1819 16.943 26.2633 16.9797 26.3336 17.025C26.3672 17.0473 26.4007 17.0697 26.4342 17.0922C26.4595 17.1091 26.4595 17.1091 26.4852 17.1263C26.6047 17.2082 26.7177 17.2989 26.8313 17.3888C26.8507 17.4041 26.8701 17.4193 26.8901 17.435C27.1094 17.6087 27.3225 17.79 27.529 17.9786C27.5605 18.0071 27.5922 18.0355 27.6245 18.0631C27.7557 18.1757 27.8786 18.296 28.0007 18.4182C28.0355 18.4531 28.0706 18.4878 28.1056 18.5225C28.2256 18.642 28.336 18.7622 28.4332 18.9015C28.5307 18.8709 28.621 18.8337 28.713 18.7891C28.7401 18.7759 28.7673 18.7628 28.7952 18.7492C28.8242 18.735 28.8532 18.7209 28.8823 18.7067C28.9123 18.692 28.9424 18.6774 28.9724 18.6628C29.0464 18.6267 29.1204 18.5905 29.1943 18.5543C29.2498 18.5271 29.3054 18.5001 29.361 18.4731C29.972 18.174 30.5451 17.8263 31.0808 17.407C31.126 17.3717 31.1714 17.3368 31.217 17.3021C31.6207 16.9947 32.0085 16.6685 32.3791 16.322C32.4141 16.2894 32.4495 16.2572 32.4849 16.225C32.6944 16.0351 32.9008 15.8407 33.0841 15.6248C33.1324 15.5688 33.1827 15.5149 33.233 15.4607C33.3542 15.3275 33.4648 15.1875 33.5744 15.0446C33.6027 15.008 33.6315 14.9717 33.6604 14.9355C33.9433 14.577 34.1844 14.1894 34.4058 13.7905C34.4145 13.7751 34.4232 13.7598 34.4321 13.7441C35.1015 12.5612 35.4111 11.1778 35.6286 9.84832C35.633 9.82216 35.633 9.82216 35.6374 9.79547C35.6972 9.42971 35.7156 9.06815 35.7159 8.69805C35.7159 8.67796 35.7159 8.65787 35.7159 8.63717C35.7142 7.18637 35.2326 5.92837 34.36 4.78312C34.3497 4.76952 34.3394 4.75592 34.3288 4.74191C34.2563 4.64499 34.2563 4.64499 34.177 4.55392C34.1243 4.54854 34.1243 4.54854 34.0789 4.60603ZM83.4226 10.9943C83.2586 11.1964 83.1221 11.4225 82.98 11.6401C82.7305 12.0219 82.4781 12.4014 82.2226 12.7791C82.0444 13.0426 81.8671 13.3061 81.6984 13.5758C81.5462 13.8189 81.3856 14.0566 81.2257 14.2947C81.2995 14.3701 81.3779 14.4344 81.4617 14.4981C81.6456 14.6406 81.814 14.7973 81.9809 14.9594C81.9958 14.9738 82.0107 14.9882 82.0261 15.0031C82.2063 15.1783 82.3765 15.3557 82.5301 15.5553C82.5483 15.5782 82.5666 15.6012 82.5853 15.6249C83.5014 16.7864 83.8879 18.1768 83.9946 19.6349C84.0889 19.5181 84.1426 19.38 84.2035 19.2439C84.2101 19.2291 84.2166 19.2144 84.2234 19.1992C85.0968 17.2372 85.1184 14.9849 84.3379 12.7132C84.1102 12.123 83.8168 11.5084 83.4454 10.9943C83.4379 10.9943 83.4303 10.9943 83.4226 10.9943ZM60.4878 14.1106C60.3748 14.1795 60.2792 14.249 60.1888 14.3457C60.1487 14.3876 60.1067 14.4248 60.0626 14.4623C59.9019 14.6014 59.7549 14.7536 59.617 14.9151C59.5751 14.9624 59.5312 15.0067 59.4863 15.051C59.4132 15.1232 59.345 15.198 59.2782 15.2759C59.2275 15.3342 59.1753 15.391 59.123 15.4478C59.0473 15.5309 58.9746 15.6152 58.9042 15.7028C58.8304 15.7944 58.7538 15.8817 58.6739 15.9678C58.5577 16.0934 58.4481 16.2231 58.3421 16.3574C58.3306 16.372 58.319 16.3866 58.3072 16.4016C58.0994 16.6653 57.8987 16.9339 57.7013 17.2055C57.6826 17.2312 57.6826 17.2312 57.6635 17.2574C57.367 17.665 57.0795 18.0784 56.8006 18.4983C56.7602 18.5593 56.7196 18.6201 56.679 18.6809C56.4385 19.042 56.2048 19.4069 55.9851 19.781C55.9694 19.8076 55.9538 19.8342 55.9381 19.8608C55.8926 19.9382 55.8473 20.0158 55.802 20.0933C55.7834 20.1251 55.7834 20.1251 55.7644 20.1576C54.8561 21.7177 54.1368 23.375 53.6052 25.1585C53.6 25.1757 53.5949 25.1928 53.5896 25.2105C53.4072 25.824 53.3264 26.4144 53.322 27.0551C53.3217 27.0822 53.3217 27.0822 53.3214 27.1098C53.318 27.5524 53.3617 28.0713 53.6738 28.4131C53.8442 28.558 54.039 28.5848 54.2563 28.5806C55.1164 28.5056 55.858 27.7943 56.4328 27.213C56.4776 27.1678 56.5225 27.1227 56.5675 27.0776C56.7061 26.9384 56.8431 26.7992 56.9691 26.6483C56.9897 26.6243 57.0103 26.6004 57.0309 26.5765C57.1707 26.4121 57.3057 26.2447 57.4378 26.0741C57.4752 26.026 57.5129 25.9781 57.5507 25.9303C57.7247 25.7095 57.8894 25.4847 58.0446 25.2502C58.0541 25.2358 58.0637 25.2215 58.0735 25.2067C58.4936 24.5745 58.8707 23.914 59.2179 23.2393C59.2555 23.1663 59.2935 23.0938 59.3327 23.0217C59.4981 22.7175 59.6416 22.4029 59.7838 22.0873C59.796 22.0601 59.8083 22.0329 59.821 22.0048C60.27 21.0031 60.6305 19.9643 60.905 18.9015C60.9109 18.879 60.9109 18.879 60.9168 18.856C61.0081 18.5014 61.0807 18.1451 61.141 17.7842C61.1439 17.7673 61.1467 17.7505 61.1496 17.7332C61.3378 16.6012 61.4454 15.2538 60.7449 14.2718C60.645 14.1203 60.645 14.1203 60.4878 14.1106ZM44.6119 15.624C44.57 15.6711 44.5286 15.7185 44.4877 15.7665C44.4506 15.8087 44.4117 15.8482 44.3716 15.8876C44.3026 15.9556 44.2389 16.0268 44.1758 16.1002C44.1247 16.1587 44.0723 16.2158 44.0198 16.2729C43.9254 16.3764 43.8366 16.4833 43.7488 16.5924C43.695 16.6572 43.6391 16.7194 43.5821 16.7815C43.4701 16.9036 43.3656 17.0305 43.2618 17.1596C43.2392 17.1873 43.2166 17.2149 43.194 17.2425C43.0067 17.4716 42.8242 17.7042 42.6439 17.9389C42.6289 17.9583 42.614 17.9777 42.5985 17.9978C42.4062 18.2476 42.2182 18.4996 42.0386 18.7588C41.9997 18.8148 41.9606 18.8705 41.9215 18.9262C41.788 19.1163 41.6545 19.3063 41.5275 19.5008C41.5062 19.5333 41.4849 19.5658 41.4636 19.5982C40.924 20.4189 40.4237 21.2633 39.9599 22.1291C39.9204 22.2025 39.8807 22.2757 39.8409 22.3488C39.4999 22.978 39.1814 23.6187 38.8848 24.27C38.8413 24.3653 38.7968 24.4602 38.7523 24.5551C38.5009 25.0932 38.2647 25.6372 38.0331 26.1841C37.9801 26.3091 37.9268 26.4338 37.8726 26.5582C36.8088 28.9952 36.8088 28.9952 36.9995 31.5663C37.0796 31.7436 37.1932 31.8919 37.3758 31.9699C37.7871 32.074 38.2151 31.915 38.5706 31.7135C38.9179 31.503 39.2455 31.262 39.5437 30.9861C39.591 30.9428 39.6388 30.9005 39.6872 30.8585C39.9271 30.6487 40.1557 30.4259 40.3813 30.2008C40.397 30.1852 40.4127 30.1696 40.4288 30.1535C40.5183 30.0636 40.6035 29.9711 40.6863 29.875C40.7295 29.8251 40.7742 29.7766 40.8189 29.7281C40.9468 29.5861 41.0629 29.4354 41.1794 29.284C41.2061 29.2494 41.2061 29.2494 41.2333 29.2142C41.2803 29.1533 41.327 29.0923 41.3736 29.0312C41.4138 28.9788 41.454 28.9264 41.4943 28.8741C41.6616 28.6558 41.8253 28.436 41.9823 28.2102C42.0389 28.129 42.0969 28.049 42.1552 27.9692C42.318 27.7462 42.4711 27.5174 42.6233 27.2871C42.7009 27.1697 42.78 27.0535 42.8599 26.9376C43.1292 26.5457 43.3866 26.1454 43.6384 25.742C43.6766 25.681 43.7149 25.6201 43.7531 25.5592C44.0873 25.0265 44.4128 24.4889 44.7263 23.9438C44.7407 23.9189 44.755 23.8939 44.7698 23.8683C45.1378 23.2288 45.4937 22.5842 45.8255 21.925C45.8465 21.8832 45.8677 21.8414 45.8888 21.7996C46.0913 21.3974 46.2604 20.9855 46.4201 20.565C46.4444 20.5012 46.4688 20.4374 46.4933 20.3736C47.6981 17.645 47.6981 17.645 47.6939 14.8119C47.5772 14.5563 47.4124 14.3809 47.152 14.2718C46.2123 14.0232 45.1917 15.0104 44.6119 15.624ZM76.3858 16.1578C75.7204 16.9184 75.3173 17.9393 75.3632 18.9526C75.3781 19.1716 75.4282 19.3703 75.5277 19.5662C75.6061 19.4905 75.6737 19.4134 75.7379 19.3255C75.7558 19.3014 75.7736 19.2772 75.7919 19.2524C75.8058 19.2336 75.8058 19.2336 75.8199 19.2145C75.8662 19.1521 75.9136 19.0905 75.9611 19.029C75.9706 19.0165 75.9802 19.0041 75.9901 18.9913C76.0095 18.9661 76.0289 18.9409 76.0483 18.9157C76.0942 18.8561 76.1399 18.7964 76.1856 18.7368C76.2924 18.5976 76.4001 18.4591 76.5077 18.3206C76.5856 18.2203 76.6633 18.1199 76.7405 18.0191C76.8707 17.8493 77.0021 17.6803 77.1335 17.5114C77.1751 17.4579 77.2166 17.4043 77.2582 17.3508C77.4106 17.1543 77.5634 16.9582 77.717 16.7628C77.7692 16.6965 77.8212 16.6301 77.8733 16.5637C77.8942 16.537 77.9152 16.5102 77.9362 16.4835C77.9466 16.4703 77.957 16.457 77.9677 16.4434C78.3138 16.0022 78.3138 16.0022 78.3453 15.962C78.3662 15.9354 78.387 15.9088 78.4079 15.8822C78.4617 15.8136 78.5156 15.745 78.5695 15.6765C78.6785 15.5379 78.7868 15.3991 78.8916 15.2573C78.884 15.2422 78.8765 15.2271 78.8687 15.2115C77.9655 15.0632 76.9908 15.4961 76.3858 16.1578ZM80.379 15.6011C80.2608 15.7271 80.1642 15.8738 80.0649 16.0149C79.9447 16.1845 79.8176 16.3488 79.6914 16.5138C79.6138 16.6154 79.5371 16.7176 79.4608 16.8201C79.3253 17.0018 79.1862 17.1807 79.0468 17.3594C78.9797 17.4455 78.9128 17.5318 78.8458 17.618C78.8191 17.6524 78.7924 17.6868 78.7657 17.7211C78.7525 17.7382 78.7393 17.7552 78.7257 17.7727C78.2852 18.34 78.2852 18.34 78.2451 18.3916C78.2185 18.4259 78.1919 18.4601 78.1652 18.4944C78.0974 18.5818 78.0295 18.6692 77.9616 18.7566C77.8056 18.9572 77.6501 19.1581 77.4957 19.3599C77.4849 19.374 77.4741 19.3881 77.463 19.4027C77.3885 19.5001 77.3141 19.5976 77.2397 19.6951C77.196 19.7524 77.1521 19.8097 77.1083 19.8669C76.9254 20.1059 76.7463 20.347 76.5715 20.5919C76.5325 20.6462 76.4933 20.7003 76.454 20.7543C76.4407 20.7727 76.4274 20.791 76.4137 20.8099C76.3884 20.8447 76.3631 20.8794 76.3378 20.9141C76.2612 21.0198 76.1902 21.1277 76.1227 21.2393C76.7139 22.0276 77.5699 22.5619 78.5478 22.7087C78.7232 22.7329 78.8977 22.7461 79.0747 22.752C79.1012 22.7529 79.1278 22.7539 79.1552 22.7548C80.0701 22.771 80.9293 22.5225 81.7363 22.1059C81.758 22.0948 81.7797 22.0836 81.8021 22.0721C82.0198 21.9573 82.1724 21.8708 82.2534 21.6303C82.6495 20.229 82.4067 18.5224 81.7749 17.2284C81.7656 17.2092 81.7564 17.19 81.7468 17.1703C81.5605 16.7899 81.3448 16.4464 81.0512 16.1401C80.9969 16.0824 80.9969 16.0824 80.9513 16.0239C80.8133 15.8556 80.61 15.714 80.4248 15.6011C80.4097 15.6011 80.3946 15.6011 80.379 15.6011ZM19.7846 17.0603C19.7195 17.134 19.6786 17.2049 19.6458 17.2971C19.6364 17.3222 19.627 17.3472 19.6172 17.3731C19.5624 17.6433 19.6214 17.8757 19.7617 18.1108C19.9295 18.3589 20.1311 18.5506 20.3781 18.7181C20.3945 18.7293 20.4109 18.7405 20.4278 18.752C20.5006 18.7981 20.5006 18.7981 20.5841 18.8067C20.6477 18.7791 20.6636 18.7446 20.6976 18.6845C20.7101 18.6627 20.7226 18.6409 20.7355 18.6185C20.7488 18.5946 20.762 18.5708 20.7757 18.5462C20.7898 18.5216 20.8038 18.4969 20.8183 18.4715C20.8626 18.3935 20.9065 18.3152 20.9502 18.2368C20.9638 18.2126 20.9773 18.1884 20.9913 18.1635C21.0443 18.0687 21.0973 17.9739 21.1501 17.879C21.2446 17.7092 21.3413 17.5408 21.4394 17.3731C21.4527 17.3502 21.466 17.3274 21.4798 17.3039C21.5052 17.2604 21.5306 17.217 21.556 17.1735C21.605 17.0897 21.654 17.0059 21.7025 16.9218C21.7166 16.8975 21.7307 16.8733 21.7452 16.8482C21.7775 16.7965 21.7775 16.7965 21.774 16.7471C21.6108 16.7459 21.4477 16.7451 21.2845 16.7446C21.2291 16.7443 21.1737 16.744 21.1184 16.7436C20.3969 16.7222 20.3969 16.7222 19.7846 17.0603ZM25.3439 18.4202C25.2163 18.6621 25.1092 18.913 25.0007 19.1639C24.9689 19.2374 24.9369 19.3108 24.9049 19.3842C24.8846 19.4308 24.8644 19.4774 24.8442 19.5241C24.8346 19.546 24.825 19.568 24.8152 19.5906C24.8064 19.6109 24.7977 19.6311 24.7887 19.6519C24.7772 19.6786 24.7772 19.6786 24.7653 19.7058C24.7462 19.7489 24.7462 19.7489 24.7489 19.7954C25.6679 19.8201 25.6679 19.8201 26.5338 19.5432C26.3804 19.1098 25.8481 18.6878 25.4583 18.466C25.4203 18.4504 25.3822 18.435 25.3439 18.4202ZM27.4521 21.2883C27.4248 21.2939 27.3974 21.2995 27.3693 21.3053C27.3546 21.3083 27.34 21.3113 27.3249 21.3144C26.3295 21.5177 25.3156 21.6007 24.3012 21.6189C24.249 21.6199 24.1967 21.6209 24.1445 21.6219C24.018 21.6243 23.8914 21.6266 23.7649 21.6289C23.7517 21.6588 23.7517 21.6588 23.7382 21.6894C23.5371 22.1444 23.3341 22.5984 23.129 23.0517C23.1105 23.0925 23.092 23.1333 23.0736 23.1742C23.0644 23.1944 23.0553 23.2146 23.0459 23.2354C22.9581 23.4295 22.8707 23.6239 22.7835 23.8183C22.4509 24.5594 22.1169 25.2998 21.7772 26.0376C21.7354 26.1285 21.6936 26.2194 21.6519 26.3104C21.3342 27.0026 21.011 27.6921 20.6794 28.3777C20.6261 28.4879 20.5733 28.5982 20.5208 28.7087C20.2484 29.2824 19.969 29.8529 19.6859 30.4214C19.6756 30.4422 19.6652 30.4629 19.6546 30.4844C19.5772 30.639 19.4967 30.7919 19.416 30.9449C19.3184 31.1303 19.2233 31.3169 19.1283 31.5036C18.9846 31.7859 18.84 32.0675 18.6868 32.3448C18.6078 32.4879 18.5322 32.6325 18.4573 32.7778C18.3303 33.0236 18.1954 33.2644 18.0583 33.5046C18.0218 33.5688 17.9857 33.6332 17.9499 33.6977C17.7535 34.0502 17.5456 34.395 17.3346 34.7388C17.321 34.761 17.3074 34.7832 17.2934 34.806C16.5846 35.9626 15.8335 37.0964 15.0373 38.1946C15.0001 38.246 14.9631 38.2976 14.9262 38.3493C14.7678 38.5705 14.6055 38.7883 14.4393 39.0037C14.4084 39.0439 14.3778 39.0842 14.3472 39.1246C14.1892 39.3328 14.0233 39.5342 13.8563 39.7353C13.9087 39.7878 13.9322 39.7922 14.0033 39.8074C14.0245 39.812 14.0457 39.8166 14.0676 39.8212C14.0908 39.826 14.1141 39.8307 14.138 39.8356C14.1624 39.8405 14.1867 39.8455 14.2118 39.8506C16.2678 40.2578 18.4765 40.0165 22.2925 38.2446C22.4844 38.1157 22.6689 37.9772 22.8496 37.833C22.8637 37.8217 22.8779 37.8104 22.8924 37.7988C23.4104 37.3845 23.9345 36.9441 24.3645 36.4367C24.4072 36.3872 24.4514 36.3392 24.4958 36.2913C24.6242 36.1526 24.7453 36.0096 24.8633 35.8619C24.8842 35.8362 24.905 35.8106 24.9259 35.785C25.1979 35.4496 25.4536 35.1022 25.6871 34.7388C25.6978 34.7223 25.7085 34.7058 25.7195 34.6888C25.8925 34.4199 26.0566 34.1466 26.2135 33.8679C26.2241 33.8492 26.2347 33.8304 26.2456 33.8112C27.1893 32.1383 27.7697 30.2841 28.3578 26.7749C28.3621 26.7378 28.3665 26.7007 28.3709 26.6636C28.4295 26.1719 28.44 25.6805 28.4416 25.1857C28.4417 25.1396 28.442 25.0934 28.4423 25.0473C28.4483 23.7619 28.2392 22.4286 27.678 21.2622C27.5959 21.2622 27.5318 21.2714 27.4521 21.2883ZM9.80588 32.6761C9.55057 32.9443 9.4826 33.3339 9.41686 33.6845C9.41379 33.7008 9.41071 33.7171 9.40755 33.7338C9.18525 34.9858 9.64399 36.2678 10.3469 37.2918C10.5162 37.5331 10.6988 37.76 10.895 37.9798C10.9451 38.0367 10.9934 38.0952 11.0416 38.1538C11.1145 38.1226 11.1524 38.0913 11.1983 38.027C11.2101 38.0105 11.2219 37.9941 11.2341 37.9771C11.2528 37.9505 11.2528 37.9505 11.2719 37.9232C11.285 37.9046 11.2982 37.886 11.3117 37.8669C11.6948 37.3222 12.0253 36.7429 12.346 36.1598C12.3579 36.1382 12.3698 36.1165 12.3822 36.0942C12.5471 35.795 12.7063 35.493 12.8634 35.1896C12.9011 35.1172 12.9391 35.0449 12.9772 34.9727C13.0145 34.9021 13.0515 34.8314 13.0885 34.7607C13.1156 34.709 13.1428 34.6573 13.1699 34.6057C13.2125 34.5247 13.2549 34.4436 13.2972 34.3624C13.3142 34.3298 13.3313 34.2972 13.3485 34.2647C13.3726 34.2189 13.3965 34.173 13.4203 34.1271C13.4343 34.1003 13.4483 34.0736 13.4628 34.046C13.4718 34.0251 13.4808 34.0041 13.4901 33.9825C13.4826 33.9674 13.475 33.9522 13.4673 33.9367C13.4478 33.9426 13.4478 33.9426 13.4279 33.9486C13.3672 33.9668 13.3064 33.9847 13.2456 34.0026C13.2251 34.0087 13.2047 34.0149 13.1837 34.0213C12.9079 34.1019 12.6398 34.1285 12.3531 34.1272C12.323 34.1271 12.2929 34.127 12.2619 34.1268C11.5154 34.1179 10.8185 33.8539 10.2736 33.3365C10.0868 33.1445 9.94997 32.9136 9.82876 32.6761C9.82121 32.6761 9.81366 32.6761 9.80588 32.6761Z" fill="white"/>
</svg>
