<svg width="143" height="40" viewBox="0 0 143 40" fill="none" xmlns="http://www.w3.org/2000/svg">
<path d="M130.941 0.0141926C130.822 0.0568256 130.779 0.16147 130.713 0.560668C130.682 0.762206 130.624 0.955992 130.585 1.01413C130.508 1.11877 130.415 1.42108 130.369 1.69625C130.353 1.78152 130.311 1.90942 130.272 1.97918C130.229 2.04507 130.171 2.20397 130.14 2.328C130.102 2.4714 130.044 2.57992 129.978 2.63805L129.873 2.73107L128.627 2.70394C127.242 2.67293 127.099 2.68069 127.099 2.81246C127.099 2.96749 127.238 3.13802 127.455 3.24266C127.567 3.29692 127.765 3.42095 127.892 3.51396C128.02 3.61086 128.213 3.75038 128.318 3.82402C128.426 3.89766 128.616 4.03719 128.744 4.13408C128.871 4.23097 129.057 4.36662 129.158 4.43638C129.398 4.59916 129.432 4.74257 129.293 4.98286C129.239 5.072 129.173 5.26191 129.15 5.39756C129.127 5.53321 129.08 5.69599 129.049 5.75413C128.976 5.89753 128.852 6.30448 128.802 6.56028C128.782 6.6688 128.728 6.8122 128.682 6.87809C128.488 7.14939 128.469 7.49045 128.647 7.49045C128.724 7.49045 129.227 7.15714 129.227 7.10288C129.227 7.08737 129.301 7.02924 129.394 6.97498C129.483 6.92072 129.599 6.83933 129.653 6.7967C129.831 6.65329 130.059 6.48276 130.214 6.38199C130.299 6.32386 130.446 6.21146 130.535 6.13007C130.628 6.04868 130.783 5.94404 130.876 5.90141L131.046 5.81614L131.251 5.94404C131.359 6.0138 131.506 6.11457 131.568 6.17271C131.634 6.22697 131.754 6.31998 131.839 6.37812C131.924 6.43625 132.083 6.55253 132.188 6.63779C132.296 6.72306 132.47 6.85483 132.574 6.92847C132.683 7.00211 132.865 7.14163 132.981 7.23853C133.097 7.33154 133.24 7.43619 133.298 7.47107C133.399 7.52533 133.41 7.52533 133.48 7.45557C133.546 7.38968 133.55 7.35867 133.519 7.21527C133.495 7.12226 133.43 6.9711 133.372 6.88196C133.306 6.78507 133.252 6.63779 133.236 6.52152C133.209 6.32773 133.19 6.26572 133.054 5.95179C133.016 5.86265 132.954 5.66111 132.919 5.50608C132.884 5.35105 132.814 5.14564 132.76 5.05262C132.706 4.96348 132.663 4.82396 132.66 4.75032C132.656 4.59916 132.644 4.61079 133.081 4.29686C133.228 4.19221 133.476 4.00618 133.631 3.88991C134.103 3.52947 134.502 3.26204 134.656 3.20003C134.892 3.10314 135.012 2.7582 134.834 2.70394C134.788 2.68844 134.173 2.68844 133.461 2.70394L132.172 2.73495L132.056 2.61867C131.99 2.54891 131.932 2.44039 131.913 2.35125C131.897 2.26986 131.843 2.11871 131.793 2.02181C131.743 1.92492 131.681 1.72338 131.65 1.57611C131.623 1.42883 131.561 1.23117 131.514 1.13427C131.414 0.932737 131.317 0.614929 131.317 0.475403C131.313 0.16147 131.135 -0.0594459 130.941 0.0141926Z" fill="white"/>
<path d="M16.9725 0.153744C16.9532 0.192501 16.9261 0.308773 16.9106 0.41729C16.8951 0.521935 16.8526 0.68084 16.8139 0.766106C16.721 0.975395 16.6281 1.25445 16.5817 1.47149C16.5585 1.56838 16.4966 1.73891 16.4462 1.85131C16.3921 1.95983 16.3224 2.18074 16.2876 2.33965C16.2528 2.49855 16.1831 2.70396 16.1367 2.80086C16.0902 2.89775 16.0283 3.07216 16.0012 3.18843C15.9741 3.3047 15.9045 3.53337 15.8426 3.69227C15.7845 3.85118 15.7071 4.09535 15.6723 4.23487C15.6414 4.3744 15.5678 4.59144 15.5175 4.71934C15.4672 4.84723 15.386 5.09141 15.3395 5.26194C15.297 5.43247 15.2273 5.62625 15.1847 5.68826C15.146 5.75415 15.0957 5.92856 15.0725 6.07584C15.0493 6.22699 14.9719 6.47891 14.8984 6.63782C14.8249 6.79672 14.7475 7.01376 14.7242 7.12228C14.701 7.22692 14.6314 7.45172 14.5695 7.61837C14.5037 7.78503 14.4534 7.95556 14.4534 7.99819C14.4534 8.07958 14.2638 8.64931 14.2173 8.71132C14.2018 8.73458 14.1477 8.89348 14.1012 9.06014C14.0548 9.23067 13.9851 9.43608 13.9464 9.5136C13.9039 9.59111 13.8381 9.80815 13.7955 9.99419C13.753 10.1802 13.6756 10.4166 13.6214 10.5213C13.5711 10.6221 13.5092 10.812 13.486 10.9437C13.4627 11.0755 13.4008 11.2693 13.3544 11.3817C13.2306 11.6491 13.188 11.7809 13.157 11.9669C13.1261 12.1646 13.0526 12.2809 12.9094 12.3545C12.8088 12.4049 12.0077 12.4126 6.43157 12.4126C1.42036 12.4165 0.0543656 12.4281 0.0234083 12.463C-0.0694636 12.5793 0.0969318 12.7343 0.832167 13.2149C0.948257 13.2924 1.06048 13.3777 1.0837 13.4009C1.10304 13.4281 1.19978 13.4978 1.29653 13.556C1.39327 13.6141 1.53258 13.7187 1.6061 13.7846C1.67962 13.8505 1.88858 14.0056 2.07046 14.1296C2.25233 14.2497 2.49612 14.4203 2.61221 14.5055C2.7283 14.5908 2.89083 14.7032 2.96822 14.7574C3.04561 14.8117 3.13075 14.8892 3.15396 14.9357C3.18105 14.9784 3.29327 15.0559 3.40549 15.1063C3.51771 15.1566 3.62219 15.2148 3.6338 15.238C3.66863 15.2923 4.09429 15.614 4.22586 15.6799C4.2839 15.7147 4.38838 15.7923 4.4503 15.862C4.51608 15.9279 4.62056 16.0054 4.68248 16.0326C4.74826 16.0597 4.82953 16.1101 4.86048 16.1449C4.89531 16.176 5.01527 16.2651 5.13136 16.3387C5.24745 16.4124 5.36741 16.5015 5.39837 16.5403C5.42545 16.5752 5.49898 16.6294 5.55702 16.6604C5.61507 16.6875 5.74277 16.7806 5.83951 16.8581C5.93625 16.9395 6.10264 17.0674 6.21486 17.141C6.32322 17.2146 6.55539 17.3891 6.72566 17.5247C6.89979 17.6642 7.10489 17.8076 7.17841 17.8503C7.25193 17.8929 7.36802 17.9782 7.42994 18.0363C7.49572 18.0944 7.61181 18.1719 7.68921 18.2146C7.7666 18.2533 7.96395 18.389 8.12648 18.5169C8.289 18.6448 8.49022 18.7921 8.57149 18.8463C8.93911 19.0866 9.18289 19.2571 9.31059 19.3657C9.50795 19.5362 9.922 19.8308 10.069 19.9083C10.2045 19.978 10.367 20.1757 10.4018 20.3113C10.4251 20.4121 10.2819 20.9818 10.1619 21.2609C10.1155 21.3655 10.0536 21.5632 10.0226 21.6988C9.99165 21.8384 9.922 22.0477 9.86782 22.1639C9.81365 22.2802 9.73239 22.5283 9.68982 22.7143C9.64338 22.9003 9.57373 23.1212 9.53503 23.2065C9.50021 23.2918 9.42668 23.5088 9.37251 23.691C9.13646 24.4932 8.98554 24.9661 8.90041 25.1637C8.8501 25.28 8.78819 25.4622 8.76497 25.5668C8.74175 25.6676 8.69919 25.8032 8.66823 25.8614C8.63727 25.9195 8.56762 26.1404 8.51344 26.3497C8.4554 26.5551 8.37027 26.8342 8.31996 26.9621C8.26965 27.0938 8.18452 27.3458 8.13422 27.5279C7.97556 28.0589 7.75886 28.6945 7.66212 28.9038C7.61568 29.0084 7.54603 29.2294 7.5112 29.396C7.4725 29.5588 7.41446 29.7603 7.37576 29.8417C7.33707 29.9231 7.2558 30.1634 7.19776 30.3727C7.14358 30.582 7.07006 30.7952 7.0391 30.8417C7.00814 30.892 6.96558 31.0393 6.94236 31.175C6.91914 31.3106 6.83788 31.5897 6.75662 31.7912C6.67535 31.9927 6.58635 32.2447 6.55926 32.3493C6.51283 32.5198 6.51283 32.5431 6.57474 32.5896C6.65988 32.6516 6.7334 32.6245 6.9114 32.4656C6.9888 32.3997 7.18615 32.2524 7.34481 32.1439C7.50733 32.0354 7.64664 31.9307 7.66212 31.9075C7.67373 31.8842 7.75886 31.83 7.84786 31.7873C7.93686 31.7408 8.05682 31.6517 8.111 31.5897C8.16904 31.5315 8.27739 31.454 8.35092 31.423C8.42444 31.392 8.51731 31.3261 8.55988 31.2757C8.59857 31.2292 8.69145 31.144 8.76497 31.0936C8.83849 31.0432 8.92363 30.9773 8.95458 30.9502C8.98167 30.9192 9.07841 30.861 9.16741 30.8145C9.25255 30.7719 9.34929 30.7021 9.37638 30.6595C9.40346 30.6207 9.49634 30.5549 9.5776 30.5122C9.65886 30.4696 9.74399 30.4115 9.75947 30.3843C9.77495 30.3533 9.85234 30.2874 9.92974 30.237C10.0033 30.1867 10.189 30.0626 10.3361 29.9619C10.487 29.8611 10.634 29.7526 10.6611 29.7177C10.6921 29.6789 10.8855 29.5394 11.0906 29.4038C11.2957 29.2681 11.4853 29.1286 11.5163 29.0937C11.5434 29.0627 11.6169 29.0084 11.6827 28.9736C11.7485 28.9387 11.8646 28.8495 11.942 28.772C12.1122 28.5976 12.4102 28.3728 12.5224 28.3341C12.5727 28.3147 12.7662 28.1829 12.9597 28.0356C13.1532 27.8922 13.4589 27.6674 13.6407 27.5357C13.8226 27.4039 13.989 27.2838 14.0084 27.2644C14.0316 27.2489 14.1515 27.1597 14.2792 27.0706C14.4069 26.9814 14.6159 26.8303 14.7436 26.7334C14.8713 26.6404 15.0648 26.5009 15.1731 26.4272C15.2853 26.3536 15.4053 26.2683 15.444 26.2373C15.5872 26.121 16.0245 25.7994 16.1367 25.7257C16.1986 25.687 16.2953 25.6133 16.3495 25.5591C16.4037 25.5087 16.5082 25.4389 16.5817 25.4079C16.6552 25.3769 16.7713 25.2994 16.8332 25.2413C17.0151 25.0668 17.1776 25.0707 17.3827 25.2529C17.464 25.3265 17.6884 25.4854 17.878 25.6094C18.0715 25.7296 18.2921 25.8924 18.3695 25.9621C18.4469 26.0319 18.5862 26.1288 18.679 26.1753C18.7719 26.2218 18.9074 26.3187 18.9847 26.3923C19.0621 26.466 19.186 26.5629 19.2634 26.6094C19.4491 26.7257 20.1921 27.2838 20.3894 27.4543C20.4746 27.5318 20.6061 27.6248 20.6758 27.6597C20.7454 27.6985 20.8693 27.7837 20.9467 27.8535C21.0241 27.9271 21.2291 28.0705 21.3994 28.179C21.7593 28.4116 21.976 28.5705 22.2391 28.7953C22.3436 28.8883 22.4403 28.9619 22.4597 28.9619C22.4752 28.9619 22.5371 29.0046 22.5913 29.055C22.6454 29.1053 22.8776 29.2797 23.1098 29.4425C23.3381 29.6053 23.6051 29.7991 23.7019 29.8727C23.7986 29.9464 23.9302 30.0433 23.9921 30.082C24.2436 30.2409 24.6035 30.5006 24.7389 30.613C24.8163 30.6789 24.9402 30.7641 25.0059 30.799C25.0756 30.8339 25.2188 30.9386 25.3232 31.0316C25.4316 31.1285 25.6251 31.268 25.7566 31.3455C25.8882 31.423 26.0314 31.5277 26.0701 31.5819C26.1127 31.6362 26.2287 31.7176 26.3255 31.768C26.4261 31.8183 26.5422 31.8997 26.5848 31.9462C26.6273 31.9927 26.7279 32.0664 26.8092 32.109C26.8905 32.1478 27.0104 32.2292 27.0723 32.2873C27.2503 32.4462 27.5057 32.6051 27.5831 32.6051C27.734 32.6051 27.7108 32.4733 27.4283 31.6362C27.3742 31.4773 27.3006 31.2409 27.2658 31.113C27.2271 30.9851 27.1613 30.8107 27.1149 30.7215C27.0723 30.6362 26.9911 30.3998 26.9408 30.1983C26.844 29.834 26.6002 29.0821 26.5074 28.865C26.4106 28.6364 26.2945 28.2643 26.2713 28.1015C26.2558 28.0085 26.1862 27.7837 26.1165 27.5977C26.043 27.4155 25.9695 27.1869 25.9501 27.09C25.9269 26.997 25.8573 26.7838 25.7915 26.621C25.7257 26.4544 25.656 26.2257 25.6367 26.1094C25.6173 25.9893 25.567 25.8381 25.5245 25.7722C25.4858 25.7025 25.42 25.5242 25.3852 25.3769C25.3465 25.2257 25.2691 24.9738 25.211 24.8149C25.1491 24.656 25.0214 24.2607 24.9208 23.9429C24.8202 23.6212 24.6615 23.1329 24.5687 22.8538C24.4758 22.5786 24.3984 22.3267 24.3984 22.3035C24.3984 22.2763 24.3404 22.1019 24.2668 21.9159C24.1933 21.7299 24.1043 21.4469 24.0695 21.288C24.0308 21.1291 23.9611 20.9276 23.9147 20.8423C23.787 20.6175 23.7638 20.4237 23.8373 20.2067C23.8837 20.0555 23.9263 20.0052 24.0617 19.9315C24.1507 19.885 24.3133 19.7765 24.4216 19.6951C24.53 19.6098 24.6344 19.5439 24.6538 19.5439C24.677 19.5439 24.7505 19.4819 24.8241 19.4083C24.8976 19.3308 25.0485 19.2184 25.1607 19.1564C25.2691 19.0944 25.3736 19.0169 25.3929 18.9897C25.4084 18.9587 25.5206 18.8773 25.6367 18.8076C25.7528 18.7339 25.9385 18.6022 26.0469 18.513C26.1552 18.4239 26.3216 18.2998 26.4184 18.2378C26.519 18.1797 26.7395 18.0208 26.9137 17.8851C27.0878 17.7534 27.2852 17.6138 27.3509 17.579C27.4206 17.5441 27.4825 17.5053 27.4941 17.4898C27.5057 17.4743 27.5831 17.4123 27.6721 17.3503C27.9004 17.1914 28.6976 16.5829 28.8059 16.486C28.8562 16.4395 28.9143 16.4046 28.9298 16.4046C28.9452 16.4046 29.1116 16.2883 29.3013 16.1449C29.487 16.0054 29.7385 15.8271 29.8546 15.7535C29.9707 15.6799 30.1719 15.5287 30.2996 15.4163C30.4273 15.3039 30.5937 15.1838 30.6672 15.145C30.7408 15.1101 30.8491 15.0326 30.9072 14.9784C30.9652 14.9241 31.0736 14.8427 31.1471 14.8001C31.2206 14.7536 31.418 14.614 31.5882 14.4861C31.7585 14.3582 32.0565 14.1412 32.2499 14.0017C32.4434 13.8622 32.7298 13.6529 32.8846 13.5327C33.0393 13.4164 33.2406 13.273 33.3373 13.2149C33.5501 13.0831 33.8442 12.8777 34.0648 12.6956C34.1809 12.5987 34.2273 12.5328 34.2196 12.4746C34.208 12.3855 34.1229 12.3778 33.5114 12.4088C33.3837 12.4165 30.6053 12.4204 27.3355 12.4204L21.3955 12.4165L21.2524 12.308C21.1014 12.1917 21.0666 12.1142 20.9544 11.6956C20.9157 11.5445 20.8499 11.3623 20.8035 11.2848C20.7609 11.2112 20.6951 11.0135 20.6603 10.843C20.6255 10.6763 20.5558 10.4244 20.5016 10.2849C20.4475 10.1453 20.3856 9.96706 20.3662 9.89342C20.3469 9.81978 20.2695 9.59886 20.1998 9.40895C20.1263 9.21517 20.0257 8.90123 19.9715 8.70745C19.9212 8.51366 19.8515 8.31212 19.8206 8.26174C19.7896 8.21136 19.7432 8.06408 19.7161 7.93618C19.6929 7.80828 19.631 7.60287 19.5768 7.47885C19.5226 7.3587 19.4375 7.09127 19.3872 6.88974C19.3369 6.6882 19.2595 6.45953 19.2208 6.37814C19.1782 6.29675 19.1241 6.15335 19.097 6.05646C19.0737 5.95957 18.9847 5.66501 18.9035 5.39759C18.8222 5.13016 18.7293 4.82398 18.6984 4.71934C18.6674 4.61082 18.6055 4.43641 18.563 4.33176C18.4739 4.1031 18.1412 3.06441 18.1102 2.9055C18.0986 2.84349 18.0483 2.71172 17.998 2.61095C17.9515 2.51018 17.8896 2.34352 17.8625 2.235C17.7581 1.8203 17.731 1.72728 17.6574 1.56063C17.522 1.25832 17.5181 1.23507 17.4911 1.03741C17.4756 0.932762 17.4214 0.766106 17.3711 0.669212C17.3208 0.572319 17.2782 0.448296 17.2782 0.390163C17.2782 0.219631 17.2008 0.0878563 17.1002 0.0878563C17.0499 0.0878563 16.9919 0.118862 16.9725 0.153744Z" fill="white"/>
<path d="M37.1067 12.4321L37.0138 12.5251L37.0216 22.6795C37.0332 32.3649 37.0371 32.8377 37.1028 32.9036C37.1648 32.9656 37.2731 32.9734 38.2251 32.985C38.8016 32.9927 39.3124 32.9889 39.3589 32.9772C39.4053 32.9656 39.4595 32.9075 39.4866 32.8493C39.5175 32.7718 39.533 30.9347 39.5407 26.404L39.5523 20.0672L39.6568 19.7029C39.7149 19.5052 39.7613 19.2998 39.7613 19.2494C39.7613 19.044 39.8929 18.5053 39.978 18.3542C40.0283 18.265 40.0902 18.1061 40.1134 17.9937C40.1405 17.8697 40.1947 17.7534 40.2644 17.6837C40.3224 17.6216 40.3998 17.486 40.4346 17.3813C40.4695 17.2767 40.543 17.1488 40.5972 17.0984C40.6475 17.0519 40.7171 16.9628 40.7442 16.9008C40.8603 16.676 41.6071 15.8698 41.8045 15.7691C41.8625 15.738 41.967 15.6605 42.0328 15.5946C42.1025 15.5326 42.1992 15.4667 42.2456 15.4512C42.2959 15.4357 42.4043 15.3776 42.4894 15.3156C42.5745 15.2575 42.7487 15.1799 42.8764 15.1412C43.0041 15.1063 43.2363 15.0249 43.391 14.9629C43.7896 14.804 44.5326 14.7459 45.3491 14.8079C45.6741 14.835 46.034 14.8815 46.1501 14.9164C46.2662 14.9513 46.5332 15.0249 46.746 15.083C47.1446 15.1916 47.578 15.3892 47.9843 15.6489C48.2784 15.8349 49.242 16.8155 49.242 16.9279C49.242 16.955 49.3 17.0519 49.3735 17.1372C49.4471 17.2263 49.5283 17.362 49.5554 17.4434C49.5786 17.5209 49.6367 17.6371 49.6831 17.703C49.7257 17.765 49.8031 17.9666 49.8534 18.1487C50.19 19.4006 50.1707 18.8541 50.1707 26.2722V32.7563L50.2636 32.8648L50.3564 32.9734L51.3393 32.985C51.8772 32.9927 52.3725 32.985 52.4422 32.9734C52.7092 32.9268 52.686 33.5005 52.686 26.4118C52.686 22.8616 52.7015 19.8424 52.7208 19.6564C52.7401 19.4742 52.7943 19.2029 52.8369 19.0557C52.8795 18.9084 52.9336 18.641 52.9568 18.4588C52.9917 18.1914 53.0265 18.0906 53.1271 17.9356C53.2006 17.8271 53.2703 17.6837 53.2858 17.6139C53.3012 17.5441 53.3516 17.4395 53.398 17.3813C53.4483 17.3232 53.5257 17.2031 53.5721 17.11C53.6186 17.017 53.6882 16.9124 53.7308 16.8698C53.7733 16.8271 53.8507 16.7225 53.9088 16.6333C54.0326 16.4318 54.6363 15.8388 54.7949 15.7574C54.8607 15.7264 54.9459 15.6683 54.9884 15.6295C55.031 15.5946 55.12 15.5365 55.1819 15.5055C55.7314 15.2226 55.9442 15.1334 56.1106 15.1063C56.219 15.0908 56.4008 15.0404 56.5169 14.99C56.8304 14.8583 57.2638 14.804 58.0261 14.8001C58.8155 14.7962 59.5275 14.8699 59.7442 14.9784C59.8255 15.021 60.0074 15.0792 60.1467 15.1063C60.286 15.1373 60.4446 15.1954 60.4988 15.242C60.5569 15.2846 60.6962 15.3699 60.8123 15.428C60.9283 15.4861 61.1102 15.5946 61.2186 15.6683C61.6326 15.959 62.2053 16.6101 62.364 16.9666C62.4027 17.0519 62.4801 17.1837 62.5343 17.2573C62.5884 17.331 62.6503 17.4589 62.6736 17.5441C62.6968 17.6255 62.7742 17.8232 62.8477 17.9782C62.9251 18.1449 62.987 18.3503 63.0025 18.4859C63.0141 18.61 63.0683 18.8619 63.1186 19.0479C63.1728 19.2339 63.2347 19.513 63.2579 19.668C63.285 19.8579 63.3043 22.0632 63.3159 26.3885L63.3314 32.83L63.4088 32.8997C63.4862 32.9695 63.5713 32.9734 64.589 32.9734C65.5913 32.9734 65.6919 32.9656 65.7538 32.9036C65.8196 32.8377 65.8235 32.5354 65.8235 26.6443C65.8235 20.1719 65.8119 19.637 65.6571 19.0595C65.6145 18.9084 65.5526 18.5789 65.5178 18.3231C65.4752 18.0441 65.4055 17.7495 65.3398 17.5868C65.2817 17.4356 65.2121 17.2186 65.1888 17.1023C65.1618 16.986 65.0998 16.8271 65.0495 16.7496C64.9992 16.6682 64.9296 16.5171 64.8909 16.4085C64.8561 16.2961 64.7787 16.1334 64.7167 16.0442C64.6548 15.9551 64.589 15.8194 64.5658 15.7419C64.5465 15.6644 64.4846 15.5559 64.4265 15.4939C64.3723 15.4357 64.2911 15.3311 64.2446 15.2613C63.8499 14.6761 63.0992 13.9358 62.5768 13.6219C62.5149 13.587 62.3872 13.4979 62.2943 13.4281C62.2015 13.3584 62.0389 13.2653 61.9306 13.2266C61.8261 13.1839 61.6752 13.1064 61.5978 13.056C61.5165 13.0018 61.3385 12.932 61.2031 12.8971C61.0638 12.8623 60.8897 12.8003 60.8123 12.7615C60.7349 12.7227 60.4795 12.653 60.2473 12.6065C60.0151 12.5638 59.7404 12.5018 59.632 12.4708C59.1057 12.3235 57.4263 12.2964 56.9155 12.4282C56.7917 12.4592 56.4395 12.5328 56.13 12.591C55.8204 12.6452 55.476 12.7344 55.3638 12.7847C55.2477 12.8351 55.0387 12.9126 54.8955 12.9553C54.7524 12.9979 54.6053 13.0638 54.5666 13.1026C54.5318 13.1452 54.4351 13.1956 54.3538 13.2188C54.2725 13.246 54.1371 13.3118 54.0558 13.37C53.9746 13.4242 53.8314 13.5018 53.7463 13.5405C53.6573 13.5831 53.5605 13.6413 53.5334 13.68C53.5025 13.7149 53.4057 13.7886 53.3206 13.8467C53.1349 13.963 52.9259 14.1257 52.7518 14.2924C52.6821 14.3544 52.5815 14.4436 52.5234 14.4862C52.3725 14.5947 51.7186 15.3505 51.7186 15.4125C51.7186 15.4977 51.5831 15.5908 51.4593 15.5908C51.3316 15.5908 51.2271 15.4939 51.1188 15.2807C51.0336 15.1179 50.2171 14.1955 50.1552 14.1955C50.1281 14.1955 50.0585 14.1412 49.9927 14.0754C49.9308 14.0095 49.8108 13.9087 49.7257 13.8544C49.6405 13.8002 49.5554 13.7343 49.5399 13.7033C49.5245 13.6762 49.4355 13.6142 49.3465 13.5715C49.2575 13.525 49.1259 13.4397 49.0485 13.3816C48.975 13.3196 48.8705 13.2615 48.8163 13.246C48.7621 13.2305 48.6151 13.1607 48.4874 13.0909C48.3597 13.0212 48.1507 12.9359 48.0192 12.901C47.8876 12.8661 47.6902 12.7964 47.5742 12.746C47.4581 12.6956 47.1988 12.6258 46.9976 12.591C46.7963 12.5561 46.4636 12.4902 46.2623 12.4437C45.5542 12.2887 43.8941 12.3042 43.4955 12.4747C43.4143 12.5057 43.1976 12.56 43.0157 12.591C42.8338 12.6258 42.5784 12.6956 42.4507 12.746C42.323 12.8003 42.1566 12.8623 42.0831 12.8855C41.9128 12.932 41.0073 13.3739 40.9764 13.4242C40.9648 13.4436 40.8835 13.4979 40.7984 13.5405C40.6204 13.6297 40.2489 13.9165 39.9703 14.1761C39.7652 14.366 39.6259 14.4242 39.5562 14.3544C39.5253 14.3234 39.5098 14.0327 39.5098 13.3777C39.5098 12.5018 39.5059 12.4437 39.4363 12.3894C39.3743 12.3468 39.1538 12.3352 38.2831 12.3352H37.2035L37.1067 12.4321Z" fill="white"/>
<path d="M77.4703 12.3739C77.2807 12.3894 77.0795 12.4204 77.0253 12.4436C76.9712 12.463 76.7467 12.5095 76.5223 12.5444C75.8335 12.6568 75.5007 12.7304 75.3614 12.8002C75.2879 12.8351 75.106 12.8971 74.9589 12.932C74.8119 12.9669 74.6416 13.0327 74.5836 13.0754C74.4714 13.1529 74.3669 13.1955 74.0999 13.2614C74.0147 13.2847 73.8909 13.3467 73.829 13.4009C73.7671 13.4552 73.6355 13.525 73.5388 13.556C73.4382 13.5908 73.3259 13.6529 73.2872 13.6955C73.2447 13.742 73.1363 13.8195 73.0396 13.8699C72.9428 13.9203 72.7455 14.0482 72.5946 14.1528C72.4475 14.2613 72.2231 14.4202 72.1031 14.5055C71.8516 14.6838 70.9384 15.5907 70.6791 15.9202C70.5823 16.0403 70.4392 16.2147 70.3618 16.3038C70.2805 16.3969 70.2147 16.4899 70.2147 16.5131C70.2147 16.5364 70.1644 16.6139 70.1025 16.6837C70.0445 16.7534 69.9516 16.8891 69.9052 16.986C69.8548 17.079 69.7697 17.2185 69.7117 17.296C69.6536 17.3697 69.584 17.4937 69.5569 17.5673C69.5298 17.641 69.4563 17.7727 69.3944 17.8541C69.3363 17.9394 69.286 18.0363 69.286 18.0712C69.286 18.1061 69.2202 18.2727 69.139 18.4394C69.0538 18.6099 68.9648 18.8347 68.9416 18.9432C68.9145 19.0479 68.841 19.2494 68.783 19.3889C68.721 19.5284 68.6514 19.7726 68.6282 19.9315C68.6011 20.0904 68.5546 20.2726 68.5237 20.3346C68.3728 20.6291 68.3225 21.0555 68.2915 22.3926C68.2644 23.6212 68.3496 24.5824 68.5237 25.0087C68.5546 25.0823 68.6011 25.2761 68.6243 25.435C68.6746 25.749 68.7288 25.9234 68.8062 26.0164C68.8294 26.0474 68.8874 26.2102 68.93 26.3768C68.9726 26.5435 69.05 26.7412 69.1041 26.8225C69.1583 26.9001 69.2318 27.0667 69.2667 27.1869C69.3015 27.307 69.3595 27.4465 69.4021 27.5008C69.4408 27.5512 69.5182 27.6946 69.5762 27.8225C69.6304 27.9465 69.7001 28.0705 69.7271 28.0899C69.7542 28.1132 69.8239 28.2217 69.8819 28.3341C69.9787 28.524 70.1683 28.803 70.3231 28.9813C70.3618 29.0239 70.4353 29.1208 70.4856 29.1945C70.6559 29.4464 71.4956 30.3494 71.6736 30.4735C71.72 30.5083 71.8322 30.6014 71.9251 30.6866C72.165 30.9075 72.3546 31.0509 72.7494 31.3067C72.9428 31.4308 73.1325 31.5625 73.175 31.6013C73.2176 31.6401 73.3414 31.7021 73.4498 31.7447C73.5581 31.7873 73.709 31.8648 73.7864 31.9191C73.8599 31.9695 74.007 32.0354 74.1115 32.0625C74.2121 32.0896 74.3669 32.1633 74.4559 32.2214C74.5449 32.2796 74.7345 32.3571 74.8777 32.3919C75.0208 32.423 75.2221 32.4888 75.3188 32.5315C75.4155 32.5741 75.7135 32.6516 75.9805 32.702C76.2475 32.7524 76.6306 32.8338 76.8318 32.8764C77.1337 32.9462 77.3813 32.9617 78.2443 32.9811C79.382 33.0043 80.0166 32.9656 80.5003 32.8377C80.6589 32.795 80.9259 32.7446 81.0885 32.7253C81.2549 32.702 81.4987 32.6439 81.6341 32.5896C81.7695 32.5353 82.0172 32.454 82.1836 32.4113C82.35 32.3648 82.5822 32.2757 82.6983 32.2137C82.8182 32.1517 82.942 32.1013 82.973 32.1013C83.0427 32.1013 83.2477 31.9966 83.3367 31.9114C83.3754 31.8765 83.4877 31.8183 83.5921 31.7835C83.6966 31.7486 83.8166 31.6827 83.8591 31.6401C83.9056 31.5974 84.0294 31.5199 84.1378 31.4657C84.2461 31.4114 84.4473 31.2835 84.5866 31.1827C84.7298 31.0781 84.9001 30.9579 84.9697 30.9075C85.2019 30.7409 85.7359 30.2215 85.8714 30.0355C86.0145 29.8378 86.1616 29.7913 86.2274 29.9192C86.2467 29.958 86.2583 30.6052 86.2467 31.3881C86.2351 32.7291 86.2351 32.7911 86.3086 32.8803L86.3822 32.9733H87.5121H88.642L88.7156 32.8842C88.7852 32.795 88.7852 32.5276 88.7775 22.6368L88.7697 12.4824L88.6769 12.4088C88.5917 12.339 88.5143 12.3351 87.5702 12.3351C86.9549 12.3351 86.5099 12.3506 86.4363 12.3777C86.3667 12.401 86.3009 12.463 86.2738 12.525C86.2467 12.5987 86.2351 13.0444 86.239 13.9862C86.2429 14.7303 86.2429 15.3582 86.239 15.3853C86.2312 15.4551 86.0919 15.4861 86.0029 15.4357C85.9604 15.4124 85.8985 15.3427 85.8675 15.2807C85.8365 15.2186 85.7592 15.1411 85.7011 15.1101C85.6431 15.0791 85.5695 15.0094 85.5386 14.9551C85.5115 14.9008 85.4148 14.8117 85.3296 14.7613C85.2406 14.7071 85.0587 14.5675 84.9194 14.4435C84.7801 14.3234 84.6137 14.1993 84.5479 14.1722C84.4822 14.1451 84.3738 14.0753 84.308 14.0249C84.2461 13.9707 84.1184 13.8893 84.0255 13.8466C83.9327 13.804 83.7972 13.7226 83.7237 13.6722C83.6502 13.618 83.5264 13.556 83.449 13.5366C83.3677 13.5133 83.24 13.4436 83.1587 13.3816C83.0775 13.3157 82.9653 13.2537 82.9111 13.2382C82.8569 13.2265 82.6557 13.149 82.4622 13.0715C82.2726 12.9901 82.052 12.9126 81.9785 12.8971C81.905 12.8855 81.6921 12.8235 81.5103 12.7614C81.3284 12.6994 80.9646 12.6142 80.6976 12.5677C80.4345 12.525 80.1327 12.463 80.0243 12.432C79.796 12.3584 78.0469 12.3196 77.4703 12.3739ZM79.8889 14.8698C80.0708 14.9008 80.2797 14.9512 80.3532 14.9822C80.4306 15.0171 80.628 15.0675 80.7982 15.1024C81.1813 15.176 81.3439 15.2225 81.4522 15.2923C81.4948 15.3233 81.638 15.3814 81.7657 15.4241C81.8934 15.4667 82.083 15.5558 82.1875 15.6256C82.2958 15.6915 82.4003 15.7457 82.4235 15.7457C82.5086 15.7457 83.2748 16.269 83.6811 16.6062C83.9791 16.8503 84.5866 17.4549 84.6679 17.5867C84.7105 17.6565 84.7995 17.7882 84.8691 17.8813C84.9388 17.9743 85.0471 18.1216 85.109 18.2068C85.171 18.2921 85.2484 18.4239 85.2832 18.4975C85.318 18.5711 85.3877 18.6913 85.4418 18.7649C85.496 18.8347 85.5541 18.9548 85.5734 19.0324C85.5966 19.106 85.6585 19.23 85.7127 19.3114C85.7669 19.3889 85.8482 19.5827 85.8907 19.7416C85.9333 19.9005 86.0029 20.0827 86.0416 20.1486C86.0842 20.2106 86.1461 20.4392 86.1809 20.6524C86.2158 20.8617 86.2699 21.1679 86.3009 21.3268C86.3319 21.4857 86.3744 21.7143 86.3938 21.8306C86.4441 22.1446 86.3976 23.3344 86.3125 23.8072C86.2738 24.032 86.2235 24.3537 86.1964 24.5242C86.1732 24.6948 86.1035 24.9389 86.0416 25.0668C85.9836 25.1947 85.9101 25.404 85.8869 25.5319C85.8598 25.6598 85.7978 25.8226 85.7475 25.8962C85.6972 25.9738 85.6276 26.121 85.5928 26.2296C85.5579 26.3342 85.4805 26.4892 85.4148 26.5706C85.3528 26.6481 85.2754 26.776 85.2445 26.8497C85.1787 27.0086 84.8575 27.5124 84.7995 27.5473C84.7801 27.5628 84.7182 27.6403 84.664 27.7256C84.5402 27.9232 83.7315 28.7371 83.4374 28.9658C83.3135 29.0588 83.1239 29.1906 83.0156 29.2604C82.9072 29.3301 82.7795 29.4193 82.7369 29.4619C82.6905 29.5084 82.5938 29.5627 82.5202 29.5859C82.4467 29.6131 82.3152 29.6789 82.23 29.7371C82.1449 29.7913 81.9978 29.8611 81.9011 29.8882C81.8044 29.9154 81.6302 29.989 81.5141 30.0471C81.398 30.1053 81.2046 30.175 81.0846 30.1983C80.9646 30.2254 80.7441 30.2874 80.6009 30.3417C80.2101 30.4812 79.6838 30.5316 78.5925 30.5277C77.4897 30.5239 77.0485 30.4812 76.6384 30.3417C76.4797 30.2913 76.2475 30.2254 76.1198 30.2022C75.996 30.175 75.7716 30.0975 75.6206 30.0239C75.4697 29.9502 75.3149 29.8921 75.2801 29.8921C75.1988 29.8921 74.4791 29.52 74.3746 29.4231C74.332 29.3844 74.2353 29.3263 74.1618 29.2952C74.0883 29.2642 73.9838 29.1945 73.9296 29.1363C73.8754 29.0782 73.7477 28.9736 73.6394 28.9038C73.4033 28.7488 72.6023 27.9543 72.463 27.7411C72.4088 27.6558 72.316 27.5279 72.254 27.4543C72.1921 27.3845 72.1225 27.2799 72.0993 27.2217C72.076 27.1675 71.9948 27.0318 71.9135 26.9272C71.8361 26.8187 71.751 26.6636 71.7239 26.5822C71.6968 26.497 71.6233 26.3497 71.5652 26.2528C71.5033 26.1559 71.453 26.0396 71.453 25.9931C71.453 25.9505 71.4066 25.8459 71.3524 25.7645C71.2982 25.6792 71.2054 25.4273 71.1396 25.1715C71.0738 24.9234 71.008 24.6948 70.9887 24.656C70.8842 24.4622 70.7565 23.3383 70.7565 22.6019C70.7565 21.8616 70.8571 21.0283 70.9887 20.6291C71.0506 20.447 71.1125 20.2222 71.128 20.1253C71.1396 20.0284 71.2208 19.8114 71.3021 19.6408C71.3795 19.4703 71.4685 19.2533 71.4956 19.1564C71.5227 19.0595 71.5923 18.9122 71.6465 18.8269C71.7045 18.7417 71.7703 18.6177 71.7974 18.5479C71.8245 18.482 71.8826 18.3929 71.9212 18.358C71.9638 18.3192 72.0451 18.2029 72.0993 18.1022C72.1534 18.0014 72.2115 17.9161 72.2269 17.9161C72.2424 17.9161 72.316 17.8231 72.3895 17.7107C72.5597 17.4627 73.206 16.7999 73.5388 16.5403C73.6742 16.4317 73.8367 16.3 73.9064 16.2457C73.9722 16.1915 74.0883 16.1139 74.1618 16.0752C74.2353 16.0403 74.3359 15.9744 74.3824 15.9318C74.483 15.8388 75.1447 15.4977 75.4194 15.3969C75.5278 15.3582 75.7174 15.2807 75.8451 15.2264C75.9728 15.1721 76.1237 15.1256 76.1817 15.1256C76.2398 15.1256 76.4604 15.0714 76.6655 15.0055C77.1879 14.835 77.8109 14.7768 78.786 14.7962C79.2117 14.8078 79.707 14.8388 79.8889 14.8698Z" fill="white"/>
<path d="M100.29 12.3933C100.073 12.4243 99.8025 12.4708 99.6903 12.5057C99.582 12.5367 99.3575 12.5832 99.1989 12.6065C98.8274 12.6607 98.5952 12.7189 98.4249 12.8003C98.3514 12.839 98.1928 12.8894 98.0767 12.9127C97.9606 12.9359 97.7361 13.0173 97.5852 13.0909C97.4304 13.1646 97.2834 13.2266 97.2563 13.2266C97.1828 13.2266 96.2695 13.6917 96.2154 13.7537C96.1883 13.7886 96.076 13.8583 95.9677 13.9087C95.7278 14.025 95.5382 14.1645 94.7488 14.7924C94.6327 14.8854 94.3386 15.1683 94.0948 15.4241C93.4834 16.0636 93.3944 16.1605 93.3944 16.1993C93.3944 16.2186 93.3363 16.2962 93.2705 16.3698C93.2009 16.4473 93.0964 16.583 93.0384 16.6799C92.9765 16.7729 92.8604 16.955 92.7752 17.0829C92.6901 17.2108 92.5624 17.4395 92.4889 17.5868C92.4192 17.7379 92.3341 17.8813 92.2993 17.9085C92.2644 17.9395 92.218 18.0247 92.1909 18.1022C92.1677 18.1798 92.0787 18.3968 91.9936 18.5828C91.9123 18.7689 91.831 18.9859 91.8194 19.0673C91.8078 19.1487 91.7536 19.3076 91.7033 19.4239C91.653 19.5401 91.5795 19.8076 91.5331 20.0246C91.4905 20.2416 91.4208 20.5284 91.3822 20.668C91.2777 21.0362 91.2274 21.6989 91.2235 22.788C91.2235 23.8112 91.2506 24.0941 91.4054 24.7375C91.4595 24.9623 91.5176 25.2762 91.5408 25.4351C91.5602 25.6173 91.6066 25.7645 91.653 25.8304C91.6956 25.8886 91.7652 26.0862 91.8078 26.2684C91.8504 26.4505 91.9239 26.6637 91.9742 26.7451C92.0245 26.8226 92.098 26.9738 92.1367 27.0823C92.1793 27.1869 92.249 27.3381 92.2954 27.4117C92.3457 27.4854 92.4115 27.6249 92.4502 27.7218C92.485 27.8187 92.5508 27.9349 92.5895 27.9776C92.6321 28.0241 92.7133 28.1636 92.7714 28.2876C92.8294 28.4155 92.9107 28.5395 92.9455 28.5706C92.9842 28.6016 93.0461 28.6907 93.0848 28.7643C93.1235 28.8419 93.1893 28.9349 93.2318 28.9736C93.2744 29.0124 93.3557 29.1209 93.4176 29.2178C93.4756 29.3108 93.5376 29.3883 93.5569 29.3883C93.5724 29.3883 93.6266 29.4465 93.673 29.5201C93.9748 29.9619 94.9693 30.8533 95.631 31.2681C95.7665 31.3533 95.9638 31.4812 96.076 31.5549C96.1883 31.6246 96.3856 31.7254 96.5211 31.7796C96.6526 31.8339 96.761 31.8882 96.761 31.9075C96.761 31.923 96.8268 31.9618 96.908 31.9967C96.9854 32.0316 97.1983 32.1207 97.3763 32.1982C97.5581 32.2757 97.8135 32.3649 97.9528 32.3959C98.0883 32.4269 98.274 32.485 98.363 32.5277C98.5991 32.6323 98.75 32.6711 99.1989 32.7369C99.4233 32.7718 99.6748 32.8222 99.76 32.8532C100.178 33.0005 102.616 33.0354 103.107 32.9036C103.223 32.8726 103.603 32.799 103.943 32.7447C104.384 32.6749 104.616 32.6168 104.736 32.5509C104.829 32.5005 105.019 32.4385 105.158 32.4153C105.305 32.392 105.479 32.3261 105.588 32.2602C105.688 32.1982 105.862 32.1207 105.979 32.0858C106.091 32.0509 106.257 31.9773 106.346 31.9192C106.435 31.8572 106.66 31.7254 106.849 31.6246C107.035 31.52 107.279 31.3766 107.383 31.3068C107.894 30.958 108.122 30.7952 108.235 30.6867C108.304 30.6208 108.451 30.489 108.567 30.3883C108.834 30.1557 108.981 30.0123 109.105 29.8689C109.159 29.8069 109.31 29.6325 109.442 29.4813C109.717 29.1674 109.922 28.8922 110.022 28.6907C110.061 28.6171 110.135 28.5124 110.185 28.4582C110.235 28.4039 110.305 28.2915 110.347 28.2024C110.386 28.1171 110.452 28.0163 110.494 27.9776C110.533 27.9388 110.591 27.8535 110.614 27.7877C110.715 27.5164 110.781 27.373 110.808 27.373C110.843 27.373 110.951 27.1133 110.982 26.9544C110.997 26.8807 111.059 26.7412 111.121 26.6404C111.187 26.5397 111.253 26.3575 111.276 26.218C111.303 26.0591 111.353 25.9312 111.415 25.8576C111.551 25.6948 111.574 25.4816 111.466 25.346L111.384 25.2413L110.39 25.2452C109.233 25.2491 108.962 25.2723 108.885 25.377C108.827 25.4584 108.772 25.6366 108.738 25.8692C108.726 25.9506 108.672 26.0668 108.618 26.1289C108.567 26.1909 108.494 26.3381 108.463 26.4505C108.428 26.5629 108.37 26.6908 108.327 26.7373C108.289 26.78 108.204 26.9234 108.142 27.0513C108.076 27.183 108.006 27.2993 107.987 27.3148C107.964 27.3264 107.844 27.4737 107.724 27.6365C107.453 27.9931 107.19 28.2644 106.725 28.6636C106.168 29.1364 106.114 29.179 105.932 29.2721C105.835 29.3186 105.719 29.3961 105.677 29.4426C105.63 29.4891 105.526 29.5472 105.444 29.5782C105.359 29.6054 105.232 29.6713 105.158 29.7216C105.085 29.772 104.926 29.8457 104.81 29.8883C104.694 29.9271 104.493 30.0084 104.365 30.0627C104.237 30.1208 104.001 30.1945 103.842 30.2255C103.684 30.2604 103.432 30.3263 103.281 30.3766C102.747 30.5549 101.316 30.6053 100.321 30.4774C100.011 30.4386 99.7097 30.3766 99.6439 30.3456C99.582 30.3107 99.3575 30.2487 99.1486 30.2061C98.9435 30.1673 98.7152 30.0976 98.6455 30.055C98.5797 30.0123 98.4095 29.9348 98.2701 29.8805C98.1308 29.8302 97.949 29.741 97.8677 29.6829C97.7864 29.6286 97.6974 29.5821 97.6742 29.5821C97.6084 29.5821 97.0319 29.2333 96.8422 29.0783C96.3121 28.6519 95.6852 28.059 95.5691 27.8845C95.5343 27.8264 95.4646 27.7489 95.4143 27.7101C95.3679 27.6714 95.2982 27.5822 95.2634 27.5164C95.2325 27.4505 95.1628 27.3652 95.1125 27.3264C95.0661 27.2877 95.0119 27.2141 94.9964 27.1675C94.9848 27.121 94.9074 26.9931 94.8261 26.8885C94.7449 26.78 94.6598 26.6249 94.6327 26.5397C94.6056 26.4544 94.5398 26.3304 94.4895 26.2645C94.4392 26.1986 94.3734 26.0513 94.3386 25.9351C94.3037 25.8188 94.2264 25.6095 94.1644 25.4661C94.1025 25.3227 94.0174 25.0437 93.9748 24.846C93.9323 24.6483 93.8626 24.3538 93.8162 24.1949C93.7426 23.9313 93.731 23.7995 93.7272 22.7996C93.7233 21.664 93.7465 21.4121 93.8974 20.8618C93.9361 20.7222 93.9864 20.4858 94.0135 20.3385C94.0406 20.1874 94.0948 19.9975 94.1373 19.9122C94.1799 19.8269 94.265 19.6099 94.3308 19.4316C94.3927 19.2495 94.4856 19.0479 94.5321 18.9859C94.5824 18.92 94.652 18.7766 94.6907 18.672C94.7294 18.5635 94.7991 18.4356 94.8455 18.3813C94.8958 18.327 94.9616 18.2263 95.0003 18.1526C95.1396 17.8736 95.9987 16.9279 96.2966 16.7264C96.3508 16.6915 96.4669 16.5985 96.5559 16.5248C96.8771 16.2496 97.5233 15.8039 97.6665 15.7613C97.7129 15.7458 97.8174 15.6877 97.9025 15.6295C97.9877 15.5714 98.1424 15.4939 98.2431 15.459C98.3437 15.4241 98.5023 15.3582 98.5913 15.3117C98.8119 15.1955 98.9822 15.1373 99.2376 15.0869C99.3537 15.0637 99.5471 15.0094 99.6632 14.9707C100.085 14.8234 101.443 14.7459 102.376 14.8118C102.867 14.8466 103.038 14.8776 103.305 14.9668C103.483 15.0288 103.719 15.0947 103.823 15.1102C103.931 15.1257 104.148 15.1916 104.307 15.2613C104.465 15.3311 104.686 15.4164 104.798 15.4513C104.907 15.49 105.042 15.552 105.092 15.5908C105.143 15.6295 105.278 15.7071 105.394 15.7574C106.141 16.0946 107.356 17.1721 107.805 17.8968C107.844 17.9588 107.929 18.0712 107.991 18.141C108.053 18.2146 108.146 18.3658 108.192 18.4782C108.242 18.5906 108.3 18.6914 108.324 18.7069C108.347 18.7185 108.401 18.8309 108.447 18.951C108.49 19.0712 108.563 19.2184 108.602 19.2766C108.645 19.3347 108.718 19.5324 108.765 19.7223C108.892 20.2184 108.819 20.1913 110.274 20.2106L111.466 20.2223L111.528 20.1331C111.605 20.0207 111.578 19.8502 111.446 19.6525C111.396 19.575 111.323 19.3929 111.288 19.2456C111.253 19.1022 111.175 18.8929 111.117 18.7882C111.059 18.6797 110.982 18.4976 110.951 18.3774C110.916 18.2573 110.85 18.1139 110.808 18.0596C110.761 18.0053 110.699 17.8697 110.669 17.7612C110.638 17.6527 110.56 17.5093 110.502 17.4395C110.44 17.3736 110.355 17.238 110.313 17.1411C110.266 17.0442 110.165 16.8814 110.088 16.7729C110.015 16.6682 109.887 16.4938 109.813 16.3853C109.736 16.2807 109.624 16.1373 109.562 16.0752C109.5 16.0094 109.33 15.8156 109.183 15.6412C108.9 15.3156 108.134 14.6141 107.917 14.4862C107.848 14.4436 107.79 14.4009 107.79 14.3854C107.79 14.3699 107.697 14.3002 107.588 14.2304C107.476 14.1568 107.36 14.0792 107.329 14.0482C107.302 14.0211 107.19 13.9552 107.081 13.8971C106.973 13.8428 106.822 13.7576 106.745 13.7072C106.671 13.6607 106.532 13.5909 106.435 13.5522C106.338 13.5134 106.191 13.4359 106.106 13.3777C106.021 13.3196 105.866 13.2498 105.758 13.2227C105.653 13.1995 105.479 13.1297 105.371 13.0716C105.266 13.0096 105.081 12.9437 104.965 12.9243C104.849 12.901 104.667 12.8468 104.566 12.8041C104.326 12.6995 104.02 12.6259 103.618 12.5677C103.44 12.5445 103.227 12.498 103.142 12.4708C102.774 12.3391 101.064 12.2964 100.29 12.3933Z" fill="white"/>
<path d="M111.357 12.4127C111.28 12.5367 111.303 12.6995 111.427 12.8661C111.489 12.9514 111.562 13.1142 111.585 13.2304C111.609 13.3467 111.678 13.525 111.736 13.6335C111.798 13.7381 111.868 13.9126 111.895 14.0211C111.918 14.1257 111.999 14.3195 112.065 14.4474C112.135 14.5753 112.204 14.7575 112.22 14.8544C112.235 14.9512 112.305 15.1334 112.375 15.2613C112.444 15.3892 112.522 15.5791 112.545 15.6838C112.572 15.7884 112.622 15.9202 112.661 15.9744C112.746 16.1023 112.808 16.2651 112.843 16.4511C112.855 16.5287 112.924 16.6837 112.994 16.7922C113.067 16.9046 113.137 17.0674 113.149 17.1565C113.164 17.2418 113.234 17.4317 113.303 17.5712C113.377 17.7108 113.447 17.8968 113.462 17.9782C113.474 18.0634 113.547 18.234 113.617 18.3658C113.69 18.4937 113.748 18.6293 113.748 18.6642C113.748 18.7727 113.868 19.0866 113.961 19.23C114.012 19.3076 114.073 19.4548 114.097 19.5633C114.12 19.668 114.19 19.8424 114.248 19.9509C114.31 20.0556 114.379 20.2377 114.402 20.354C114.426 20.4703 114.499 20.6485 114.561 20.7493C114.623 20.8501 114.685 21.0012 114.697 21.0826C114.727 21.2764 114.789 21.4392 114.878 21.5632C114.913 21.6214 114.971 21.7609 115.002 21.8733C115.076 22.1485 115.099 22.2105 115.203 22.3732C115.254 22.4469 115.32 22.6135 115.35 22.7414C115.385 22.8693 115.463 23.0786 115.528 23.2026C115.59 23.3267 115.645 23.4662 115.645 23.5088C115.645 23.5515 115.703 23.7026 115.776 23.8421C115.846 23.9855 115.935 24.2142 115.97 24.3499C116.004 24.4894 116.074 24.6638 116.124 24.7374C116.175 24.8111 116.244 24.9738 116.279 25.0979C116.318 25.2219 116.395 25.4234 116.457 25.5436C116.519 25.6676 116.589 25.8536 116.612 25.9583C116.635 26.0668 116.697 26.2141 116.747 26.2916C116.798 26.373 116.867 26.5474 116.902 26.6792C116.937 26.8148 117.014 27.0125 117.076 27.121C117.134 27.2256 117.204 27.4 117.227 27.5086C117.254 27.6132 117.324 27.7876 117.386 27.8961C117.444 28.0008 117.514 28.1868 117.541 28.3031C117.568 28.4194 117.641 28.6015 117.699 28.71C117.757 28.8147 117.827 28.9891 117.854 29.0976C117.877 29.2023 117.947 29.3767 118.005 29.4852C118.067 29.5898 118.144 29.7914 118.179 29.9309C118.214 30.0704 118.284 30.2448 118.334 30.3185C118.384 30.3921 118.442 30.5316 118.469 30.6285C118.493 30.7254 118.582 30.9541 118.671 31.144C118.918 31.6788 118.911 32.1284 118.644 32.5858C118.593 32.671 118.524 32.826 118.489 32.9346C118.45 33.0392 118.373 33.2175 118.311 33.326C118.249 33.4345 118.199 33.5508 118.199 33.5779C118.199 33.6089 118.129 33.7678 118.048 33.9306C117.966 34.0934 117.885 34.2756 117.87 34.3415C117.858 34.4035 117.796 34.5352 117.738 34.6283C117.676 34.7252 117.599 34.9073 117.56 35.0313C117.525 35.1554 117.456 35.322 117.405 35.3995C117.355 35.477 117.289 35.6321 117.254 35.7406C117.223 35.853 117.142 36.0351 117.08 36.1437C117.018 36.2561 116.941 36.4382 116.906 36.5467C116.875 36.6591 116.805 36.8103 116.751 36.8762C116.701 36.9459 116.631 37.1048 116.6 37.2289C116.566 37.3568 116.496 37.5234 116.446 37.6009C116.391 37.6823 116.318 37.8412 116.287 37.9575C116.252 38.0699 116.182 38.2288 116.132 38.3063C116.078 38.3838 116.012 38.5389 115.977 38.6474C115.946 38.7598 115.869 38.9419 115.807 39.0504C115.745 39.1628 115.679 39.3024 115.668 39.3644C115.652 39.4303 115.606 39.5272 115.563 39.5853C115.525 39.6434 115.49 39.7326 115.49 39.7868C115.49 39.9806 115.525 39.9884 116.813 39.9922L118.009 40L118.125 39.9031C118.187 39.8488 118.237 39.7868 118.237 39.7597C118.237 39.7365 118.28 39.6512 118.334 39.5737C118.384 39.4962 118.45 39.3489 118.477 39.2442C118.504 39.1435 118.582 38.9691 118.647 38.8644C118.717 38.7559 118.794 38.5931 118.818 38.4962C118.845 38.3993 118.903 38.2521 118.953 38.1668C119 38.0815 119.081 37.8955 119.127 37.7521C119.17 37.6087 119.243 37.4498 119.282 37.3994C119.321 37.349 119.39 37.1979 119.437 37.0622C119.483 36.9266 119.561 36.7444 119.611 36.6553C119.661 36.57 119.723 36.4111 119.75 36.3064C119.774 36.1979 119.835 36.0506 119.886 35.977C119.936 35.9034 120.01 35.7367 120.056 35.6127C120.099 35.4887 120.164 35.3336 120.207 35.2639C120.246 35.198 120.319 35.0352 120.366 34.8996C120.412 34.7639 120.501 34.5585 120.563 34.4383C120.625 34.3221 120.675 34.1981 120.675 34.167C120.675 34.1322 120.737 33.9849 120.814 33.8337C120.888 33.6865 120.985 33.4578 121.023 33.3338C121.062 33.2059 121.12 33.0741 121.151 33.0392C121.182 33.0005 121.252 32.8493 121.306 32.702C121.36 32.5509 121.437 32.3687 121.48 32.2951C121.526 32.2214 121.596 32.047 121.639 31.9153C121.681 31.7796 121.739 31.6401 121.77 31.6052C121.805 31.5664 121.875 31.3998 121.933 31.2293C121.987 31.0626 122.064 30.8882 122.103 30.8417C122.146 30.799 122.211 30.644 122.258 30.5006C122.3 30.3533 122.374 30.1867 122.413 30.1286C122.455 30.0704 122.521 29.9076 122.56 29.772C122.594 29.6363 122.672 29.4619 122.73 29.3883C122.788 29.3146 122.858 29.1519 122.885 29.024C122.912 28.8999 122.978 28.7449 123.028 28.6829C123.078 28.6209 123.156 28.462 123.198 28.3302C123.237 28.1984 123.314 28.0202 123.361 27.9349C123.411 27.8496 123.481 27.683 123.515 27.5667C123.55 27.4504 123.62 27.2954 123.674 27.2179C123.724 27.1442 123.794 26.9776 123.825 26.8536C123.86 26.7257 123.93 26.5551 123.98 26.4776C124.034 26.4001 124.104 26.2335 124.135 26.1133C124.166 25.9893 124.235 25.8459 124.286 25.7877C124.344 25.7296 124.402 25.5978 124.425 25.4738C124.452 25.3575 124.529 25.156 124.603 25.0242C124.676 24.8925 124.738 24.7646 124.738 24.7374C124.738 24.7142 124.816 24.532 124.912 24.3344C125.009 24.1328 125.087 23.9507 125.087 23.9274C125.087 23.9042 125.145 23.7646 125.218 23.6212C125.292 23.4778 125.369 23.2802 125.396 23.1871C125.419 23.0903 125.489 22.9236 125.551 22.8189C125.613 22.7104 125.679 22.5476 125.706 22.4508C125.729 22.3539 125.795 22.2105 125.849 22.1329C125.899 22.0554 125.977 21.881 126.019 21.7454C126.062 21.6097 126.127 21.4547 126.17 21.4004C126.209 21.3423 126.282 21.1834 126.325 21.0516C126.371 20.916 126.449 20.7338 126.499 20.6485C126.545 20.5633 126.607 20.416 126.634 20.3191C126.658 20.2222 126.735 20.0478 126.801 19.9315C126.87 19.8153 126.948 19.6331 126.975 19.5246C127.002 19.4199 127.052 19.2882 127.091 19.2339C127.199 19.0711 127.246 18.9742 127.273 18.8386C127.288 18.7688 127.358 18.606 127.428 18.4781C127.497 18.3502 127.567 18.1836 127.582 18.11C127.594 18.0363 127.664 17.8774 127.737 17.7611C127.807 17.6449 127.884 17.455 127.911 17.3464C127.935 17.234 127.989 17.1023 128.024 17.0558C128.113 16.9356 128.205 16.7224 128.24 16.5597C128.256 16.486 128.318 16.3543 128.376 16.269C128.434 16.1837 128.503 16.0248 128.527 15.9124C128.554 15.8039 128.623 15.6372 128.681 15.5442C128.74 15.4512 128.809 15.2884 128.84 15.1838C128.871 15.0753 128.945 14.9125 129.003 14.8156C129.065 14.7187 129.123 14.5753 129.138 14.4939C129.15 14.4125 129.219 14.2536 129.289 14.1335C129.359 14.0172 129.444 13.8157 129.479 13.6878C129.51 13.556 129.571 13.401 129.614 13.3428C129.684 13.2459 129.924 12.5909 129.924 12.4979C129.924 12.4747 129.897 12.4282 129.862 12.3971C129.811 12.3429 129.641 12.3351 128.592 12.3351C127.683 12.3351 127.37 12.3468 127.323 12.3816C127.203 12.4785 126.983 12.8506 126.959 13.0018C126.944 13.0831 126.882 13.2266 126.82 13.3196C126.758 13.4126 126.685 13.5909 126.65 13.7149C126.619 13.8428 126.542 14.0211 126.48 14.1218C126.414 14.2187 126.352 14.3583 126.34 14.4319C126.325 14.5055 126.247 14.6954 126.166 14.8544C126.089 15.0133 125.992 15.2458 125.957 15.3659C125.922 15.4861 125.864 15.6256 125.822 15.676C125.783 15.7264 125.733 15.8465 125.706 15.9396C125.682 16.0364 125.617 16.176 125.566 16.2535C125.516 16.3271 125.439 16.517 125.396 16.6721C125.354 16.8232 125.276 17.017 125.222 17.0945C125.172 17.172 125.11 17.3232 125.083 17.4317C125.032 17.6371 124.955 17.8193 124.874 17.9162C124.847 17.9472 124.804 18.0518 124.777 18.1487C124.754 18.2456 124.68 18.4278 124.614 18.5518C124.553 18.6758 124.475 18.8657 124.44 18.9704C124.409 19.075 124.336 19.2417 124.274 19.3386C124.208 19.4393 124.146 19.5827 124.135 19.6564C124.123 19.7339 124.053 19.9005 123.984 20.0284C123.914 20.1563 123.841 20.3462 123.813 20.447C123.79 20.5517 123.724 20.7028 123.67 20.7842C123.616 20.8656 123.546 21.0322 123.515 21.1601C123.481 21.2842 123.411 21.4508 123.357 21.5361C123.307 21.6175 123.237 21.7803 123.206 21.9004C123.175 22.0206 123.105 22.1756 123.051 22.2492C122.997 22.319 122.92 22.4934 122.877 22.6368C122.838 22.7802 122.753 22.9934 122.691 23.1096C122.633 23.2259 122.567 23.3848 122.552 23.4546C122.536 23.5282 122.475 23.6677 122.416 23.7646C122.355 23.8615 122.289 24.0204 122.262 24.1173C122.238 24.2142 122.169 24.3809 122.107 24.4894C122.049 24.5979 121.971 24.7723 121.941 24.877C121.91 24.9816 121.821 25.187 121.743 25.3304C121.666 25.4777 121.604 25.6327 121.604 25.6754C121.604 25.7219 121.554 25.8381 121.496 25.935C121.434 26.0319 121.364 26.1986 121.337 26.3071C121.31 26.4117 121.24 26.59 121.178 26.6985C121.12 26.8071 121.043 26.9892 121.008 27.1016C120.973 27.2179 120.903 27.3729 120.857 27.4504C120.749 27.6132 120.675 27.8147 120.675 27.9426C120.675 28.1132 120.567 28.2643 120.447 28.2643C120.261 28.2643 120.176 28.1558 120.071 27.7876C120.017 27.5977 119.936 27.3807 119.882 27.3032C119.832 27.2256 119.766 27.0512 119.731 26.9156C119.696 26.7799 119.626 26.5978 119.576 26.5086C119.522 26.4195 119.452 26.2373 119.418 26.1056C119.387 25.9699 119.317 25.8033 119.267 25.7296C119.216 25.656 119.147 25.4777 119.112 25.3304C119.073 25.187 118.996 24.9894 118.934 24.8925C118.876 24.7956 118.806 24.6212 118.779 24.5049C118.752 24.3886 118.682 24.2103 118.62 24.1096C118.562 24.0088 118.485 23.8189 118.45 23.6832C118.415 23.5515 118.349 23.3926 118.307 23.3344C118.264 23.2724 118.199 23.0941 118.164 22.9352C118.125 22.7724 118.067 22.6135 118.036 22.5748C117.959 22.4818 117.901 22.35 117.835 22.1097C117.804 21.9973 117.738 21.8539 117.696 21.7919C117.649 21.726 117.579 21.5671 117.545 21.4314C117.506 21.2958 117.421 21.0826 117.355 20.9586C117.289 20.8307 117.223 20.6563 117.208 20.571C117.196 20.4858 117.134 20.3385 117.076 20.2416C117.018 20.1447 116.949 19.9742 116.922 19.8618C116.894 19.7455 116.825 19.5633 116.767 19.451C116.705 19.3386 116.635 19.1719 116.612 19.075C116.585 18.982 116.527 18.8231 116.473 18.7184C116.422 18.6177 116.349 18.4239 116.306 18.2882C116.264 18.1526 116.179 17.9433 116.113 17.8232C116.051 17.703 115.977 17.5053 115.954 17.3852C115.927 17.265 115.865 17.0984 115.819 17.0209C115.768 16.9434 115.699 16.7767 115.66 16.6527C115.625 16.5287 115.536 16.3194 115.467 16.1915C115.393 16.0597 115.335 15.9202 115.335 15.8775C115.335 15.8388 115.285 15.6954 115.219 15.5597C115.157 15.4241 115.076 15.2148 115.041 15.0946C115.006 14.9745 114.917 14.7613 114.847 14.6257C114.774 14.49 114.716 14.3389 114.716 14.2885C114.716 14.242 114.654 14.0831 114.577 13.9358C114.503 13.7924 114.422 13.587 114.402 13.4785C114.383 13.3738 114.325 13.2266 114.275 13.149C114.221 13.0754 114.155 12.9242 114.124 12.8118C113.981 12.3235 114.019 12.3351 112.58 12.3351C111.45 12.3351 111.403 12.339 111.357 12.4127Z" fill="white"/>
<path d="M135.782 12.37C135.678 12.3894 135.527 12.4204 135.454 12.4436C135.38 12.4669 135.14 12.525 134.916 12.5715C134.691 12.618 134.436 12.6956 134.347 12.7421C134.258 12.7924 134.091 12.8622 133.979 12.8971C133.782 12.963 133.41 13.1606 133.213 13.3118C133.159 13.3505 133.031 13.4436 132.923 13.5133C132.648 13.6994 132.172 14.1761 131.982 14.4551C131.893 14.5869 131.801 14.707 131.777 14.7226C131.754 14.7342 131.692 14.8388 131.646 14.9473C131.595 15.0597 131.514 15.2148 131.46 15.2962C131.406 15.3737 131.348 15.4938 131.332 15.5636C131.321 15.6333 131.267 15.769 131.216 15.8698C131.1 16.1023 131.065 16.2651 130.972 17.0092C130.911 17.5169 130.903 17.7069 130.93 18.0712C131.011 19.0711 131.061 19.354 131.205 19.5982C131.239 19.6641 131.286 19.7804 131.297 19.8618C131.328 20.0245 131.63 20.5594 131.847 20.8384C132.172 21.2531 132.799 21.8074 133.217 22.0477C133.681 22.3151 134.207 22.5631 134.529 22.6639C134.645 22.7027 134.823 22.7724 134.923 22.8228C135.024 22.8732 135.252 22.9468 135.434 22.9895C135.616 23.0282 135.837 23.1019 135.926 23.1445C136.015 23.191 136.185 23.2491 136.305 23.2685C136.665 23.3305 137.056 23.4274 137.164 23.4817C137.222 23.5088 137.396 23.5631 137.551 23.5979C137.845 23.6638 137.957 23.7065 138.038 23.7917C138.066 23.8189 138.178 23.8692 138.29 23.9041C138.402 23.9429 138.557 24.0204 138.63 24.0785C138.704 24.1367 138.824 24.2142 138.897 24.2491C139.122 24.3653 139.675 24.9661 139.78 25.2025C139.83 25.3188 139.911 25.4932 139.962 25.5901C140.082 25.8187 140.14 26.2916 140.14 27.0628C140.14 27.8147 140.097 28.0821 139.927 28.4038C139.853 28.5434 139.791 28.6868 139.791 28.7178C139.791 28.7953 139.404 29.3107 139.153 29.5588C138.855 29.8572 138.487 30.1246 138.267 30.2022C138.158 30.237 137.984 30.3146 137.876 30.3688C137.415 30.6052 135.786 30.613 135.275 30.3804C135.167 30.3301 134.978 30.2564 134.854 30.2215C134.73 30.1867 134.571 30.1053 134.498 30.0433C134.428 29.9812 134.355 29.9309 134.335 29.9309C134.316 29.9309 134.2 29.8417 134.08 29.7371C133.96 29.6286 133.848 29.5433 133.832 29.5433C133.821 29.5433 133.689 29.3999 133.546 29.2294C133.372 29.0201 133.259 28.8379 133.209 28.6984C133.167 28.5782 133.101 28.4465 133.062 28.4C133.023 28.3573 132.973 28.2604 132.95 28.1868C132.876 27.9581 132.776 27.1869 132.749 26.6753C132.737 26.4078 132.71 26.1598 132.694 26.121C132.617 25.9583 132.505 25.9428 131.456 25.9505L130.458 25.9583L130.369 26.0707C130.318 26.1327 130.272 26.2218 130.264 26.2644C130.253 26.3109 130.26 26.714 130.276 27.1597C130.311 28.1054 130.407 28.7526 130.555 29.0084C130.609 29.1015 130.678 29.272 130.713 29.3921C130.744 29.5084 130.81 29.6479 130.856 29.7022C130.903 29.7526 130.976 29.8727 131.019 29.9657C131.224 30.427 132.296 31.578 132.714 31.7951C132.795 31.8338 132.872 31.8842 132.884 31.9075C132.9 31.9307 133.008 31.9966 133.128 32.0586C133.248 32.1206 133.406 32.2175 133.48 32.2718C133.553 32.3261 133.643 32.3726 133.677 32.3726C133.708 32.3726 133.848 32.4268 133.979 32.4927C134.235 32.6167 134.436 32.6787 134.819 32.7601C134.947 32.7873 135.19 32.8415 135.361 32.8842C135.949 33.0353 137.477 33.0198 137.926 32.8609C138.019 32.826 138.224 32.7756 138.391 32.7408C138.553 32.7059 138.77 32.6361 138.867 32.5857C138.963 32.5353 139.153 32.4501 139.288 32.3958C139.795 32.1865 140.356 31.7951 140.894 31.2602C141.397 30.7603 141.599 30.5277 141.707 30.3184C141.742 30.2448 141.811 30.1402 141.862 30.0859C141.908 30.0316 141.97 29.927 141.993 29.8495C142.02 29.772 142.09 29.6286 142.152 29.5355C142.214 29.4425 142.291 29.2449 142.326 29.1015C142.361 28.9581 142.423 28.7526 142.465 28.6403C142.62 28.2488 142.717 27.2256 142.655 26.5977C142.57 25.6947 142.535 25.4699 142.461 25.2723C142.419 25.1599 142.357 24.9544 142.322 24.8149C142.26 24.5436 141.92 23.8072 141.815 23.7258C141.784 23.6948 141.722 23.5979 141.684 23.5088C141.626 23.377 141.258 22.9391 141.03 22.7337C140.84 22.5631 140.585 22.3655 140.492 22.319C140.434 22.288 140.36 22.2337 140.333 22.1988C140.302 22.1639 140.167 22.0748 140.027 22.0011C139.888 21.9236 139.71 21.8306 139.637 21.7919C139.25 21.5864 138.998 21.4779 138.778 21.4237C138.642 21.3888 138.449 21.319 138.34 21.2725C138.166 21.1911 137.841 21.102 137.47 21.0322C137.396 21.0206 137.261 20.9741 137.168 20.9314C137.075 20.8927 136.835 20.8229 136.63 20.7803C136.429 20.7338 136.2 20.664 136.123 20.6214C136.046 20.5788 135.856 20.5129 135.701 20.4702C135.543 20.4315 135.368 20.3656 135.31 20.3268C135.252 20.2842 135.117 20.2222 135.005 20.1873C134.896 20.1486 134.741 20.071 134.66 20.0052C134.583 19.9431 134.505 19.8928 134.49 19.8928C134.474 19.8928 134.335 19.7804 134.18 19.6447C133.929 19.4199 133.828 19.2843 133.612 18.8773C133.546 18.7533 133.426 18.1177 133.391 17.7224C133.372 17.5131 133.383 17.3735 133.426 17.2185C133.457 17.1022 133.511 16.8852 133.542 16.7379C133.573 16.5945 133.639 16.4201 133.685 16.3581C133.728 16.2922 133.813 16.1566 133.867 16.0558C133.929 15.9434 134.072 15.7884 134.238 15.6527C134.389 15.5326 134.575 15.3814 134.656 15.3155C134.741 15.2458 134.935 15.145 135.094 15.083C135.252 15.0249 135.403 14.959 135.43 14.9396C135.527 14.8582 136.003 14.8039 136.638 14.8001C137.369 14.7962 137.528 14.8272 138.069 15.0636C138.476 15.238 139.017 15.6837 139.161 15.9589C139.215 16.0635 139.3 16.2108 139.35 16.2883C139.482 16.4899 139.602 17.079 139.652 17.8115C139.691 18.3347 139.71 18.4742 139.764 18.5285C139.826 18.5866 139.942 18.5944 140.828 18.606C141.9 18.6215 142.071 18.5983 142.175 18.4394C142.222 18.3657 142.229 18.3192 142.198 18.2184C142.175 18.1487 142.148 17.8968 142.136 17.6642C142.102 17.0131 141.935 16.0364 141.827 15.8233C141.777 15.7264 141.707 15.552 141.672 15.4318C141.641 15.3117 141.587 15.1915 141.556 15.1683C141.525 15.1411 141.463 15.0404 141.417 14.9396C141.37 14.8427 141.273 14.6915 141.204 14.6024C141.134 14.5171 141.061 14.4125 141.037 14.366C140.96 14.2187 140.352 13.6063 140.209 13.5327C140.132 13.4939 140.051 13.4358 140.035 13.4048C139.989 13.3273 139.451 13.0172 139.195 12.9203C139.072 12.8738 138.874 12.7886 138.754 12.7227C138.619 12.6529 138.425 12.5948 138.244 12.5677C138.085 12.5444 137.841 12.4901 137.702 12.4436C137.489 12.3739 137.342 12.3584 136.715 12.3506C136.313 12.3467 135.891 12.3545 135.782 12.37Z" fill="white"/>
</svg>
