<svg width="418" height="26" viewBox="0 0 418 26" fill="none" xmlns="http://www.w3.org/2000/svg">
<path d="M103.662 0.371015C103.806 0.379236 103.949 0.387456 104.098 0.395926C104.254 0.405403 104.411 0.41488 104.572 0.424644C106.017 0.500455 107.459 0.540097 108.906 0.541169C109.09 0.541306 109.274 0.541442 109.464 0.541583C110.792 0.535809 112.115 0.4834 113.438 0.366133C113.994 0.32567 114.396 0.310971 114.906 0.553086C115.223 0.938406 115.239 1.1381 115.221 1.63227C115.219 1.76533 115.216 1.89839 115.214 2.03548C115.157 2.38439 115.157 2.38439 114.818 2.72337C113.699 2.72337 112.58 2.72337 111.428 2.72337C111.428 5.51998 111.428 8.31659 111.428 11.1979C114.84 11.1979 118.253 11.1979 121.769 11.1979C121.769 8.40134 121.769 5.60473 121.769 2.72337C120.594 2.72337 119.419 2.72337 118.209 2.72337C118.008 2.32233 118.017 2.06781 118.018 1.62168C118.018 1.48709 118.017 1.3525 118.017 1.21384C118.039 0.858966 118.039 0.858966 118.209 0.519983C119.04 0.337128 119.789 0.356496 120.635 0.424644C123.468 0.642052 126.334 0.577643 129.168 0.395926C130.195 0.333586 130.195 0.333586 130.754 0.519983C130.955 0.921022 130.946 1.17554 130.945 1.62168C130.945 1.75626 130.946 1.89085 130.946 2.02952C130.924 2.38439 130.924 2.38439 130.754 2.72337C129.3 2.72337 127.845 2.72337 126.346 2.72337C126.346 9.49117 126.346 16.259 126.346 23.2318C127.074 23.1759 127.801 23.12 128.55 23.0624C130.234 23.0056 130.234 23.0056 130.924 23.4013C130.933 23.6767 130.939 23.9521 130.945 24.2276C130.949 24.381 130.953 24.5344 130.957 24.6924C130.924 25.0963 130.924 25.0963 130.585 25.4352C130.074 25.476 130.074 25.476 129.41 25.4737C129.289 25.4738 129.169 25.4738 129.044 25.4739C128.644 25.4736 128.244 25.471 127.844 25.4683C127.567 25.4677 127.29 25.4672 127.013 25.4669C126.284 25.4656 125.554 25.4623 124.824 25.4585C124.08 25.455 123.336 25.4535 122.591 25.4518C121.131 25.4481 119.67 25.4424 118.209 25.4352C117.944 24.9048 117.921 24.3148 118.039 23.7403C118.398 23.2546 118.59 23.0817 119.193 22.9902C119.365 22.9965 119.536 23.0029 119.713 23.0094C119.884 23.0135 120.055 23.0177 120.231 23.022C120.747 23.062 121.259 23.1468 121.769 23.2318C121.769 20.0437 121.769 16.8556 121.769 13.5708C118.356 13.5708 114.944 13.5708 111.428 13.5708C111.428 16.759 111.428 19.9471 111.428 23.2318C111.707 23.1759 111.987 23.12 112.275 23.0624C112.645 23.0347 113.017 23.0176 113.388 23.0094C113.577 23.0031 113.766 22.9967 113.961 22.9902C114.479 23.0624 114.479 23.0624 114.882 23.361C115.324 23.9707 115.229 24.3579 115.157 25.0963C114.818 25.4352 114.818 25.4352 114.308 25.476C113.979 25.4749 113.979 25.4749 113.644 25.4737C113.463 25.4738 113.463 25.4738 113.278 25.4739C112.878 25.4736 112.478 25.471 112.078 25.4683C111.801 25.4677 111.524 25.4672 111.247 25.4669C110.517 25.4656 109.788 25.4623 109.058 25.4585C108.314 25.455 107.569 25.4535 106.825 25.4518C105.364 25.4481 103.903 25.4424 102.442 25.4352C102.442 25.3234 102.442 25.2115 102.442 25.0963C102.331 25.0963 102.219 25.0963 102.103 25.0963C102.021 24.1031 102.021 24.1031 102.103 23.7403C102.544 23.2764 102.819 23.0812 103.456 22.9902C103.636 22.9965 103.815 23.0029 104 23.0094C104.177 23.0135 104.354 23.0177 104.537 23.022C105.31 23.0725 106.08 23.1548 106.85 23.2318C106.85 16.464 106.85 9.69625 106.85 2.72337C105.396 2.72337 103.941 2.72337 102.442 2.72337C102.026 2.09843 102.051 1.76685 102.103 1.02846C102.557 0.348446 102.896 0.32229 103.662 0.371015Z" fill="white"/>
<path d="M144.488 0.42602C145.907 0.505776 147.318 0.530796 148.738 0.51871C148.928 0.517362 149.118 0.516013 149.314 0.514624C150.095 0.508545 150.876 0.501368 151.658 0.490986C155.238 0.446244 159.012 0.421378 161.778 3.06241C162.765 4.15217 163.238 5.38936 163.197 6.85875C163.071 7.74762 162.685 8.5373 162.287 9.33359C162.175 9.33359 162.063 9.33359 161.948 9.33359C161.885 9.48042 161.885 9.48042 161.821 9.6302C161.578 10.0674 161.306 10.3609 160.931 10.6895C160.819 10.6895 160.707 10.6895 160.592 10.6895C160.592 10.8014 160.592 10.9133 160.592 11.0285C159.501 11.6158 159.501 11.6158 158.388 12.215C158.58 12.3023 158.772 12.3897 158.97 12.4798C161.018 13.5123 162.248 14.968 162.965 17.1302C163.165 17.8352 163.16 18.5209 163.156 19.2488C163.156 19.3846 163.156 19.5203 163.156 19.6602C163.151 20.4475 163.111 21.2193 163.029 22.0031C162.96 22.717 162.938 23.265 163.304 23.9099C163.632 24.0908 163.632 24.0908 163.982 24.0794C164.094 24.0234 164.206 23.9675 164.321 23.9099C164.425 23.5618 164.425 23.5618 164.491 23.1577C164.623 22.4216 164.623 22.4216 164.999 22.0455C165.582 21.9819 165.582 21.9819 166.186 22.0455C166.544 22.4024 166.684 22.6193 166.737 23.1246C166.633 24.1722 166.445 24.7047 165.678 25.4353C164.909 25.9478 164.156 25.8367 163.251 25.8378C163.076 25.842 162.901 25.8461 162.72 25.8504C161.693 25.8544 161.057 25.801 160.253 25.0963C160.154 25.0144 160.056 24.9324 159.955 24.848C158.44 23.2173 158.5 21.1175 158.448 19.0266C158.415 16.5171 158.415 16.5171 157.201 14.4183C155.307 13.4644 155.307 13.4644 151.437 13.5709C151.437 16.759 151.437 19.9472 151.437 23.2319C151.996 23.176 152.556 23.12 153.132 23.0624C153.552 23.0445 153.973 23.033 154.393 23.0306C154.592 23.0282 154.791 23.0258 154.996 23.0233C155.506 23.0624 155.506 23.0624 156.014 23.4014C156.265 24.5955 156.265 24.5955 155.845 25.4353C151.425 25.4353 147.005 25.4353 142.452 25.4353C142.065 24.6617 142.088 24.3932 142.282 23.5709C142.476 23.2829 142.476 23.2829 142.791 23.0624C143.3 23.0068 143.3 23.0068 143.903 23.02C144.099 23.0227 144.295 23.0253 144.497 23.028C145.287 23.0687 146.073 23.1533 146.86 23.2319C146.86 16.4641 146.86 9.69631 146.86 2.72342C145.405 2.72342 143.95 2.72342 142.452 2.72342C142.066 1.95105 142.115 1.68113 142.282 0.859018C142.681 0.0614473 143.731 0.377074 144.488 0.42602ZM151.437 2.72342C151.437 5.6319 151.437 8.54037 151.437 11.537C154.103 11.5056 154.103 11.5056 156.502 10.5412C156.627 10.4578 156.753 10.3743 156.882 10.2883C157.222 9.99346 157.37 9.74645 157.54 9.33359C157.652 9.33359 157.764 9.33359 157.879 9.33359C158.228 8.46633 158.275 7.71069 158.271 6.79122C158.274 6.65882 158.277 6.52642 158.279 6.39C158.28 5.31015 158.048 4.60437 157.286 3.80393C155.48 2.45655 153.74 2.72342 151.437 2.72342Z" fill="white"/>
<path d="M37.7979 0.392902C39.317 0.525891 40.8186 0.525499 42.3426 0.483772C43.3111 0.469971 43.983 0.489406 44.8017 1.0285C44.8017 1.14036 44.8017 1.25222 44.8017 1.36748C44.9136 1.36748 45.0255 1.36748 45.1407 1.36748C45.4391 1.7681 45.7162 2.16782 45.9884 2.5857C46.0649 2.69986 46.1414 2.81402 46.2202 2.93163C46.6102 3.52279 46.9444 4.08247 47.1751 4.75731C47.287 4.75731 47.3989 4.75731 47.5142 4.75731C48.1923 5.65462 48.1923 5.65462 48.1923 6.28273C48.3042 6.28273 48.4161 6.28273 48.5314 6.28273C48.7411 6.52629 48.7411 6.52629 48.9724 6.86404C49.0555 6.98486 49.1385 7.10568 49.2241 7.23016C49.3102 7.35798 49.3963 7.48579 49.485 7.61748C49.5724 7.74398 49.6598 7.87048 49.7499 8.00082C50.3962 8.94959 50.3962 8.94959 50.3962 9.33358C50.5081 9.33358 50.62 9.33358 50.7353 9.33358C50.9031 9.83697 50.9031 9.83697 51.0743 10.3505C51.1862 10.3505 51.2981 10.3505 51.4134 10.3505C52.0915 11.4946 52.0915 11.4946 52.0915 11.876C52.2034 11.876 52.3153 11.876 52.4306 11.876C52.6764 12.1986 52.9073 12.5327 53.1299 12.8717C53.3141 13.149 53.3141 13.149 53.5021 13.4318C53.7868 13.9099 53.7868 13.9099 53.7868 14.2488C53.8987 14.2488 54.0106 14.2488 54.1259 14.2488C54.1819 14.4726 54.2378 14.6963 54.2954 14.9268C54.4073 14.9268 54.5192 14.9268 54.6345 14.9268C55.3126 15.8241 55.3126 15.8241 55.3126 16.4522C55.4245 16.4522 55.5364 16.4522 55.6517 16.4522C55.7076 16.5641 55.7636 16.676 55.8212 16.7912C55.8772 12.1488 55.9331 7.50646 55.9907 2.72341C54.704 2.72341 53.4173 2.72341 52.0915 2.72341C51.7053 1.95104 51.7545 1.68112 51.922 0.859004C51.9779 0.747139 52.0339 0.635275 52.0915 0.52002C52.8983 0.349387 53.6134 0.351414 54.4332 0.424682C56.6048 0.617722 58.7862 0.555829 60.9583 0.395964C61.5098 0.35802 61.9024 0.343231 62.4329 0.52002C62.6324 0.918913 62.6306 1.17775 62.6343 1.62172C62.6367 1.7563 62.6391 1.89089 62.6415 2.02955C62.6025 2.38443 62.6025 2.38443 62.2634 2.72341C61.867 2.76189 61.867 2.76189 61.3773 2.75651C61.1151 2.75488 61.1151 2.75488 60.8476 2.7532C60.6644 2.75036 60.4813 2.74752 60.2926 2.7446C60.1082 2.74307 59.9237 2.74154 59.7337 2.73996C59.2771 2.73596 58.8207 2.73038 58.3642 2.72341C58.3645 2.84015 58.3648 2.95689 58.3651 3.07716C58.3726 5.91465 58.3782 8.75213 58.3818 11.5896C58.3835 12.9618 58.3859 14.334 58.3898 15.7061C58.3931 16.9018 58.3953 18.0975 58.3961 19.2931C58.3965 19.9265 58.3976 20.5599 58.4 21.1933C58.4028 21.8995 58.4028 22.6057 58.4027 23.3119C58.4039 23.5231 58.4051 23.7342 58.4064 23.9518C58.4059 24.1433 58.4054 24.3349 58.405 24.5323C58.4053 24.6995 58.4056 24.8666 58.4059 25.0389C58.3642 25.4353 58.3642 25.4353 58.0251 25.7743C57.6212 25.8074 57.6212 25.8074 57.1563 25.7954C57.002 25.7924 56.8477 25.7893 56.6887 25.7862C56.5703 25.7822 56.4518 25.7783 56.3298 25.7743C56.2179 25.5505 56.106 25.3268 55.9907 25.0963C55.8789 25.0963 55.767 25.0963 55.6517 25.0963C55.449 24.8113 55.2606 24.5162 55.0795 24.2171C54.7691 23.7064 54.465 23.2319 54.0875 22.7678C53.7868 22.3844 53.7868 22.3844 53.7868 22.0454C53.675 22.0454 53.5631 22.0454 53.4478 22.0454C52.7697 20.9014 52.7697 20.9014 52.7697 20.52C52.6578 20.52 52.5459 20.52 52.4306 20.52C52.3187 20.1844 52.2068 19.8488 52.0915 19.5031C51.9796 19.5031 51.8677 19.5031 51.7525 19.5031C51.476 19.127 51.2201 18.7513 50.9684 18.359C50.8166 18.1261 50.6647 17.8933 50.5128 17.6605C50.3987 17.4846 50.3987 17.4846 50.2823 17.3051C50.0728 16.9846 49.8596 16.6672 49.6439 16.3509C49.4604 16.0812 49.4604 16.0812 49.2731 15.806C49.1625 15.6441 49.0519 15.4822 48.938 15.3154C48.7009 14.9268 48.7009 14.9268 48.7009 14.5878C48.589 14.5878 48.4771 14.5878 48.3618 14.5878C48.3059 14.3641 48.25 14.1404 48.1923 13.9099C48.0804 13.9099 47.9685 13.9099 47.8532 13.9099C47.5969 13.5885 47.5969 13.5885 47.3009 13.1432C47.195 12.9841 47.089 12.8251 46.9798 12.6612C46.8694 12.4929 46.759 12.3247 46.6453 12.1514C46.5337 11.9845 46.422 11.8175 46.3069 11.6455C45.4798 10.3957 45.4798 10.3957 45.4798 10.0115C45.3679 10.0115 45.256 10.0115 45.1407 10.0115C45.0289 9.67595 44.917 9.34036 44.8017 8.9946C44.6898 8.9946 44.5779 8.9946 44.4626 8.9946C44.2282 8.67819 44.0079 8.35129 43.7951 8.02002C43.4099 7.42408 43.0241 6.85098 42.5978 6.28273C42.5418 11.876 42.4859 17.4692 42.4282 23.2319C42.708 23.176 42.9877 23.12 43.2759 23.0624C43.7341 23.034 44.1844 23.0157 44.6428 23.0094C44.7626 23.0045 44.8825 22.9996 45.006 22.9945C45.5904 22.9874 45.9262 23.0181 46.4076 23.361C46.8267 23.9751 46.7373 24.3655 46.6665 25.0963C46.2139 25.5488 45.9931 25.4791 45.3606 25.4818C45.1581 25.4834 44.9556 25.4851 44.7469 25.4867C44.5272 25.4866 44.3075 25.4864 44.0812 25.4863C43.8544 25.4869 43.6277 25.4876 43.4009 25.4885C42.9255 25.4897 42.4501 25.4897 41.9746 25.4888C41.3646 25.4878 40.7546 25.4907 40.1446 25.4946C39.6763 25.4971 39.208 25.4972 38.7397 25.4967C38.4052 25.4968 38.0707 25.4992 37.7362 25.5016C37.5336 25.5005 37.3311 25.4995 37.1225 25.4984C36.8541 25.4985 36.8541 25.4985 36.5802 25.4987C36.4401 25.4778 36.3 25.4568 36.1556 25.4353C35.7351 24.8047 35.738 24.4865 35.8165 23.7404C36.0933 23.3669 36.0933 23.3669 36.4947 23.0624C36.9953 22.9902 36.9953 22.9902 37.5542 23.0094C37.7369 23.0136 37.9196 23.0177 38.1079 23.022C38.7591 23.0665 39.4071 23.1509 40.0548 23.2319C40.0548 16.4641 40.0548 9.69629 40.0548 2.72341C38.7681 2.72341 37.4813 2.72341 36.1556 2.72341C35.7351 2.0928 35.738 1.7746 35.8165 1.0285C36.3647 0.233515 36.916 0.294265 37.7979 0.392902Z" fill="white"/>
<path d="M250.729 0.117388C250.931 0.113236 251.133 0.109085 251.341 0.104808C253.249 0.0985855 254.953 0.495446 256.557 1.54747C256.734 1.6613 256.911 1.77513 257.093 1.89241C257.248 1.99882 257.404 2.10522 257.564 2.21485C257.696 2.30552 257.829 2.39619 257.966 2.48961C258.057 2.56673 258.148 2.64386 258.242 2.72332C258.242 2.83518 258.242 2.94705 258.242 3.0623C258.354 3.0623 258.466 3.0623 258.581 3.0623C258.581 3.17417 258.581 3.28603 258.581 3.40129C258.693 3.40129 258.805 3.40129 258.92 3.40129C258.92 3.51315 258.92 3.62502 258.92 3.74027C259.032 3.74027 259.144 3.74027 259.259 3.74027C259.259 3.85213 259.259 3.964 259.259 4.07925C259.371 4.07925 259.483 4.07925 259.598 4.07925C261.978 6.74135 262.661 10.5906 262.507 14.05C262.248 17.5449 260.952 20.6673 258.379 23.1047C256.153 24.9812 253.691 25.8363 250.804 25.8271C250.546 25.8312 250.546 25.8312 250.284 25.8354C247.261 25.8373 244.63 24.4665 242.465 22.4161C242.136 22.0454 242.136 22.0454 242.136 21.7064C242.024 21.7064 241.912 21.7064 241.797 21.7064C239.34 18.6738 238.858 14.7282 239.126 10.9589C239.313 9.42135 239.85 8.04154 240.441 6.62162C240.495 6.48704 240.549 6.35245 240.605 6.21379C241.287 4.67873 242.614 3.15905 244.001 2.21485C244.379 2.09964 244.379 2.09964 244.679 2.04535C244.679 1.93349 244.679 1.82162 244.679 1.70637C245.046 1.51391 245.413 1.32361 245.781 1.13434C245.883 1.08059 245.985 1.02684 246.09 0.971466C247.621 0.189682 249.031 0.119197 250.729 0.117388ZM246.375 4.07925C246.375 4.19112 246.375 4.30298 246.375 4.41824C246.263 4.41824 246.151 4.41824 246.035 4.41824C245.222 5.85538 244.791 7.20224 244.51 8.82502C244.481 8.9457 244.452 9.06639 244.422 9.19073C244.312 9.83689 244.306 10.4775 244.3 11.131C244.298 11.2731 244.297 11.4151 244.296 11.5615C244.293 11.8628 244.291 12.1641 244.29 12.4654C244.288 12.7676 244.285 13.0698 244.28 13.3719C244.227 16.525 244.592 19.3715 246.375 22.0454C246.486 22.0454 246.598 22.0454 246.714 22.0454C246.714 22.1572 246.714 22.2691 246.714 22.3843C248.468 23.6895 250.328 23.6689 252.435 23.5284C253.136 23.3668 253.718 23.0722 254.343 22.7233C254.343 22.6115 254.343 22.4996 254.343 22.3843C254.51 22.3843 254.678 22.3843 254.851 22.3843C254.851 22.2725 254.851 22.1606 254.851 22.0454C254.963 22.0454 255.075 22.0454 255.19 22.0454C257.098 19.5816 257.283 16.5086 257.269 13.5266C257.267 13.0744 257.269 12.6223 257.271 12.1702C257.273 9.43439 257.035 6.78449 255.529 4.41824C255.417 4.41824 255.305 4.41824 255.19 4.41824C255.152 4.31336 255.113 4.20849 255.074 4.10044C254.787 3.63618 254.513 3.56226 254.003 3.40129C254.003 3.28942 254.003 3.17756 254.003 3.0623C251.341 2.08647 248.482 1.87664 246.375 4.07925Z" fill="white"/>
<path d="M192.463 1.70642C192.463 1.81828 192.463 1.93015 192.463 2.0454C192.593 2.09434 192.722 2.14328 192.855 2.19371C193.311 2.38439 193.311 2.38439 193.82 2.72337C193.82 2.83523 193.82 2.9471 193.82 3.06235C193.932 3.06235 194.043 3.06235 194.159 3.06235C194.159 3.17422 194.159 3.28608 194.159 3.40133C194.271 3.40133 194.383 3.40133 194.498 3.40133C194.498 3.5132 194.498 3.62506 194.498 3.74032C194.61 3.74032 194.722 3.74032 194.837 3.74032C195.345 4.32702 195.345 4.32702 195.345 4.75727C195.457 4.75727 195.569 4.75727 195.685 4.75727C198.071 8.89209 198.561 13.1922 197.38 17.8081C197.144 18.4592 196.861 19.0637 196.532 19.6725C196.452 19.822 196.372 19.9714 196.289 20.1254C196.092 20.4855 195.891 20.8428 195.685 21.1979C195.573 21.1979 195.461 21.1979 195.345 21.1979C195.299 21.2969 195.253 21.3959 195.205 21.4979C194.194 23.4212 191.909 24.7295 189.92 25.4352C188.744 25.7827 187.602 25.831 186.382 25.8272C186.124 25.8313 186.124 25.8313 185.862 25.8355C184.119 25.8366 182.626 25.4097 181.073 24.6407C180.96 24.5864 180.847 24.5322 180.731 24.4762C180.459 24.3453 180.189 24.2125 179.918 24.0793C179.918 23.9674 179.918 23.8556 179.918 23.7403C179.731 23.6774 179.731 23.6774 179.54 23.6132C179.026 23.3812 178.732 23.1253 178.339 22.7234C178.221 22.6045 178.103 22.4857 177.981 22.3632C177.714 22.0454 177.714 22.0454 177.714 21.7064C177.602 21.7064 177.49 21.7064 177.375 21.7064C176.501 20.5001 175.828 19.2141 175.341 17.8081C175.278 17.6473 175.215 17.4865 175.15 17.3208C174.082 13.5071 174.489 9.27248 176.358 5.77422C176.984 4.78857 177.669 3.82362 178.562 3.06235C178.674 3.06235 178.786 3.06235 178.901 3.06235C178.901 2.95049 178.901 2.83862 178.901 2.72337C179.013 2.72337 179.125 2.72337 179.24 2.72337C179.24 2.6115 179.24 2.49964 179.24 2.38439C183.074 -0.362129 188.378 -0.929917 192.463 1.70642ZM181.558 4.52157C179.905 6.87938 179.805 9.81119 179.83 12.5917C179.833 13.0732 179.83 13.5544 179.825 14.0359C179.821 16.8068 180.08 19.836 181.953 22.0454C182.064 22.0454 182.176 22.0454 182.292 22.0454C182.292 22.1573 182.292 22.2691 182.292 22.3844C184.128 23.4979 185.966 23.9168 188.109 23.4437C189.811 22.8668 190.82 22.0509 191.732 20.4776C192.801 18.1084 192.868 15.5741 192.877 13.02C192.878 12.8272 192.878 12.8272 192.88 12.6306C192.895 9.75565 192.493 6.98179 191.107 4.41828C190.995 4.41828 190.883 4.41828 190.768 4.41828C190.768 4.30642 190.768 4.19455 190.768 4.0793C190.656 4.0793 190.544 4.0793 190.429 4.0793C190.429 3.96744 190.429 3.85557 190.429 3.74032C190.317 3.74032 190.205 3.74032 190.09 3.74032C190.09 3.62845 190.09 3.51659 190.09 3.40133C187.157 1.83067 183.847 1.92246 181.558 4.52157Z" fill="white"/>
<path d="M314.865 0.0962018C315.063 0.0935799 315.261 0.0909581 315.465 0.0882568C317.21 0.0959932 318.805 0.422438 320.29 1.36739C320.515 1.49619 320.515 1.49619 320.744 1.62758C320.891 1.71301 321.039 1.79844 321.191 1.88646C321.415 2.01525 321.415 2.01525 321.644 2.14665C321.757 2.22509 321.87 2.30352 321.985 2.38434C321.985 2.4962 321.985 2.60807 321.985 2.72332C322.097 2.72332 322.209 2.72332 322.325 2.72332C322.325 2.83518 322.325 2.94705 322.325 3.0623C322.436 3.0623 322.548 3.0623 322.664 3.0623C322.664 3.17417 322.664 3.28603 322.664 3.40129C322.887 3.51315 323.111 3.62502 323.342 3.74027C323.342 3.85213 323.342 3.964 323.342 4.07925C323.454 4.07925 323.565 4.07925 323.681 4.07925C325.063 5.99808 325.952 8.02776 326.393 10.3504C326.441 10.5871 326.441 10.5871 326.489 10.8285C327.018 14.7026 326.132 18.4997 323.797 21.6534C323.166 22.4334 322.451 23.1391 321.646 23.7403C321.535 23.7403 321.423 23.7403 321.307 23.7403C321.307 23.8521 321.307 23.964 321.307 24.0793C320.986 24.2421 320.665 24.4044 320.343 24.5665C320.164 24.657 319.985 24.7474 319.801 24.8406C317.181 26.1091 313.788 26.2595 311.033 25.3128C309.786 24.8371 308.68 24.1377 307.575 23.4013C307.575 23.2894 307.575 23.1776 307.575 23.0623C307.428 22.9994 307.428 22.9994 307.279 22.9352C306.841 22.6923 306.548 22.4209 306.219 22.0454C306.219 21.9335 306.219 21.8216 306.219 21.7064C306.107 21.7064 305.995 21.7064 305.88 21.7064C305.88 21.5386 305.88 21.3708 305.88 21.1979C305.768 21.1979 305.656 21.1979 305.541 21.1979C303.191 18.208 302.881 14.018 303.314 10.3892C303.508 9.06016 304.007 7.85322 304.524 6.62163C304.637 6.33929 304.75 6.05688 304.863 5.77417C304.975 5.77417 305.087 5.77417 305.202 5.77417C305.239 5.61686 305.239 5.61686 305.276 5.45637C305.371 5.0962 305.371 5.0962 305.541 4.75722C305.653 4.75722 305.765 4.75722 305.88 4.75722C305.911 4.64186 305.943 4.5265 305.975 4.40764C306.829 2.66448 309.009 1.35239 310.766 0.674277C312.157 0.213746 313.405 0.0768613 314.865 0.0962018ZM311.135 3.40129C311.135 3.51315 311.135 3.62502 311.135 3.74027C310.8 3.90807 310.8 3.90807 310.457 4.07925C310.457 4.19112 310.457 4.30298 310.457 4.41824C310.345 4.41824 310.234 4.41824 310.118 4.41824C309.118 6.14725 308.671 7.70331 308.423 9.67247C308.376 9.99332 308.376 9.99332 308.328 10.3206C307.866 14.0965 308.174 18.2148 310.118 21.5369C310.524 22.0424 310.524 22.0424 310.966 22.3843C311.106 22.5067 311.246 22.629 311.39 22.7551C312.86 23.8209 314.788 23.6437 316.518 23.5284C317.219 23.3668 317.8 23.0722 318.425 22.7233C318.425 22.6115 318.425 22.4996 318.425 22.3843C318.53 22.3424 318.635 22.3004 318.743 22.2572C319.163 22.0104 319.265 21.8118 319.442 21.3674C319.554 21.3674 319.666 21.3674 319.782 21.3674C320.178 20.7987 320.422 20.2215 320.64 19.5665C320.694 19.407 320.749 19.2476 320.805 19.0832C321.313 17.2272 321.37 15.4395 321.37 13.5254C321.371 13.0456 321.377 12.5661 321.383 12.0864C321.401 9.22003 321.14 6.0678 319.09 3.87401C317.681 2.55999 316.171 2.30446 314.292 2.32872C313.154 2.43189 312.088 2.76643 311.135 3.40129Z" fill="white"/>
<path d="M398.698 0.414049C400.63 0.528476 402.559 0.54165 404.494 0.541167C404.652 0.541278 404.81 0.541389 404.972 0.541504C406.827 0.541643 408.679 0.519421 410.532 0.463704C410.701 0.45883 410.869 0.453955 411.043 0.448932C411.855 0.425062 412.666 0.398117 413.478 0.366131C413.77 0.356644 414.062 0.347233 414.354 0.33791C414.487 0.331576 414.62 0.325243 414.758 0.318718C415.652 0.293593 415.652 0.293593 416.066 0.573733C416.37 1.05857 416.438 1.49458 416.457 2.05231C416.462 2.18922 416.467 2.32612 416.472 2.46717C416.477 2.61442 416.481 2.76167 416.486 2.91339C416.49 3.0653 416.495 3.21722 416.5 3.37374C416.51 3.695 416.519 4.01627 416.527 4.33755C416.541 4.82902 416.559 5.32028 416.576 5.81163C416.585 6.12379 416.594 6.43596 416.602 6.74813C416.608 6.89504 416.614 7.04195 416.62 7.19331C416.641 8.20309 416.641 8.20309 416.365 8.74897C416.075 8.99456 416.075 8.99456 415.482 9.06871C414.888 8.99456 414.888 8.99456 414.604 8.77715C414.216 8.27291 414.256 7.63914 414.21 7.02422C414.078 5.11165 414.078 5.11165 413.14 3.49668C412.196 2.94767 411.309 2.83912 410.233 2.82268C410.032 2.81776 410.032 2.81776 409.827 2.81274C409.402 2.80267 408.977 2.79476 408.552 2.78693C408.263 2.78045 407.973 2.77383 407.684 2.76707C406.977 2.75086 406.271 2.73659 405.564 2.72337C405.567 2.81667 405.569 2.90996 405.572 3.00608C405.598 3.97942 405.622 4.95278 405.646 5.92616C405.655 6.28916 405.664 6.65214 405.674 7.01511C405.688 7.53764 405.701 8.06018 405.713 8.58275C405.718 8.74433 405.722 8.90592 405.727 9.0724C405.731 9.22502 405.734 9.37764 405.737 9.53489C405.741 9.66813 405.744 9.80137 405.748 9.93864C405.734 10.3505 405.734 10.3505 405.564 11.3674C406.627 11.3115 407.69 11.2556 408.785 11.1979C408.785 11.0861 408.785 10.9742 408.785 10.859C408.915 10.7576 409.044 10.6562 409.177 10.5518C409.823 9.95001 409.883 9.10933 410.044 8.27687C410.142 7.80812 410.142 7.80812 410.311 7.63862C410.764 7.6147 411.214 7.63143 411.667 7.63862C411.882 8.06843 411.86 8.36977 411.862 8.85089C411.863 9.03301 411.864 9.21513 411.865 9.40277C411.865 9.60016 411.865 9.79754 411.865 10.0009C411.866 10.3037 411.866 10.3037 411.867 10.6126C411.868 11.0401 411.868 11.4675 411.868 11.8949C411.869 12.5511 411.872 13.2073 411.875 13.8635C411.875 14.2779 411.876 14.6924 411.876 15.1068C411.877 15.3042 411.878 15.5016 411.88 15.705C411.879 15.8871 411.879 16.0692 411.878 16.2569C411.878 16.4177 411.879 16.5785 411.879 16.7442C411.837 17.1301 411.837 17.1301 411.498 17.4691C410.989 17.5115 410.989 17.5115 410.481 17.4691C409.939 16.9279 409.938 16.2155 409.799 15.4796C409.615 14.8661 409.4 14.5361 408.955 14.0793C408.023 13.5588 408.023 13.5588 405.734 13.5708C405.734 16.8149 405.734 20.059 405.734 23.4013C406.674 23.3804 407.615 23.3594 408.584 23.3378C408.877 23.332 409.17 23.3263 409.471 23.3203C411.91 23.3624 411.91 23.3624 414.126 22.5433C415.113 21.3837 415.15 19.9713 415.273 18.5065C415.362 17.5038 415.362 17.5038 415.736 17.1301C416.091 17.0851 416.091 17.0851 416.499 17.0878C416.634 17.0869 416.768 17.086 416.907 17.0851C417.262 17.1301 417.262 17.1301 417.601 17.4691C417.635 17.7995 417.635 17.7995 417.624 18.2078C417.62 18.3604 417.617 18.5131 417.614 18.6704C417.608 18.8355 417.603 19.0006 417.597 19.1707C417.593 19.3395 417.588 19.5083 417.584 19.6822C417.57 20.2228 417.554 20.7633 417.537 21.3039C417.528 21.6698 417.518 22.0357 417.508 22.4016C417.484 23.2999 417.459 24.1981 417.431 25.0963C417.32 25.0963 417.208 25.0963 417.092 25.0963C417.092 25.2081 417.092 25.32 417.092 25.4352C416.613 25.675 416.238 25.6058 415.702 25.5842C415.462 25.5758 415.222 25.5675 414.983 25.5593C414.851 25.5546 414.72 25.5499 414.584 25.5451C410.702 25.41 406.82 25.4203 402.937 25.4246C402.784 25.4248 402.632 25.425 402.475 25.4251C400.566 25.4271 398.657 25.4305 396.749 25.4352C396.336 24.6594 396.399 24.2619 396.579 23.4013C397.193 22.992 397.482 23.0218 398.211 23.0306C398.409 23.0317 398.607 23.0328 398.811 23.0339C399.538 23.0657 400.263 23.1514 400.987 23.2318C400.987 16.464 400.987 9.69625 400.987 2.72337C399.588 2.72337 398.19 2.72337 396.749 2.72337C396.322 1.87008 396.373 1.60042 396.579 0.689472C397.191 0.18091 397.956 0.357759 398.698 0.414049Z" fill="white"/>
<path d="M349.216 0.0962018C349.425 0.0935799 349.634 0.0909581 349.849 0.0882568C351.588 0.0956372 353.064 0.407523 354.451 1.5051C354.839 1.82375 354.839 1.82375 355.213 2.04535C355.381 1.98942 355.549 1.93349 355.722 1.87586C355.754 1.59271 355.754 1.59271 355.786 1.30383C355.892 0.689422 355.892 0.689422 356.231 0.350439C357.458 0.253058 357.458 0.253058 357.858 0.555023C358.173 0.958642 358.161 1.20561 358.164 1.71494C358.166 1.88916 358.168 2.06339 358.17 2.2429C358.17 2.43093 358.169 2.61897 358.169 2.8127C358.17 3.006 358.171 3.1993 358.172 3.39845C358.173 3.8075 358.173 4.21655 358.171 4.62559C358.17 5.25208 358.175 5.87831 358.18 6.50477C358.18 6.9019 358.18 7.29904 358.18 7.69617C358.181 7.88387 358.183 8.07156 358.185 8.26494C358.183 8.52708 358.183 8.52708 358.181 8.79452C358.181 8.94805 358.18 9.10158 358.18 9.25977C358.067 9.8084 357.859 10.015 357.417 10.3504C356.364 10.3141 356.364 10.3141 355.892 9.84196C355.845 9.47253 355.845 9.47253 355.828 9.01569C355.722 7.57541 355.276 6.32684 354.535 5.0962C354.535 4.98434 354.535 4.87247 354.535 4.75722C354.423 4.75722 354.312 4.75722 354.196 4.75722C354.196 4.64535 354.196 4.53349 354.196 4.41824C354.084 4.41824 353.972 4.41824 353.857 4.41824C353.857 4.30637 353.857 4.19451 353.857 4.07925C353.745 4.07925 353.633 4.07925 353.518 4.07925C353.518 3.96739 353.518 3.85552 353.518 3.74027C353.182 3.6284 352.847 3.51654 352.501 3.40129C352.501 3.28942 352.501 3.17756 352.501 3.0623C352.399 3.0398 352.296 3.0173 352.191 2.99411C352.056 2.96418 351.92 2.93424 351.78 2.9034C351.647 2.87391 351.513 2.84441 351.375 2.81402C351.13 2.75841 350.886 2.69829 350.643 2.63063C348.95 2.25503 347.081 2.59527 345.616 3.50722C343.871 4.91233 343.128 7.17263 342.838 9.33349C342.497 13.1376 342.117 18.1052 344.533 21.3674C344.91 21.7423 345.299 22.0564 345.72 22.3843C345.72 22.4962 345.72 22.6081 345.72 22.7233C345.814 22.7443 345.909 22.7653 346.006 22.7869C346.398 22.8928 346.398 22.8928 346.79 23.0623C348.208 23.59 350.237 23.678 351.653 23.0623C352.551 22.5158 352.551 22.5158 353.179 21.7064C353.291 21.7064 353.403 21.7064 353.518 21.7064C353.697 20.9131 353.873 20.1194 354.037 19.3229C354.077 19.1312 354.077 19.1312 354.117 18.9356C354.222 18.3372 354.29 17.7329 354.366 17.1301C353.247 17.1301 352.128 17.1301 350.975 17.1301C350.975 17.0182 350.975 16.9064 350.975 16.7911C350.863 16.7911 350.751 16.7911 350.636 16.7911C350.618 16.5478 350.605 16.304 350.594 16.0602C350.586 15.9245 350.578 15.7888 350.57 15.649C350.636 15.2657 350.636 15.2657 350.892 14.9585C351.496 14.6706 352.034 14.749 352.681 14.8102C354.074 14.9122 355.459 14.9488 356.856 14.9479C357.052 14.9479 357.247 14.9479 357.449 14.9479C358.749 14.942 360.033 14.8867 361.326 14.7612C361.841 14.7571 362.093 14.789 362.503 15.0962C362.733 15.967 362.679 16.2679 362.334 17.1301C361.215 17.1301 360.096 17.1301 358.943 17.1301C358.943 17.5776 358.943 18.025 358.943 18.486C358.741 20.0643 358.205 21.4441 357.248 22.7233C357.136 22.7233 357.024 22.7233 356.909 22.7233C356.867 22.8282 356.825 22.9331 356.782 23.0411C356.535 23.4607 356.336 23.5625 355.892 23.7403C355.892 23.8521 355.892 23.964 355.892 24.0793C355.54 24.2692 355.186 24.4557 354.832 24.6407C354.635 24.7449 354.439 24.8491 354.236 24.9565C352.67 25.6851 351.072 25.8568 349.365 25.8377C349.189 25.8397 349.013 25.8417 348.832 25.8437C347.033 25.837 345.417 25.4463 343.812 24.6407C343.7 24.5864 343.588 24.5321 343.473 24.4762C343.204 24.3456 342.936 24.2127 342.668 24.0793C342.668 23.9674 342.668 23.8555 342.668 23.7403C342.545 23.6994 342.422 23.6586 342.295 23.6165C340.318 22.7204 339.075 20.3259 338.292 18.4119C336.826 14.2535 337.106 10.0028 338.974 6.01384C339.127 5.70544 339.286 5.4003 339.447 5.0962C339.559 5.0962 339.671 5.0962 339.786 5.0962C339.849 4.91267 339.849 4.91267 339.913 4.72544C340.146 4.20195 340.417 3.8233 340.803 3.40129C340.915 3.40129 341.027 3.40129 341.142 3.40129C341.142 3.28942 341.142 3.17756 341.142 3.0623C341.422 2.95044 341.702 2.83857 341.99 2.72332C341.99 2.61146 341.99 2.49959 341.99 2.38434C342.363 2.11731 342.732 1.8783 343.124 1.64281C343.227 1.57727 343.329 1.51172 343.435 1.44419C345.254 0.34419 347.121 0.0697421 349.216 0.0962018Z" fill="white"/>
<path d="M211.067 0.414665C212.376 0.498562 213.675 0.533845 214.987 0.52457C215.157 0.523609 215.328 0.522648 215.504 0.521657C216.205 0.517125 216.906 0.51118 217.606 0.503673C221.51 0.464779 225.567 0.437247 228.627 3.25431C230.105 4.81648 230.492 6.41062 230.464 8.52642C230.375 10.1685 229.752 11.8846 228.574 13.0623C225.485 15.6667 221.903 15.6476 218.063 15.6047C218.063 18.1216 218.063 20.6386 218.063 23.2318C218.51 23.1759 218.958 23.1199 219.419 23.0623C219.889 23.033 220.357 23.031 220.828 23.0305C220.947 23.0285 221.066 23.0264 221.189 23.0242C221.824 23.0224 222.098 23.0401 222.64 23.4013C222.89 24.5954 222.89 24.5954 222.47 25.4352C218.051 25.4352 213.631 25.4352 209.077 25.4352C208.651 24.5829 208.717 24.3123 208.908 23.4013C209.52 22.9932 209.802 23.0218 210.529 23.0305C210.823 23.0322 210.823 23.0322 211.123 23.0338C211.913 23.0675 212.699 23.1532 213.485 23.2318C213.485 16.464 213.485 9.69621 213.485 2.72332C212.031 2.72332 210.576 2.72332 209.077 2.72332C208.651 1.87004 208.702 1.60037 208.908 0.689426C209.525 0.171838 210.317 0.356085 211.067 0.414665ZM218.063 2.72332C218.063 6.30299 218.063 9.88265 218.063 13.5708C221.708 13.7866 221.708 13.7866 224.727 12.2175C225.562 11.2222 225.812 10.0968 225.861 8.82502C225.868 8.63625 225.868 8.63625 225.876 8.44366C225.882 8.06107 225.876 7.68195 225.861 7.2996C225.856 7.17178 225.851 7.04397 225.846 6.91228C225.752 5.596 225.268 4.52129 224.298 3.61316C222.557 2.38938 219.939 2.72332 218.063 2.72332Z" fill="white"/>
<path d="M13.608 0.180908C14.1674 0.180908 14.7269 0.180908 15.3033 0.180908C15.3892 0.413595 15.3892 0.413595 15.4768 0.650982C15.5524 0.852426 15.628 1.05387 15.7059 1.26142C15.7807 1.46199 15.8554 1.66256 15.9324 1.8692C16.1162 2.39191 16.1162 2.39191 16.49 2.72328C16.6263 3.04082 16.7518 3.36307 16.8714 3.68726C16.9457 3.88499 17.0201 4.08272 17.0966 4.28644C17.1358 4.39113 17.1751 4.49581 17.2155 4.60366C17.42 5.1444 17.6325 5.6819 17.8463 6.21904C17.9232 6.4135 18.0001 6.60795 18.0794 6.80829C18.288 7.32033 18.5149 7.82224 18.7462 8.32445C19.2727 9.47388 19.751 10.6426 20.2303 11.8123C20.7752 13.1405 21.323 14.466 21.915 15.7741C22.5639 17.2274 23.1862 18.6821 23.7467 20.1723C24.0132 20.8522 24.3149 21.5128 24.6249 22.1738C24.797 22.5538 24.797 22.5538 24.9666 23.0623C25.1667 23.0544 25.3669 23.0465 25.5732 23.0384C25.8372 23.0321 26.1012 23.0259 26.3652 23.0199C26.497 23.0142 26.6288 23.0085 26.7645 23.0027C27.7412 22.986 27.7412 22.986 28.2764 23.3662C28.6358 23.9033 28.5956 24.2951 28.5267 24.9267C28.4148 25.0945 28.3029 25.2623 28.1877 25.4351C27.7308 25.4986 27.7308 25.4986 27.143 25.4983C26.9235 25.4993 26.704 25.5004 26.4778 25.5014C26.2372 25.5 25.9966 25.4984 25.7559 25.4967C25.5102 25.4966 25.2644 25.4967 25.0187 25.497C24.5033 25.497 23.988 25.4952 23.4727 25.4921C22.8113 25.4883 22.1501 25.4882 21.4887 25.4893C20.9811 25.4899 20.4736 25.4888 19.966 25.4871C19.7221 25.4865 19.4783 25.4863 19.2344 25.4865C18.8939 25.4866 18.5533 25.4842 18.2128 25.4817C18.0188 25.4809 17.8248 25.4801 17.625 25.4793C17.1681 25.4351 17.1681 25.4351 16.8291 25.0962C16.7721 24.7472 16.7721 24.7472 16.7655 24.344C16.7607 24.2114 16.7559 24.0788 16.7509 23.9422C16.8291 23.5707 16.8291 23.5707 17.1191 23.2708C17.5714 23.0278 17.8447 23.0043 18.3548 23.0199C18.4982 23.0225 18.6416 23.0251 18.7893 23.0278C19.1726 23.0598 19.5099 23.134 19.8806 23.2318C19.6334 22.5997 19.3862 21.9676 19.1389 21.3356C19.069 21.1567 18.9991 20.9779 18.927 20.7937C18.8593 20.6205 18.7915 20.4474 18.7217 20.269C18.6596 20.1101 18.5974 19.9512 18.5334 19.7875C18.3625 19.353 18.1892 18.9195 18.0158 18.486C14.8269 18.486 11.638 18.486 8.3525 18.486C7.68116 20.0521 7.00981 21.6182 6.31813 23.2318C6.54191 23.1758 6.76569 23.1199 6.99625 23.0623C7.33476 23.0384 7.67412 23.025 8.01344 23.0199C8.27568 23.0133 8.27568 23.0133 8.54322 23.0067C9.09918 23.0701 9.32836 23.1625 9.70875 23.5707C9.78689 23.9422 9.78689 23.9422 9.77233 24.344C9.77014 24.4771 9.76795 24.6102 9.7657 24.7472C9.70875 25.0962 9.70875 25.0962 9.36969 25.4351C8.9878 25.4759 8.9878 25.4759 8.50639 25.4736C8.32652 25.4736 8.14666 25.4736 7.96135 25.4736C7.76656 25.4718 7.57177 25.4701 7.37107 25.4683C7.17212 25.4678 6.97316 25.4673 6.76818 25.4668C6.13074 25.4649 5.49335 25.4606 4.85592 25.4563C4.42459 25.4546 3.99325 25.4531 3.56192 25.4517C2.50278 25.448 1.44366 25.4423 0.384533 25.4351C0.384533 25.3233 0.384533 25.2114 0.384533 25.0962C0.272642 25.0962 0.160752 25.0962 0.0454705 25.0962C-0.0365678 23.8659 -0.0365678 23.8659 0.29447 23.3589C0.922624 22.9247 1.46296 22.9878 2.20699 23.0199C2.34139 23.023 2.47579 23.026 2.61427 23.0292C2.94481 23.0371 3.27524 23.0493 3.60563 23.0623C3.73183 22.7578 3.73183 22.7578 3.86059 22.4472C4.40649 21.137 4.95497 19.8311 5.56583 18.5496C6.05191 17.5291 6.48878 16.4932 6.91343 15.4458C7.18773 14.7708 7.4729 14.1045 7.78033 13.4436C8.07964 12.7995 8.33872 12.1498 8.58561 11.4839C8.97493 10.4496 9.44745 9.48191 9.95444 8.50188C10.1813 8.04951 10.3729 7.60095 10.5564 7.13006C10.6857 6.84696 10.8165 6.5645 10.9484 6.2826C11.2621 5.59875 11.5436 4.91112 11.8067 4.20633C12.3261 2.82883 12.9496 1.49725 13.608 0.180908ZM13.0994 7.29955C12.6186 8.20557 12.196 9.11305 11.8385 10.075C11.4922 11.0014 11.079 11.8689 10.6273 12.7478C10.1137 13.7817 9.73448 14.8495 9.36969 15.9436C11.8313 15.9436 14.2929 15.9436 16.8291 15.9436C16.5839 14.7183 16.0916 13.6315 15.5682 12.5008C15.1739 11.645 14.8342 10.7748 14.5013 9.89357C14.166 9.02097 13.803 8.16027 13.4384 7.29955C13.3265 7.29955 13.2147 7.29955 13.0994 7.29955Z" fill="white"/>
<path d="M72.2548 0.28705C72.4274 0.285861 72.6 0.284672 72.7777 0.283447C72.9669 0.284743 73.1561 0.286038 73.351 0.287373C73.5504 0.286754 73.7497 0.286136 73.9551 0.285498C74.5019 0.284359 75.0486 0.285501 75.5954 0.287758C76.1673 0.289675 76.7393 0.288979 77.3113 0.288648C78.2719 0.288499 79.2324 0.290377 80.193 0.293497C81.3038 0.297085 82.4146 0.29768 83.5254 0.296622C84.5936 0.295658 85.6619 0.296614 86.7301 0.298516C87.1848 0.299304 87.6396 0.299452 88.0944 0.299095C88.7292 0.299032 89.364 0.301166 89.9989 0.303925C90.1881 0.303505 90.3773 0.303085 90.5722 0.302653C90.831 0.304454 90.831 0.304454 91.0951 0.306291C91.3203 0.306813 91.3203 0.306813 91.5501 0.307346C91.9316 0.350477 91.9316 0.350477 92.4402 0.68946C92.5291 1.16723 92.5291 1.16723 92.564 1.77659C92.5778 1.99897 92.5915 2.22134 92.6056 2.45046C92.6178 2.68972 92.6297 2.92899 92.6415 3.16827C92.6548 3.40921 92.6682 3.65013 92.6817 3.89105C92.7188 4.57511 92.7499 5.25927 92.7793 5.9437C92.7865 6.11136 92.7938 6.27902 92.8013 6.45176C92.8624 8.05967 92.8624 8.05967 92.7793 8.65556C92.1542 9.07219 91.8225 9.04729 91.0839 8.99454C90.5753 8.65556 90.5753 8.65556 90.4817 8.27805C90.4674 8.12406 90.453 7.97007 90.4383 7.81142C90.4109 7.55726 90.4109 7.55726 90.383 7.29798C90.3491 6.94225 90.3155 6.5865 90.2823 6.23071C90.1686 5.1803 90.0676 4.4002 89.3886 3.57082C87.5464 2.64081 87.5464 2.64081 83.9636 2.72336C83.9636 9.49116 83.9636 16.259 83.9636 23.2318C84.2993 23.1759 84.635 23.12 84.9808 23.0623C85.5 23.0294 86.0183 23.031 86.5384 23.0306C86.6751 23.0285 86.8118 23.0264 86.9526 23.0243C87.0841 23.0239 87.2155 23.0236 87.3509 23.0233C87.4697 23.0226 87.5884 23.0219 87.7107 23.0212C88.0324 23.0623 88.0324 23.0623 88.541 23.4013C88.7914 24.5955 88.7914 24.5955 88.3714 25.4352C83.9518 25.4352 79.5321 25.4352 74.9785 25.4352C74.5522 24.5829 74.6179 24.3124 74.8089 23.4013C75.4212 22.9932 75.7034 23.0218 76.4301 23.0306C76.7241 23.0322 76.7241 23.0322 77.0241 23.0339C77.8135 23.0676 78.6001 23.1532 79.3863 23.2318C79.3863 16.464 79.3863 9.69624 79.3863 2.72336C75.8035 2.64081 75.8035 2.64081 73.9613 3.57082C72.9206 4.87803 72.9143 6.63292 72.8494 8.24309C72.8247 8.3792 72.8 8.51532 72.7746 8.65556C72.1448 9.07534 71.8237 9.08757 71.0793 8.99454C70.5058 8.35644 70.5225 7.765 70.5517 6.95292C70.5601 6.79947 70.5686 6.64602 70.5773 6.48792C70.5843 6.32856 70.5914 6.1692 70.5986 6.00501C70.6142 5.66903 70.631 5.33311 70.6492 4.99726C70.6766 4.4826 70.6984 3.96791 70.7197 3.45297C70.7355 3.12633 70.7516 2.7997 70.768 2.47309C70.7744 2.31896 70.7808 2.16482 70.7874 2.00601C70.7958 1.86287 70.8041 1.71973 70.8128 1.57226C70.8192 1.44647 70.8256 1.32068 70.8323 1.19108C71.0154 0.405661 71.5157 0.28691 72.2548 0.28705Z" fill="white"/>
<path d="M274.717 0.35444C274.928 0.36759 274.928 0.36759 275.144 0.381006C275.297 0.391903 275.45 0.4028 275.608 0.414027C277.135 0.502156 278.656 0.540943 280.185 0.541146C280.392 0.541392 280.599 0.541637 280.811 0.541891C281.813 0.538563 282.81 0.517478 283.81 0.457724C284.079 0.441952 284.079 0.441952 284.353 0.425862C284.688 0.404405 285.023 0.379702 285.357 0.351213C286.448 0.278777 286.448 0.278777 286.994 0.649064C287.334 1.19144 287.3 1.58804 287.232 2.21487C287.12 2.38267 287.008 2.55047 286.892 2.72335C285.438 2.72335 283.983 2.72335 282.485 2.72335C282.485 9.54708 282.485 16.3708 282.485 23.4013C286.522 23.5883 286.522 23.5883 291.29 22.628C292.255 21.4874 292.4 20.3299 292.457 18.8648C292.484 18.3807 292.548 17.9404 292.657 17.4691C292.768 17.4691 292.88 17.4691 292.996 17.4691C292.996 17.3572 292.996 17.2454 292.996 17.1301C293.555 17.1301 294.114 17.1301 294.691 17.1301C294.889 17.5259 294.877 17.744 294.869 18.1841C294.867 18.3318 294.865 18.4794 294.862 18.6315C294.859 18.7913 294.855 18.9511 294.852 19.1157C294.849 19.2795 294.845 19.4434 294.842 19.6122C294.835 19.9591 294.827 20.3061 294.819 20.653C294.808 21.1845 294.798 21.7161 294.789 22.2476C294.782 22.5843 294.775 22.921 294.767 23.2576C294.765 23.4171 294.762 23.5765 294.76 23.7408C294.756 23.889 294.752 24.0371 294.748 24.1898C294.745 24.3201 294.742 24.4505 294.739 24.5848C294.691 24.9267 294.691 24.9267 294.352 25.4352C293.158 25.6943 291.955 25.5851 290.742 25.5306C288.548 25.4432 286.357 25.4201 284.161 25.4246C284.007 25.4249 283.854 25.4251 283.696 25.4254C282.597 25.4275 281.497 25.4312 280.397 25.4352C279.28 25.4392 278.162 25.4427 277.045 25.4447C276.603 25.4458 276.16 25.4479 275.718 25.4501C275.451 25.4507 275.183 25.4513 274.916 25.4518C274.794 25.4526 274.672 25.4535 274.546 25.4544C273.708 25.4545 273.708 25.4545 273.33 25.2657C273.066 23.9948 273.066 23.9948 273.33 23.4013C273.866 23.0441 273.994 23.0201 274.606 23.0233C274.828 23.0238 274.828 23.0238 275.055 23.0243C275.21 23.0263 275.364 23.0284 275.523 23.0306C275.677 23.0307 275.831 23.0308 275.989 23.0309C276.676 23.0354 277.234 23.0636 277.907 23.2318C277.907 16.464 277.907 9.69623 277.907 2.72335C276.453 2.72335 274.998 2.72335 273.499 2.72335C273.155 1.86115 273.1 1.56029 273.33 0.689451C273.804 0.369873 274.155 0.313313 274.717 0.35444Z" fill="white"/>
<path d="M373.682 0.403441C375.244 0.496499 376.8 0.541981 378.365 0.541153C378.572 0.541262 378.778 0.541371 378.991 0.541484C380.466 0.535966 381.936 0.484368 383.407 0.366117C384.44 0.29775 384.44 0.29775 384.972 0.570946C385.341 0.998427 385.379 1.31627 385.39 1.8759C385.222 2.15556 385.055 2.43522 384.882 2.72336C383.427 2.72336 381.972 2.72336 380.474 2.72336C380.474 9.49115 380.474 16.2589 380.474 23.2318C381.145 23.1759 381.816 23.12 382.508 23.0623C382.875 23.0384 383.243 23.019 383.61 23.0094C383.773 23.003 383.935 22.9967 384.103 22.9902C384.673 23.0838 384.864 23.2962 385.221 23.7403C385.427 24.2754 385.426 24.4966 385.216 25.0323C384.882 25.4352 384.882 25.4352 384.321 25.5394C384.086 25.5429 383.85 25.5417 383.615 25.5368C383.487 25.5375 383.358 25.5381 383.226 25.5388C382.801 25.54 382.376 25.535 381.951 25.5299C381.656 25.5292 381.361 25.5288 381.066 25.5287C380.448 25.5277 379.83 25.5238 379.212 25.5178C378.419 25.5101 377.625 25.5076 376.832 25.507C376.223 25.5062 375.614 25.5036 375.005 25.5004C374.713 25.4989 374.42 25.4977 374.127 25.497C373.719 25.4954 373.311 25.4916 372.902 25.4872C372.781 25.487 372.659 25.4869 372.534 25.4868C371.697 25.4741 371.697 25.4741 371.319 25.0962C371.262 24.7473 371.262 24.7473 371.256 24.3441C371.251 24.2115 371.246 24.0789 371.241 23.9422C371.319 23.5708 371.319 23.5708 371.597 23.2709C372.108 23.0046 372.461 23.0061 373.036 23.02C373.304 23.0239 373.304 23.0239 373.577 23.0279C374.352 23.0707 375.124 23.1546 375.896 23.2318C375.896 16.464 375.896 9.69624 375.896 2.72336C374.498 2.72336 373.099 2.72336 371.658 2.72336C371.251 2.31599 371.265 2.19132 371.256 1.63225C371.251 1.49963 371.246 1.36701 371.241 1.23037C371.319 0.85895 371.319 0.85895 371.557 0.55307C372.258 0.230366 372.925 0.345591 373.682 0.403441Z" fill="white"/>
</svg>
