<svg width="174" height="40" viewBox="0 0 174 40" fill="none" xmlns="http://www.w3.org/2000/svg">
<path d="M23.7426 0.50996C23.4896 0.807438 23.1944 1.44489 23.0679 1.91235C22.9413 2.37981 22.4775 4.07967 22.0136 5.73704C20.7906 10.0717 19.905 14.7888 19.2302 20.7383C18.8929 23.6281 18.5555 26.0929 18.429 26.1779C17.9651 26.6454 13.7479 14.7463 12.2298 8.7118C11.302 5.0146 10.4164 1.82735 10.2899 1.65737C9.91032 1.01992 8.09694 1.2324 7.84392 1.95485C7.67523 2.33731 7.7174 4.88711 7.84392 7.64939C8.13912 12.749 7.67523 18.316 6.49442 24.0106C5.73534 27.4953 3.33156 34.8472 2.90984 34.8472C2.74115 34.8472 2.23509 34.1673 1.72904 33.3598C0.885603 31.8724 0 31.405 0 32.3824C0 33.1048 1.39166 37.482 1.81338 38.1194C2.02424 38.4169 2.69898 38.6719 3.37373 38.6719C4.42802 38.6719 4.72322 38.4169 5.31362 37.057C6.8318 33.5298 8.51866 26.0929 9.02472 20.8233C9.69947 14.1514 9.69947 14.1514 11.049 19.3359C12.6093 25.4555 17.3325 35.1872 19.1037 36.0371C20.6641 36.802 22.5618 36.3771 22.1401 35.3572C21.2967 33.3598 21.381 32.6374 22.604 31.6175C24.1222 30.3851 24.9656 30.3426 25.9355 31.4475C27.285 32.9774 29.2671 32.5949 31.3757 30.3851L33.189 28.4727L33.6951 30.1301C34.5385 33.0198 36.4363 32.8924 38.5448 29.8326C39.5569 28.3452 40.1474 27.0703 42.8042 20.6108C43.3102 19.3359 43.5633 19.081 43.8163 19.5484C44.2802 20.3559 43.2681 28.0902 42.4246 30.4701C41.7499 32.4249 42.0029 32.8924 43.6054 32.4674C44.7019 32.2124 45.2923 31.15 46.5996 27.0703C47.443 24.5205 48.0756 23.9256 48.0756 25.7529C48.0756 27.5803 49.0034 30.7675 49.6781 31.32C51.0698 32.4674 51.7445 31.9999 52.2084 29.5776C52.4615 28.3027 53.0097 26.5604 53.3892 25.6254L54.1062 24.0106L54.6544 26.7304C55.6665 31.4475 57.0582 32.7224 59.0402 30.81L60.3054 29.6201L61.1488 30.725C62.5405 32.4674 63.4261 32.5099 65.4081 30.9375C66.4203 30.1301 67.2637 29.7476 67.348 30.0026C67.4324 30.2576 67.7697 30.81 68.0649 31.235C69.0771 32.6374 70.2157 31.66 71.6917 28.1327C72.4086 26.3479 73.2099 24.6905 73.4207 24.478C73.6316 24.2231 73.8003 25.328 73.8003 27.2828C73.8003 29.7051 73.969 30.725 74.5594 31.4475C75.698 32.8924 76.5836 32.1274 78.65 27.8778C80.5056 24.0531 80.5477 24.0106 80.5899 25.7104C80.6321 28.3452 81.5177 31.065 82.4876 31.745C83.3311 32.2549 83.4997 32.2549 84.4697 31.3625C85.8192 30.1726 87.8434 26.4754 87.5061 25.9229C87 25.1155 86.4518 25.498 85.8192 27.0703C85.3131 28.3027 85.0601 28.5152 84.6384 28.0902C84.301 27.7503 84.1323 25.7529 84.1323 21.5883C84.1323 13.1739 83.6684 13.2164 79.9152 21.7583C78.8187 24.308 77.7644 26.3479 77.5957 26.3479C77.174 26.3479 76.7523 22.9482 76.7523 19.251C76.7523 14.9588 75.7823 13.1739 74.6015 15.3838C74.3063 15.8937 74.0955 17.1261 74.1377 18.0611C74.1798 19.9309 71.3122 27.0703 70.5952 26.9003C69.5831 26.6029 69.4144 22.9482 70.0892 16.5737C70.2157 15.6387 70.047 15.5113 68.7397 15.4688C64.0586 15.3413 61.2753 18.826 59.5885 26.9428C59.4198 27.8778 59.0402 28.6852 58.745 28.7702C57.9016 29.0677 57.3955 25.9654 57.3112 20.2709C57.269 16.1487 57.1003 14.8738 56.6786 14.8738C56.1304 14.8738 54.57 17.9761 52.841 22.6082C52.2506 24.2231 51.5759 25.498 51.3228 25.498C51.0276 25.498 50.9855 23.7981 51.1541 20.3559C51.4493 14.2364 51.1541 14.0664 48.7082 18.911L47.0213 22.2257L46.7683 18.6135C46.6418 16.6162 46.3887 14.7888 46.2201 14.5338C45.2079 12.834 43.3102 15.2988 40.9064 21.5458C37.5327 30.1726 36.1832 31.0225 37.364 23.7556C38.2075 18.4435 38.334 15.6387 37.7014 15.4263C37.4062 15.3413 36.6893 15.6812 36.0989 16.2337C35.1711 16.9986 34.7916 18.0186 34.0746 21.2483C33.6108 23.4581 32.9782 25.7529 32.683 26.3479C31.9239 27.7503 29.1406 31.0225 28.6345 31.0225C28.0441 31.0225 26.5681 29.4076 26.5681 28.7277C26.5681 28.3877 27.2428 27.2828 28.1285 26.2629C31.0383 22.7782 32.5565 17.4661 31.0383 16.1912C29.6466 15.0438 26.779 15.7237 25.2186 17.5936C23.5317 19.6334 22.3509 25.7529 23.1522 28.1327C23.6161 29.3651 23.5317 29.6201 22.7305 30.2576C22.2244 30.6825 21.634 31.0225 21.4232 31.0225C21.128 31.0225 21.0436 28.6427 21.2123 23.8831C21.4653 16.4887 22.5618 9.77422 24.5017 3.90969C25.3451 1.35989 25.3451 3.8147e-06 24.5439 3.8147e-06C24.333 3.8147e-06 23.9535 0.254982 23.7426 0.50996ZM29.8575 18.826C29.6466 21.4608 27.2007 26.3054 26.4416 25.5404C25.4295 24.5205 28.2128 16.5737 29.6045 16.5737C29.8997 16.5737 29.984 17.3811 29.8575 18.826ZM67.6854 17.2961C66.7998 19.6759 66.2516 23.3731 66.5046 25.6679C66.7155 27.7928 66.6311 28.2602 65.9985 28.7277C64.9443 29.5351 64.7334 29.4926 64.1852 28.3027C63.173 26.0929 63.173 23.6281 64.1008 20.8233C65.1129 17.7211 65.9564 16.5737 67.1793 16.5737C67.7697 16.5737 67.8963 16.7862 67.6854 17.2961Z" fill="white"/>
<path d="M95.7715 0.807453C95.3498 1.06243 95.2233 1.78487 95.3076 3.05977C95.645 6.75698 95.3076 11.0491 94.422 14.9588C92.5665 23.1607 89.1506 34.1673 88.2228 35.1022C87.5902 35.7396 87.4637 35.6972 86.6203 34.6347C86.0299 33.8698 85.4395 33.5298 85.0178 33.6998C84.09 34.0823 84.1743 34.5072 85.6082 37.397C86.9998 40.2018 88.0541 40.6693 89.6988 39.1394C90.964 37.9495 94.5486 25.2005 95.7715 17.5511C96.0667 15.7238 96.4041 14.1089 96.5728 13.9389C96.6993 13.7264 97.1632 16.7862 97.5849 20.7384C98.6814 31.0225 99.1453 33.3598 100.115 33.3598C100.832 33.3598 101.254 32.1274 103.194 24.8605C104.459 20.1859 105.64 15.9787 105.808 15.5113C106.019 15.0013 106.272 16.8712 106.441 20.1859C106.947 29.2377 108.254 34.4223 110.068 34.4223C110.869 34.4223 112.64 32.3824 113.188 30.8525C113.441 30.0451 113.484 30.0451 114.116 30.9375C114.96 32.1699 116.478 32.1274 117.996 30.81C118.713 30.2151 119.388 29.7476 119.556 29.7476C119.725 29.7476 120.526 30.3001 121.328 31.0225C122.087 31.7025 123.014 32.2974 123.352 32.2974C124.448 32.2974 125.966 29.5776 126.683 26.3479C127.991 20.3559 128.159 19.8459 129.129 20.1009C129.593 20.2284 130.437 20.1859 130.985 19.9734C132.166 19.506 132.376 20.1434 131.407 21.2058C130.563 22.2257 129.045 27.1553 129.045 28.8977C129.045 30.0026 129.34 30.725 130.099 31.4475C131.027 32.2974 131.238 32.3399 132.376 31.8725C133.093 31.575 134.359 30.4276 135.244 29.2377L136.847 27.1553L137.859 29.5351C138.576 31.235 139.124 31.9575 139.883 32.1274C142.034 32.6799 145.028 30.4276 147.052 26.6454C147.685 25.5405 148.317 24.648 148.528 24.648C148.697 24.648 148.866 25.9654 148.866 27.6228C148.866 30.3001 148.95 30.6401 149.92 31.2775C151.312 32.2124 151.902 31.915 154.01 29.1527C154.98 27.8778 155.95 26.9429 156.119 27.0278C156.288 27.1553 156.456 27.8778 156.456 28.6002C156.456 29.3652 156.752 30.4276 157.131 30.9375C158.101 32.3399 159.535 32.1274 161.053 30.3426L162.403 28.8127L164.047 30.3426C165.439 31.6175 166.072 31.8725 167.59 31.8725C169.909 31.8725 171.006 30.5126 170.668 28.0053C170.542 27.1128 170.542 26.3054 170.668 26.2204C170.753 26.0929 171.427 26.1779 172.144 26.3904C172.861 26.5604 173.662 26.6029 173.915 26.4329C174.169 26.3054 173.452 25.9654 172.271 25.7105C170.247 25.2855 170.12 25.158 169.403 23.1607C168.686 21.1208 168.686 18.656 169.361 16.2337C169.572 15.5113 169.445 15.2988 168.855 15.2988C168.264 15.2988 167.168 16.7862 165.017 20.4834C163.373 23.3731 161.686 26.4754 161.306 27.4103C160.716 28.9402 160.589 29.0252 160.168 28.3027C159.704 27.4953 159.957 18.6985 160.505 16.4462C160.758 15.3838 160.674 15.2988 159.493 15.2988C157.722 15.2988 157.3 16.0637 156.794 19.8459C156.33 23.2457 155.318 25.8379 153.8 27.5378C153.167 28.2602 152.83 28.3452 152.577 27.9628C151.986 26.9854 152.281 23.2032 153.251 19.336C153.8 17.2111 154.095 15.3413 153.926 15.1713C153.757 14.9588 152.956 14.8738 152.197 14.9588C150.848 15.0863 150.721 15.2138 150.004 17.6361C148.739 21.9283 147.474 24.2656 145.197 26.7304C143.046 28.9827 142.962 29.0252 142.16 28.3027C139.672 26.0079 140.136 20.3559 143.088 17.0836C143.552 16.5737 144.185 16.1487 144.522 16.1487C145.365 16.1487 145.197 18.1886 144.227 19.421C143.763 20.0159 143.51 20.6534 143.636 20.8658C144.438 22.2257 146.757 19.8034 146.757 17.5936C146.757 16.4462 146.504 16.0637 145.45 15.4688C143.805 14.6188 142.666 14.9163 140.895 16.6587C139.503 18.0186 138.787 19.3785 137.311 23.4581C136.889 24.6055 135.877 26.0504 134.907 26.9429C132.166 29.4502 131.702 28.9827 132.63 24.4781C133.389 20.7808 134.106 18.9535 135.328 17.3386C136.214 16.1912 136.214 16.1912 135.413 15.7663C134.232 15.0863 133.515 15.1713 131.828 16.1912C130.141 17.2111 129.467 16.9987 129.467 15.4688C129.467 14.6188 129.298 14.4064 128.539 14.5338C127.78 14.6188 127.485 15.2138 126.852 17.8486C125.376 23.9681 123.984 28.0478 123.394 28.0478C123.014 28.0478 122.635 27.2403 122.34 25.9229C121.707 22.9907 121.749 20.9083 122.508 18.4435C122.846 17.2961 123.141 16.1487 123.141 15.9362C123.141 15.6813 122.044 15.4688 120.695 15.4263C118.544 15.3413 118.038 15.5113 116.731 16.6162C114.875 18.1036 113.104 22.4382 112.851 26.0929C112.682 28.3877 112.092 29.7901 111.544 29.2802C111.08 28.7702 110.068 22.7357 109.646 17.5936C109.266 13.6414 109.266 10.8366 109.604 7.6494C109.815 5.2271 109.941 3.05977 109.815 2.88979C109.013 1.57239 108.086 3.31475 105.26 11.5591C103.615 16.3612 102.139 20.4834 101.971 20.6109C101.802 20.7808 101.591 20.4834 101.465 19.9309C99.1031 8.66932 98.5549 5.73706 98.3018 3.39975C98.091 1.06243 97.9223 0.637466 97.2054 0.509975C96.7415 0.46748 96.1089 0.594971 95.7715 0.807453ZM120.4 16.9562C120.526 17.3811 120.442 18.571 120.231 19.5909C120.02 20.6109 119.683 22.9482 119.556 24.733C119.345 27.1553 119.05 28.1753 118.46 28.7277C117.869 29.2802 117.49 29.3227 117.195 29.0252C116.478 28.3027 116.225 23.2881 116.773 20.9508C117.701 17.1261 119.725 14.8738 120.4 16.9562ZM166.451 24.9455C166.114 25.2855 165.523 25.498 165.144 25.413C164.596 25.328 164.638 24.9455 165.65 23.0332L166.788 20.7384L166.915 22.5657C166.999 23.7131 166.831 24.563 166.451 24.9455ZM166.746 27.0278C167.126 28.0478 167.042 29.2377 166.578 29.5351C165.945 29.9176 164.469 28.9402 164.469 28.1328C164.469 26.6029 166.24 25.7529 166.746 27.0278Z" fill="white"/>
<path d="M37.1958 10.5816C36.8584 10.7941 36.6897 11.474 36.7741 12.154C36.9427 13.6839 38.2501 13.9813 39.6839 12.7914C40.5695 12.069 40.6117 11.899 40.0634 11.3466C39.22 10.4966 37.8705 10.1567 37.1958 10.5816Z" fill="white"/>
</svg>
